<svg width="3139" height="1672" viewBox="0 0 3139 1672" fill="none" xmlns="http://www.w3.org/2000/svg">
<rect y="835.914" width="3138.27" height="617.903" rx="308.951" fill="#969696"/>
<path d="M679.191 380.951C679.191 367.187 690.349 356.029 704.113 356.029H2116.28C2173.84 356.029 2228.18 382.563 2258.99 431.177C2327.73 539.644 2442.67 752.337 2457.62 981.262C2459.38 1008.28 2437.28 1030.28 2410.2 1030.28H704.113C690.349 1030.28 679.191 1019.12 679.191 1005.36V380.951Z" fill="url(#paint0_linear)"/>
<path d="M769.398 453.956H1025.53V663.897H769.398C764.835 663.897 761.135 660.198 761.135 655.635V462.219C761.135 457.655 764.835 453.956 769.398 453.956Z" fill="white" stroke="#E39C31" stroke-width="0.270891"/>
<path d="M1054.1 453.956H1310.23V663.897H1054.1C1049.54 663.897 1045.84 660.198 1045.84 655.635V462.219C1045.84 457.655 1049.54 453.956 1054.1 453.956Z" fill="white" stroke="#E39C31" stroke-width="0.270891"/>
<path d="M1338.81 453.956H1594.94V663.897H1338.81C1334.25 663.897 1330.55 660.198 1330.55 655.635V462.219C1330.55 457.655 1334.25 453.956 1338.81 453.956Z" fill="white" stroke="#E39C31" stroke-width="0.270891"/>
<path d="M1623.52 453.956H1879.65V663.897H1623.52C1618.95 663.897 1615.26 660.198 1615.26 655.635V462.219C1615.26 457.655 1618.95 453.956 1623.52 453.956Z" fill="white" stroke="#E39C31" stroke-width="0.270891"/>
<path d="M2135.65 453.956H1927.59V663.897H2287.9C2293.9 663.897 2297.9 657.717 2295.44 652.25L2235.37 518.481C2217.73 479.217 2178.7 453.956 2135.65 453.956Z" fill="white" stroke="#E39C31" stroke-width="0.270891"/>
<line y1="1121.11" x2="3138.17" y2="1121.11" stroke="white" stroke-width="47.6505" stroke-dasharray="337.95 337.95"/>
<rect x="616" y="1097" width="1884" height="48" rx="24" fill="#545454"/>
<circle cx="966.878" cy="1030.28" r="114.587" fill="#212121"/>
<circle cx="2137.94" cy="1030.28" r="114.587" fill="#212121"/>
<circle cx="2137.94" cy="1030.28" r="54.4491" fill="#FFFBE7"/>
<circle cx="966.878" cy="1030.28" r="54.4491" fill="#FFFBE7"/>
<rect x="592.22" y="1535.07" width="2419.94" height="177.126" transform="rotate(-39.3714 592.22 1535.07)" fill="#BB1E2D"/>
<rect width="2419.94" height="177.126" transform="matrix(0.773051 0.634344 0.634344 -0.773051 562 136.927)" fill="#BB1E2D"/>
<defs>
<linearGradient id="paint0_linear" x1="1569.21" y1="356.029" x2="1569.21" y2="1722.4" gradientUnits="userSpaceOnUse">
<stop stop-color="#FFDC24"/>
<stop offset="1" stop-color="#E39C31"/>
</linearGradient>
</defs>
</svg>
