<svg width="27" height="25" viewBox="0 0 27 25" fill="none" xmlns="http://www.w3.org/2000/svg">
<circle cx="13" cy="12" r="11.1488" stroke="white" stroke-width="1.70242"/>
<path d="M11.9966 15.2617C11.9966 14.7405 12.0813 14.2844 12.2507 13.8935C12.4331 13.4896 12.6481 13.1508 12.8957 12.8771C13.1563 12.6035 13.4951 12.2777 13.9121 11.8998C14.4333 11.4437 14.8177 11.0528 15.0653 10.727C15.3129 10.3882 15.4367 9.98428 15.4367 9.51517C15.4367 8.87667 15.1891 8.36847 14.6939 7.99058C14.1987 7.59966 13.5146 7.40419 12.6416 7.40419C11.117 7.40419 9.95073 7.91891 9.14282 8.94834L7.71595 7.93194C8.26325 7.22828 8.96039 6.6875 9.80739 6.30961C10.6674 5.93172 11.6578 5.74278 12.7784 5.74278C14.1987 5.74278 15.3259 6.05551 16.1599 6.68099C16.9938 7.29343 17.4108 8.14043 17.4108 9.22198C17.4108 9.75624 17.3196 10.2319 17.1372 10.6488C16.9678 11.0528 16.7593 11.3916 16.5117 11.6652C16.2641 11.9389 15.9318 12.2647 15.5149 12.6426C14.9806 13.1247 14.5832 13.5482 14.3225 13.913C14.075 14.2779 13.9512 14.7275 13.9512 15.2617H11.9966ZM12.9934 19.6987C12.6285 19.6987 12.3223 19.5814 12.0747 19.3469C11.8402 19.0993 11.7229 18.7996 11.7229 18.4477C11.7229 18.0959 11.8402 17.8027 12.0747 17.5682C12.3223 17.3206 12.6285 17.1968 12.9934 17.1968C13.3583 17.1968 13.658 17.3206 13.8925 17.5682C14.1271 17.8027 14.2444 18.0959 14.2444 18.4477C14.2444 18.7996 14.1206 19.0993 13.873 19.3469C13.6384 19.5814 13.3452 19.6987 12.9934 19.6987Z" fill="#FFFEFE"/>
</svg>
