<svg width="28" height="25" viewBox="0 0 28 25" fill="none" xmlns="http://www.w3.org/2000/svg">
<mask id="path-1-outside-1" maskUnits="userSpaceOnUse" x="18.1787" y="1" width="6" height="9" fill="black">
<rect fill="white" x="18.1787" y="1" width="6" height="9"/>
<path d="M19.1792 2H22.8369L22.8364 7.90198L19.1787 5L19.1792 2Z"/>
</mask>
<path d="M19.1792 2V1C18.6269 1 18.1792 1.44762 18.1792 1.99985L19.1792 2ZM22.8369 2L23.8369 2.00008C23.8369 1.73485 23.7315 1.48047 23.544 1.29292C23.3565 1.10537 23.1021 1 22.8369 1V2ZM22.8364 7.90198L22.2149 8.68537L23.8363 9.97174L23.8364 7.90205L22.8364 7.90198ZM19.1787 5L18.1787 4.99985L18.1786 5.48306L18.5572 5.78339L19.1787 5ZM19.1792 3H22.8369V1H19.1792V3ZM21.8369 1.99992L21.8364 7.9019L23.8364 7.90205L23.8369 2.00008L21.8369 1.99992ZM23.4579 7.11859L19.8002 4.21661L18.5572 5.78339L22.2149 8.68537L23.4579 7.11859ZM20.1787 5.00015L20.1792 2.00015L18.1792 1.99985L18.1787 4.99985L20.1787 5.00015Z" fill="#EE1D1D" mask="url(#path-1-outside-1)"/>
<path d="M22.5 24.5H5.5V11.7708L14.032 4.65217L22.5 11.7697V24.5Z" stroke="#EE1D1D"/>
<path d="M3.5096 13.4332L14.0667 4.57476L24.6238 13.4332C25.1414 13.8675 25.913 13.8 26.3472 13.2825C26.7815 12.7649 26.714 11.9933 26.1964 11.5591L14.8595 2.04622C14.6282 1.85216 14.3462 1.7583 14.0662 1.76002C13.7866 1.75852 13.505 1.85239 13.2739 2.04622L1.93699 11.5591C1.41945 11.9933 1.35194 12.7649 1.78621 13.2825C2.22047 13.8 2.99206 13.8675 3.5096 13.4332Z" stroke="#EE1D1D"/>
</svg>
