<svg width="28" height="25" viewBox="0 0 28 25" fill="none" xmlns="http://www.w3.org/2000/svg">
<mask id="path-1-outside-1" maskUnits="userSpaceOnUse" x="18.1787" y="1" width="6" height="9" fill="black">
<rect fill="white" x="18.1787" y="1" width="6" height="9"/>
<path d="M19.1787 2H22.8364V7.26262L19.1787 4.36065V2Z"/>
</mask>
<path d="M19.1787 2V1C18.6264 1 18.1787 1.44772 18.1787 2H19.1787ZM22.8364 2H23.8364C23.8364 1.44772 23.3887 1 22.8364 1V2ZM22.8364 7.26262L22.2149 8.04601L23.8364 9.33251V7.26262H22.8364ZM19.1787 4.36065H18.1787V4.84376L18.5572 5.14404L19.1787 4.36065ZM19.1787 3H22.8364V1H19.1787V3ZM21.8364 2V7.26262H23.8364V2H21.8364ZM23.4579 6.47923L19.8002 3.57726L18.5572 5.14404L22.2149 8.04601L23.4579 6.47923ZM20.1787 4.36065V2H18.1787V4.36065H20.1787Z" fill="white" mask="url(#path-1-outside-1)"/>
<path d="M22.5 24.5H5.5V11.7708L14.032 4.65217L22.5 11.7697V24.5Z" stroke="white"/>
<path d="M3.5096 13.4332L14.0667 4.57476L24.6238 13.4332C25.1414 13.8675 25.913 13.8 26.3472 13.2825C26.7815 12.7649 26.714 11.9933 26.1964 11.5591L14.8595 2.04622C14.6282 1.85216 14.3462 1.7583 14.0662 1.76002C13.7866 1.75852 13.505 1.85239 13.2739 2.04622L1.93699 11.5591C1.41945 11.9933 1.35194 12.7649 1.78621 13.2825C2.22047 13.8 2.99206 13.8675 3.5096 13.4332Z" stroke="white"/>
</svg>
