<svg width="27" height="25" viewBox="0 0 27 25" fill="none" xmlns="http://www.w3.org/2000/svg">
<circle cx="13" cy="12" r="11.1488" stroke="white" stroke-width="1.70242"/>
<path d="M13.3651 6.33097C13.7299 6.33097 14.0231 6.44825 14.2447 6.6828C14.4662 6.91736 14.5769 7.22358 14.5769 7.60147C14.5769 7.97936 14.4271 8.30513 14.1274 8.57878C13.8407 8.83939 13.5149 8.9697 13.1501 8.9697C12.7982 8.9697 12.5116 8.85894 12.29 8.63741C12.0816 8.40286 11.9773 8.09664 11.9773 7.71875C11.9773 7.34086 12.1206 7.01509 12.4073 6.74144C12.694 6.4678 13.0132 6.33097 13.3651 6.33097ZM14.3619 11.198L14.3228 14.3644C14.3228 15.3808 14.3489 16.1301 14.401 16.6122C14.4662 17.0813 14.6356 17.5244 14.9092 17.9414C14.9092 18.0717 14.6421 18.2802 14.1078 18.5668C13.5736 18.8535 13.1175 18.9969 12.7396 18.9969C12.6223 18.9969 12.5051 18.8014 12.3878 18.4105C12.2705 18.0195 12.1923 17.6482 12.1532 17.2963C12.1272 16.9445 12.1141 15.7587 12.1141 13.7389C12.1141 11.7192 12.1597 10.6181 12.251 10.4357C12.5507 10.2011 13.0784 10.0838 13.8342 10.0838C14.1339 10.0838 14.3163 10.1229 14.3815 10.2011L14.3619 11.198Z" fill="#FFFEFE"/>
</svg>
