<svg width="1495" height="784" viewBox="0 0 1495 784" fill="none" xmlns="http://www.w3.org/2000/svg">
<path d="M190.498 302.057C217.423 284.497 217.325 247.914 213.911 231.818H281.223C278.882 271.62 295.856 295.228 304.636 302.057H190.498Z" fill="#ECBC8F"/>
<path d="M1143.45 224.82C1136.94 275.745 1114.15 320.133 1106 339.149H1422C1404.99 310.229 1387.59 262.654 1380.7 224.535C1375.64 196.582 1385.88 168.51 1384.76 140.126C1382.77 89.8317 1350.89 28 1258.61 28C1160.8 28 1137.2 88.3726 1138.23 139.863C1138.8 168.338 1147.06 196.57 1143.45 224.82Z" fill="url(#paint0_linear)"/>
<path d="M1199.5 302.057C1226.42 284.497 1226.33 247.914 1222.91 231.818H1290.22C1287.88 271.62 1304.86 295.228 1313.64 302.057H1199.5Z" fill="#ECBC8F"/>
<path d="M442.132 664.188C444.063 660.919 445.041 653.045 445.289 649.516C455.689 643.128 466.089 648.092 469.989 651.373L467.389 673.102C467.265 679.602 467.092 695.425 467.389 706.717C467.686 718.009 463.18 723.308 460.889 724.546C455.541 727.517 439.098 727.641 431.546 727.332C425.454 727.332 425.541 720.398 426.346 716.931C415.649 717.971 413.965 711.422 414.46 708.017C416.606 702.295 421.127 690.85 424.301 682.872C425.637 679.513 427.846 676.568 430.596 674.222C434.341 671.029 439.318 666.671 442.132 664.188Z" fill="#FFD9B6" stroke="#B98E66" stroke-width="0.673121"/>
<g filter="url(#filter0_d)">
<path d="M426.159 716.932C428.883 712.351 436.3 702.743 444.174 700.96C444.174 703.55 444.846 708.314 447.145 711.819M450.86 715.26C449.304 714.482 448.088 713.257 447.145 711.819M447.145 711.819H441.945C441.574 711.047 440.348 709.131 438.417 707.646" stroke="#B98E66" stroke-width="0.673121"/>
</g>
<g filter="url(#filter1_d)">
<path d="M435.818 716.746C436.87 715.508 439.569 712.808 441.946 711.917" stroke="#FFD9B6" stroke-width="0.673121"/>
</g>
<path d="M1451.13 664.188C1453.06 660.919 1454.04 653.045 1454.29 649.516C1464.69 643.128 1475.09 648.092 1478.99 651.373L1476.39 673.102C1476.27 679.602 1476.09 695.425 1476.39 706.717C1476.69 718.009 1472.18 723.308 1469.89 724.546C1464.54 727.517 1448.1 727.641 1440.55 727.332C1434.45 727.332 1434.54 720.398 1435.35 716.931C1424.65 717.971 1422.96 711.422 1423.46 708.017C1425.61 702.295 1430.13 690.85 1433.3 682.872C1434.64 679.513 1436.85 676.568 1439.6 674.222C1443.34 671.029 1448.32 666.671 1451.13 664.188Z" fill="#FFD9B6" stroke="#B98E66" stroke-width="0.673121"/>
<g filter="url(#filter2_d)">
<path d="M1435.16 716.932C1437.88 712.351 1445.3 702.743 1453.17 700.96C1453.17 703.55 1453.85 708.314 1456.15 711.819M1459.86 715.26C1458.3 714.482 1457.09 713.257 1456.15 711.819M1456.15 711.819H1450.95C1450.57 711.047 1449.35 709.131 1447.42 707.646" stroke="#B98E66" stroke-width="0.673121"/>
</g>
<g filter="url(#filter3_d)">
<path d="M1444.82 716.746C1445.87 715.508 1448.57 712.808 1450.95 711.917" stroke="#FFD9B6" stroke-width="0.673121"/>
</g>
<path d="M46.6603 666.434C44.773 663.14 43.9009 655.253 43.7008 651.722C33.3875 645.194 22.9216 650.018 18.9778 653.246L21.2852 675.008C21.3216 681.509 21.282 697.333 20.833 708.62C20.3839 719.906 24.8189 725.266 27.0926 726.535C32.4008 729.578 48.8397 729.923 56.3957 729.715C62.4866 729.797 62.4933 722.863 61.7352 719.386C72.4175 720.569 74.1893 714.043 73.7399 710.632C71.6713 704.882 67.3047 693.377 64.2381 685.357C62.947 681.98 60.7788 679.006 58.0599 676.623C54.358 673.379 49.4404 668.955 46.6603 666.434Z" fill="#FFD9B6" stroke="#B98E66" stroke-width="0.673121"/>
<g filter="url(#filter4_d)">
<path d="M61.9216 719.388C59.2596 714.77 51.9733 705.064 44.1236 703.175C44.0887 705.765 43.3522 710.519 41.0063 713.993M37.246 717.384C38.8118 716.627 40.0443 715.418 41.0063 713.993M41.0063 713.993L46.2059 714.063C46.5877 713.296 47.8391 711.397 49.7903 709.938" stroke="#B98E66" stroke-width="0.673121"/>
</g>
<g filter="url(#filter5_d)">
<path d="M52.2671 719.073C51.2314 717.821 48.5689 715.086 46.2039 714.162" stroke="#FFD9B6" stroke-width="0.673121"/>
</g>
<path d="M1055.71 666.434C1053.82 663.14 1052.95 655.253 1052.75 651.722C1042.43 645.194 1031.97 650.018 1028.02 653.246L1030.33 675.008C1030.37 681.509 1030.33 697.333 1029.88 708.62C1029.43 719.906 1033.86 725.266 1036.14 726.535C1041.45 729.578 1057.89 729.923 1065.44 729.715C1071.53 729.797 1071.54 722.863 1070.78 719.386C1081.46 720.569 1083.24 714.043 1082.79 710.632C1080.72 704.882 1076.35 693.377 1073.28 685.357C1071.99 681.98 1069.82 679.006 1067.11 676.623C1063.4 673.379 1058.49 668.955 1055.71 666.434Z" fill="#FFD9B6" stroke="#B98E66" stroke-width="0.673121"/>
<g filter="url(#filter6_d)">
<path d="M1070.97 719.388C1068.31 714.77 1061.02 705.064 1053.17 703.175C1053.13 705.765 1052.4 710.519 1050.05 713.993M1046.29 717.384C1047.86 716.627 1049.09 715.418 1050.05 713.993M1050.05 713.993L1055.25 714.063C1055.63 713.296 1056.88 711.397 1058.84 709.938" stroke="#B98E66" stroke-width="0.673121"/>
</g>
<g filter="url(#filter7_d)">
<path d="M1061.31 719.073C1060.28 717.821 1057.61 715.086 1055.25 714.162" stroke="#FFD9B6" stroke-width="0.673121"/>
</g>
<rect x="167.368" y="65" width="169.705" height="190.069" rx="84.8523" fill="#FFD9B6"/>
<rect x="1175" y="87" width="170" height="168" rx="84" fill="#FFD9B6"/>
<path d="M190.498 170.54C206.004 162.491 214.976 162.495 231.471 170.54" stroke="#9D7C27" stroke-width="2.92661"/>
<path d="M1199.5 170.54C1215 162.491 1223.98 162.495 1240.47 170.54" stroke="#9D7C27" stroke-width="2.92661"/>
<path d="M275.369 170.54C290.875 162.491 299.846 162.495 316.341 170.54" stroke="#9D7C27" stroke-width="2.92661"/>
<path d="M1284.37 170.54C1299.87 162.491 1308.85 162.495 1325.34 170.54" stroke="#9D7C27" stroke-width="2.92661"/>
<g filter="url(#filter8_d)">
<path d="M238.843 97.4685C213.499 129.944 176.096 146.52 165.284 149.058C164.887 118.126 190.743 62.4853 256.945 65.3312C319.446 68.0179 336.391 123.4 336.898 149.058C295.262 131.467 283.848 109.027 283.345 100.006C276.556 119.457 265.494 130.17 256.945 138.909C264.186 126.054 258.957 107.617 256.945 100.006C251.514 108.801 244.122 133.835 226.774 138.909C238.843 126.223 237.083 105.926 238.843 97.4685Z" fill="#490303"/>
</g>
<path d="M0 660.566C1.73984 495.084 44.9353 387.583 73.9435 338.225C87.5778 315.026 111.677 301.247 137.616 294.087C225.252 269.9 306.518 278.088 359.623 291.762C389.442 299.44 415.377 318.186 430.289 345.127C485.173 444.287 488.437 599.85 484.096 660.566H424.627C418.68 627.294 403.732 473.263 383.909 398.311C394.321 518.322 396.682 685.958 396.682 766.248C288.021 790.456 211.688 789.07 110.977 766.248C103.893 634.021 118.795 497.071 123.732 398.311C82.6422 471.097 85.0034 600.964 76.8141 660.566C45.6674 671.831 28.8903 671.309 0 660.566Z" fill="url(#paint1_linear)"/>
<path d="M1009 660.566C1010.74 495.084 1053.94 387.583 1082.94 338.225C1096.58 315.026 1120.68 301.247 1146.62 294.087C1234.25 269.9 1315.52 278.088 1368.62 291.762C1398.44 299.44 1424.38 318.186 1439.29 345.127C1494.17 444.287 1497.44 599.85 1493.1 660.566H1433.63C1427.68 627.294 1412.73 473.263 1392.91 398.311C1403.32 518.322 1405.68 685.958 1405.68 766.248C1297.02 790.456 1220.69 789.07 1119.98 766.248C1112.89 634.021 1127.8 497.071 1132.73 398.311C1091.64 471.097 1094 600.964 1085.81 660.566C1054.67 671.831 1037.89 671.309 1009 660.566Z" fill="url(#paint2_linear)"/>
<path d="M208.339 280.843C236.121 277.478 289.876 279.285 289.876 279.285L285.706 445.124L259.733 459.291L252.649 466.375L219.592 442.763L208.339 280.843Z" fill="#409AED"/>
<path d="M1217.34 280.843C1245.12 277.478 1298.88 279.285 1298.88 279.285L1294.71 445.124L1268.73 459.291L1261.65 466.375L1228.59 442.763L1217.34 280.843Z" fill="#ED4040"/>
<g filter="url(#filter9_d)">
<path d="M252.649 466.375L210.147 280.241C175.784 287.877 133.785 319.377 127.103 327.968L192.011 384.285L165.284 421.512L252.649 466.375Z" fill="#EAEAEA"/>
</g>
<g filter="url(#filter10_d)">
<path d="M1261.65 466.375L1219.15 280.241C1184.78 287.877 1142.78 319.377 1136.1 327.968L1201.01 384.285L1174.28 421.512L1261.65 466.375Z" fill="#EAEAEA"/>
</g>
<g filter="url(#filter11_d)">
<path d="M252.649 466.375L289.876 279.286C297.512 279.286 339.511 282.15 379.602 316.513L308.967 383.33L335.693 420.557L252.649 466.375Z" fill="#EAEAEA"/>
</g>
<g filter="url(#filter12_d)">
<path d="M1261.65 466.375L1298.88 279.286C1306.51 279.286 1348.51 282.15 1388.6 316.513L1317.97 383.33L1344.69 420.557L1261.65 466.375Z" fill="#EAEAEA"/>
</g>
<path d="M1342.5 190C1280.73 205.147 1204.75 196.311 1177.5 190C1182.31 214.056 1196.36 230.028 1212.28 240.708C1243.07 261.363 1286.36 260.35 1314.25 235.926C1331.96 220.429 1340.42 202.203 1342.5 190Z" fill="url(#paint3_linear)"/>
<path d="M334.981 189C272.458 204.147 196.583 195.311 169 189C175.837 228.423 206.152 248.476 232.201 256.167C247.935 260.812 264.947 259.221 280.034 252.776C319.751 235.807 335.631 201.721 334.981 189Z" fill="url(#paint4_linear)"/>
<path d="M1166 18.1412C1240.86 -5.76976 1282.4 -6.32276 1355.65 18.1412L1330.46 80.0098C1275.22 66.7224 1245.44 67.1648 1194.15 80.0098L1166 18.1412Z" fill="white"/>
<rect width="35.5599" height="9.57382" transform="matrix(-4.37114e-08 -1 -1 4.37114e-08 1265.61 56.3037)" fill="#FF2F2F"/>
<rect width="35.5599" height="9.57382" transform="matrix(1 0 0 -1 1243.05 43.3096)" fill="#FF2F2F"/>
<path d="M529.5 432.5L554.5 446.934V418.066L529.5 432.5ZM980 432.5L955 418.066V446.934L980 432.5ZM547.283 435H559.138V430H547.283V435ZM570.993 435H582.849V430H570.993V435ZM594.704 435H606.559V430H594.704V435ZM618.414 435H630.27V430H618.414V435ZM642.125 435H653.98V430H642.125V435ZM665.836 435H677.691V430H665.836V435ZM689.546 435H701.401V430H689.546V435ZM713.257 435H725.112V430H713.257V435ZM736.967 435H748.822V430H736.967V435ZM760.678 435H772.533V430H760.678V435ZM784.388 435H796.243V430H784.388V435ZM808.099 435H819.954V430H808.099V435ZM831.809 435H843.664V430H831.809V435ZM855.52 435H867.375V430H855.52V435ZM879.23 435H891.085V430H879.23V435ZM902.941 435H914.796V430H902.941V435ZM926.651 435H938.506V430H926.651V435ZM950.362 435H962.217V430H950.362V435Z" fill="#272727"/>
<path d="M662.206 352.236V394H654.45V358.739H645.62V352.236H662.206ZM728.326 394L728.266 366.317L714.544 389.227H711.084L697.361 366.675V394H689.963V352.236H696.347L712.933 379.92L729.221 352.236H735.605L735.664 394H728.326ZM776.18 378.249C776.18 378.766 776.14 379.502 776.061 380.457H751.062C751.5 382.803 752.633 384.673 754.463 386.065C756.332 387.417 758.639 388.093 761.384 388.093C764.884 388.093 767.768 386.94 770.035 384.633L774.032 389.227C772.6 390.937 770.79 392.23 768.603 393.105C766.415 393.98 763.949 394.418 761.205 394.418C757.704 394.418 754.622 393.722 751.957 392.329C749.292 390.937 747.224 389.008 745.752 386.542C744.32 384.036 743.604 381.212 743.604 378.07C743.604 374.968 744.3 372.183 745.692 369.717C747.124 367.212 749.093 365.263 751.599 363.87C754.105 362.478 756.929 361.782 760.071 361.782C763.174 361.782 765.938 362.478 768.364 363.87C770.83 365.223 772.739 367.152 774.092 369.658C775.484 372.124 776.18 374.988 776.18 378.249ZM760.071 367.749C757.685 367.749 755.656 368.464 753.986 369.896C752.355 371.288 751.36 373.158 751.002 375.505H769.08C768.762 373.198 767.787 371.328 766.157 369.896C764.526 368.464 762.497 367.749 760.071 367.749ZM802.495 392.27C801.62 392.986 800.546 393.523 799.274 393.881C798.04 394.239 796.728 394.418 795.336 394.418C791.836 394.418 789.131 393.503 787.222 391.673C785.312 389.844 784.358 387.179 784.358 383.678V368.345H779.108V362.379H784.358V355.1H791.816V362.379H800.347V368.345H791.816V383.499C791.816 385.051 792.194 386.244 792.949 387.079C793.705 387.875 794.799 388.272 796.231 388.272C797.901 388.272 799.293 387.835 800.407 386.96L802.495 392.27ZM837.532 378.249C837.532 378.766 837.492 379.502 837.413 380.457H812.414C812.852 382.803 813.985 384.673 815.815 386.065C817.684 387.417 819.991 388.093 822.736 388.093C826.236 388.093 829.12 386.94 831.387 384.633L835.384 389.227C833.952 390.937 832.143 392.23 829.955 393.105C827.767 393.98 825.301 394.418 822.557 394.418C819.057 394.418 815.974 393.722 813.309 392.329C810.644 390.937 808.576 389.008 807.104 386.542C805.672 384.036 804.956 381.212 804.956 378.07C804.956 374.968 805.652 372.183 807.045 369.717C808.476 367.212 810.445 365.263 812.951 363.87C815.457 362.478 818.281 361.782 821.423 361.782C824.526 361.782 827.29 362.478 829.716 363.87C832.182 365.223 834.092 367.152 835.444 369.658C836.836 372.124 837.532 374.988 837.532 378.249ZM821.423 367.749C819.037 367.749 817.008 368.464 815.338 369.896C813.707 371.288 812.712 373.158 812.355 375.505H830.432C830.114 373.198 829.14 371.328 827.509 369.896C825.878 368.464 823.849 367.749 821.423 367.749ZM851.796 366.794C853.943 363.453 857.722 361.782 863.131 361.782V368.882C862.495 368.763 861.918 368.703 861.401 368.703C858.498 368.703 856.231 369.558 854.6 371.269C852.969 372.939 852.154 375.365 852.154 378.547V394H844.696V362.14H851.796V366.794Z" fill="#272727"/>
<defs>
<filter id="filter0_d" x="414.164" y="700.539" width="48.553" height="39.9778" filterUnits="userSpaceOnUse" color-interpolation-filters="sRGB">
<feFlood flood-opacity="0" result="BackgroundImageFix"/>
<feColorMatrix in="SourceAlpha" type="matrix" values="0 0 0 0 0 0 0 0 0 0 0 0 0 0 0 0 0 0 127 0"/>
<feOffset dy="11.7065"/>
<feGaussianBlur stdDeviation="5.85323"/>
<feColorMatrix type="matrix" values="0 0 0 0 0 0 0 0 0 0 0 0 0 0 0 0 0 0 0.25 0"/>
<feBlend mode="normal" in2="BackgroundImageFix" result="effect1_dropShadow"/>
<feBlend mode="normal" in="SourceGraphic" in2="effect1_dropShadow" result="shape"/>
</filter>
<filter id="filter1_d" x="423.855" y="711.602" width="29.9162" height="28.7746" filterUnits="userSpaceOnUse" color-interpolation-filters="sRGB">
<feFlood flood-opacity="0" result="BackgroundImageFix"/>
<feColorMatrix in="SourceAlpha" type="matrix" values="0 0 0 0 0 0 0 0 0 0 0 0 0 0 0 0 0 0 127 0"/>
<feOffset dy="11.7065"/>
<feGaussianBlur stdDeviation="5.85323"/>
<feColorMatrix type="matrix" values="0 0 0 0 0 0 0 0 0 0 0 0 0 0 0 0 0 0 0.25 0"/>
<feBlend mode="normal" in2="BackgroundImageFix" result="effect1_dropShadow"/>
<feBlend mode="normal" in="SourceGraphic" in2="effect1_dropShadow" result="shape"/>
</filter>
<filter id="filter2_d" x="1423.16" y="700.539" width="48.553" height="39.9778" filterUnits="userSpaceOnUse" color-interpolation-filters="sRGB">
<feFlood flood-opacity="0" result="BackgroundImageFix"/>
<feColorMatrix in="SourceAlpha" type="matrix" values="0 0 0 0 0 0 0 0 0 0 0 0 0 0 0 0 0 0 127 0"/>
<feOffset dy="11.7065"/>
<feGaussianBlur stdDeviation="5.85323"/>
<feColorMatrix type="matrix" values="0 0 0 0 0 0 0 0 0 0 0 0 0 0 0 0 0 0 0.25 0"/>
<feBlend mode="normal" in2="BackgroundImageFix" result="effect1_dropShadow"/>
<feBlend mode="normal" in="SourceGraphic" in2="effect1_dropShadow" result="shape"/>
</filter>
<filter id="filter3_d" x="1432.85" y="711.602" width="29.9162" height="28.7746" filterUnits="userSpaceOnUse" color-interpolation-filters="sRGB">
<feFlood flood-opacity="0" result="BackgroundImageFix"/>
<feColorMatrix in="SourceAlpha" type="matrix" values="0 0 0 0 0 0 0 0 0 0 0 0 0 0 0 0 0 0 127 0"/>
<feOffset dy="11.7065"/>
<feGaussianBlur stdDeviation="5.85323"/>
<feColorMatrix type="matrix" values="0 0 0 0 0 0 0 0 0 0 0 0 0 0 0 0 0 0 0.25 0"/>
<feBlend mode="normal" in2="BackgroundImageFix" result="effect1_dropShadow"/>
<feBlend mode="normal" in="SourceGraphic" in2="effect1_dropShadow" result="shape"/>
</filter>
<filter id="filter4_d" x="25.3932" y="702.75" width="48.5265" height="40.2193" filterUnits="userSpaceOnUse" color-interpolation-filters="sRGB">
<feFlood flood-opacity="0" result="BackgroundImageFix"/>
<feColorMatrix in="SourceAlpha" type="matrix" values="0 0 0 0 0 0 0 0 0 0 0 0 0 0 0 0 0 0 127 0"/>
<feOffset dy="11.7065"/>
<feGaussianBlur stdDeviation="5.85323"/>
<feColorMatrix type="matrix" values="0 0 0 0 0 0 0 0 0 0 0 0 0 0 0 0 0 0 0.25 0"/>
<feBlend mode="normal" in2="BackgroundImageFix" result="effect1_dropShadow"/>
<feBlend mode="normal" in="SourceGraphic" in2="effect1_dropShadow" result="shape"/>
</filter>
<filter id="filter5_d" x="34.3751" y="713.849" width="29.8578" height="28.8516" filterUnits="userSpaceOnUse" color-interpolation-filters="sRGB">
<feFlood flood-opacity="0" result="BackgroundImageFix"/>
<feColorMatrix in="SourceAlpha" type="matrix" values="0 0 0 0 0 0 0 0 0 0 0 0 0 0 0 0 0 0 127 0"/>
<feOffset dy="11.7065"/>
<feGaussianBlur stdDeviation="5.85323"/>
<feColorMatrix type="matrix" values="0 0 0 0 0 0 0 0 0 0 0 0 0 0 0 0 0 0 0.25 0"/>
<feBlend mode="normal" in2="BackgroundImageFix" result="effect1_dropShadow"/>
<feBlend mode="normal" in="SourceGraphic" in2="effect1_dropShadow" result="shape"/>
</filter>
<filter id="filter6_d" x="1034.44" y="702.75" width="48.5265" height="40.2193" filterUnits="userSpaceOnUse" color-interpolation-filters="sRGB">
<feFlood flood-opacity="0" result="BackgroundImageFix"/>
<feColorMatrix in="SourceAlpha" type="matrix" values="0 0 0 0 0 0 0 0 0 0 0 0 0 0 0 0 0 0 127 0"/>
<feOffset dy="11.7065"/>
<feGaussianBlur stdDeviation="5.85323"/>
<feColorMatrix type="matrix" values="0 0 0 0 0 0 0 0 0 0 0 0 0 0 0 0 0 0 0.25 0"/>
<feBlend mode="normal" in2="BackgroundImageFix" result="effect1_dropShadow"/>
<feBlend mode="normal" in="SourceGraphic" in2="effect1_dropShadow" result="shape"/>
</filter>
<filter id="filter7_d" x="1043.42" y="713.849" width="29.8578" height="28.8516" filterUnits="userSpaceOnUse" color-interpolation-filters="sRGB">
<feFlood flood-opacity="0" result="BackgroundImageFix"/>
<feColorMatrix in="SourceAlpha" type="matrix" values="0 0 0 0 0 0 0 0 0 0 0 0 0 0 0 0 0 0 127 0"/>
<feOffset dy="11.7065"/>
<feGaussianBlur stdDeviation="5.85323"/>
<feColorMatrix type="matrix" values="0 0 0 0 0 0 0 0 0 0 0 0 0 0 0 0 0 0 0.25 0"/>
<feBlend mode="normal" in2="BackgroundImageFix" result="effect1_dropShadow"/>
<feBlend mode="normal" in="SourceGraphic" in2="effect1_dropShadow" result="shape"/>
</filter>
<filter id="filter8_d" x="165.28" y="65.2261" width="171.619" height="88.3361" filterUnits="userSpaceOnUse" color-interpolation-filters="sRGB">
<feFlood flood-opacity="0" result="BackgroundImageFix"/>
<feColorMatrix in="SourceAlpha" type="matrix" values="0 0 0 0 0 0 0 0 0 0 0 0 0 0 0 0 0 0 127 0"/>
<feOffset dy="4.5047"/>
<feColorMatrix type="matrix" values="0 0 0 0 0.195833 0 0 0 0 0.0236632 0 0 0 0 0.0236632 0 0 0 0.17 0"/>
<feBlend mode="normal" in2="BackgroundImageFix" result="effect1_dropShadow"/>
<feBlend mode="normal" in="SourceGraphic" in2="effect1_dropShadow" result="shape"/>
</filter>
<filter id="filter9_d" x="121.376" y="276.423" width="140.818" height="201.406" filterUnits="userSpaceOnUse" color-interpolation-filters="sRGB">
<feFlood flood-opacity="0" result="BackgroundImageFix"/>
<feColorMatrix in="SourceAlpha" type="matrix" values="0 0 0 0 0 0 0 0 0 0 0 0 0 0 0 0 0 0 127 0"/>
<feOffset dx="1.90906" dy="3.81812"/>
<feGaussianBlur stdDeviation="3.81812"/>
<feColorMatrix type="matrix" values="0 0 0 0 0 0 0 0 0 0 0 0 0 0 0 0 0 0 0.25 0"/>
<feBlend mode="normal" in2="BackgroundImageFix" result="effect1_dropShadow"/>
<feBlend mode="normal" in="SourceGraphic" in2="effect1_dropShadow" result="shape"/>
</filter>
<filter id="filter10_d" x="1130.38" y="276.423" width="140.818" height="201.406" filterUnits="userSpaceOnUse" color-interpolation-filters="sRGB">
<feFlood flood-opacity="0" result="BackgroundImageFix"/>
<feColorMatrix in="SourceAlpha" type="matrix" values="0 0 0 0 0 0 0 0 0 0 0 0 0 0 0 0 0 0 127 0"/>
<feOffset dx="1.90906" dy="3.81812"/>
<feGaussianBlur stdDeviation="3.81812"/>
<feColorMatrix type="matrix" values="0 0 0 0 0 0 0 0 0 0 0 0 0 0 0 0 0 0 0.25 0"/>
<feBlend mode="normal" in2="BackgroundImageFix" result="effect1_dropShadow"/>
<feBlend mode="normal" in="SourceGraphic" in2="effect1_dropShadow" result="shape"/>
</filter>
<filter id="filter11_d" x="243.104" y="275.468" width="142.225" height="202.361" filterUnits="userSpaceOnUse" color-interpolation-filters="sRGB">
<feFlood flood-opacity="0" result="BackgroundImageFix"/>
<feColorMatrix in="SourceAlpha" type="matrix" values="0 0 0 0 0 0 0 0 0 0 0 0 0 0 0 0 0 0 127 0"/>
<feOffset dx="-1.90906" dy="3.81812"/>
<feGaussianBlur stdDeviation="3.81812"/>
<feColorMatrix type="matrix" values="0 0 0 0 0 0 0 0 0 0 0 0 0 0 0 0 0 0 0.25 0"/>
<feBlend mode="normal" in2="BackgroundImageFix" result="effect1_dropShadow"/>
<feBlend mode="normal" in="SourceGraphic" in2="effect1_dropShadow" result="shape"/>
</filter>
<filter id="filter12_d" x="1252.1" y="275.468" width="142.225" height="202.361" filterUnits="userSpaceOnUse" color-interpolation-filters="sRGB">
<feFlood flood-opacity="0" result="BackgroundImageFix"/>
<feColorMatrix in="SourceAlpha" type="matrix" values="0 0 0 0 0 0 0 0 0 0 0 0 0 0 0 0 0 0 127 0"/>
<feOffset dx="-1.90906" dy="3.81812"/>
<feGaussianBlur stdDeviation="3.81812"/>
<feColorMatrix type="matrix" values="0 0 0 0 0 0 0 0 0 0 0 0 0 0 0 0 0 0 0.25 0"/>
<feBlend mode="normal" in2="BackgroundImageFix" result="effect1_dropShadow"/>
<feBlend mode="normal" in="SourceGraphic" in2="effect1_dropShadow" result="shape"/>
</filter>
<linearGradient id="paint0_linear" x1="1268.98" y1="28" x2="1268.98" y2="339.149" gradientUnits="userSpaceOnUse">
<stop stop-color="#834827"/>
<stop offset="0.944575" stop-color="#2E1508"/>
</linearGradient>
<linearGradient id="paint1_linear" x1="242.723" y1="278.643" x2="242.723" y2="783.888" gradientUnits="userSpaceOnUse">
<stop stop-color="white"/>
<stop offset="1" stop-color="#F1F1F1"/>
</linearGradient>
<linearGradient id="paint2_linear" x1="1251.72" y1="278.643" x2="1251.72" y2="783.888" gradientUnits="userSpaceOnUse">
<stop stop-color="white"/>
<stop offset="1" stop-color="#F1F1F1"/>
</linearGradient>
<linearGradient id="paint3_linear" x1="1259.9" y1="190" x2="1259.9" y2="261.164" gradientUnits="userSpaceOnUse">
<stop stop-color="#3EFFE8"/>
<stop offset="1" stop-color="#1DD8C0"/>
</linearGradient>
<linearGradient id="paint4_linear" x1="251.898" y1="189" x2="251.898" y2="260.164" gradientUnits="userSpaceOnUse">
<stop stop-color="#3EFFE8"/>
<stop offset="1" stop-color="#1DD8C0"/>
</linearGradient>
</defs>
</svg>
