<svg width="3021" height="2526" viewBox="0 0 3021 2526" fill="none" xmlns="http://www.w3.org/2000/svg">
<path d="M1070.74 851.037C1047.19 1035.19 964.783 1195.7 935.312 1264.47H2114.05C2036.58 1160.17 1962.38 987.693 1932.15 849.631C1910.18 749.287 1947.4 647.412 1943.34 544.77C1936.16 362.898 1820.89 139.305 1487.18 139.305C1133.49 139.305 1048.12 357.621 1051.87 543.819C1053.94 646.789 1083.81 748.878 1070.74 851.037Z" fill="url(#paint0_linear)"/>
<g filter="url(#filter0_i)">
<path d="M1331.8 921.556C1382.76 1013 1353.03 1123.97 1331.8 1168.02H1663.99C1609.38 1110.87 1641.24 979.897 1663.99 921.556C1535.98 963.458 1463.2 962.059 1331.8 921.556Z" fill="#FFD9B6"/>
</g>
<path d="M672.766 1628.81C790.64 1291.26 983.525 1080.51 1079.97 1076.94H1353.22C1477.53 1154.1 1599.69 1109.09 1637.19 1076.94H1867.58C2178.1 1076.94 2315.55 1465.66 2338.57 1619.94C2338.93 1622.36 2338.97 1624.68 2338.77 1627.11L2338.6 1629.08C2285.02 1752.31 2153.34 1819.91 2103.33 1837.77L2081.9 1639.52C2030.46 1810.98 1985.46 2084.23 2081.9 2453.93C1631.83 2577.16 1215.7 2518.22 967.451 2453.93C1026.39 2116.38 997.813 1816.33 967.451 1639.52L919.23 1837.77C812.072 1790.62 708.485 1687.74 672.766 1628.81Z" fill="url(#paint1_linear)"/>
<g filter="url(#filter1_ii)">
<path d="M1353.22 1071.58C1455.03 1141.23 1577.78 1121.26 1637.19 1076.94L1497.89 1719.89L1492.53 1725.25L1353.22 1071.58Z" fill="#ED4040"/>
</g>
<path d="M385.935 1248.86C296.952 1243.53 269.794 1113.25 267.338 1048.78L299.543 1023.09L473.544 977.022L492.584 867.439C502.832 893.551 520.334 990.495 527.804 1035.7C595.493 1223.95 461.428 1256.24 385.935 1248.86Z" fill="#FFD9B6"/>
<g filter="url(#filter2_di)">
<rect x="255.013" y="962.996" width="62.9837" height="137.964" rx="31.4918" transform="rotate(-6.94547 255.013 962.996)" fill="#FFD9B6"/>
</g>
<g filter="url(#filter3_i)">
<rect x="461.774" y="763.718" width="67.5602" height="236.363" rx="33.7801" transform="rotate(5.55453 461.774 763.718)" fill="#FFD9B6"/>
</g>
<g filter="url(#filter4_i)">
<rect x="310.723" y="796.07" width="68.3958" height="236.363" rx="34.1979" transform="rotate(-19.4455 310.723 796.07)" fill="#FFD9B6"/>
</g>
<path d="M388.529 979.595L430.297 963.678L441.289 995.812C445.286 1007.5 439.121 1020.4 427.519 1024.63V1024.63C415.908 1028.86 403.254 1022.8 399.267 1011.11L388.529 979.595Z" fill="#FFD9B6"/>
<g filter="url(#filter5_di)">
<rect x="312.384" y="937.878" width="62.9837" height="155.96" rx="31.4918" transform="rotate(-6.94547 312.384 937.878)" fill="#FFD9B6"/>
</g>
<path d="M453.232 960.987L500.284 966.049L495.981 1015.3C494.843 1028.32 483.389 1037.74 470.396 1036.34V1036.34C457.403 1034.94 447.792 1023.26 448.93 1010.24L453.232 960.987Z" fill="#FFD9B6"/>
<g filter="url(#filter6_di)">
<path d="M498.657 1017.06C564.667 1040.48 558.75 1103.33 545.014 1136.15C468.591 1163.58 456.317 1127.31 459.733 1105.75C461.77 1072.87 414.886 1072.44 391.189 1076.33C363.797 1076.78 352.843 1063.93 349.706 1049.6C346.159 1033.41 362.48 1022.06 379.013 1020.85C394.706 1019.69 409 1018.04 421.25 1016.29C447.112 1012.58 474.034 1008.33 498.657 1017.06Z" fill="#FFD9B6"/>
</g>
<path d="M2634.6 1246.93C2723.58 1241.61 2750.74 1111.33 2753.19 1046.85L2720.99 1021.17L2546.99 975.096L2527.95 865.513C2517.7 891.625 2500.2 988.569 2492.73 1033.78C2425.04 1222.03 2559.1 1254.32 2634.6 1246.93Z" fill="#FFD9B6"/>
<g filter="url(#filter7_di)">
<rect width="62.9837" height="137.964" rx="31.4918" transform="matrix(-0.992662 -0.120925 -0.120925 0.992662 2765.51 961.069)" fill="#FFD9B6"/>
</g>
<g filter="url(#filter8_i)">
<rect width="67.5602" height="236.363" rx="33.7801" transform="matrix(-0.995305 0.096793 0.096793 0.995305 2558.75 761.792)" fill="#FFD9B6"/>
</g>
<g filter="url(#filter9_i)">
<rect width="68.3958" height="236.363" rx="34.1979" transform="matrix(-0.942959 -0.33291 -0.33291 0.942959 2709.81 794.143)" fill="#FFD9B6"/>
</g>
<path d="M2632 977.669L2590.23 961.751L2579.24 993.885C2575.24 1005.57 2581.41 1018.47 2593.01 1022.7V1022.7C2604.62 1026.93 2617.27 1020.88 2621.26 1009.18L2632 977.669Z" fill="#FFD9B6"/>
<g filter="url(#filter10_di)">
<rect width="62.9837" height="155.96" rx="31.4918" transform="matrix(-0.992662 -0.120925 -0.120925 0.992662 2708.14 935.952)" fill="#FFD9B6"/>
</g>
<path d="M2567.29 959.061L2520.24 964.123L2524.54 1013.37C2525.68 1026.39 2537.14 1035.81 2550.13 1034.42V1034.42C2563.12 1033.02 2572.73 1021.33 2571.59 1008.31L2567.29 959.061Z" fill="#FFD9B6"/>
<g filter="url(#filter11_di)">
<path d="M2521.87 1015.13C2455.86 1038.55 2461.77 1101.4 2475.51 1134.21C2551.93 1161.65 2564.21 1125.38 2560.79 1103.81C2558.75 1070.94 2605.64 1070.5 2629.33 1074.4C2656.73 1074.84 2667.68 1061.99 2670.82 1047.67C2674.36 1031.47 2658.04 1020.13 2641.51 1018.91C2625.82 1017.76 2611.52 1016.11 2599.27 1014.35C2573.41 1010.65 2546.49 1006.4 2521.87 1015.13Z" fill="#FFD9B6"/>
</g>
<path d="M549.536 1210.5C621.14 1720 666.849 1699.57 672.769 1628.8L919.233 1837.76C876.766 1933.05 820.11 1985.31 767.168 2016.66C682.166 2066.98 566.071 2098.32 491.821 2033.61C467.464 2012.39 447.165 1982.87 435.299 1944.31C400.709 1831.93 332.06 1465.66 313.788 1237.67C405.013 1204.69 456.516 1198.44 549.536 1210.5Z" fill="url(#paint2_linear)"/>
<g filter="url(#filter12_d)">
<path d="M1492.53 1725.25L1353.23 1071.58C1233.55 1098.17 1076.45 1207.87 1053.18 1237.79L1279.23 1433.92L1186.15 1563.57L1492.53 1725.25Z" fill="#EAEAEA"/>
</g>
<g filter="url(#filter13_d)">
<path d="M1492.53 1725.25L1637.2 1076.94C1663.79 1076.94 1824.41 1081.56 1964.03 1201.23L1718.04 1433.93L1811.12 1563.57L1492.53 1725.25Z" fill="#EAEAEA"/>
</g>
<path d="M2457.75 1214.75C2386.15 1724.24 2344.53 1699.84 2338.61 1629.07L2104.13 1836.26C2138.45 1928.67 2192.18 1988.91 2243.68 2029.28C2321.44 2090.24 2431.88 2120.94 2510.23 2061.26C2544.49 2035.16 2573.69 1998.49 2587.53 1953.53C2622.12 1841.14 2696.66 1474.88 2714.93 1246.89C2615.98 1201.62 2559.54 1197.2 2457.75 1214.75Z" fill="url(#paint3_linear)"/>
<rect x="1181.78" y="332.185" width="632.234" height="685.814" rx="310.759" fill="#FFD9B6"/>
<path d="M1160.34 65.6012C1431.06 -20.8644 1581.28 -22.8641 1846.16 65.6012L1755.07 289.328C1555.31 241.279 1447.63 242.878 1262.14 289.328L1160.34 65.6012Z" fill="white"/>
<rect width="128.59" height="34.6204" transform="matrix(-4.37114e-08 -1 -1 4.37114e-08 1520.56 203.599)" fill="#FF2F2F"/>
<rect width="128.59" height="34.6204" transform="matrix(1 0 0 -1 1438.95 156.61)" fill="#FF2F2F"/>
<path d="M1806.35 774.57C1574.1 829.216 1292.26 797.339 1189.79 774.57C1215.6 919.102 1331.47 991.472 1429.25 1018.21C1484.87 1033.41 1544.4 1027.94 1597.9 1006.43C1748.62 945.846 1808.79 820.913 1806.35 774.57Z" fill="url(#paint4_linear)"/>
<path d="M1271.16 630.047C1327.23 600.942 1359.67 600.956 1419.32 630.047" stroke="#723E21" stroke-width="10.5831"/>
<path d="M1578.06 630.047C1634.13 600.942 1666.57 600.956 1726.22 630.047" stroke="#723E21" stroke-width="10.5831"/>
<path d="M1144.44 599.197C1070.72 582.744 1025.88 560.996 1025.88 537.151C1025.88 524.151 1032.58 513.33 1057.57 503.511" stroke="#121C43" stroke-width="20.9954"/>
<path d="M1847.52 610.104C1921.23 593.652 1992.01 560.996 1992.01 537.151C1992.01 524.151 1961.23 513.33 1936.24 503.511" stroke="#121C43" stroke-width="20.9954"/>
<path d="M1139.79 496.069C1149.66 393.809 1235.59 315.774 1338.33 315.774H1660.46C1761.84 315.774 1847.09 391.821 1858.62 492.541L1917.45 1006.31C1931 1124.68 1838.43 1228.46 1719.29 1228.46H1288.74C1171.01 1228.46 1078.89 1127.02 1090.2 1009.84L1139.79 496.069Z" fill="#E9E9E9" fill-opacity="0.35"/>
<path d="M1185.6 388.275C1431.85 427.901 1569.91 429.756 1816.15 391.622C1841.76 417.084 1856.16 460.298 1861.92 509.274C1613.81 553.637 1398.88 549.088 1138.82 506.393C1145.86 450.987 1155.05 424.276 1185.6 388.275Z" fill="#4C6CE0"/>
<path d="M1088.31 1027.4L1750.02 337.581C1791.38 358.978 1811.22 378.133 1839.93 426.693L1127.49 1145.53C1102.61 1112.48 1092.84 1088.23 1088.31 1027.4Z" fill="white" fill-opacity="0.35"/>
<line x1="1546.08" y1="1131.74" x2="1815.29" y2="848.425" stroke="white" stroke-opacity="0.35" stroke-width="19.7604" stroke-linecap="round"/>
<defs>
<filter id="filter0_i" x="1331.8" y="921.556" width="332.191" height="289.328" filterUnits="userSpaceOnUse" color-interpolation-filters="sRGB">
<feFlood flood-opacity="0" result="BackgroundImageFix"/>
<feBlend mode="normal" in="SourceGraphic" in2="BackgroundImageFix" result="shape"/>
<feColorMatrix in="SourceAlpha" type="matrix" values="0 0 0 0 0 0 0 0 0 0 0 0 0 0 0 0 0 0 127 0" result="hardAlpha"/>
<feOffset dy="75.0109"/>
<feGaussianBlur stdDeviation="21.4317"/>
<feComposite in2="hardAlpha" operator="arithmetic" k2="-1" k3="1"/>
<feColorMatrix type="matrix" values="0 0 0 0 0.829167 0 0 0 0 0.681851 0 0 0 0 0.545868 0 0 0 1 0"/>
<feBlend mode="normal" in2="shape" result="effect1_innerShadow"/>
</filter>
<filter id="filter1_ii" x="1345.62" y="1071.58" width="299.179" height="653.666" filterUnits="userSpaceOnUse" color-interpolation-filters="sRGB">
<feFlood flood-opacity="0" result="BackgroundImageFix"/>
<feBlend mode="normal" in="SourceGraphic" in2="BackgroundImageFix" result="shape"/>
<feColorMatrix in="SourceAlpha" type="matrix" values="0 0 0 0 0 0 0 0 0 0 0 0 0 0 0 0 0 0 127 0" result="hardAlpha"/>
<feOffset dx="7.60479"/>
<feGaussianBlur stdDeviation="15.2096"/>
<feComposite in2="hardAlpha" operator="arithmetic" k2="-1" k3="1"/>
<feColorMatrix type="matrix" values="0 0 0 0 0.380392 0 0 0 0 0.0235294 0 0 0 0 0.0235294 0 0 0 0.49 0"/>
<feBlend mode="normal" in2="shape" result="effect1_innerShadow"/>
<feColorMatrix in="SourceAlpha" type="matrix" values="0 0 0 0 0 0 0 0 0 0 0 0 0 0 0 0 0 0 127 0" result="hardAlpha"/>
<feOffset dx="-7.60479"/>
<feGaussianBlur stdDeviation="15.2096"/>
<feComposite in2="hardAlpha" operator="arithmetic" k2="-1" k3="1"/>
<feColorMatrix type="matrix" values="0 0 0 0 0.379167 0 0 0 0 0.0221181 0 0 0 0 0.0221181 0 0 0 0.49 0"/>
<feBlend mode="normal" in2="effect1_innerShadow" result="effect2_innerShadow"/>
</filter>
<filter id="filter2_di" x="258.586" y="958.954" width="72.0571" height="149.417" filterUnits="userSpaceOnUse" color-interpolation-filters="sRGB">
<feFlood flood-opacity="0" result="BackgroundImageFix"/>
<feColorMatrix in="SourceAlpha" type="matrix" values="0 0 0 0 0 0 0 0 0 0 0 0 0 0 0 0 0 0 127 0"/>
<feMorphology radius="11.9969" operator="erode" in="SourceAlpha" result="effect1_dropShadow"/>
<feOffset dy="11.9969"/>
<feGaussianBlur stdDeviation="5.99845"/>
<feColorMatrix type="matrix" values="0 0 0 0 0 0 0 0 0 0 0 0 0 0 0 0 0 0 0.25 0"/>
<feBlend mode="normal" in2="BackgroundImageFix" result="effect1_dropShadow"/>
<feBlend mode="normal" in="SourceGraphic" in2="effect1_dropShadow" result="shape"/>
<feColorMatrix in="SourceAlpha" type="matrix" values="0 0 0 0 0 0 0 0 0 0 0 0 0 0 0 0 0 0 127 0" result="hardAlpha"/>
<feMorphology radius="2.99922" operator="erode" in="SourceAlpha" result="effect2_innerShadow"/>
<feOffset/>
<feGaussianBlur stdDeviation="5.99845"/>
<feComposite in2="hardAlpha" operator="arithmetic" k2="-1" k3="1"/>
<feColorMatrix type="matrix" values="0 0 0 0 0 0 0 0 0 0 0 0 0 0 0 0 0 0 0.25 0"/>
<feBlend mode="normal" in2="shape" result="effect2_innerShadow"/>
</filter>
<filter id="filter3_i" x="442.005" y="766.827" width="83.9039" height="235.575" filterUnits="userSpaceOnUse" color-interpolation-filters="sRGB">
<feFlood flood-opacity="0" result="BackgroundImageFix"/>
<feBlend mode="normal" in="SourceGraphic" in2="BackgroundImageFix" result="shape"/>
<feColorMatrix in="SourceAlpha" type="matrix" values="0 0 0 0 0 0 0 0 0 0 0 0 0 0 0 0 0 0 127 0" result="hardAlpha"/>
<feMorphology radius="2.99922" operator="erode" in="SourceAlpha" result="effect1_innerShadow"/>
<feOffset/>
<feGaussianBlur stdDeviation="5.99845"/>
<feComposite in2="hardAlpha" operator="arithmetic" k2="-1" k3="1"/>
<feColorMatrix type="matrix" values="0 0 0 0 0 0 0 0 0 0 0 0 0 0 0 0 0 0 0.25 0"/>
<feBlend mode="normal" in2="shape" result="effect1_innerShadow"/>
</filter>
<filter id="filter4_i" x="320.147" y="782.725" width="124.332" height="226.8" filterUnits="userSpaceOnUse" color-interpolation-filters="sRGB">
<feFlood flood-opacity="0" result="BackgroundImageFix"/>
<feBlend mode="normal" in="SourceGraphic" in2="BackgroundImageFix" result="shape"/>
<feColorMatrix in="SourceAlpha" type="matrix" values="0 0 0 0 0 0 0 0 0 0 0 0 0 0 0 0 0 0 127 0" result="hardAlpha"/>
<feMorphology radius="2.99922" operator="erode" in="SourceAlpha" result="effect1_innerShadow"/>
<feOffset/>
<feGaussianBlur stdDeviation="5.99845"/>
<feComposite in2="hardAlpha" operator="arithmetic" k2="-1" k3="1"/>
<feColorMatrix type="matrix" values="0 0 0 0 0 0 0 0 0 0 0 0 0 0 0 0 0 0 0.25 0"/>
<feBlend mode="normal" in2="shape" result="effect1_innerShadow"/>
</filter>
<filter id="filter5_di" x="315.958" y="933.835" width="74.2332" height="167.281" filterUnits="userSpaceOnUse" color-interpolation-filters="sRGB">
<feFlood flood-opacity="0" result="BackgroundImageFix"/>
<feColorMatrix in="SourceAlpha" type="matrix" values="0 0 0 0 0 0 0 0 0 0 0 0 0 0 0 0 0 0 127 0"/>
<feMorphology radius="11.9969" operator="erode" in="SourceAlpha" result="effect1_dropShadow"/>
<feOffset dy="11.9969"/>
<feGaussianBlur stdDeviation="5.99845"/>
<feColorMatrix type="matrix" values="0 0 0 0 0 0 0 0 0 0 0 0 0 0 0 0 0 0 0.25 0"/>
<feBlend mode="normal" in2="BackgroundImageFix" result="effect1_dropShadow"/>
<feBlend mode="normal" in="SourceGraphic" in2="effect1_dropShadow" result="shape"/>
<feColorMatrix in="SourceAlpha" type="matrix" values="0 0 0 0 0 0 0 0 0 0 0 0 0 0 0 0 0 0 127 0" result="hardAlpha"/>
<feMorphology radius="2.99922" operator="erode" in="SourceAlpha" result="effect2_innerShadow"/>
<feOffset/>
<feGaussianBlur stdDeviation="5.99845"/>
<feComposite in2="hardAlpha" operator="arithmetic" k2="-1" k3="1"/>
<feColorMatrix type="matrix" values="0 0 0 0 0 0 0 0 0 0 0 0 0 0 0 0 0 0 0.25 0"/>
<feBlend mode="normal" in2="shape" result="effect2_innerShadow"/>
</filter>
<filter id="filter6_di" x="337.219" y="1011.92" width="228.597" height="158.081" filterUnits="userSpaceOnUse" color-interpolation-filters="sRGB">
<feFlood flood-opacity="0" result="BackgroundImageFix"/>
<feColorMatrix in="SourceAlpha" type="matrix" values="0 0 0 0 0 0 0 0 0 0 0 0 0 0 0 0 0 0 127 0"/>
<feOffset dy="11.9969"/>
<feGaussianBlur stdDeviation="5.99845"/>
<feColorMatrix type="matrix" values="0 0 0 0 0 0 0 0 0 0 0 0 0 0 0 0 0 0 0.25 0"/>
<feBlend mode="normal" in2="BackgroundImageFix" result="effect1_dropShadow"/>
<feBlend mode="normal" in="SourceGraphic" in2="effect1_dropShadow" result="shape"/>
<feColorMatrix in="SourceAlpha" type="matrix" values="0 0 0 0 0 0 0 0 0 0 0 0 0 0 0 0 0 0 127 0" result="hardAlpha"/>
<feOffset/>
<feGaussianBlur stdDeviation="7.49806"/>
<feComposite in2="hardAlpha" operator="arithmetic" k2="-1" k3="1"/>
<feColorMatrix type="matrix" values="0 0 0 0 0 0 0 0 0 0 0 0 0 0 0 0 0 0 0.25 0"/>
<feBlend mode="normal" in2="shape" result="effect2_innerShadow"/>
</filter>
<filter id="filter7_di" x="2689.88" y="957.027" width="72.0571" height="149.417" filterUnits="userSpaceOnUse" color-interpolation-filters="sRGB">
<feFlood flood-opacity="0" result="BackgroundImageFix"/>
<feColorMatrix in="SourceAlpha" type="matrix" values="0 0 0 0 0 0 0 0 0 0 0 0 0 0 0 0 0 0 127 0"/>
<feMorphology radius="11.9969" operator="erode" in="SourceAlpha" result="effect1_dropShadow"/>
<feOffset dy="11.9969"/>
<feGaussianBlur stdDeviation="5.99845"/>
<feColorMatrix type="matrix" values="0 0 0 0 0 0 0 0 0 0 0 0 0 0 0 0 0 0 0.25 0"/>
<feBlend mode="normal" in2="BackgroundImageFix" result="effect1_dropShadow"/>
<feBlend mode="normal" in="SourceGraphic" in2="effect1_dropShadow" result="shape"/>
<feColorMatrix in="SourceAlpha" type="matrix" values="0 0 0 0 0 0 0 0 0 0 0 0 0 0 0 0 0 0 127 0" result="hardAlpha"/>
<feMorphology radius="2.99922" operator="erode" in="SourceAlpha" result="effect2_innerShadow"/>
<feOffset/>
<feGaussianBlur stdDeviation="5.99845"/>
<feComposite in2="hardAlpha" operator="arithmetic" k2="-1" k3="1"/>
<feColorMatrix type="matrix" values="0 0 0 0 0 0 0 0 0 0 0 0 0 0 0 0 0 0 0.25 0"/>
<feBlend mode="normal" in2="shape" result="effect2_innerShadow"/>
</filter>
<filter id="filter8_i" x="2494.62" y="764.9" width="83.9039" height="235.575" filterUnits="userSpaceOnUse" color-interpolation-filters="sRGB">
<feFlood flood-opacity="0" result="BackgroundImageFix"/>
<feBlend mode="normal" in="SourceGraphic" in2="BackgroundImageFix" result="shape"/>
<feColorMatrix in="SourceAlpha" type="matrix" values="0 0 0 0 0 0 0 0 0 0 0 0 0 0 0 0 0 0 127 0" result="hardAlpha"/>
<feMorphology radius="2.99922" operator="erode" in="SourceAlpha" result="effect1_innerShadow"/>
<feOffset/>
<feGaussianBlur stdDeviation="5.99845"/>
<feComposite in2="hardAlpha" operator="arithmetic" k2="-1" k3="1"/>
<feColorMatrix type="matrix" values="0 0 0 0 0 0 0 0 0 0 0 0 0 0 0 0 0 0 0.25 0"/>
<feBlend mode="normal" in2="shape" result="effect1_innerShadow"/>
</filter>
<filter id="filter9_i" x="2576.05" y="780.798" width="124.332" height="226.8" filterUnits="userSpaceOnUse" color-interpolation-filters="sRGB">
<feFlood flood-opacity="0" result="BackgroundImageFix"/>
<feBlend mode="normal" in="SourceGraphic" in2="BackgroundImageFix" result="shape"/>
<feColorMatrix in="SourceAlpha" type="matrix" values="0 0 0 0 0 0 0 0 0 0 0 0 0 0 0 0 0 0 127 0" result="hardAlpha"/>
<feMorphology radius="2.99922" operator="erode" in="SourceAlpha" result="effect1_innerShadow"/>
<feOffset/>
<feGaussianBlur stdDeviation="5.99845"/>
<feComposite in2="hardAlpha" operator="arithmetic" k2="-1" k3="1"/>
<feColorMatrix type="matrix" values="0 0 0 0 0 0 0 0 0 0 0 0 0 0 0 0 0 0 0.25 0"/>
<feBlend mode="normal" in2="shape" result="effect1_innerShadow"/>
</filter>
<filter id="filter10_di" x="2630.33" y="931.909" width="74.2332" height="167.281" filterUnits="userSpaceOnUse" color-interpolation-filters="sRGB">
<feFlood flood-opacity="0" result="BackgroundImageFix"/>
<feColorMatrix in="SourceAlpha" type="matrix" values="0 0 0 0 0 0 0 0 0 0 0 0 0 0 0 0 0 0 127 0"/>
<feMorphology radius="11.9969" operator="erode" in="SourceAlpha" result="effect1_dropShadow"/>
<feOffset dy="11.9969"/>
<feGaussianBlur stdDeviation="5.99845"/>
<feColorMatrix type="matrix" values="0 0 0 0 0 0 0 0 0 0 0 0 0 0 0 0 0 0 0.25 0"/>
<feBlend mode="normal" in2="BackgroundImageFix" result="effect1_dropShadow"/>
<feBlend mode="normal" in="SourceGraphic" in2="effect1_dropShadow" result="shape"/>
<feColorMatrix in="SourceAlpha" type="matrix" values="0 0 0 0 0 0 0 0 0 0 0 0 0 0 0 0 0 0 127 0" result="hardAlpha"/>
<feMorphology radius="2.99922" operator="erode" in="SourceAlpha" result="effect2_innerShadow"/>
<feOffset/>
<feGaussianBlur stdDeviation="5.99845"/>
<feComposite in2="hardAlpha" operator="arithmetic" k2="-1" k3="1"/>
<feColorMatrix type="matrix" values="0 0 0 0 0 0 0 0 0 0 0 0 0 0 0 0 0 0 0.25 0"/>
<feBlend mode="normal" in2="shape" result="effect2_innerShadow"/>
</filter>
<filter id="filter11_di" x="2454.71" y="1009.99" width="228.597" height="158.081" filterUnits="userSpaceOnUse" color-interpolation-filters="sRGB">
<feFlood flood-opacity="0" result="BackgroundImageFix"/>
<feColorMatrix in="SourceAlpha" type="matrix" values="0 0 0 0 0 0 0 0 0 0 0 0 0 0 0 0 0 0 127 0"/>
<feOffset dy="11.9969"/>
<feGaussianBlur stdDeviation="5.99845"/>
<feColorMatrix type="matrix" values="0 0 0 0 0 0 0 0 0 0 0 0 0 0 0 0 0 0 0.25 0"/>
<feBlend mode="normal" in2="BackgroundImageFix" result="effect1_dropShadow"/>
<feBlend mode="normal" in="SourceGraphic" in2="effect1_dropShadow" result="shape"/>
<feColorMatrix in="SourceAlpha" type="matrix" values="0 0 0 0 0 0 0 0 0 0 0 0 0 0 0 0 0 0 127 0" result="hardAlpha"/>
<feOffset/>
<feGaussianBlur stdDeviation="7.49806"/>
<feComposite in2="hardAlpha" operator="arithmetic" k2="-1" k3="1"/>
<feColorMatrix type="matrix" values="0 0 0 0 0 0 0 0 0 0 0 0 0 0 0 0 0 0 0.25 0"/>
<feBlend mode="normal" in2="shape" result="effect2_innerShadow"/>
</filter>
<filter id="filter12_d" x="1031.75" y="1060.86" width="482.213" height="696.529" filterUnits="userSpaceOnUse" color-interpolation-filters="sRGB">
<feFlood flood-opacity="0" result="BackgroundImageFix"/>
<feColorMatrix in="SourceAlpha" type="matrix" values="0 0 0 0 0 0 0 0 0 0 0 0 0 0 0 0 0 0 127 0"/>
<feOffset dy="10.7158"/>
<feGaussianBlur stdDeviation="10.7158"/>
<feColorMatrix type="matrix" values="0 0 0 0 0 0 0 0 0 0 0 0 0 0 0 0 0 0 0.25 0"/>
<feBlend mode="normal" in2="BackgroundImageFix" result="effect1_dropShadow"/>
<feBlend mode="normal" in="SourceGraphic" in2="effect1_dropShadow" result="shape"/>
</filter>
<filter id="filter13_d" x="1471.1" y="1066.23" width="514.36" height="691.172" filterUnits="userSpaceOnUse" color-interpolation-filters="sRGB">
<feFlood flood-opacity="0" result="BackgroundImageFix"/>
<feColorMatrix in="SourceAlpha" type="matrix" values="0 0 0 0 0 0 0 0 0 0 0 0 0 0 0 0 0 0 127 0"/>
<feOffset dy="10.7158"/>
<feGaussianBlur stdDeviation="10.7158"/>
<feColorMatrix type="matrix" values="0 0 0 0 0 0 0 0 0 0 0 0 0 0 0 0 0 0 0.25 0"/>
<feBlend mode="normal" in2="BackgroundImageFix" result="effect1_dropShadow"/>
<feBlend mode="normal" in="SourceGraphic" in2="effect1_dropShadow" result="shape"/>
</filter>
<linearGradient id="paint0_linear" x1="1524.68" y1="139.305" x2="1524.68" y2="1264.47" gradientUnits="userSpaceOnUse">
<stop stop-color="#834827"/>
<stop offset="0.944575" stop-color="#2E1508"/>
</linearGradient>
<linearGradient id="paint1_linear" x1="1505.92" y1="1076.94" x2="1505.92" y2="2525.91" gradientUnits="userSpaceOnUse">
<stop stop-color="white"/>
<stop offset="1" stop-color="#F1F1F1"/>
</linearGradient>
<linearGradient id="paint2_linear" x1="577.711" y1="1190.51" x2="574.095" y2="2301.69" gradientUnits="userSpaceOnUse">
<stop stop-color="white"/>
<stop offset="1" stop-color="#F1F1F1"/>
</linearGradient>
<linearGradient id="paint3_linear" x1="2805.09" y1="1236.72" x2="1501.34" y2="1803.62" gradientUnits="userSpaceOnUse">
<stop stop-color="white"/>
<stop offset="1" stop-color="#F1F1F1"/>
</linearGradient>
<linearGradient id="paint4_linear" x1="1497.73" y1="774.57" x2="1497.73" y2="1031.32" gradientUnits="userSpaceOnUse">
<stop stop-color="#3EFFE8"/>
<stop offset="1" stop-color="#1DD8C0"/>
</linearGradient>
</defs>
</svg>
