<svg width="3021" height="2526" viewBox="0 0 3021 2526" fill="none" xmlns="http://www.w3.org/2000/svg">
<path d="M643.904 548.469C643.904 803.147 643.904 899.747 460.014 1075.9C367.501 1164.52 298.913 1291.16 407.705 1358.81C484.458 1406.54 569.585 1472.6 522.338 1713.22C500.977 1822 559.525 1880.44 636.716 1920.82C793.642 2002.9 988.633 2044.16 1165.18 2058.11C1329.2 2071.06 1541.73 2086.57 1803.41 2086.57C1999.43 2086.57 2023.32 1869.15 2242.18 1839.38C2323.09 1828.38 2494.2 1753.99 2556.68 1701.42C2676.75 1600.38 2639.8 1445.99 2629.32 1289.41C2622.78 1191.83 2592.25 1093.56 2465.65 1036.54C2212.29 922.432 2644.23 351.529 2170.74 351.529C2015.39 351.529 1882.07 329.588 1773.25 289.168C1547.92 205.465 1306.48 45.0886 1079.02 122.824C834.714 206.317 643.904 342.2 643.904 548.469Z" fill="url(#paint0_linear)"/>
<path d="M1293.28 303.811C1297.68 294.219 1307.27 288.071 1317.82 288.071L1327 288.071L1293.3 535.428L1187 535.428L1293.28 303.811Z" fill="#CBA10D"/>
<path d="M1628.36 303.811C1623.96 294.219 1614.38 288.071 1603.82 288.071L1594.64 288.071L1628.34 535.428L1734.64 535.428L1628.36 303.811Z" fill="#CBA10D"/>
<path d="M1311.21 292.485C1311.09 290.279 1312.79 288.397 1314.99 288.282L1422.43 282.686L1431.64 459.447L1320.21 465.251L1311.21 292.485Z" fill="#FFDC24"/>
<path d="M1610.43 292.485C1610.55 290.279 1608.85 288.397 1606.65 288.282L1499.21 282.686L1490 459.447L1601.43 465.251L1610.43 292.485Z" fill="#FFDC24"/>
<path d="M1479.5 263C1388.65 263 1311 367.277 1311 451.5L1337 452C1337 376.489 1402.38 283 1478.87 283C1555.36 283 1614 376.489 1614 452L1640 451.5C1640 367.277 1570.35 263 1479.5 263Z" fill="#CBA10D"/>
<path d="M942 936C942 647.707 1175.71 414 1464 414V414C1752.29 414 1986 647.707 1986 936V1160H942V936Z" fill="#FFDC24"/>
<path d="M942 1021C942 732.707 1175.71 499 1464 499V499C1752.29 499 1986 732.707 1986 1021V1160H942V1021Z" fill="#CBA10D"/>
<path d="M942 1067C942 778.707 1175.71 545 1464 545V545C1752.29 545 1986 778.707 1986 1067V1160H942V1067Z" fill="#FFDC24"/>
<path d="M943 1318H828V1741C828 1804.51 879.487 1856 943 1856V1856V1318Z" fill="#F4CE06"/>
<ellipse rx="97.5" ry="49" transform="matrix(-1 0 0 1 919.5 1307)" fill="#FFDC24"/>
<ellipse rx="83.5" ry="40" transform="matrix(-1 0 0 1 917.5 1307)" fill="#CBA10D"/>
<g filter="url(#filter0_ii)">
<path fill-rule="evenodd" clip-rule="evenodd" d="M2031.77 1220.06H2112.55L2128.39 1254.43C2162.82 1274.3 2186 1311.5 2186 1354.11V1626.78C2186 1643.26 2172.64 1656.62 2156.16 1656.62H1985.84C1969.36 1656.62 1956 1643.26 1956 1626.78V1354.11C1956 1311.09 1979.62 1273.6 2014.59 1253.87L2031.77 1220.06Z" fill="#8BCEFF"/>
</g>
<path d="M1984 1322C2061.14 1351.96 2104.99 1352.54 2180.53 1324.09C2183.16 1323.1 2186 1325.03 2186 1327.84V1693C2186 1783.57 2112.57 1857 2022 1857H1984V1322Z" fill="#F4CE06"/>
<g filter="url(#filter1_di)">
<rect x="2004" y="1160" width="134" height="73" rx="19.0446" fill="#8BCEFF"/>
</g>
<rect x="942" y="1160" width="1044" height="696" fill="#FFDC24"/>
<g filter="url(#filter2_d)">
<path d="M1090 1222H1838V1553C1838 1639.71 1767.71 1710 1681 1710H1247C1160.29 1710 1090 1639.71 1090 1553V1222Z" fill="#FFDC24"/>
</g>
<g filter="url(#filter3_d)">
<path d="M1090 1222H1838V1222C1838 1304.84 1770.84 1372 1688 1372H1240C1157.16 1372 1090 1304.84 1090 1222V1222Z" fill="#CBA10D"/>
</g>
<g filter="url(#filter4_d)">
<path d="M1359.35 808.429C1419.8 749.927 1443.39 738.339 1506.93 586.013" stroke="#CBA10D" stroke-width="9.74184" stroke-linecap="round"/>
<ellipse cx="1351.6" cy="824.137" rx="70.4069" ry="24.1332" transform="rotate(29.1443 1351.6 824.137)" fill="#8BCEFF"/>
<path d="M1286.07 817.996C1286.07 817.996 1300.72 840.372 1338.67 847.325C1376.62 854.278 1391.27 876.654 1391.27 876.654L1302.95 1035.04C1294.49 1050.21 1275.35 1055.65 1260.18 1047.19L1209.9 1019.16C1194.74 1010.7 1189.3 991.552 1197.75 976.387L1286.07 817.996Z" fill="#5CA7ED"/>
<path d="M1391.27 876.653C1391.27 876.653 1364.54 875.954 1338.67 847.325C1312.81 818.695 1286.07 817.996 1286.07 817.996L1194.95 981.415C1188.04 993.803 1192.49 1009.45 1204.87 1016.35L1265.21 1050C1277.6 1056.9 1293.24 1052.46 1300.15 1040.07L1391.27 876.653Z" fill="#8AC7FF"/>
<g filter="url(#filter5_ii)">
<path fill-rule="evenodd" clip-rule="evenodd" d="M1357.65 766.923L1398.06 789.458L1395 811.242C1407.22 830.835 1408.7 856.308 1396.66 877.905L1299.61 1051.94C1294.13 1061.77 1281.73 1065.29 1271.9 1059.81L1193.01 1015.82C1183.18 1010.34 1179.66 997.934 1185.13 988.109L1282.18 814.072C1294.3 792.339 1316.95 780.189 1340.2 780.445L1357.65 766.923Z" fill="#C4C4C4" fill-opacity="0.06"/>
</g>
<path d="M1290 790.042C1330.17 835.782 1357.26 850.403 1412.99 858.619L1304.08 1053.93C1295.74 1068.88 1276.87 1074.24 1261.91 1065.9L1193.07 1027.52C1178.12 1019.18 1172.76 1000.3 1181.1 985.35L1290 790.042Z" fill="#8BCEFF"/>
<g filter="url(#filter6_d)">
<path d="M1411.48 678.557L1442.42 695.809C1450.01 700.037 1452.73 709.612 1448.5 717.195L1417.98 771.92L1359.58 739.356L1390.1 684.631C1394.33 677.048 1403.9 674.329 1411.48 678.557Z" stroke="#555555" stroke-width="0.442811"/>
</g>
<g filter="url(#filter7_i)">
<path d="M1352.22 741.189C1353.87 738.247 1357.46 736.996 1360.56 738.313C1382.75 747.743 1396.76 755.525 1417.55 770.119C1420.32 772.06 1421.15 775.784 1419.51 778.736L1406.79 801.533C1405.1 804.569 1401.35 805.786 1398.2 804.305C1376.09 793.89 1362.11 786.14 1341.64 772.777C1338.74 770.879 1337.8 767.051 1339.49 764.02L1352.22 741.189Z" fill="#FDFDFD"/>
</g>
<g filter="url(#filter8_ii)">
<path fill-rule="evenodd" clip-rule="evenodd" d="M1400.65 694.35C1402.09 691.764 1405.08 690.42 1407.94 691.209C1418.38 694.094 1425.07 697.802 1433.46 705.472C1435.66 707.487 1436.11 710.766 1434.66 713.374L1415.09 748.468C1415.56 749.255 1415.61 750.264 1415.13 751.119C1414.69 751.905 1413.91 752.382 1413.08 752.464C1414.48 753.288 1415.93 754.141 1417.43 755.028C1418.95 755.926 1419.48 757.873 1418.62 759.414C1417.98 760.553 1416.76 761.163 1415.54 761.073L1415.57 761.092C1417.09 761.988 1417.62 763.936 1416.76 765.476C1415.9 767.026 1413.94 767.594 1412.38 766.754C1395.52 757.704 1385.03 751.862 1368.47 742.272C1366.93 741.382 1366.39 739.422 1367.26 737.871C1368.12 736.331 1370.05 735.758 1371.61 736.578L1371.64 736.593C1370.92 735.598 1370.8 734.24 1371.44 733.103C1372.29 731.563 1374.23 730.988 1375.79 731.806C1376.93 732.402 1378.04 732.985 1379.12 733.555C1378.73 732.794 1378.72 731.861 1379.17 731.062C1379.55 730.377 1380.19 729.927 1380.9 729.768L1400.65 694.35Z" fill="#F7F7F7"/>
</g>
<rect x="1286.82" y="843.024" width="94.7615" height="95.2043" rx="6.19935" transform="rotate(29.1443 1286.82 843.024)" fill="white"/>
<path d="M1300.43 890.195L1295.84 898.425L1294.31 897.573L1296.27 894.046L1292.02 891.673L1290.05 895.2L1288.52 894.348L1293.11 886.118L1294.64 886.97L1292.75 890.368L1297 892.741L1298.9 889.343L1300.43 890.195ZM1304.44 900.727L1300.33 898.432L1298.45 899.884L1296.88 899.006L1305.17 892.841L1306.67 893.68L1305.8 903.982L1304.2 903.09L1304.44 900.727ZM1304.6 899.246L1305.06 894.783L1301.51 897.521L1304.6 899.246ZM1318.75 900.413L1314.16 908.643L1312.9 907.942L1311.47 899.838L1308.36 905.411L1306.85 904.566L1311.44 896.336L1312.69 897.037L1314.13 905.14L1317.23 899.568L1318.75 900.413ZM1320.96 901.643L1324.55 903.649C1325.43 904.139 1326.11 904.746 1326.6 905.471C1327.1 906.188 1327.36 906.965 1327.38 907.802C1327.42 908.631 1327.2 909.453 1326.75 910.268C1326.3 911.084 1325.7 911.7 1324.98 912.117C1324.26 912.526 1323.46 912.713 1322.59 912.678C1321.72 912.635 1320.84 912.369 1319.96 911.879L1316.37 909.873L1320.96 901.643ZM1320.61 910.546C1321.22 910.883 1321.81 911.064 1322.39 911.091C1322.99 911.113 1323.52 910.981 1324 910.693C1324.49 910.402 1324.89 909.974 1325.21 909.41C1325.52 908.845 1325.67 908.282 1325.66 907.718C1325.66 907.152 1325.49 906.626 1325.15 906.141C1324.83 905.652 1324.36 905.24 1323.76 904.903L1321.76 903.789L1318.62 909.432L1320.61 910.546ZM1269.71 902.33C1269.07 901.976 1268.51 901.543 1268.01 901.03C1267.53 900.522 1267.19 900.023 1267.01 899.533L1268.21 898.64C1268.39 899.095 1268.68 899.544 1269.07 899.987C1269.47 900.427 1269.92 900.785 1270.42 901.06C1271.03 901.401 1271.54 901.557 1271.94 901.527C1272.36 901.501 1272.66 901.328 1272.84 901.006C1272.97 900.771 1272.99 900.531 1272.9 900.286C1272.82 900.038 1272.68 899.798 1272.47 899.568C1272.26 899.337 1271.96 899.042 1271.57 898.684C1271.03 898.185 1270.6 897.752 1270.29 897.385C1269.99 897.022 1269.79 896.605 1269.68 896.134C1269.59 895.659 1269.69 895.152 1269.99 894.611C1270.24 894.156 1270.59 893.813 1271.04 893.58C1271.5 893.343 1272.04 893.253 1272.66 893.309C1273.28 893.369 1273.95 893.6 1274.68 894.002C1275.18 894.282 1275.64 894.62 1276.05 895.017C1276.47 895.413 1276.79 895.827 1277.01 896.259L1275.86 897.178C1275.62 896.765 1275.34 896.394 1275 896.066C1274.67 895.738 1274.32 895.471 1273.96 895.266C1273.35 894.929 1272.84 894.78 1272.43 894.817C1272.03 894.859 1271.73 895.049 1271.55 895.386C1271.41 895.621 1271.39 895.859 1271.47 896.1C1271.56 896.345 1271.71 896.583 1271.92 896.813C1272.13 897.044 1272.43 897.338 1272.82 897.697C1273.35 898.179 1273.77 898.608 1274.07 898.983C1274.38 899.35 1274.58 899.767 1274.68 900.234C1274.79 900.705 1274.7 901.207 1274.4 901.74C1274.15 902.194 1273.79 902.536 1273.33 902.764C1272.89 902.997 1272.35 903.084 1271.73 903.023C1271.1 902.963 1270.43 902.732 1269.71 902.33ZM1281.02 905.984L1276.9 903.69L1275.03 905.142L1273.45 904.264L1281.75 898.099L1283.25 898.938L1282.38 909.24L1280.78 908.348L1281.02 905.984ZM1281.18 904.503L1281.63 900.04L1278.09 902.779L1281.18 904.503ZM1295.33 905.671L1290.74 913.901L1289.48 913.2L1288.05 905.096L1284.94 910.669L1283.42 909.823L1288.01 901.593L1289.27 902.295L1290.7 910.398L1293.81 904.825L1295.33 905.671ZM1297.53 906.901L1299.06 907.753L1294.47 915.983L1292.94 915.131L1297.53 906.901ZM1302.23 911.218L1299.51 909.697L1300.23 908.404L1307.21 912.298L1306.49 913.592L1303.76 912.071L1299.89 919.007L1298.37 918.155L1302.23 911.218ZM1308.36 912.938L1309.89 913.79L1305.3 922.02L1303.77 921.168L1308.36 912.938ZM1314.64 925.535L1313.92 926.828L1306.9 922.914L1307.47 921.891L1315.61 918.678L1310.85 916.023L1311.57 914.73L1318.36 918.513L1317.79 919.536L1309.64 922.748L1314.64 925.535ZM1322.21 929.769L1321.49 931.05L1315.32 927.609L1319.91 919.379L1325.92 922.729L1325.2 924.01L1320.72 921.512L1319.53 923.652L1323.5 925.868L1322.8 927.126L1318.83 924.91L1317.56 927.179L1322.21 929.769ZM1328.58 935.003L1328.24 931.655C1328.17 931.624 1328.06 931.569 1327.92 931.49L1326.06 930.454L1324.72 932.853L1323.2 932.001L1327.78 923.771L1331.17 925.659C1331.88 926.056 1332.44 926.519 1332.83 927.047C1333.23 927.579 1333.45 928.144 1333.49 928.74C1333.53 929.336 1333.38 929.936 1333.04 930.54C1332.7 931.159 1332.25 931.607 1331.69 931.883C1331.15 932.164 1330.53 932.257 1329.84 932.161L1330.23 935.921L1328.58 935.003ZM1331.5 929.681C1331.79 929.156 1331.85 928.656 1331.66 928.182C1331.47 927.707 1331.05 927.284 1330.38 926.913L1328.59 925.916L1326.76 929.196L1328.55 930.193C1329.22 930.564 1329.8 930.705 1330.3 930.615C1330.81 930.518 1331.21 930.206 1331.5 929.681Z" fill="black"/>
<circle cx="1522.91" cy="552.614" r="35.8677" transform="rotate(29.1443 1522.91 552.614)" stroke="#CBA10D" stroke-width="7.08497"/>
</g>
<path d="M2202.32 1278.58C2200.98 1280.33 2201.32 1282.84 2203.08 1284.18L2231.71 1306C2233.47 1307.33 2235.98 1307 2237.32 1305.24C2238.66 1303.48 2238.32 1300.97 2236.56 1299.63L2211.11 1280.24L2230.5 1254.79C2231.83 1253.03 2231.5 1250.52 2229.74 1249.18C2227.98 1247.84 2225.47 1248.18 2224.13 1249.94L2202.32 1278.58ZM2629.5 1070.99C2629.5 1068.79 2627.7 1067 2625.49 1067L2589.49 1067.05C2587.29 1067.05 2585.5 1068.84 2585.5 1071.05C2585.5 1073.26 2587.3 1075.05 2589.51 1075.05L2621.51 1075.01L2621.55 1107.01C2621.55 1109.21 2623.34 1111 2625.55 1111C2627.76 1111 2629.55 1109.2 2629.55 1106.99L2629.5 1070.99ZM2206.04 1284.96C2209.12 1284.55 2212.39 1284.13 2215.85 1283.71L2214.87 1275.77C2211.4 1276.19 2208.1 1276.61 2204.96 1277.04L2206.04 1284.96ZM2235.79 1281.24C2242.02 1280.44 2248.66 1279.53 2255.67 1278.47L2254.47 1270.56C2247.53 1271.61 2240.96 1272.51 2234.77 1273.3L2235.79 1281.24ZM2275.53 1275.14C2281.88 1273.97 2288.48 1272.66 2295.31 1271.15L2293.6 1263.34C2286.86 1264.82 2280.35 1266.12 2274.08 1267.27L2275.53 1275.14ZM2314.87 1266.48C2321.17 1264.85 2327.65 1263.06 2334.29 1261.08L2332.01 1253.41C2325.46 1255.36 2319.08 1257.13 2312.87 1258.74L2314.87 1266.48ZM2353.5 1254.96C2359.7 1252.86 2366.03 1250.59 2372.48 1248.14L2369.64 1240.66C2363.28 1243.08 2357.05 1245.31 2350.94 1247.39L2353.5 1254.96ZM2391.16 1240.65C2397.21 1238.1 2403.36 1235.39 2409.61 1232.5L2406.25 1225.24C2400.09 1228.09 2394.02 1230.77 2388.05 1233.28L2391.16 1240.65ZM2427.78 1223.7C2433.64 1220.75 2439.57 1217.64 2445.57 1214.36L2441.74 1207.34C2435.81 1210.57 2429.96 1213.64 2424.18 1216.56L2427.78 1223.7ZM2463.08 1204.45C2468.75 1201.11 2474.48 1197.64 2480.27 1194L2476.02 1187.23C2470.3 1190.82 2464.63 1194.26 2459.03 1197.55L2463.08 1204.45ZM2497.16 1183.06C2502.63 1179.4 2508.16 1175.59 2513.72 1171.65L2509.1 1165.12C2503.59 1169.03 2498.12 1172.79 2492.71 1176.41L2497.16 1183.06ZM2529.98 1159.8C2535.26 1155.85 2540.57 1151.76 2545.93 1147.54L2540.97 1141.26C2535.67 1145.44 2530.41 1149.48 2525.18 1153.4L2529.98 1159.8ZM2561.57 1134.89C2566.66 1130.67 2571.78 1126.34 2576.93 1121.87L2571.68 1115.83C2566.58 1120.25 2561.51 1124.55 2556.47 1128.73L2561.57 1134.89ZM2591.99 1108.51C2596.87 1104.09 2601.77 1099.55 2606.69 1094.9L2601.2 1089.08C2596.31 1093.7 2591.45 1098.2 2586.62 1102.58L2591.99 1108.51ZM2621.13 1080.98C2623.52 1078.62 2625.92 1076.24 2628.33 1073.82L2622.67 1068.18C2620.28 1070.57 2617.9 1072.94 2615.52 1075.27L2621.13 1080.98Z" fill="#1F1F1F"/>
<path d="M1168.68 867.076C1170.02 868.834 1169.68 871.343 1167.92 872.682L1139.29 894.496C1137.53 895.835 1135.02 895.495 1133.68 893.738C1132.34 891.98 1132.68 889.47 1134.44 888.132L1159.89 868.742L1140.5 843.285C1139.17 841.528 1139.5 839.018 1141.26 837.68C1143.02 836.341 1145.53 836.681 1146.87 838.438L1168.68 867.076ZM519.5 499.482C519.51 497.273 521.309 495.49 523.518 495.5L559.518 495.661C561.727 495.671 563.51 497.47 563.5 499.679C563.49 501.888 561.691 503.671 559.482 503.661L527.482 503.518L527.339 535.518C527.329 537.727 525.53 539.51 523.321 539.5C521.112 539.49 519.329 537.691 519.339 535.482L519.5 499.482ZM1164.96 873.464C1162.07 873.073 1158.8 872.561 1155.18 871.92L1156.57 864.042C1160.11 864.667 1163.27 865.161 1166.04 865.536L1164.96 873.464ZM1135.62 867.943C1129.67 866.596 1123.17 865.02 1116.16 863.198L1118.18 855.456C1125.1 857.257 1131.52 858.813 1137.39 860.14L1135.62 867.943ZM1097.12 857.974C1091.05 856.227 1084.7 854.323 1078.07 852.253L1080.45 844.617C1087.02 846.669 1093.32 848.556 1099.34 850.286L1097.12 857.974ZM1059.12 846.118C1053.04 844.082 1046.77 841.919 1040.33 839.625L1043.01 832.088C1049.41 834.366 1055.63 836.512 1061.66 838.532L1059.12 846.118ZM1021.71 832.807C1015.67 830.534 1009.49 828.152 1003.19 825.658L1006.14 818.22C1012.4 820.697 1018.53 823.063 1024.53 825.32L1021.71 832.807ZM984.811 818.205C978.836 815.726 972.76 813.149 966.59 810.472L969.774 803.133C975.905 805.792 981.942 808.353 987.878 810.817L984.811 818.205ZM948.49 802.451C942.57 799.773 936.572 797.006 930.501 794.147L933.909 786.91C939.944 789.751 945.904 792.501 951.787 795.163L948.49 802.451ZM912.617 785.561C906.749 782.69 900.819 779.735 894.831 776.694L898.453 769.561C904.406 772.584 910.3 775.521 916.133 778.375L912.617 785.561ZM877.186 767.571C871.426 764.54 865.618 761.431 859.763 758.242L863.59 751.217C869.411 754.387 875.185 757.479 880.911 760.492L877.186 767.571ZM842.427 748.637C836.715 745.419 830.964 742.126 825.175 738.756L829.201 731.842C834.956 735.193 840.675 738.467 846.354 741.667L842.427 748.637ZM808.119 728.664C802.521 725.299 796.892 721.863 791.235 718.354L795.451 711.555C801.077 715.045 806.674 718.462 812.241 721.808L808.119 728.664ZM774.427 707.766C768.904 704.234 763.357 700.632 757.787 696.96L762.19 690.281C767.729 693.932 773.246 697.514 778.738 701.027L774.427 707.766ZM741.351 685.962C735.914 682.27 730.459 678.512 724.987 674.685L729.572 668.129C735.014 671.935 740.439 675.672 745.845 679.344L741.351 685.962ZM708.83 663.222C703.513 659.396 698.182 655.505 692.839 651.549L697.599 645.119C702.913 649.054 708.215 652.924 713.503 656.729L708.83 663.222ZM676.919 639.593C671.719 635.633 666.51 631.61 661.292 627.525L666.224 621.226C671.414 625.289 676.595 629.29 681.766 633.229L676.919 639.593ZM645.747 615.183C640.631 611.065 635.509 606.886 630.382 602.645L635.481 596.481C640.58 600.699 645.675 604.855 650.763 608.951L645.747 615.183ZM615.214 589.928C610.191 585.659 605.165 581.33 600.137 576.94L605.398 570.914C610.399 575.28 615.398 579.586 620.395 583.832L615.214 589.928ZM585.349 563.858C580.442 559.459 575.536 555.002 570.63 550.485L576.048 544.6C580.928 549.092 585.809 553.526 590.689 557.901L585.349 563.858ZM556.175 537.001C551.393 532.481 546.613 527.905 541.837 523.27L547.407 517.529C552.159 522.139 556.913 526.691 561.67 531.187L556.175 537.001ZM527.712 509.385C525.359 507.043 523.009 504.687 520.659 502.316L526.341 496.684C528.678 499.043 531.017 501.387 533.357 503.717L527.712 509.385Z" fill="#1F1F1F"/>
<path d="M1918.68 2034.08C1920.02 2035.83 1919.68 2038.34 1917.92 2039.68L1889.29 2061.5C1887.53 2062.83 1885.02 2062.5 1883.68 2060.74C1882.34 2058.98 1882.68 2056.47 1884.44 2055.13L1909.89 2035.74L1890.5 2010.29C1889.17 2008.53 1889.5 2006.02 1891.26 2004.68C1893.02 2003.34 1895.53 2003.68 1896.87 2005.44L1918.68 2034.08ZM1542.14 1655.95C1542.72 1653.82 1544.92 1652.56 1547.05 1653.14L1581.79 1662.59C1583.92 1663.17 1585.18 1665.37 1584.6 1667.5C1584.02 1669.63 1581.82 1670.89 1579.69 1670.31L1548.81 1661.91L1540.41 1692.79C1539.83 1694.92 1537.63 1696.18 1535.5 1695.6C1533.37 1695.02 1532.11 1692.82 1532.69 1690.69L1542.14 1655.95ZM1914.96 2040.46C1911.62 2040.01 1908.08 2039.2 1904.36 2038.07L1906.69 2030.41C1910.08 2031.45 1913.2 2032.15 1916.04 2032.54L1914.96 2040.46ZM1884.58 2029.96C1878.78 2027.07 1872.64 2023.65 1866.22 2019.72L1870.39 2012.89C1876.65 2016.72 1882.58 2020.03 1888.14 2022.8L1884.58 2029.96ZM1848.7 2008.28C1843.21 2004.48 1837.56 2000.38 1831.76 1996.01L1836.58 1989.62C1842.3 1993.94 1847.86 1997.97 1853.25 2001.7L1848.7 2008.28ZM1815.38 1983.19C1810.14 1978.95 1804.81 1974.51 1799.39 1969.89L1804.59 1963.81C1809.95 1968.39 1815.23 1972.78 1820.41 1976.97L1815.38 1983.19ZM1783.72 1956.16C1778.66 1951.63 1773.54 1946.94 1768.38 1942.11L1773.84 1936.27C1778.97 1941.06 1784.04 1945.71 1789.06 1950.21L1783.72 1956.16ZM1753.36 1927.79C1748.47 1923.04 1743.55 1918.17 1738.61 1913.19L1744.28 1907.55C1749.19 1912.5 1754.08 1917.34 1758.94 1922.06L1753.36 1927.79ZM1724.1 1898.33C1719.36 1893.39 1714.6 1888.36 1709.84 1883.24L1715.7 1877.79C1720.43 1882.88 1725.16 1887.88 1729.87 1892.79L1724.1 1898.33ZM1695.82 1867.92C1691.23 1862.81 1686.63 1857.63 1682.05 1852.38L1688.07 1847.12C1692.63 1852.34 1697.2 1857.49 1701.77 1862.56L1695.82 1867.92ZM1668.51 1836.63C1664.06 1831.38 1659.63 1826.06 1655.22 1820.68L1661.4 1815.61C1665.79 1820.95 1670.2 1826.24 1674.62 1831.46L1668.51 1836.63ZM1642.17 1804.53C1637.88 1799.13 1633.61 1793.68 1629.37 1788.18L1635.71 1783.3C1639.92 1788.76 1644.16 1794.18 1648.43 1799.55L1642.17 1804.53ZM1616.83 1771.63C1612.7 1766.08 1608.61 1760.5 1604.56 1754.87L1611.06 1750.2C1615.08 1755.79 1619.14 1761.34 1623.25 1766.85L1616.83 1771.63ZM1592.57 1737.91C1588.62 1732.22 1584.72 1726.5 1580.87 1720.75L1587.53 1716.3C1591.34 1722.01 1595.22 1727.7 1599.14 1733.35L1592.57 1737.91ZM1569.49 1703.37C1565.74 1697.53 1562.05 1691.66 1558.43 1685.78L1565.25 1681.59C1568.84 1687.43 1572.5 1693.25 1576.22 1699.05L1569.49 1703.37ZM1547.73 1667.96C1545.97 1664.97 1544.24 1661.98 1542.53 1658.99L1549.47 1655.01C1551.17 1657.98 1552.89 1660.95 1554.63 1663.91L1547.73 1667.96Z" fill="#1F1F1F"/>
<path d="M2567 825.353C2569.63 827.745 2571.32 830.544 2572.06 833.749C2572.82 836.901 2572.42 840.234 2570.85 843.748C2568.68 848.593 2565.14 851.514 2560.22 852.51C2555.33 853.452 2549.32 852.329 2542.18 849.14L2514.39 836.715L2539.38 780.81L2565.58 792.521C2572.18 795.472 2576.68 799.05 2579.08 803.253C2581.51 807.404 2581.71 811.742 2579.68 816.267C2578.45 819.036 2576.71 821.2 2574.48 822.758C2572.25 824.316 2569.76 825.182 2567 825.353ZM2546.12 793.598L2539.23 809.011L2553.93 815.581C2557.55 817.199 2560.6 817.798 2563.09 817.377C2565.65 816.927 2567.5 815.45 2568.61 812.948C2569.76 810.392 2569.63 808.035 2568.23 805.877C2566.91 803.689 2564.44 801.786 2560.82 800.167L2546.12 793.598ZM2545.18 840.708C2553.22 844.302 2558.45 843.41 2560.85 838.033C2563.25 832.655 2560.44 828.169 2552.4 824.575L2535.62 817.078L2528.41 833.21L2545.18 840.708ZM2609.76 827.604C2616.04 830.413 2620.15 834.073 2622.1 838.583C2624.12 843.064 2623.77 848.34 2621.06 854.409L2609.89 879.407L2600.46 875.194L2602.78 870.003C2600.72 871.319 2598.32 871.971 2595.58 871.959C2592.92 871.918 2589.99 871.183 2586.79 869.755C2583.6 868.327 2581.04 866.544 2579.12 864.409C2577.23 862.219 2576.04 859.869 2575.57 857.357C2575.17 854.816 2575.52 852.321 2576.61 849.871C2578.33 846.038 2581.11 843.607 2584.95 842.579C2588.88 841.522 2593.9 842.362 2600.02 845.099L2611.04 850.026L2611.33 849.387C2612.66 846.406 2612.78 843.712 2611.68 841.305C2610.64 838.922 2608.36 836.946 2604.85 835.375C2602.45 834.304 2599.92 833.617 2597.24 833.315C2594.62 833.037 2592.21 833.206 2590.02 833.823L2589.35 824.806C2592.35 824.102 2595.62 824 2599.17 824.499C2602.71 824.998 2606.24 826.033 2609.76 827.604ZM2592.12 863.415C2594.62 864.534 2597.08 864.963 2599.5 864.702C2601.99 864.411 2604.11 863.379 2605.86 861.607L2608.08 856.655L2597.78 852.049C2592.03 849.479 2588.31 850.083 2586.62 853.864C2585.81 855.674 2585.88 857.433 2586.84 859.14C2587.81 860.848 2589.56 862.273 2592.12 863.415ZM2707.51 871.879L2672.71 907.493L2663.13 903.209L2665.24 868.892L2640.92 893.283L2631.34 888.999L2634.75 839.353L2644.18 843.566L2641.37 880.067L2667.18 853.849L2675.56 857.598L2672.93 894.365L2698.64 867.916L2707.51 871.879ZM2729.55 881.159C2735.84 883.968 2739.95 887.628 2741.89 892.138C2743.92 896.619 2743.57 901.895 2740.86 907.964L2729.68 932.962L2720.26 928.749L2722.58 923.558C2720.52 924.874 2718.12 925.526 2715.38 925.514C2712.71 925.472 2709.78 924.738 2706.59 923.31C2703.4 921.881 2700.84 920.099 2698.92 917.963C2697.02 915.774 2695.84 913.424 2695.36 910.912C2694.97 908.371 2695.31 905.876 2696.41 903.426C2698.12 899.593 2700.9 897.162 2704.75 896.134C2708.67 895.077 2713.69 895.917 2719.82 898.654L2730.84 903.581L2731.12 902.942C2732.46 899.961 2732.57 897.267 2731.48 894.86C2730.44 892.477 2728.16 890.5 2724.64 888.93C2722.25 887.858 2719.71 887.172 2717.04 886.87C2714.41 886.592 2712.01 886.761 2709.81 887.378L2709.15 878.361C2712.15 877.657 2715.42 877.555 2718.96 878.054C2722.51 878.553 2726.04 879.588 2729.55 881.159ZM2711.92 916.97C2714.42 918.089 2716.88 918.518 2719.29 918.256C2721.79 917.966 2723.91 916.934 2725.66 915.161L2727.87 910.21L2717.57 905.604C2711.82 903.034 2708.1 903.638 2706.41 907.419C2705.6 909.229 2705.68 910.988 2706.64 912.695C2707.6 914.403 2709.36 915.828 2711.92 916.97ZM2807.48 915.998C2811.64 917.855 2814.93 920.414 2817.37 923.676C2819.86 926.962 2821.3 930.672 2821.69 934.806C2822.08 938.941 2821.31 943.164 2819.38 947.477C2817.45 951.789 2814.81 955.206 2811.44 957.727C2808.1 960.195 2804.38 961.597 2800.27 961.931C2796.21 962.289 2792.11 961.54 2787.95 959.684C2785.03 958.375 2782.56 956.667 2780.57 954.56C2778.62 952.478 2777.28 950.056 2776.53 947.295L2774.07 952.805L2764.56 948.556L2791.06 889.297L2801.04 893.76L2791.29 915.563C2793.83 914.461 2796.46 913.943 2799.17 914.008C2801.95 914.097 2804.72 914.76 2807.48 915.998ZM2790.66 950.638C2794.33 952.281 2797.89 952.401 2801.32 950.999C2804.81 949.621 2807.45 946.935 2809.24 942.942C2811.02 938.949 2811.27 935.192 2809.96 931.672C2808.72 928.176 2806.26 925.606 2802.58 923.964C2800.19 922.893 2797.78 922.488 2795.36 922.749C2792.97 922.957 2790.76 923.823 2788.74 925.346C2786.72 926.869 2785.11 928.962 2783.92 931.624C2782.73 934.286 2782.24 936.879 2782.46 939.402C2782.67 941.925 2783.49 944.174 2784.9 946.149C2786.34 948.071 2788.26 949.567 2790.66 950.638ZM2868.83 969.872C2868.52 970.564 2868.03 971.525 2867.35 972.755L2833.89 957.796C2833.07 961.199 2833.47 964.38 2835.09 967.338C2836.78 970.267 2839.46 972.553 2843.14 974.195C2847.82 976.289 2852.37 976.471 2856.79 974.74L2859.39 983.281C2856.45 984.714 2853.25 985.361 2849.8 985.224C2846.35 985.086 2842.79 984.196 2839.11 982.553C2834.43 980.459 2830.72 977.682 2827.98 974.224C2825.25 970.766 2823.63 966.946 2823.14 962.764C2822.72 958.553 2823.45 954.344 2825.33 950.138C2827.19 945.985 2829.79 942.675 2833.13 940.207C2836.54 937.709 2840.35 936.279 2844.53 935.915C2848.72 935.551 2852.92 936.309 2857.12 938.189C2861.28 940.046 2864.56 942.632 2866.98 945.947C2869.47 949.233 2870.87 952.958 2871.18 957.122C2871.57 961.256 2870.78 965.506 2868.83 969.872ZM2853.55 946.176C2850.36 944.748 2847.21 944.492 2844.12 945.409C2841.11 946.297 2838.66 948.204 2836.77 951.131L2860.97 961.949C2861.93 958.671 2861.74 955.585 2860.41 952.693C2859.09 949.8 2856.8 947.628 2853.55 946.176ZM2894.58 984.737L2884.01 988.445L2878.98 999.706L2869 995.243L2895.49 935.984L2905.47 940.447L2889.48 976.226L2918.73 966.305L2930.71 971.661L2904.9 981.589L2913.32 1015.06L2901.18 1009.63L2894.58 984.737ZM2954.56 981.749C2960.84 984.558 2964.96 988.217 2966.9 992.728C2968.92 997.209 2968.58 1002.48 2965.86 1008.55L2954.69 1033.55L2945.26 1029.34L2947.59 1024.15C2945.53 1025.46 2943.13 1026.12 2940.39 1026.1C2937.72 1026.06 2934.79 1025.33 2931.6 1023.9C2928.4 1022.47 2925.85 1020.69 2923.93 1018.55C2922.03 1016.36 2920.84 1014.01 2920.37 1011.5C2919.97 1008.96 2920.32 1006.47 2921.42 1004.02C2923.13 1000.18 2925.91 997.752 2929.76 996.724C2933.68 995.667 2938.7 996.507 2944.82 999.244L2955.84 1004.17L2956.13 1003.53C2957.46 1000.55 2957.58 997.856 2956.49 995.45C2955.44 993.067 2953.16 991.09 2949.65 989.519C2947.25 988.448 2944.72 987.762 2942.04 987.46C2939.42 987.182 2937.01 987.351 2934.82 987.968L2934.16 978.951C2937.15 978.247 2940.43 978.145 2943.97 978.644C2947.52 979.143 2951.05 980.178 2954.56 981.749ZM2936.92 1017.56C2939.43 1018.68 2941.88 1019.11 2944.3 1018.85C2946.8 1018.56 2948.92 1017.52 2950.67 1015.75L2952.88 1010.8L2942.58 1006.19C2936.83 1003.62 2933.11 1004.23 2931.42 1008.01C2930.61 1009.82 2930.69 1011.58 2931.65 1013.29C2932.61 1014.99 2934.37 1016.42 2936.92 1017.56ZM2993.99 980.02L3003.98 984.483L2977.48 1043.74L2967.5 1039.28L2993.99 980.02ZM2570.16 979.522C2566.7 977.975 2563.52 976.011 2560.62 973.63C2557.72 971.249 2555.6 968.927 2554.25 966.662L2561.48 960.788C2562.82 962.923 2564.65 964.985 2566.95 966.973C2569.33 968.933 2571.83 970.496 2574.44 971.662C2580.4 974.328 2584.08 974.09 2585.49 970.949C2586.16 969.458 2585.85 968.074 2584.57 966.799C2583.34 965.546 2581.16 963.904 2578.05 961.872C2574.77 959.769 2572.17 957.871 2570.24 956.18C2568.37 954.512 2566.99 952.457 2566.1 950.015C2565.29 947.544 2565.57 944.764 2566.95 941.676C2568.76 937.63 2571.88 935.159 2576.3 934.262C2580.81 933.336 2585.93 934.159 2591.68 936.729C2594.61 938.038 2597.39 939.694 2600 941.695C2602.65 943.643 2604.65 945.593 2606.01 947.544L2598.79 953.417C2596.12 949.669 2592.52 946.783 2588 944.76C2585.07 943.451 2582.63 942.904 2580.68 943.119C2578.81 943.304 2577.55 944.115 2576.91 945.553C2576.2 947.15 2576.48 948.652 2577.77 950.058C2579.14 951.435 2581.39 953.178 2584.54 955.287C2587.71 957.343 2590.23 959.205 2592.1 960.873C2593.97 962.541 2595.31 964.545 2596.12 966.886C2596.98 969.25 2596.73 971.95 2595.37 974.985C2593.59 978.978 2590.43 981.399 2585.9 982.248C2581.37 983.097 2576.12 982.188 2570.16 979.522ZM2647.85 988.286C2647.54 988.978 2647.05 989.939 2646.37 991.169L2612.9 976.21C2612.09 979.613 2612.48 982.794 2614.1 985.752C2615.79 988.681 2618.48 990.967 2622.15 992.609C2626.84 994.704 2631.39 994.885 2635.8 993.154L2638.4 1001.7C2635.46 1003.13 2632.27 1003.78 2628.82 1003.64C2625.36 1003.5 2621.8 1002.61 2618.13 1000.97C2613.44 998.873 2609.73 996.096 2607 992.638C2604.26 989.18 2602.65 985.36 2602.15 981.178C2601.74 976.967 2602.47 972.758 2604.35 968.552C2606.21 964.399 2608.8 961.089 2612.14 958.621C2615.56 956.124 2619.36 954.693 2623.55 954.329C2627.74 953.965 2631.93 954.723 2636.14 956.604C2640.29 958.46 2643.58 961.046 2645.99 964.362C2648.48 967.648 2649.88 971.372 2650.19 975.536C2650.58 979.67 2649.8 983.92 2647.85 988.286ZM2632.57 964.59C2629.37 963.162 2626.23 962.906 2623.14 963.823C2620.12 964.711 2617.67 966.618 2615.79 969.545L2639.99 980.363C2640.94 977.085 2640.76 973.999 2639.43 971.107C2638.1 968.214 2635.82 966.042 2632.57 964.59ZM2691.49 981.348C2696.87 983.752 2700.48 987.251 2702.32 991.844C2704.17 996.438 2703.71 1001.82 2700.95 1008L2690.02 1032.44L2680.04 1027.97L2690.39 1004.81C2692.06 1001.09 2692.43 997.898 2691.5 995.249C2690.6 992.547 2688.53 990.47 2685.28 989.018C2681.61 987.376 2678.21 987.197 2675.08 988.481C2671.97 989.712 2669.49 992.404 2667.63 996.556L2657.99 1018.12L2648.01 1013.66L2667.08 971.01L2676.58 975.258L2674.12 980.769C2676.65 979.537 2679.39 978.974 2682.35 979.081C2685.3 979.188 2688.35 979.944 2691.49 981.348ZM2771.34 997.686L2744.84 1056.95L2735.26 1052.66L2737.72 1047.15C2735.17 1048.44 2732.44 1049.04 2729.54 1048.95C2726.69 1048.89 2723.8 1048.21 2720.87 1046.9C2716.77 1045.07 2713.48 1042.51 2710.99 1039.22C2708.55 1035.96 2707.13 1032.26 2706.75 1028.13C2706.38 1023.94 2707.17 1019.69 2709.09 1015.38C2711.02 1011.07 2713.65 1007.68 2716.99 1005.21C2720.33 1002.74 2724.03 1001.33 2728.09 1000.97C2732.2 1000.63 2736.3 1001.38 2740.4 1003.22C2743.23 1004.48 2745.59 1006.11 2747.51 1008.12C2749.42 1010.12 2750.78 1012.45 2751.57 1015.11L2761.35 993.223L2771.34 997.686ZM2725.89 1038.89C2728.29 1039.96 2730.68 1040.39 2733.08 1040.19C2735.49 1039.92 2737.71 1039.03 2739.73 1037.51C2741.76 1035.99 2743.36 1033.89 2744.55 1031.23C2745.74 1028.57 2746.23 1025.98 2746.02 1023.45C2745.8 1020.93 2744.98 1018.71 2743.54 1016.79C2742.12 1014.81 2740.21 1013.29 2737.82 1012.22C2735.42 1011.15 2733.01 1010.74 2730.6 1011C2728.21 1011.21 2726 1012.07 2723.98 1013.6C2721.95 1015.12 2720.35 1017.21 2719.16 1019.88C2717.97 1022.54 2717.48 1025.13 2717.69 1027.65C2717.9 1030.18 2718.72 1032.43 2720.14 1034.4C2721.58 1036.32 2723.5 1037.82 2725.89 1038.89ZM2776.97 1020.14L2786.95 1024.6L2767.89 1067.25L2757.9 1062.78L2776.97 1020.14ZM2785.14 1015.36C2783.33 1014.55 2782.06 1013.31 2781.34 1011.65C2780.64 1009.93 2780.67 1008.22 2781.43 1006.51C2782.19 1004.81 2783.44 1003.67 2785.16 1003.1C2786.91 1002.48 2788.69 1002.57 2790.5 1003.38C2792.31 1004.19 2793.57 1005.42 2794.3 1007.09C2795.05 1008.7 2795.05 1010.33 2794.32 1011.98C2793.53 1013.74 2792.25 1014.96 2790.48 1015.64C2788.78 1016.28 2787.01 1016.19 2785.14 1015.36ZM2806.77 1040.93C2811.65 1037.75 2817.71 1037.77 2824.95 1041.01L2820.7 1050.51C2819.92 1049.97 2819.18 1049.55 2818.49 1049.24C2814.6 1047.5 2811.06 1047.29 2807.85 1048.6C2804.67 1049.86 2802.12 1052.62 2800.22 1056.88L2790.97 1077.57L2780.99 1073.1L2800.05 1030.46L2809.56 1034.71L2806.77 1040.93ZM2833.2 1045.28L2843.18 1049.74L2824.12 1092.39L2814.14 1087.92L2833.2 1045.28ZM2841.37 1040.5C2839.56 1039.69 2838.3 1038.45 2837.57 1036.78C2836.87 1035.07 2836.9 1033.35 2837.66 1031.65C2838.42 1029.95 2839.67 1028.81 2841.39 1028.24C2843.14 1027.61 2844.92 1027.71 2846.73 1028.52C2848.54 1029.33 2849.81 1030.56 2850.53 1032.23C2851.28 1033.84 2851.29 1035.47 2850.55 1037.12C2849.76 1038.88 2848.48 1040.1 2846.71 1040.77C2845.02 1041.42 2843.24 1041.33 2841.37 1040.5ZM2860.94 1041.77L2872.76 1047.05L2854.05 1083.53L2846.14 1080L2860.94 1041.77ZM2841.6 1100.87C2839.74 1100.04 2838.46 1098.76 2837.76 1097.04C2837.08 1095.27 2837.13 1093.51 2837.92 1091.75C2838.7 1089.99 2839.97 1088.8 2841.72 1088.18C2843.47 1087.56 2845.27 1087.66 2847.14 1088.49C2848.95 1089.3 2850.18 1090.56 2850.82 1092.25C2851.52 1093.97 2851.48 1095.71 2850.7 1097.46C2849.91 1099.22 2848.63 1100.44 2846.86 1101.12C2845.17 1101.76 2843.41 1101.68 2841.6 1100.87Z" fill="#1F1F1F"/>
<path d="M192.054 552.846C189.148 555.589 185.926 557.564 182.388 558.77C178.854 559.891 175.323 560.148 171.796 559.54L171.145 549.203C176.937 550.299 181.589 549.189 185.103 545.873C189.832 541.41 189.555 536.38 184.274 530.784L162.042 507.228L145.839 522.521L139.145 515.428L163.807 492.152L192.303 522.345C197.339 527.681 199.825 532.922 199.76 538.068C199.655 543.171 197.086 548.097 192.054 552.846ZM197.992 479.573C203.111 474.742 208.182 472.293 213.206 472.228C218.231 472.078 223.078 474.475 227.746 479.421L246.968 499.788L239.29 507.035L235.298 502.805C235.733 505.265 235.407 507.788 234.319 510.372C233.234 512.873 231.391 515.351 228.788 517.808C226.185 520.265 223.498 521.98 220.727 522.955C217.915 523.887 215.23 524.083 212.671 523.545C210.115 522.923 207.896 521.614 206.012 519.618C203.064 516.495 201.86 512.915 202.398 508.88C202.939 504.76 205.704 500.346 210.693 495.638L219.673 487.163L219.182 486.642C216.889 484.213 214.391 483.043 211.688 483.134C209.028 483.184 206.266 484.56 203.403 487.262C201.451 489.104 199.807 491.23 198.472 493.639C197.179 496.007 196.394 498.347 196.117 500.66L187.339 497.747C187.851 494.64 189.039 491.509 190.902 488.356C192.766 485.203 195.129 482.275 197.992 479.573ZM224.891 510.29C226.93 508.365 228.3 506.211 229.002 503.826C229.706 501.357 229.565 498.947 228.578 496.598L224.77 492.563L216.376 500.486C211.691 504.908 210.802 508.659 213.709 511.739C215.101 513.214 216.792 513.832 218.782 513.594C220.772 513.357 222.809 512.255 224.891 510.29ZM243.96 436.189C248.341 432.054 253.063 430.017 258.125 430.079C263.187 430.141 268.092 432.688 272.842 437.72L291.635 457.632L283.501 465.309L265.691 446.438C262.825 443.401 259.959 441.799 257.095 441.632C254.189 441.422 251.413 442.565 248.767 445.063C245.774 447.888 244.269 451.03 244.254 454.49C244.197 457.906 245.766 461.306 248.959 464.69L265.541 482.259L257.407 489.936L224.612 455.188L232.355 447.879L236.593 452.369C236.423 449.495 236.968 446.684 238.229 443.935C239.49 441.186 241.4 438.604 243.96 436.189ZM303.963 380.296L331.784 409.773C343.33 422.007 342.856 434.019 330.362 445.811C327.022 448.963 323.446 451.518 319.634 453.476C315.862 455.477 312.243 456.596 308.776 456.833L306.647 447.277C309.353 447.102 312.203 446.298 315.199 444.866C318.278 443.436 321.011 441.595 323.397 439.343C327.214 435.74 329.194 432.232 329.335 428.818C329.475 425.404 327.867 421.918 324.51 418.361L322.79 416.539C322.835 419.367 322.228 422.114 320.97 424.778C319.711 427.442 317.889 429.9 315.503 432.152C312.206 435.264 308.558 437.395 304.558 438.545C300.56 439.611 296.573 439.601 292.596 438.516C288.662 437.389 285.139 435.178 282.027 431.881C278.916 428.584 276.932 424.961 276.075 421.012C275.221 416.978 275.463 413.019 276.799 409.133C278.178 405.206 280.516 401.687 283.813 398.575C286.329 396.201 288.996 394.463 291.813 393.363C294.673 392.222 297.595 391.843 300.58 392.224L296.22 387.604L303.963 380.296ZM310.229 424.088C313.309 421.181 314.966 417.895 315.198 414.231C315.433 410.482 314.159 407.133 311.375 404.183C308.631 401.276 305.402 399.854 301.687 399.915C298.015 399.935 294.639 401.399 291.559 404.306C288.436 407.254 286.736 410.581 286.46 414.286C286.228 417.95 287.483 421.236 290.226 424.142C293.01 427.092 296.259 428.579 299.972 428.602C303.687 428.54 307.106 427.036 310.229 424.088ZM327.563 357.284C332.682 352.453 337.753 350.005 342.776 349.939C347.802 349.789 352.649 352.186 357.316 357.132L376.539 377.499L368.861 384.746L364.869 380.516C365.304 382.976 364.978 385.499 363.89 388.084C362.805 390.584 360.961 393.063 358.359 395.519C355.756 397.976 353.069 399.691 350.298 400.666C347.486 401.598 344.801 401.794 342.242 401.256C339.686 400.634 337.466 399.325 335.583 397.329C332.635 394.206 331.431 390.626 331.969 386.591C332.51 382.471 335.275 378.057 340.264 373.349L349.244 364.874L348.753 364.353C346.46 361.924 343.962 360.754 341.259 360.845C338.599 360.895 335.837 362.271 332.974 364.973C331.022 366.815 329.378 368.941 328.042 371.35C326.75 373.718 325.965 376.058 325.687 378.371L316.91 375.459C317.422 372.351 318.61 369.22 320.473 366.067C322.337 362.914 324.7 359.987 327.563 357.284ZM354.462 388.001C356.501 386.077 357.871 383.922 358.573 381.537C359.277 379.068 359.136 376.658 358.149 374.309L354.341 370.275L345.947 378.197C341.262 382.619 340.373 386.37 343.28 389.45C344.672 390.925 346.363 391.543 348.353 391.306C350.343 391.068 352.379 389.966 354.462 388.001ZM373.531 313.9C377.912 309.765 382.634 307.728 387.696 307.79C392.758 307.852 397.663 310.399 402.413 315.431L421.206 335.343L413.072 343.02L395.261 324.149C392.395 321.113 389.53 319.511 386.666 319.343C383.76 319.133 380.984 320.276 378.338 322.774C375.345 325.599 373.84 328.741 373.825 332.201C373.768 335.617 375.336 339.017 378.53 342.401L395.112 359.97L386.978 367.647L354.183 332.899L361.926 325.591L366.164 330.081C365.994 327.206 366.539 324.395 367.8 321.646C369.061 318.898 370.971 316.316 373.531 313.9ZM403.938 260.349L412.072 252.672L457.641 300.955L449.507 308.632L403.938 260.349ZM469.164 224.38L501.959 259.128L494.216 266.436L490.039 262.011C490.212 264.801 489.732 267.551 488.598 270.261C487.424 272.928 485.709 275.326 483.453 277.455C478.811 281.836 473.938 284.016 468.833 283.995C463.73 283.89 458.783 281.299 453.993 276.223L435.262 256.377L443.396 248.7L461.083 267.44C464.031 270.564 466.936 272.251 469.798 272.503C472.663 272.67 475.396 271.525 477.999 269.069C480.906 266.326 482.365 263.266 482.379 259.891C482.394 256.431 480.805 253.01 477.612 249.626L461.03 232.057L469.164 224.38ZM498.706 195.76C502.09 192.566 505.801 190.458 509.839 189.435C513.921 188.372 517.99 188.468 522.047 189.725C526.104 190.982 529.79 193.367 533.107 196.881C536.423 200.395 538.612 204.235 539.673 208.401C540.693 212.523 540.554 216.591 539.257 220.605C538.003 224.577 535.684 228.16 532.3 231.354C527.615 235.775 522.432 237.714 516.751 237.17L532.657 254.024L524.523 261.701L479.814 214.329L487.557 207.02L491.856 211.575C491.645 208.658 492.127 205.865 493.301 203.199C494.519 200.491 496.32 198.011 498.706 195.76ZM524.818 225.251C527.811 222.426 529.32 219.115 529.346 215.318C529.414 211.48 527.913 207.934 524.843 204.68C521.772 201.427 518.319 199.723 514.483 199.57C510.691 199.376 507.299 200.692 504.305 203.517C502.353 205.359 501.026 207.473 500.324 209.858C499.581 212.199 499.532 214.624 500.177 217.133C500.822 219.641 502.168 221.98 504.215 224.149C506.262 226.318 508.519 227.797 510.986 228.585C513.453 229.374 515.897 229.487 518.319 228.924C520.699 228.318 522.866 227.093 524.818 225.251ZM536.885 159.727C542.003 154.896 547.075 152.447 552.098 152.382C557.124 152.231 561.97 154.629 566.638 159.575L585.861 179.942L578.182 187.189L574.19 182.959C574.625 185.419 574.299 187.942 573.212 190.526C572.127 193.027 570.283 195.505 567.68 197.962C565.077 200.418 562.39 202.134 559.619 203.109C556.807 204.04 554.122 204.237 551.564 203.699C549.008 203.076 546.788 201.767 544.905 199.772C541.957 196.648 540.752 193.069 541.291 189.034C541.832 184.914 544.597 180.5 549.586 175.792L558.565 167.316L558.074 166.796C555.781 164.367 553.283 163.197 550.58 163.288C547.92 163.337 545.159 164.713 542.296 167.416C540.343 169.258 538.7 171.384 537.364 173.793C536.072 176.16 535.287 178.501 535.009 180.814L526.232 177.901C526.744 174.794 527.931 171.663 529.795 168.51C531.658 165.357 534.021 162.429 536.885 159.727ZM563.783 190.444C565.822 188.519 567.193 186.365 567.894 183.98C568.599 181.51 568.457 179.101 567.47 176.752L563.663 172.717L555.269 180.64C550.583 185.062 549.694 188.813 552.601 191.893C553.993 193.368 555.684 193.986 557.675 193.748C559.665 193.51 561.701 192.409 563.783 190.444ZM144.277 680.15C148.658 676.015 153.38 673.978 158.442 674.04C163.504 674.102 168.409 676.649 173.159 681.681L191.951 701.593L183.817 709.27L166.007 690.399C163.141 687.362 160.276 685.76 157.411 685.593C154.506 685.383 151.73 686.526 149.084 689.024C146.091 691.849 144.586 694.991 144.57 698.451C144.514 701.867 146.082 705.267 149.276 708.651L165.858 726.22L157.724 733.897L112.154 685.614L120.288 677.937L136.87 695.506C136.864 692.806 137.489 690.165 138.745 687.585C140.004 684.921 141.847 682.443 144.277 680.15ZM182.381 644.187C187.5 639.356 192.571 636.908 197.594 636.842C202.62 636.692 207.467 639.089 212.134 644.035L231.357 664.402L223.678 671.649L219.686 667.42C220.122 669.88 219.795 672.402 218.708 674.987C217.623 677.487 215.779 679.966 213.176 682.422C210.573 684.879 207.886 686.595 205.115 687.569C202.303 688.501 199.618 688.697 197.06 688.159C194.504 687.537 192.284 686.228 190.401 684.232C187.453 681.109 186.248 677.529 186.787 673.494C187.328 669.374 190.093 664.96 195.082 660.252L204.062 651.777L203.57 651.256C201.277 648.827 198.779 647.658 196.076 647.748C193.416 647.798 190.655 649.174 187.792 651.876C185.84 653.718 184.196 655.844 182.86 658.253C181.568 660.621 180.783 662.961 180.505 665.274L171.728 662.362C172.24 659.254 173.427 656.123 175.291 652.97C177.154 649.817 179.518 646.89 182.381 644.187ZM209.279 674.904C211.318 672.98 212.689 670.825 213.391 668.44C214.095 665.971 213.954 663.562 212.967 661.212L209.159 657.178L200.765 665.1C196.08 669.522 195.19 673.273 198.097 676.353C199.489 677.828 201.181 678.446 203.171 678.209C205.161 677.971 207.197 676.869 209.279 674.904ZM228.349 600.803C232.73 596.668 237.452 594.631 242.514 594.693C247.575 594.755 252.481 597.302 257.23 602.334L276.023 622.246L267.889 629.923L250.079 611.052C247.213 608.016 244.348 606.414 241.483 606.246C238.578 606.036 235.802 607.179 233.156 609.677C230.162 612.502 228.658 615.644 228.642 619.104C228.586 622.52 230.154 625.92 233.348 629.304L249.93 646.873L241.796 654.55L209 619.802L216.744 612.494L220.981 616.984C220.811 614.109 221.357 611.298 222.618 608.549C223.879 605.801 225.789 603.219 228.349 600.803ZM275.122 531.805L320.692 580.088L312.883 587.458L308.645 582.968C308.856 585.886 308.353 588.698 307.136 591.406C305.961 594.073 304.181 596.532 301.795 598.784C298.455 601.936 294.744 604.044 290.662 605.108C286.624 606.13 282.576 606.013 278.52 604.757C274.422 603.457 270.715 601.05 267.399 597.536C264.082 594.022 261.914 590.204 260.894 586.081C259.874 581.959 259.991 577.911 261.245 573.939C262.542 569.925 264.861 566.342 268.202 563.19C270.501 561.02 272.973 559.424 275.619 558.404C278.265 557.383 280.997 557.019 283.816 557.311L266.988 539.482L275.122 531.805ZM296.2 590.9C298.152 589.057 299.5 586.965 300.243 584.624C300.944 582.239 300.973 579.792 300.328 577.284C299.683 574.776 298.337 572.437 296.29 570.268C294.243 568.099 291.986 566.62 289.519 565.831C287.052 565.043 284.629 564.952 282.248 565.558C279.827 566.121 277.64 567.324 275.688 569.166C273.736 571.008 272.409 573.122 271.707 575.507C270.964 577.849 270.915 580.274 271.56 582.782C272.204 585.29 273.55 587.629 275.598 589.798C277.645 591.967 279.902 593.446 282.368 594.234C284.835 595.023 287.279 595.136 289.701 594.573C292.082 593.967 294.248 592.742 296.2 590.9ZM360.483 543.395C357.663 546.056 354.56 548.287 351.174 550.088C347.789 551.889 344.761 552.983 342.092 553.37L339.381 544.24C341.925 543.808 344.589 542.893 347.372 541.497C350.158 540.016 352.613 538.272 354.739 536.266C359.598 531.681 360.819 528.108 358.403 525.548C357.257 524.334 355.83 524.082 354.121 524.792C352.456 525.461 350.052 526.868 346.91 529.014C343.637 531.282 340.824 532.994 338.47 534.15C336.159 535.265 333.676 535.763 331.021 535.644C328.368 535.44 325.855 534.081 323.48 531.565C320.369 528.268 319.258 524.353 320.149 519.822C321.042 515.206 323.831 510.687 328.516 506.265C330.902 504.013 333.554 502.044 336.472 500.356C339.349 498.624 341.977 497.498 344.355 496.976L347.066 506.105C342.478 507.154 338.341 509.419 334.654 512.899C332.268 515.151 330.794 517.239 330.232 519.164C329.672 521.004 329.945 522.51 331.05 523.682C332.279 524.983 333.81 525.302 335.643 524.637C337.479 523.889 340.011 522.443 343.238 520.3C346.423 518.113 349.172 516.462 351.483 515.348C353.794 514.233 356.213 513.754 358.74 513.912C361.311 514.028 363.763 515.323 366.097 517.796C369.167 521.049 370.214 524.983 369.237 529.596C368.259 534.21 365.341 538.809 360.483 543.395ZM362.916 473.799C368.035 468.967 373.106 466.519 378.129 466.453C383.155 466.303 388.002 468.701 392.669 473.646L411.892 494.014L404.213 501.26L400.221 497.031C400.657 499.491 400.331 502.013 399.243 504.598C398.158 507.099 396.314 509.577 393.711 512.034C391.108 514.49 388.421 516.206 385.65 517.181C382.838 518.112 380.153 518.309 377.595 517.771C375.039 517.148 372.819 515.839 370.936 513.844C367.988 510.72 366.783 507.141 367.322 503.105C367.863 498.986 370.628 494.572 375.617 489.863L384.597 481.388L384.105 480.868C381.812 478.438 379.314 477.269 376.611 477.359C373.951 477.409 371.19 478.785 368.327 481.487C366.375 483.33 364.731 485.455 363.395 487.864C362.103 490.232 361.318 492.572 361.04 494.885L352.263 491.973C352.775 488.865 353.962 485.735 355.826 482.582C357.689 479.429 360.053 476.501 362.916 473.799ZM389.814 504.515C391.853 502.591 393.224 500.436 393.926 498.051C394.63 495.582 394.489 493.173 393.502 490.823L389.694 486.789L381.3 494.711C376.615 499.133 375.725 502.884 378.632 505.964C380.024 507.439 381.716 508.058 383.706 507.82C385.696 507.582 387.732 506.481 389.814 504.515ZM408.884 430.414C413.265 426.279 417.987 424.242 423.049 424.304C428.11 424.366 433.016 426.913 437.765 431.946L456.558 451.858L448.424 459.534L430.614 440.664C427.748 437.627 424.883 436.025 422.018 435.858C419.113 435.647 416.337 436.791 413.691 439.288C410.697 442.113 409.193 445.256 409.177 448.715C409.121 452.132 410.689 455.532 413.883 458.915L430.465 476.485L422.331 484.161L389.535 449.413L397.279 442.105L401.516 446.595C401.346 443.721 401.892 440.909 403.153 438.161C404.414 435.412 406.324 432.83 408.884 430.414ZM434.081 407.371L442.215 399.694L475.01 434.442L466.877 442.119L434.081 407.371ZM432.776 397.776C431.301 399.168 429.635 399.879 427.778 399.91C425.879 399.897 424.275 399.196 422.965 397.808C421.654 396.42 421.068 394.8 421.206 392.947C421.303 391.051 422.089 389.407 423.564 388.015C425.039 386.623 426.705 385.911 428.563 385.881C430.38 385.807 431.923 386.442 433.192 387.787C434.543 389.218 435.19 390.904 435.134 392.843C435.081 394.698 434.295 396.343 432.776 397.776ZM504.793 402.765C504.576 404.447 503.957 406.138 502.938 407.839C501.961 409.498 500.714 411.045 499.196 412.478C495.378 416.081 491.486 417.867 487.521 417.837C483.555 417.806 479.771 415.883 476.168 412.065L460.384 395.342L454.658 400.746L448.517 394.239L454.243 388.835L446.75 380.896L454.884 373.219L462.377 381.158L471.682 372.376L477.823 378.883L468.518 387.665L484.117 404.193C485.714 405.885 487.355 406.797 489.039 406.93C490.682 407.02 492.284 406.328 493.846 404.854C495.668 403.135 496.736 401.224 497.05 399.124L504.793 402.765ZM480.47 363.589L488.604 355.912L521.399 390.661L513.265 398.337L480.47 363.589ZM479.165 353.994C477.69 355.386 476.024 356.097 474.166 356.128C472.268 356.115 470.664 355.415 469.353 354.027C468.043 352.638 467.457 351.018 467.595 349.165C467.692 347.269 468.478 345.625 469.953 344.233C471.428 342.841 473.094 342.13 474.952 342.099C476.768 342.025 478.311 342.66 479.581 344.005C480.932 345.437 481.579 347.122 481.523 349.062C481.47 350.917 480.684 352.561 479.165 353.994ZM553.068 348.468L559.21 354.975L529.212 383.287L524.36 378.146L521.624 337.052L502.949 354.678L496.807 348.17L525.894 320.718L530.746 325.859L533.417 367.015L553.068 348.468ZM582.652 300.369C583.184 300.933 583.898 301.777 584.794 302.9L557.529 328.633C560.422 330.742 563.583 331.614 567.011 331.249C570.442 330.799 573.654 329.162 576.648 326.337C580.465 322.734 582.423 318.508 582.521 313.658L591.61 314.554C591.808 317.893 591.165 321.166 589.68 324.372C588.195 327.578 585.956 330.594 582.962 333.419C579.145 337.022 575.066 339.436 570.727 340.661C566.387 341.885 562.146 341.91 558.002 340.736C553.861 339.477 550.173 337.134 546.939 333.706C543.745 330.323 541.638 326.57 540.618 322.447C539.6 318.24 539.742 314.088 541.042 309.99C542.342 305.892 544.705 302.226 548.132 298.992C551.516 295.798 555.247 293.712 559.327 292.733C563.408 291.669 567.476 291.808 571.531 293.149C575.588 294.405 579.295 296.812 582.652 300.369ZM554.274 305.499C551.671 307.955 550.195 310.824 549.847 314.106C549.502 317.303 550.341 320.365 552.367 323.293L572.083 304.684C569.362 302.496 566.374 301.46 563.122 301.577C559.869 301.694 556.92 303.001 554.274 305.499ZM586.417 273.193C585.32 267.339 587.722 261.627 593.622 256.059L600.93 263.802C600.113 264.327 599.423 264.856 598.859 265.388C595.692 268.377 594.099 271.643 594.081 275.187C594.022 278.688 595.631 282.174 598.906 285.644L614.812 302.498L606.678 310.174L573.883 275.426L581.627 268.118L586.417 273.193ZM620.239 230.938C624.62 226.803 629.342 224.766 634.404 224.828C639.465 224.89 644.371 227.437 649.12 232.469L667.913 252.381L659.779 260.058L641.969 241.187C639.103 238.15 636.238 236.548 633.373 236.381C630.468 236.171 627.692 237.314 625.046 239.812C622.052 242.637 620.548 245.779 620.532 249.239C620.476 252.655 622.044 256.055 625.238 259.439L641.82 277.008L633.686 284.685L600.89 249.937L608.634 242.628L612.871 247.118C612.701 244.244 613.247 241.433 614.508 238.684C615.769 235.936 617.679 233.353 620.239 230.938ZM677.337 177.787L696.505 230.687C698.548 235.894 699.202 240.28 698.466 243.846C697.771 247.455 695.884 250.713 692.803 253.619C691.068 255.257 689.089 256.592 686.864 257.625C684.64 258.658 682.515 259.187 680.489 259.213L678.092 250.156C679.569 250.156 681.033 249.882 682.484 249.333C683.978 248.744 685.267 247.937 686.351 246.913C687.783 245.562 688.606 244.088 688.821 242.491C689.079 240.853 688.78 238.797 687.923 236.325L687.219 234.406L639.14 213.837L647.599 205.853L682.79 221.239L669.528 185.157L677.337 177.787ZM694.246 161.09C699.365 156.258 704.436 153.81 709.46 153.744C714.485 153.594 719.332 155.992 723.999 160.937L743.222 181.305L735.544 188.551L731.552 184.322C731.987 186.782 731.661 189.304 730.573 191.889C729.488 194.389 727.644 196.868 725.042 199.325C722.439 201.781 719.752 203.497 716.981 204.472C714.169 205.403 711.484 205.6 708.925 205.062C706.369 204.439 704.149 203.13 702.266 201.135C699.318 198.011 698.114 194.432 698.652 190.396C699.193 186.277 701.958 181.863 706.947 177.154L715.927 168.679L715.436 168.158C713.143 165.729 710.645 164.56 707.942 164.65C705.282 164.7 702.52 166.076 699.657 168.778C697.705 170.621 696.061 172.746 694.725 175.155C693.433 177.523 692.648 179.863 692.37 182.176L683.593 179.264C684.105 176.156 685.293 173.026 687.156 169.873C689.02 166.72 691.383 163.792 694.246 161.09ZM721.145 191.806C723.184 189.882 724.554 187.727 725.256 185.342C725.96 182.873 725.819 180.464 724.832 178.114L721.024 174.08L712.63 182.002C707.945 186.424 707.056 190.175 709.963 193.255C711.355 194.73 713.046 195.349 715.036 195.111C717.026 194.873 719.062 193.772 721.145 191.806ZM709.63 126.885L719.26 117.796L746.376 149.784L739.933 155.864L709.63 126.885ZM757.865 168.346C756.347 169.779 754.638 170.489 752.74 170.476C750.8 170.42 749.155 169.676 747.804 168.245C746.453 166.813 745.826 165.149 745.923 163.253C746.02 161.357 746.827 159.693 748.346 158.26C749.821 156.868 751.486 156.198 753.341 156.252C755.239 156.265 756.864 156.987 758.215 158.419C759.566 159.85 760.214 161.536 760.158 163.475C760.104 165.33 759.34 166.954 757.865 168.346Z" fill="#1F1F1F"/>
<g filter="url(#filter9_d)">
<path d="M2243.9 2053.8C2252.68 2051.14 2260.58 2046.96 2268.94 2043.03C2275.05 2040.15 2281.94 2038.13 2287.81 2034.7C2292.32 2032.06 2296.16 2028.34 2300.36 2025.19C2304.02 2022.45 2310.52 2021.04 2314.8 2019.76C2320.69 2018 2326.86 2017.8 2332.92 2017.8C2343.83 2017.8 2357.59 2014.66 2366.37 2023.11C2369.67 2026.29 2371.68 2031.07 2373.85 2035.15C2376.26 2039.68 2378.9 2044.03 2381.41 2048.5C2383.48 2052.2 2382.61 2057.05 2382.61 2061.31C2382.61 2075.49 2378.81 2092.46 2366.26 2099.76C2359.01 2103.98 2352.18 2107.6 2344.34 2110.37C2337.27 2112.87 2331.08 2117.21 2324.38 2120.66C2313.23 2126.4 2302.13 2130.33 2291.64 2137.39C2288.48 2139.52 2284.16 2143.12 2280.29 2143.43C2277.66 2143.64 2276.71 2146.99 2274.35 2147.84" stroke="#878787" stroke-width="7.97159" stroke-linecap="round" stroke-linejoin="round"/>
</g>
<g filter="url(#filter10_d)">
<path d="M2272.11 2115.43C2280.89 2112.76 2288.79 2108.59 2297.15 2104.65C2303.26 2101.78 2310.15 2099.76 2316.02 2096.33C2320.53 2093.69 2324.37 2089.96 2328.57 2086.82C2332.23 2084.08 2338.72 2082.67 2343.01 2081.39C2348.89 2079.63 2355.07 2079.43 2361.12 2079.43C2372.03 2079.43 2385.8 2076.28 2394.58 2084.74C2397.88 2087.91 2399.89 2092.69 2402.06 2096.78C2404.46 2101.31 2407.11 2105.66 2409.61 2110.12C2411.69 2113.83 2410.82 2118.67 2410.82 2122.94C2410.82 2137.12 2407.02 2154.09 2394.47 2161.39C2387.22 2165.6 2380.39 2169.23 2372.55 2172C2365.48 2174.5 2359.29 2178.84 2352.59 2182.29C2341.44 2188.02 2330.34 2191.96 2319.85 2199.02C2316.69 2201.15 2312.37 2204.75 2308.5 2205.06C2305.87 2205.27 2304.91 2208.62 2302.56 2209.47" stroke="#878787" stroke-width="7.97159" stroke-linecap="round" stroke-linejoin="round"/>
</g>
<g filter="url(#filter11_d)">
<path d="M1975.63 2265.03C1966.85 2267.8 1958.95 2272.14 1950.59 2276.21C1944.48 2279.2 1937.59 2281.29 1931.72 2284.85C1927.21 2287.59 1923.37 2291.46 1919.17 2294.72C1915.51 2297.57 1909.01 2299.03 1904.73 2300.35C1898.84 2302.18 1892.67 2302.39 1886.61 2302.39C1875.71 2302.39 1861.94 2305.65 1853.16 2296.88C1849.86 2293.58 1847.85 2288.62 1845.68 2284.39C1843.27 2279.68 1840.63 2275.17 1838.12 2270.54C1836.05 2266.7 1836.92 2261.67 1836.92 2257.24C1836.92 2242.53 1840.72 2224.93 1853.27 2217.35C1860.52 2212.98 1867.35 2209.21 1875.19 2206.34C1882.26 2203.75 1888.45 2199.24 1895.15 2195.67C1906.3 2189.72 1917.4 2185.63 1927.89 2178.31C1931.05 2176.1 1935.37 2172.36 1939.24 2172.04C1941.87 2171.82 1942.82 2168.35 1945.18 2167.46" stroke="#878787" stroke-width="7.97159" stroke-linecap="round" stroke-linejoin="round"/>
</g>
<g filter="url(#filter12_d)">
<path d="M2003.83 2326.66C1995.06 2329.43 1987.16 2333.76 1978.8 2337.84C1972.69 2340.82 1965.8 2342.92 1959.93 2346.48C1955.42 2349.22 1951.58 2353.08 1947.37 2356.35C1943.71 2359.19 1937.22 2360.65 1932.94 2361.98C1927.05 2363.8 1920.88 2364.01 1914.82 2364.01C1903.91 2364.01 1890.15 2367.28 1881.37 2358.51C1878.07 2355.21 1876.05 2350.25 1873.89 2346.01C1871.48 2341.31 1868.83 2336.8 1866.33 2332.17C1864.25 2328.32 1865.13 2323.3 1865.13 2318.87C1865.13 2304.16 1868.93 2286.55 1881.48 2278.98C1888.73 2274.6 1895.56 2270.84 1903.39 2267.97C1910.47 2265.37 1916.65 2260.87 1923.35 2257.29C1934.51 2251.34 1945.6 2247.26 1956.1 2239.93C1959.26 2237.72 1963.57 2233.99 1967.45 2233.66C1970.08 2233.44 1971.03 2229.97 1973.39 2229.09" stroke="#878787" stroke-width="7.97159" stroke-linecap="round" stroke-linejoin="round"/>
</g>
<g filter="url(#filter13_d)">
<rect x="1898.5" y="2147.73" width="376.088" height="175.51" rx="5.51879" transform="rotate(-22.7235 1898.5 2147.73)" fill="#57FAD3"/>
</g>
<g filter="url(#filter14_d)">
<rect x="1926.71" y="2209.36" width="376.088" height="175.51" rx="5.51879" transform="rotate(-22.7235 1926.71 2209.36)" fill="#57FAD3"/>
</g>
<line x1="1985.65" y1="2245.59" x2="2253" y2="2131.49" stroke="#32C09E" stroke-width="4.2924" stroke-linecap="round"/>
<line x1="1999.75" y1="2276.44" x2="2267.11" y2="2162.35" stroke="#32C09E" stroke-width="4.2924" stroke-linecap="round"/>
<line x1="1985.34" y1="2245.78" x2="2252.7" y2="2131.69" stroke="#32C09E" stroke-width="4.2924" stroke-linecap="round"/>
<line x1="2013.55" y1="2307.41" x2="2280.91" y2="2193.31" stroke="#32C09E" stroke-width="4.2924" stroke-linecap="round"/>
<path d="M2009.76 2451.29L2014.15 2495.07L2006.63 2498.43L1984.61 2474.42L1987.62 2506.92L1980.05 2510.3L1950.38 2477.81L1957.73 2474.53L1980.16 2499.27L1977.07 2465.89L1983.61 2462.97L2006.27 2487.81L2003 2454.31L2009.76 2451.29ZM2027.7 2453.73C2031.99 2451.82 2035.72 2451.39 2038.89 2452.46C2042.09 2453.47 2044.61 2456.05 2046.46 2460.19L2054.08 2477.24L2047.65 2480.11L2046.07 2476.57C2045.8 2478.21 2045.04 2479.73 2043.78 2481.12C2042.55 2482.45 2040.85 2483.6 2038.67 2484.58C2036.49 2485.55 2034.42 2486.04 2032.46 2486.04C2030.48 2486.01 2028.75 2485.54 2027.26 2484.64C2025.79 2483.69 2024.68 2482.37 2023.93 2480.7C2022.76 2478.09 2022.79 2475.57 2024.02 2473.15C2025.27 2470.67 2027.98 2468.51 2032.16 2466.64L2039.68 2463.28L2039.48 2462.85C2038.57 2460.81 2037.26 2459.53 2035.54 2458.99C2033.85 2458.43 2031.81 2458.69 2029.41 2459.76C2027.78 2460.49 2026.28 2461.47 2024.91 2462.69C2023.57 2463.9 2022.56 2465.2 2021.88 2466.59L2016.99 2462.83C2018 2460.98 2019.44 2459.27 2021.3 2457.7C2023.17 2456.13 2025.3 2454.8 2027.7 2453.73ZM2037.87 2478.99C2039.58 2478.23 2040.91 2477.17 2041.88 2475.82C2042.87 2474.42 2043.31 2472.88 2043.2 2471.18L2041.69 2467.8L2034.67 2470.94C2030.75 2472.69 2029.36 2474.86 2030.51 2477.44C2031.06 2478.67 2031.99 2479.43 2033.3 2479.72C2034.6 2480.01 2036.13 2479.77 2037.87 2478.99ZM2064.71 2485.62C2061.84 2486.9 2059.41 2487.31 2057.42 2486.85L2057.12 2480.91C2058.47 2481.22 2059.97 2481.01 2061.6 2480.28C2062.88 2479.71 2063.66 2478.88 2063.96 2477.79C2064.31 2476.72 2064.14 2475.42 2063.46 2473.9L2050.15 2444.1L2056.96 2441.06L2070.19 2470.69C2071.64 2473.92 2071.88 2476.86 2070.93 2479.51C2069.98 2482.16 2067.91 2484.19 2064.71 2485.62ZM2051.39 2437.8C2050.15 2438.35 2048.95 2438.43 2047.77 2438.04C2046.58 2437.61 2045.72 2436.82 2045.2 2435.66C2044.68 2434.49 2044.67 2433.35 2045.17 2432.21C2045.64 2431.04 2046.5 2430.18 2047.74 2429.62C2048.97 2429.07 2050.18 2428.99 2051.35 2429.38C2052.51 2429.73 2053.34 2430.47 2053.85 2431.6C2054.38 2432.8 2054.42 2434 2053.96 2435.21C2053.51 2436.37 2052.66 2437.23 2051.39 2437.8ZM2065.89 2437.07L2072.7 2434.03L2085.69 2463.12L2078.88 2466.16L2065.89 2437.07ZM2067.18 2430.74C2065.94 2431.29 2064.74 2431.37 2063.56 2430.98C2062.37 2430.56 2061.52 2429.76 2061 2428.6C2060.48 2427.44 2060.47 2426.29 2060.96 2425.16C2061.44 2423.98 2062.29 2423.12 2063.53 2422.57C2064.76 2422.02 2065.97 2421.94 2067.15 2422.33C2068.31 2422.68 2069.14 2423.42 2069.64 2424.55C2070.17 2425.74 2070.21 2426.95 2069.75 2428.16C2069.31 2429.31 2068.45 2430.17 2067.18 2430.74ZM2097.61 2422.51C2100.45 2421.24 2103.25 2420.73 2106.01 2420.98C2108.82 2421.21 2111.36 2422.16 2113.63 2423.85C2115.91 2425.53 2117.71 2427.84 2119.02 2430.78C2120.33 2433.73 2120.87 2436.62 2120.62 2439.48C2120.35 2442.3 2119.37 2444.83 2117.67 2447.07C2116 2449.29 2113.76 2451.04 2110.92 2452.3C2108.93 2453.2 2106.94 2453.67 2104.96 2453.73C2103.02 2453.77 2101.17 2453.35 2099.43 2452.47L2101.11 2456.23L2094.63 2459.13L2076.57 2418.7L2083.38 2415.66L2090.03 2430.53C2090.62 2428.74 2091.55 2427.17 2092.82 2425.82C2094.13 2424.46 2095.73 2423.35 2097.61 2422.51ZM2107.56 2446.82C2110.06 2445.7 2111.74 2443.95 2112.59 2441.56C2113.48 2439.16 2113.32 2436.6 2112.1 2433.87C2110.88 2431.15 2109.09 2429.32 2106.71 2428.38C2104.36 2427.42 2101.94 2427.5 2099.43 2428.62C2097.8 2429.35 2096.5 2430.39 2095.53 2431.74C2094.55 2433.05 2093.98 2434.56 2093.84 2436.28C2093.69 2438 2094.02 2439.77 2094.83 2441.59C2095.64 2443.4 2096.74 2444.83 2098.12 2445.87C2099.5 2446.91 2101.01 2447.52 2102.66 2447.7C2104.29 2447.84 2105.92 2447.55 2107.56 2446.82ZM2150.02 2399.1C2152.85 2397.84 2155.65 2397.33 2158.41 2397.57C2161.22 2397.8 2163.76 2398.76 2166.03 2400.44C2168.31 2402.13 2170.11 2404.44 2171.42 2407.38C2172.73 2410.32 2173.27 2413.22 2173.02 2416.08C2172.75 2418.9 2171.77 2421.43 2170.07 2423.67C2168.41 2425.89 2166.16 2427.64 2163.32 2428.9C2161.33 2429.79 2159.34 2430.27 2157.36 2430.32C2155.42 2430.36 2153.58 2429.94 2151.83 2429.07L2153.51 2432.83L2147.03 2435.72L2128.98 2395.3L2135.79 2392.26L2142.43 2407.13C2143.02 2405.34 2143.95 2403.77 2145.22 2402.42C2146.53 2401.05 2148.13 2399.95 2150.02 2399.1ZM2159.96 2423.41C2162.46 2422.29 2164.14 2420.54 2164.99 2418.16C2165.88 2415.76 2165.72 2413.19 2164.5 2410.47C2163.29 2407.75 2161.49 2405.91 2159.11 2404.97C2156.76 2404.02 2154.34 2404.1 2151.83 2405.22C2150.2 2405.95 2148.9 2406.99 2147.93 2408.33C2146.95 2409.64 2146.38 2411.16 2146.24 2412.88C2146.09 2414.6 2146.42 2416.37 2147.23 2418.18C2148.04 2420 2149.14 2421.43 2150.52 2422.47C2151.9 2423.51 2153.41 2424.11 2155.06 2424.29C2156.69 2424.44 2158.32 2424.14 2159.96 2423.41ZM2181.98 2384.83C2186.26 2382.91 2189.99 2382.49 2193.17 2383.55C2196.37 2384.56 2198.89 2387.14 2200.74 2391.28L2208.35 2408.33L2201.93 2411.2L2200.34 2407.66C2200.08 2409.31 2199.32 2410.82 2198.06 2412.21C2196.83 2413.54 2195.12 2414.7 2192.94 2415.67C2190.76 2416.64 2188.7 2417.13 2186.74 2417.14C2184.76 2417.1 2183.03 2416.64 2181.54 2415.73C2180.06 2414.78 2178.96 2413.47 2178.21 2411.8C2177.04 2409.18 2177.07 2406.66 2178.3 2404.24C2179.55 2401.77 2182.26 2399.6 2186.43 2397.73L2193.95 2394.38L2193.76 2393.94C2192.85 2391.91 2191.53 2390.62 2189.81 2390.08C2188.13 2389.53 2186.09 2389.79 2183.69 2390.86C2182.06 2391.59 2180.55 2392.56 2179.18 2393.79C2177.85 2394.99 2176.84 2396.29 2176.15 2397.69L2171.27 2393.92C2172.28 2392.08 2173.71 2390.37 2175.58 2388.79C2177.45 2387.22 2179.58 2385.9 2181.98 2384.83ZM2192.15 2410.08C2193.85 2409.32 2195.19 2408.26 2196.16 2406.92C2197.14 2405.52 2197.58 2403.97 2197.48 2402.28L2195.97 2398.9L2188.94 2402.04C2185.02 2403.79 2183.64 2405.95 2184.79 2408.53C2185.34 2409.77 2186.27 2410.53 2187.57 2410.82C2188.88 2411.11 2190.4 2410.86 2192.15 2410.08ZM2248.95 2355.31L2251.21 2389.19L2244.67 2392.11L2228.2 2375.42L2229.53 2398.87L2222.99 2401.79L2199.32 2377.47L2205.75 2374.6L2223.01 2392.64L2221.44 2367.6L2227.16 2365.04L2244.64 2383.11L2242.9 2358.01L2248.95 2355.31ZM2263.69 2348.33C2267.98 2346.42 2271.71 2345.99 2274.88 2347.06C2278.08 2348.07 2280.6 2350.64 2282.45 2354.78L2290.07 2371.83L2283.64 2374.71L2282.06 2371.17C2281.79 2372.81 2281.03 2374.33 2279.78 2375.71C2278.54 2377.05 2276.84 2378.2 2274.66 2379.17C2272.48 2380.15 2270.41 2380.64 2268.45 2380.64C2266.48 2380.61 2264.74 2380.14 2263.25 2379.24C2261.78 2378.28 2260.67 2376.97 2259.92 2375.3C2258.76 2372.69 2258.79 2370.17 2260.01 2367.75C2261.26 2365.27 2263.97 2363.1 2268.15 2361.24L2275.67 2357.88L2275.47 2357.44C2274.56 2355.41 2273.25 2354.12 2271.53 2353.59C2269.84 2353.03 2267.8 2353.29 2265.4 2354.36C2263.77 2355.09 2262.27 2356.07 2260.9 2357.29C2259.56 2358.49 2258.55 2359.8 2257.87 2361.19L2252.98 2357.42C2253.99 2355.58 2255.43 2353.87 2257.29 2352.3C2259.16 2350.72 2261.29 2349.4 2263.69 2348.33ZM2273.86 2373.58C2275.57 2372.82 2276.9 2371.77 2277.87 2370.42C2278.86 2369.02 2279.3 2367.47 2279.19 2365.78L2277.69 2362.4L2270.66 2365.54C2266.74 2367.29 2265.35 2369.46 2266.5 2372.04C2267.05 2373.27 2267.98 2374.03 2269.29 2374.32C2270.59 2374.61 2272.12 2374.36 2273.86 2373.58ZM2327.38 2355.63C2324.36 2356.97 2321.37 2357.55 2318.41 2357.35C2315.45 2357.15 2312.79 2356.22 2310.44 2354.57C2308.07 2352.88 2306.25 2350.6 2304.97 2347.73C2303.69 2344.86 2303.21 2342 2303.55 2339.15C2303.89 2336.3 2304.96 2333.71 2306.75 2331.39C2308.58 2329.04 2311.02 2327.19 2314.07 2325.83C2316.94 2324.55 2319.7 2324.01 2322.37 2324.21C2325.06 2324.4 2327.44 2325.34 2329.51 2327.04L2325.64 2332.42C2324.2 2331.45 2322.7 2330.92 2321.14 2330.84C2319.6 2330.7 2318.08 2330.96 2316.59 2331.63C2314.05 2332.76 2312.32 2334.54 2311.39 2336.96C2310.45 2339.34 2310.6 2341.91 2311.83 2344.67C2313.06 2347.43 2314.87 2349.28 2317.25 2350.22C2319.65 2351.11 2322.14 2350.97 2324.72 2349.82C2326.21 2349.16 2327.43 2348.22 2328.37 2347.02C2329.33 2345.76 2329.93 2344.27 2330.17 2342.56L2336.76 2343.27C2336.6 2345.95 2335.71 2348.38 2334.06 2350.55C2332.44 2352.67 2330.21 2354.36 2327.38 2355.63ZM2343.49 2312.69C2347.77 2310.78 2351.51 2310.35 2354.68 2311.41C2357.88 2312.43 2360.4 2315 2362.25 2319.14L2369.87 2336.19L2363.44 2339.06L2361.86 2335.52C2361.59 2337.17 2360.83 2338.68 2359.57 2340.07C2358.34 2341.41 2356.63 2342.56 2354.46 2343.53C2352.28 2344.51 2350.21 2345 2348.25 2345C2346.27 2344.97 2344.54 2344.5 2343.05 2343.6C2341.58 2342.64 2340.47 2341.33 2339.72 2339.66C2338.55 2337.04 2338.58 2334.53 2339.81 2332.11C2341.06 2329.63 2343.77 2327.46 2347.95 2325.6L2355.46 2322.24L2355.27 2321.8C2354.36 2319.77 2353.05 2318.48 2351.33 2317.95C2349.64 2317.39 2347.6 2317.65 2345.2 2318.72C2343.57 2319.45 2342.07 2320.43 2340.69 2321.65C2339.36 2322.85 2338.35 2324.15 2337.67 2325.55L2332.78 2321.78C2333.79 2319.94 2335.23 2318.23 2337.09 2316.66C2338.96 2315.08 2341.09 2313.76 2343.49 2312.69ZM2353.66 2337.94C2355.36 2337.18 2356.7 2336.13 2357.67 2334.78C2358.66 2333.38 2359.1 2331.83 2358.99 2330.14L2357.48 2326.76L2350.46 2329.9C2346.53 2331.65 2345.15 2333.82 2346.3 2336.39C2346.85 2337.63 2347.78 2338.39 2349.09 2338.68C2350.39 2338.97 2351.91 2338.72 2353.66 2337.94ZM2389.31 2279.03L2407.36 2319.45L2400.82 2322.37L2399.15 2318.61C2398.64 2320.49 2397.7 2322.15 2396.34 2323.59C2395.01 2325.01 2393.35 2326.16 2391.35 2327.05C2388.56 2328.3 2385.76 2328.81 2382.95 2328.58C2380.19 2328.34 2377.66 2327.37 2375.39 2325.69C2373.09 2323.97 2371.29 2321.64 2369.98 2318.7C2368.66 2315.76 2368.14 2312.88 2368.4 2310.06C2368.67 2307.24 2369.63 2304.71 2371.3 2302.49C2373 2300.25 2375.25 2298.51 2378.04 2297.26C2379.97 2296.4 2381.88 2295.94 2383.77 2295.88C2385.66 2295.82 2387.46 2296.19 2389.17 2296.99L2382.5 2282.07L2389.31 2279.03ZM2389.57 2320.86C2391.2 2320.13 2392.51 2319.11 2393.49 2317.8C2394.46 2316.45 2395.02 2314.92 2395.16 2313.2C2395.31 2311.48 2394.98 2309.71 2394.16 2307.89C2393.35 2306.08 2392.26 2304.65 2390.88 2303.61C2389.5 2302.57 2387.99 2301.98 2386.36 2301.84C2384.72 2301.66 2383.07 2301.94 2381.44 2302.67C2379.81 2303.4 2378.5 2304.43 2377.54 2305.78C2376.55 2307.09 2375.99 2308.61 2375.84 2310.33C2375.7 2312.05 2376.03 2313.82 2376.84 2315.63C2377.65 2317.45 2378.75 2318.88 2380.13 2319.91C2381.51 2320.95 2383.02 2321.56 2384.67 2321.74C2386.3 2321.88 2387.93 2321.59 2389.57 2320.86ZM2414.24 2281.09C2418.53 2279.17 2422.26 2278.75 2425.44 2279.81C2428.63 2280.82 2431.16 2283.4 2433 2287.54L2440.62 2304.59L2434.19 2307.46L2432.61 2303.92C2432.34 2305.57 2431.58 2307.08 2430.33 2308.47C2429.1 2309.8 2427.39 2310.96 2425.21 2311.93C2423.03 2312.91 2420.96 2313.39 2419 2313.4C2417.03 2313.36 2415.3 2312.9 2413.8 2312C2412.33 2311.04 2411.22 2309.73 2410.48 2308.06C2409.31 2305.44 2409.34 2302.92 2410.57 2300.5C2411.81 2298.03 2414.53 2295.86 2418.7 2293.99L2426.22 2290.64L2426.02 2290.2C2425.12 2288.17 2423.8 2286.88 2422.08 2286.34C2420.4 2285.79 2418.35 2286.05 2415.96 2287.12C2414.32 2287.85 2412.82 2288.82 2411.45 2290.05C2410.11 2291.25 2409.11 2292.55 2408.42 2293.95L2403.54 2290.18C2404.54 2288.34 2405.98 2286.63 2407.85 2285.06C2409.71 2283.48 2411.85 2282.16 2414.24 2281.09ZM2424.41 2306.34C2426.12 2305.58 2427.46 2304.53 2428.42 2303.18C2429.41 2301.78 2429.85 2300.23 2429.75 2298.54L2428.24 2295.16L2421.21 2298.3C2417.29 2300.05 2415.9 2302.21 2417.06 2304.79C2417.61 2306.03 2418.54 2306.79 2419.84 2307.08C2421.15 2307.37 2422.67 2307.12 2424.41 2306.34ZM2452.73 2263.9C2456.39 2262.26 2459.81 2262.02 2462.99 2263.17C2466.16 2264.33 2468.69 2267.01 2470.57 2271.22L2478.01 2287.89L2471.2 2290.93L2464.15 2275.13C2463.01 2272.59 2461.56 2270.95 2459.8 2270.22C2458.01 2269.44 2456.01 2269.55 2453.8 2270.54C2451.29 2271.66 2449.65 2273.31 2448.88 2275.48C2448.1 2277.62 2448.33 2280.11 2449.6 2282.94L2456.17 2297.65L2449.36 2300.69L2436.37 2271.6L2442.85 2268.7L2444.53 2272.46C2445.05 2270.62 2446.02 2268.97 2447.41 2267.51C2448.81 2266.06 2450.58 2264.86 2452.73 2263.9ZM2502.8 2241.93L2513.82 2266.61C2518.39 2276.85 2515.45 2284.3 2504.99 2288.98C2502.2 2290.22 2499.38 2291.05 2496.55 2291.44C2493.74 2291.87 2491.21 2291.78 2488.98 2291.16L2489.74 2284.68C2491.48 2285.16 2493.45 2285.29 2495.66 2285.04C2497.91 2284.82 2500.03 2284.26 2502.03 2283.37C2505.23 2281.94 2507.25 2280.17 2508.09 2278.05C2508.93 2275.94 2508.68 2273.39 2507.35 2270.41L2506.67 2268.88C2506.07 2270.67 2505.09 2272.27 2503.71 2273.67C2502.33 2275.07 2500.64 2276.22 2498.65 2277.11C2495.89 2278.34 2493.12 2278.88 2490.35 2278.72C2487.6 2278.51 2485.09 2277.63 2482.83 2276.07C2480.6 2274.5 2478.87 2272.33 2477.64 2269.57C2476.4 2266.81 2475.95 2264.09 2476.28 2261.42C2476.63 2258.69 2477.66 2256.25 2479.35 2254.1C2481.08 2251.93 2483.33 2250.23 2486.09 2249C2488.2 2248.06 2490.26 2247.55 2492.27 2247.48C2494.32 2247.39 2496.25 2247.79 2498.04 2248.69L2496.31 2244.82L2502.8 2241.93ZM2497.1 2270.87C2499.68 2269.72 2501.45 2268.02 2502.4 2265.76C2503.37 2263.45 2503.31 2261.06 2502.2 2258.59C2501.12 2256.16 2499.4 2254.55 2497.05 2253.78C2494.73 2252.98 2492.28 2253.16 2489.7 2254.31C2487.09 2255.48 2485.29 2257.2 2484.3 2259.47C2483.35 2261.72 2483.41 2264.07 2484.5 2266.5C2485.6 2268.97 2487.32 2270.62 2489.65 2271.45C2492 2272.23 2494.49 2272.04 2497.1 2270.87ZM2522.72 2232.64C2527 2230.73 2530.73 2230.3 2533.91 2231.37C2537.11 2232.38 2539.63 2234.95 2541.48 2239.09L2549.09 2256.14L2542.66 2259.02L2541.08 2255.47C2540.82 2257.12 2540.06 2258.63 2538.8 2260.02C2537.57 2261.36 2535.86 2262.51 2533.68 2263.48C2531.5 2264.46 2529.44 2264.95 2527.48 2264.95C2525.5 2264.92 2523.77 2264.45 2522.28 2263.55C2520.8 2262.59 2519.7 2261.28 2518.95 2259.61C2517.78 2256.99 2517.81 2254.48 2519.04 2252.06C2520.29 2249.58 2523 2247.41 2527.17 2245.55L2534.69 2242.19L2534.5 2241.75C2533.59 2239.72 2532.27 2238.43 2530.55 2237.9C2528.87 2237.34 2526.83 2237.6 2524.43 2238.67C2522.8 2239.4 2521.29 2240.38 2519.92 2241.6C2518.59 2242.8 2517.58 2244.1 2516.89 2245.5L2512.01 2241.73C2513.02 2239.89 2514.45 2238.18 2516.32 2236.61C2518.19 2235.03 2520.32 2233.71 2522.72 2232.64ZM2532.89 2257.89C2534.59 2257.13 2535.93 2256.08 2536.9 2254.73C2537.88 2253.33 2538.32 2251.78 2538.22 2250.09L2536.71 2246.71L2529.68 2249.85C2525.76 2251.6 2524.38 2253.77 2525.53 2256.34C2526.08 2257.58 2527.01 2258.34 2528.31 2258.63C2529.62 2258.92 2531.14 2258.67 2532.89 2257.89ZM2561.2 2215.45C2564.87 2213.81 2568.29 2213.57 2571.46 2214.72C2574.63 2215.88 2577.16 2218.56 2579.04 2222.77L2586.49 2239.44L2579.68 2242.48L2572.62 2226.69C2571.49 2224.14 2570.03 2222.5 2568.27 2221.77C2566.49 2221 2564.49 2221.11 2562.27 2222.1C2559.77 2223.21 2558.13 2224.86 2557.36 2227.04C2556.57 2229.17 2556.81 2231.66 2558.07 2234.49L2564.64 2249.2L2557.83 2252.24L2544.84 2223.15L2551.32 2220.26L2553 2224.01C2553.53 2222.17 2554.49 2220.52 2555.89 2219.07C2557.29 2217.61 2559.06 2216.41 2561.2 2215.45ZM2152.66 2477.87C2156.33 2476.23 2159.71 2476.01 2162.81 2477.19C2165.89 2478.34 2168.38 2481.04 2170.28 2485.29L2177.73 2501.96L2170.92 2505L2163.86 2489.2C2162.73 2486.66 2161.31 2485.01 2159.62 2484.24C2157.91 2483.43 2156 2483.5 2153.89 2484.44C2151.61 2485.46 2150.11 2487.05 2149.41 2489.19C2148.7 2491.29 2148.97 2493.74 2150.21 2496.54L2156.81 2511.3L2150 2514.35L2142.94 2498.55C2141.81 2496 2140.39 2494.35 2138.7 2493.58C2136.99 2492.78 2135.08 2492.84 2132.97 2493.79C2130.65 2494.82 2129.13 2496.4 2128.42 2498.5C2127.74 2500.59 2128.03 2503.05 2129.3 2505.88L2135.89 2520.65L2129.08 2523.69L2116.09 2494.6L2122.57 2491.7L2124.22 2495.41C2124.73 2493.61 2125.65 2492.01 2126.97 2490.59C2128.3 2489.17 2129.96 2488.01 2131.96 2487.12C2134.14 2486.14 2136.25 2485.7 2138.29 2485.79C2140.35 2485.83 2142.23 2486.43 2143.93 2487.59C2144.45 2485.53 2145.46 2483.66 2146.98 2481.98C2148.48 2480.26 2150.37 2478.89 2152.66 2477.87ZM2184.4 2463.69C2188.69 2461.78 2192.42 2461.35 2195.6 2462.42C2198.79 2463.43 2201.31 2466.01 2203.16 2470.15L2210.78 2487.2L2204.35 2490.07L2202.77 2486.53C2202.5 2488.17 2201.74 2489.69 2200.49 2491.08C2199.25 2492.41 2197.55 2493.56 2195.37 2494.54C2193.19 2495.51 2191.12 2496 2189.16 2496C2187.19 2495.97 2185.45 2495.5 2183.96 2494.6C2182.49 2493.65 2181.38 2492.33 2180.64 2490.66C2179.47 2488.05 2179.5 2485.53 2180.72 2483.11C2181.97 2480.64 2184.68 2478.47 2188.86 2476.6L2196.38 2473.24L2196.18 2472.81C2195.28 2470.77 2193.96 2469.49 2192.24 2468.95C2190.55 2468.4 2188.51 2468.65 2186.12 2469.72C2184.48 2470.45 2182.98 2471.43 2181.61 2472.65C2180.27 2473.86 2179.26 2475.16 2178.58 2476.55L2173.7 2472.79C2174.7 2470.94 2176.14 2469.24 2178.01 2467.66C2179.87 2466.09 2182.01 2464.76 2184.4 2463.69ZM2194.57 2488.95C2196.28 2488.19 2197.62 2487.13 2198.58 2485.78C2199.57 2484.39 2200.01 2482.84 2199.91 2481.14L2198.4 2477.76L2191.37 2480.9C2187.45 2482.66 2186.06 2484.82 2187.21 2487.4C2187.77 2488.63 2188.69 2489.4 2190 2489.68C2191.3 2489.97 2192.83 2489.73 2194.57 2488.95ZM2228.68 2479.66C2226.32 2480.72 2223.87 2481.44 2221.34 2481.83C2218.82 2482.21 2216.67 2482.24 2214.91 2481.89L2215.21 2475.55C2216.91 2475.84 2218.78 2475.85 2220.84 2475.58C2222.92 2475.26 2224.85 2474.71 2226.63 2473.91C2230.7 2472.09 2232.25 2470.11 2231.3 2467.97C2230.84 2466.95 2230 2466.48 2228.77 2466.55C2227.57 2466.61 2225.75 2466.96 2223.3 2467.62C2220.74 2468.33 2218.59 2468.79 2216.86 2469C2215.16 2469.19 2213.48 2468.96 2211.84 2468.3C2210.21 2467.59 2208.93 2466.18 2207.99 2464.07C2206.76 2461.31 2206.92 2458.6 2208.48 2455.95C2210.06 2453.24 2212.81 2451.01 2216.73 2449.26C2218.73 2448.36 2220.83 2447.71 2223.04 2447.29C2225.23 2446.83 2227.13 2446.7 2228.74 2446.89L2228.44 2453.24C2225.32 2452.89 2222.22 2453.4 2219.13 2454.78C2217.14 2455.67 2215.75 2456.66 2214.97 2457.75C2214.21 2458.79 2214.05 2459.79 2214.49 2460.78C2214.98 2461.86 2215.87 2462.4 2217.17 2462.39C2218.49 2462.32 2220.4 2461.97 2222.91 2461.33C2225.39 2460.65 2227.49 2460.22 2229.19 2460.03C2230.89 2459.83 2232.51 2460.07 2234.07 2460.72C2235.66 2461.36 2236.92 2462.71 2237.85 2464.79C2239.06 2467.51 2238.85 2470.22 2237.22 2472.9C2235.59 2475.59 2232.74 2477.84 2228.68 2479.66ZM2253.86 2452.99L2250.93 2460.05L2254.36 2467.73L2247.55 2470.77L2229.5 2430.35L2236.31 2427.31L2247.21 2451.72L2255.48 2432.34L2263.65 2428.69L2256.95 2446.32L2277.79 2457.27L2269.51 2460.97L2253.86 2452.99ZM2301.89 2429.26C2302.1 2429.73 2302.36 2430.42 2302.68 2431.32L2279.85 2441.51C2281.21 2443.48 2283.01 2444.72 2285.24 2445.25C2287.5 2445.72 2289.89 2445.4 2292.39 2444.28C2295.59 2442.85 2297.75 2440.62 2298.88 2437.59L2304.4 2440.16C2303.79 2442.3 2302.67 2444.22 2301.03 2445.91C2299.39 2447.6 2297.31 2449.01 2294.81 2450.13C2291.61 2451.55 2288.51 2452.17 2285.51 2451.99C2282.51 2451.81 2279.84 2450.89 2277.49 2449.24C2275.16 2447.53 2273.35 2445.25 2272.07 2442.38C2270.8 2439.54 2270.3 2436.72 2270.57 2433.9C2270.86 2431.03 2271.86 2428.44 2273.58 2426.15C2275.3 2423.86 2277.59 2422.07 2280.46 2420.79C2283.3 2419.52 2286.1 2419.03 2288.89 2419.31C2291.69 2419.54 2294.22 2420.53 2296.48 2422.26C2298.75 2423.95 2300.56 2426.28 2301.89 2429.26ZM2282.9 2426.24C2280.72 2427.21 2279.16 2428.69 2278.22 2430.68C2277.29 2432.62 2277.15 2434.73 2277.78 2437.02L2294.28 2429.65C2293.05 2427.67 2291.4 2426.36 2289.33 2425.72C2287.26 2425.07 2285.11 2425.25 2282.9 2426.24ZM2310.24 2412.98C2310.84 2409.05 2313.61 2405.99 2318.55 2403.78L2321.44 2410.26C2320.81 2410.41 2320.26 2410.59 2319.79 2410.81C2317.14 2411.99 2315.42 2413.69 2314.62 2415.92C2313.82 2418.11 2314.06 2420.66 2315.36 2423.57L2321.66 2437.67L2314.85 2440.72L2301.86 2411.63L2308.34 2408.73L2310.24 2412.98ZM2367.03 2382.52L2367.45 2420.03C2367.59 2423.76 2367.03 2426.67 2365.78 2428.75C2364.55 2430.87 2362.65 2432.5 2360.07 2433.65C2358.62 2434.3 2357.08 2434.71 2355.45 2434.87C2353.82 2435.03 2352.37 2434.89 2351.09 2434.46L2351.57 2428.24C2352.5 2428.56 2353.48 2428.71 2354.52 2428.68C2355.59 2428.64 2356.58 2428.42 2357.48 2428.01C2358.68 2427.48 2359.53 2426.73 2360.01 2425.77C2360.54 2424.8 2360.8 2423.44 2360.8 2421.69L2360.78 2420.33L2335.05 2396.8L2342.13 2393.64L2360.89 2411.07L2360.49 2385.44L2367.03 2382.52ZM2381.35 2375.73C2385.63 2373.82 2389.36 2373.39 2392.54 2374.46C2395.73 2375.47 2398.26 2378.04 2400.11 2382.19L2407.72 2399.24L2401.29 2402.11L2399.71 2398.57C2399.44 2400.21 2398.68 2401.73 2397.43 2403.11C2396.2 2404.45 2394.49 2405.6 2392.31 2406.58C2390.13 2407.55 2388.06 2408.04 2386.11 2408.04C2384.13 2408.01 2382.4 2407.54 2380.91 2406.64C2379.43 2405.68 2378.32 2404.37 2377.58 2402.7C2376.41 2400.09 2376.44 2397.57 2377.67 2395.15C2378.92 2392.67 2381.63 2390.5 2385.8 2388.64L2393.32 2385.28L2393.13 2384.85C2392.22 2382.81 2390.9 2381.53 2389.18 2380.99C2387.5 2380.43 2385.46 2380.69 2383.06 2381.76C2381.42 2382.49 2379.92 2383.47 2378.55 2384.69C2377.22 2385.9 2376.21 2387.2 2375.52 2388.59L2370.64 2384.83C2371.65 2382.98 2373.08 2381.27 2374.95 2379.7C2376.82 2378.12 2378.95 2376.8 2381.35 2375.73ZM2391.51 2400.99C2393.22 2400.22 2394.56 2399.17 2395.52 2397.82C2396.51 2396.42 2396.95 2394.88 2396.85 2393.18L2395.34 2389.8L2388.31 2392.94C2384.39 2394.69 2383.01 2396.86 2384.16 2399.44C2384.71 2400.67 2385.64 2401.43 2386.94 2401.72C2388.25 2402.01 2389.77 2401.76 2391.51 2400.99ZM2398.56 2357.59L2406.62 2353.99L2416.65 2380.09L2411.25 2382.5L2398.56 2357.59ZM2419.79 2394.3C2418.52 2394.87 2417.29 2394.94 2416.1 2394.52C2414.89 2394.05 2414.02 2393.22 2413.48 2392.02C2412.95 2390.83 2412.92 2389.64 2413.4 2388.47C2413.87 2387.3 2414.75 2386.43 2416.02 2385.86C2417.25 2385.31 2418.45 2385.25 2419.61 2385.7C2420.8 2386.12 2421.66 2386.93 2422.2 2388.13C2422.73 2389.33 2422.77 2390.53 2422.31 2391.74C2421.86 2392.9 2421.03 2393.75 2419.79 2394.3ZM2446.96 2372.43L2432.11 2358.35L2432.63 2378.83L2427.3 2381.21L2426.93 2354.2L2432.48 2351.72L2452.3 2370.05L2446.96 2372.43ZM2479.15 2358.06L2464.3 2343.97L2464.82 2364.46L2459.48 2366.84L2459.11 2339.82L2464.67 2337.34L2484.49 2355.67L2479.15 2358.06Z" fill="#1F1F1F"/>
<defs>
<filter id="filter0_ii" x="1953.41" y="1220.06" width="235.19" height="439.155" filterUnits="userSpaceOnUse" color-interpolation-filters="sRGB">
<feFlood flood-opacity="0" result="BackgroundImageFix"/>
<feBlend mode="normal" in="SourceGraphic" in2="BackgroundImageFix" result="shape"/>
<feColorMatrix in="SourceAlpha" type="matrix" values="0 0 0 0 0 0 0 0 0 0 0 0 0 0 0 0 0 0 127 0" result="hardAlpha"/>
<feOffset dx="-8.43315"/>
<feGaussianBlur stdDeviation="1.29741"/>
<feComposite in2="hardAlpha" operator="arithmetic" k2="-1" k3="1"/>
<feColorMatrix type="matrix" values="0 0 0 0 0.491667 0 0 0 0 0.491667 0 0 0 0 0.491667 0 0 0 0.25 0"/>
<feBlend mode="normal" in2="shape" result="effect1_innerShadow"/>
<feColorMatrix in="SourceAlpha" type="matrix" values="0 0 0 0 0 0 0 0 0 0 0 0 0 0 0 0 0 0 127 0" result="hardAlpha"/>
<feOffset dx="17.515" dy="2.59482"/>
<feGaussianBlur stdDeviation="1.29741"/>
<feComposite in2="hardAlpha" operator="arithmetic" k2="-1" k3="1"/>
<feColorMatrix type="matrix" values="0 0 0 0 1 0 0 0 0 1 0 0 0 0 1 0 0 0 0.25 0"/>
<feBlend mode="normal" in2="effect1_innerShadow" result="effect2_innerShadow"/>
</filter>
<filter id="filter1_di" x="2000" y="1160" width="142" height="81" filterUnits="userSpaceOnUse" color-interpolation-filters="sRGB">
<feFlood flood-opacity="0" result="BackgroundImageFix"/>
<feColorMatrix in="SourceAlpha" type="matrix" values="0 0 0 0 0 0 0 0 0 0 0 0 0 0 0 0 0 0 127 0"/>
<feOffset dy="4"/>
<feGaussianBlur stdDeviation="2"/>
<feColorMatrix type="matrix" values="0 0 0 0 0 0 0 0 0 0 0 0 0 0 0 0 0 0 0.25 0"/>
<feBlend mode="normal" in2="BackgroundImageFix" result="effect1_dropShadow"/>
<feBlend mode="normal" in="SourceGraphic" in2="effect1_dropShadow" result="shape"/>
<feColorMatrix in="SourceAlpha" type="matrix" values="0 0 0 0 0 0 0 0 0 0 0 0 0 0 0 0 0 0 127 0" result="hardAlpha"/>
<feOffset dy="9"/>
<feGaussianBlur stdDeviation="2"/>
<feComposite in2="hardAlpha" operator="arithmetic" k2="-1" k3="1"/>
<feColorMatrix type="matrix" values="0 0 0 0 1 0 0 0 0 1 0 0 0 0 1 0 0 0 0.25 0"/>
<feBlend mode="normal" in2="shape" result="effect2_innerShadow"/>
</filter>
<filter id="filter2_d" x="1086" y="1222" width="756" height="500" filterUnits="userSpaceOnUse" color-interpolation-filters="sRGB">
<feFlood flood-opacity="0" result="BackgroundImageFix"/>
<feColorMatrix in="SourceAlpha" type="matrix" values="0 0 0 0 0 0 0 0 0 0 0 0 0 0 0 0 0 0 127 0"/>
<feOffset dy="8"/>
<feGaussianBlur stdDeviation="2"/>
<feColorMatrix type="matrix" values="0 0 0 0 0 0 0 0 0 0 0 0 0 0 0 0 0 0 0.25 0"/>
<feBlend mode="normal" in2="BackgroundImageFix" result="effect1_dropShadow"/>
<feBlend mode="normal" in="SourceGraphic" in2="effect1_dropShadow" result="shape"/>
</filter>
<filter id="filter3_d" x="1086" y="1222" width="756" height="167" filterUnits="userSpaceOnUse" color-interpolation-filters="sRGB">
<feFlood flood-opacity="0" result="BackgroundImageFix"/>
<feColorMatrix in="SourceAlpha" type="matrix" values="0 0 0 0 0 0 0 0 0 0 0 0 0 0 0 0 0 0 127 0"/>
<feOffset dy="13"/>
<feGaussianBlur stdDeviation="2"/>
<feColorMatrix type="matrix" values="0 0 0 0 0 0 0 0 0 0 0 0 0 0 0 0 0 0 0.1 0"/>
<feBlend mode="normal" in2="BackgroundImageFix" result="effect1_dropShadow"/>
<feBlend mode="normal" in="SourceGraphic" in2="effect1_dropShadow" result="shape"/>
</filter>
<filter id="filter4_d" x="1033.52" y="499" width="547.008" height="700.068" filterUnits="userSpaceOnUse" color-interpolation-filters="sRGB">
<feFlood flood-opacity="0" result="BackgroundImageFix"/>
<feColorMatrix in="SourceAlpha" type="matrix" values="0 0 0 0 0 0 0 0 0 0 0 0 0 0 0 0 0 0 127 0"/>
<feOffset dy="15"/>
<feGaussianBlur stdDeviation="2"/>
<feColorMatrix type="matrix" values="0 0 0 0 0 0 0 0 0 0 0 0 0 0 0 0 0 0 0.25 0"/>
<feBlend mode="normal" in2="BackgroundImageFix" result="effect1_dropShadow"/>
<feBlend mode="normal" in="SourceGraphic" in2="effect1_dropShadow" result="shape"/>
</filter>
<filter id="filter5_ii" x="1035.74" y="635.669" width="538.338" height="546.171" filterUnits="userSpaceOnUse" color-interpolation-filters="sRGB">
<feFlood flood-opacity="0" result="BackgroundImageFix"/>
<feBlend mode="normal" in="SourceGraphic" in2="BackgroundImageFix" result="shape"/>
<feColorMatrix in="SourceAlpha" type="matrix" values="0 0 0 0 0 0 0 0 0 0 0 0 0 0 0 0 0 0 127 0" result="hardAlpha"/>
<feOffset dx="-5.75654"/>
<feGaussianBlur stdDeviation="0.885622"/>
<feComposite in2="hardAlpha" operator="arithmetic" k2="-1" k3="1"/>
<feColorMatrix type="matrix" values="0 0 0 0 0.491667 0 0 0 0 0.491667 0 0 0 0 0.491667 0 0 0 0.25 0"/>
<feBlend mode="normal" in2="shape" result="effect1_innerShadow"/>
<feColorMatrix in="SourceAlpha" type="matrix" values="0 0 0 0 0 0 0 0 0 0 0 0 0 0 0 0 0 0 127 0" result="hardAlpha"/>
<feOffset dx="11.9559" dy="1.77124"/>
<feGaussianBlur stdDeviation="0.885622"/>
<feComposite in2="hardAlpha" operator="arithmetic" k2="-1" k3="1"/>
<feColorMatrix type="matrix" values="0 0 0 0 1 0 0 0 0 1 0 0 0 0 1 0 0 0 0.25 0"/>
<feBlend mode="normal" in2="effect1_innerShadow" result="effect2_innerShadow"/>
</filter>
<filter id="filter6_d" x="1356.18" y="674.571" width="97.6292" height="102.078" filterUnits="userSpaceOnUse" color-interpolation-filters="sRGB">
<feFlood flood-opacity="0" result="BackgroundImageFix"/>
<feColorMatrix in="SourceAlpha" type="matrix" values="0 0 0 0 0 0 0 0 0 0 0 0 0 0 0 0 0 0 127 0"/>
<feOffset dy="1.32843"/>
<feGaussianBlur stdDeviation="1.54984"/>
<feColorMatrix type="matrix" values="0 0 0 0 0 0 0 0 0 0 0 0 0 0 0 0 0 0 0.25 0"/>
<feBlend mode="normal" in2="BackgroundImageFix" result="effect1_dropShadow"/>
<feBlend mode="normal" in="SourceGraphic" in2="effect1_dropShadow" result="shape"/>
</filter>
<filter id="filter7_i" x="1338.65" y="736.019" width="81.6932" height="68.9151" filterUnits="userSpaceOnUse" color-interpolation-filters="sRGB">
<feFlood flood-opacity="0" result="BackgroundImageFix"/>
<feBlend mode="normal" in="SourceGraphic" in2="BackgroundImageFix" result="shape"/>
<feColorMatrix in="SourceAlpha" type="matrix" values="0 0 0 0 0 0 0 0 0 0 0 0 0 0 0 0 0 0 127 0" result="hardAlpha"/>
<feOffset dy="-2.65687"/>
<feGaussianBlur stdDeviation="0.885622"/>
<feComposite in2="hardAlpha" operator="arithmetic" k2="-1" k3="1"/>
<feColorMatrix type="matrix" values="0 0 0 0 0 0 0 0 0 0 0 0 0 0 0 0 0 0 0.25 0"/>
<feBlend mode="normal" in2="shape" result="effect1_innerShadow"/>
</filter>
<filter id="filter8_ii" x="1363.79" y="683.288" width="85.1788" height="85.2293" filterUnits="userSpaceOnUse" color-interpolation-filters="sRGB">
<feFlood flood-opacity="0" result="BackgroundImageFix"/>
<feBlend mode="normal" in="SourceGraphic" in2="BackgroundImageFix" result="shape"/>
<feColorMatrix in="SourceAlpha" type="matrix" values="0 0 0 0 0 0 0 0 0 0 0 0 0 0 0 0 0 0 127 0" result="hardAlpha"/>
<feOffset dx="-4.87092"/>
<feGaussianBlur stdDeviation="0.885622"/>
<feComposite in2="hardAlpha" operator="arithmetic" k2="-1" k3="1"/>
<feColorMatrix type="matrix" values="0 0 0 0 0 0 0 0 0 0 0 0 0 0 0 0 0 0 0.25 0"/>
<feBlend mode="normal" in2="shape" result="effect1_innerShadow"/>
<feColorMatrix in="SourceAlpha" type="matrix" values="0 0 0 0 0 0 0 0 0 0 0 0 0 0 0 0 0 0 127 0" result="hardAlpha"/>
<feOffset dx="3.54249"/>
<feGaussianBlur stdDeviation="0.885622"/>
<feComposite in2="hardAlpha" operator="arithmetic" k2="-1" k3="1"/>
<feColorMatrix type="matrix" values="0 0 0 0 0 0 0 0 0 0 0 0 0 0 0 0 0 0 0.25 0"/>
<feBlend mode="normal" in2="effect1_innerShadow" result="effect2_innerShadow"/>
</filter>
<filter id="filter9_d" x="2235.92" y="2003.24" width="154.862" height="148.584" filterUnits="userSpaceOnUse" color-interpolation-filters="sRGB">
<feFlood flood-opacity="0" result="BackgroundImageFix"/>
<feColorMatrix in="SourceAlpha" type="matrix" values="0 0 0 0 0 0 0 0 0 0 0 0 0 0 0 0 0 0 127 0"/>
<feOffset dy="-6"/>
<feGaussianBlur stdDeviation="2"/>
<feColorMatrix type="matrix" values="0 0 0 0 0 0 0 0 0 0 0 0 0 0 0 0 0 0 0.25 0"/>
<feBlend mode="normal" in2="BackgroundImageFix" result="effect1_dropShadow"/>
<feBlend mode="normal" in="SourceGraphic" in2="effect1_dropShadow" result="shape"/>
</filter>
<filter id="filter10_d" x="2264.12" y="2064.87" width="154.862" height="148.584" filterUnits="userSpaceOnUse" color-interpolation-filters="sRGB">
<feFlood flood-opacity="0" result="BackgroundImageFix"/>
<feColorMatrix in="SourceAlpha" type="matrix" values="0 0 0 0 0 0 0 0 0 0 0 0 0 0 0 0 0 0 127 0"/>
<feOffset dy="-6"/>
<feGaussianBlur stdDeviation="2"/>
<feColorMatrix type="matrix" values="0 0 0 0 0 0 0 0 0 0 0 0 0 0 0 0 0 0 0.25 0"/>
<feBlend mode="normal" in2="BackgroundImageFix" result="effect1_dropShadow"/>
<feBlend mode="normal" in="SourceGraphic" in2="effect1_dropShadow" result="shape"/>
</filter>
<filter id="filter11_d" x="1828.75" y="2153.48" width="154.862" height="153.49" filterUnits="userSpaceOnUse" color-interpolation-filters="sRGB">
<feFlood flood-opacity="0" result="BackgroundImageFix"/>
<feColorMatrix in="SourceAlpha" type="matrix" values="0 0 0 0 0 0 0 0 0 0 0 0 0 0 0 0 0 0 127 0"/>
<feOffset dy="-6"/>
<feGaussianBlur stdDeviation="2"/>
<feColorMatrix type="matrix" values="0 0 0 0 0 0 0 0 0 0 0 0 0 0 0 0 0 0 0.25 0"/>
<feBlend mode="normal" in2="BackgroundImageFix" result="effect1_dropShadow"/>
<feBlend mode="normal" in="SourceGraphic" in2="effect1_dropShadow" result="shape"/>
</filter>
<filter id="filter12_d" x="1856.96" y="2215.1" width="154.862" height="153.49" filterUnits="userSpaceOnUse" color-interpolation-filters="sRGB">
<feFlood flood-opacity="0" result="BackgroundImageFix"/>
<feColorMatrix in="SourceAlpha" type="matrix" values="0 0 0 0 0 0 0 0 0 0 0 0 0 0 0 0 0 0 127 0"/>
<feOffset dy="-6"/>
<feGaussianBlur stdDeviation="2"/>
<feColorMatrix type="matrix" values="0 0 0 0 0 0 0 0 0 0 0 0 0 0 0 0 0 0 0.25 0"/>
<feBlend mode="normal" in2="BackgroundImageFix" result="effect1_dropShadow"/>
<feBlend mode="normal" in="SourceGraphic" in2="effect1_dropShadow" result="shape"/>
</filter>
<filter id="filter13_d" x="1896.21" y="1994.16" width="419.289" height="313.76" filterUnits="userSpaceOnUse" color-interpolation-filters="sRGB">
<feFlood flood-opacity="0" result="BackgroundImageFix"/>
<feColorMatrix in="SourceAlpha" type="matrix" values="0 0 0 0 0 0 0 0 0 0 0 0 0 0 0 0 0 0 127 0"/>
<feOffset dy="-6"/>
<feGaussianBlur stdDeviation="2"/>
<feColorMatrix type="matrix" values="0 0 0 0 0 0 0 0 0 0 0 0 0 0 0 0 0 0 0.25 0"/>
<feBlend mode="normal" in2="BackgroundImageFix" result="effect1_dropShadow"/>
<feBlend mode="normal" in="SourceGraphic" in2="effect1_dropShadow" result="shape"/>
</filter>
<filter id="filter14_d" x="1911.86" y="2047.39" width="439.496" height="331.967" filterUnits="userSpaceOnUse" color-interpolation-filters="sRGB">
<feFlood flood-opacity="0" result="BackgroundImageFix"/>
<feColorMatrix in="SourceAlpha" type="matrix" values="0 0 0 0 0 0 0 0 0 0 0 0 0 0 0 0 0 0 127 0"/>
<feOffset dx="-2.4528" dy="-4.2924"/>
<feGaussianBlur stdDeviation="7.05179"/>
<feColorMatrix type="matrix" values="0 0 0 0 0.226944 0 0 0 0 0.716667 0 0 0 0 0.599494 0 0 0 1 0"/>
<feBlend mode="normal" in2="BackgroundImageFix" result="effect1_dropShadow"/>
<feBlend mode="normal" in="SourceGraphic" in2="effect1_dropShadow" result="shape"/>
</filter>
<linearGradient id="paint0_linear" x1="1540.03" y1="244.166" x2="1540.03" y2="4876.13" gradientUnits="userSpaceOnUse">
<stop stop-color="white"/>
<stop offset="1" stop-color="#DDDDDD"/>
</linearGradient>
</defs>
</svg>
