<svg width="450" height="438" viewBox="0 0 450 438" fill="none" xmlns="http://www.w3.org/2000/svg">
<circle cx="219" cy="219" r="219" fill="url(#paint0_linear)"/>
<g filter="url(#filter0_dii)">
<rect x="103" y="86.8082" width="232" height="292.384" rx="16.6849" fill="#803A13"/>
</g>
<rect x="116.507" y="97.9315" width="206.575" height="260.603" rx="10.3288" fill="#FBFBFB"/>
<line x1="187.219" y1="202.411" x2="261.11" y2="202.411" stroke="black" stroke-width="0.794521"/>
<line x1="150.671" y1="211.945" x2="299.247" y2="211.945" stroke="black" stroke-width="0.794521"/>
<line x1="139.548" y1="243.726" x2="174.507" y2="243.726" stroke="black" stroke-width="0.794521"/>
<line x1="187.219" y1="243.726" x2="299.247" y2="243.726" stroke="black" stroke-width="0.794521"/>
<line x1="187.219" y1="263.589" x2="299.247" y2="263.589" stroke="black" stroke-width="0.794521"/>
<line x1="187.219" y1="284.247" x2="299.247" y2="284.247" stroke="black" stroke-width="0.794521"/>
<line x1="268.26" y1="310.466" x2="300.041" y2="310.466" stroke="black" stroke-width="0.794521"/>
<line x1="260.315" y1="341.452" x2="307.986" y2="341.452" stroke="black" stroke-width="0.794521"/>
<line x1="150.671" y1="220.685" x2="299.247" y2="220.685" stroke="black" stroke-width="0.794521"/>
<line x1="139.548" y1="263.589" x2="174.507" y2="263.589" stroke="black" stroke-width="0.794521"/>
<line x1="139.548" y1="284.247" x2="174.507" y2="284.247" stroke="black" stroke-width="0.794521"/>
<path d="M180.518 237.261C180.518 237.407 180.507 237.532 180.485 237.635C180.469 237.733 180.434 237.812 180.379 237.871C180.325 237.931 180.252 237.975 180.16 238.002C180.073 238.023 179.959 238.034 179.818 238.034C179.677 238.034 179.563 238.023 179.476 238.002C179.389 237.975 179.318 237.931 179.264 237.871C179.21 237.812 179.172 237.733 179.15 237.635C179.134 237.532 179.126 237.407 179.126 237.261C179.126 237.104 179.134 236.976 179.15 236.878C179.172 236.775 179.21 236.694 179.264 236.634C179.318 236.574 179.389 236.534 179.476 236.512C179.563 236.485 179.677 236.471 179.818 236.471C179.959 236.471 180.073 236.485 180.16 236.512C180.252 236.534 180.325 236.574 180.379 236.634C180.434 236.694 180.469 236.775 180.485 236.878C180.507 236.976 180.518 237.104 180.518 237.261ZM180.518 243.098C180.518 243.249 180.507 243.377 180.485 243.48C180.469 243.578 180.434 243.657 180.379 243.716C180.325 243.776 180.252 243.817 180.16 243.838C180.073 243.865 179.959 243.879 179.818 243.879C179.677 243.879 179.563 243.865 179.476 243.838C179.389 243.817 179.318 243.776 179.264 243.716C179.21 243.657 179.172 243.578 179.15 243.48C179.134 243.377 179.126 243.249 179.126 243.098C179.126 242.946 179.134 242.818 179.15 242.715C179.172 242.612 179.21 242.533 179.264 242.479C179.318 242.419 179.389 242.378 179.476 242.357C179.563 242.33 179.677 242.316 179.818 242.316C179.959 242.316 180.073 242.33 180.16 242.357C180.252 242.378 180.325 242.419 180.379 242.479C180.434 242.533 180.469 242.612 180.485 242.715C180.507 242.818 180.518 242.946 180.518 243.098Z" fill="black"/>
<path d="M180.518 257.124C180.518 257.27 180.507 257.395 180.485 257.498C180.469 257.596 180.434 257.675 180.379 257.734C180.325 257.794 180.252 257.837 180.16 257.865C180.073 257.886 179.959 257.897 179.818 257.897C179.677 257.897 179.563 257.886 179.476 257.865C179.389 257.837 179.318 257.794 179.264 257.734C179.21 257.675 179.172 257.596 179.15 257.498C179.134 257.395 179.126 257.27 179.126 257.124C179.126 256.966 179.134 256.839 179.15 256.741C179.172 256.638 179.21 256.557 179.264 256.497C179.318 256.437 179.389 256.397 179.476 256.375C179.563 256.348 179.677 256.334 179.818 256.334C179.959 256.334 180.073 256.348 180.16 256.375C180.252 256.397 180.325 256.437 180.379 256.497C180.434 256.557 180.469 256.638 180.485 256.741C180.507 256.839 180.518 256.966 180.518 257.124ZM180.518 262.96C180.518 263.112 180.507 263.24 180.485 263.343C180.469 263.441 180.434 263.519 180.379 263.579C180.325 263.639 180.252 263.68 180.16 263.701C180.073 263.728 179.959 263.742 179.818 263.742C179.677 263.742 179.563 263.728 179.476 263.701C179.389 263.68 179.318 263.639 179.264 263.579C179.21 263.519 179.172 263.441 179.15 263.343C179.134 263.24 179.126 263.112 179.126 262.96C179.126 262.808 179.134 262.681 179.15 262.578C179.172 262.475 179.21 262.396 179.264 262.342C179.318 262.282 179.389 262.241 179.476 262.22C179.563 262.193 179.677 262.179 179.818 262.179C179.959 262.179 180.073 262.193 180.16 262.22C180.252 262.241 180.325 262.282 180.379 262.342C180.434 262.396 180.469 262.475 180.485 262.578C180.507 262.681 180.518 262.808 180.518 262.96Z" fill="black"/>
<path d="M180.518 277.781C180.518 277.928 180.507 278.053 180.485 278.156C180.469 278.254 180.434 278.332 180.379 278.392C180.325 278.452 180.252 278.495 180.16 278.522C180.073 278.544 179.959 278.555 179.818 278.555C179.677 278.555 179.563 278.544 179.476 278.522C179.389 278.495 179.318 278.452 179.264 278.392C179.21 278.332 179.172 278.254 179.15 278.156C179.134 278.053 179.126 277.928 179.126 277.781C179.126 277.624 179.134 277.497 179.15 277.399C179.172 277.296 179.21 277.214 179.264 277.155C179.318 277.095 179.389 277.054 179.476 277.033C179.563 277.005 179.677 276.992 179.818 276.992C179.959 276.992 180.073 277.005 180.16 277.033C180.252 277.054 180.325 277.095 180.379 277.155C180.434 277.214 180.469 277.296 180.485 277.399C180.507 277.497 180.518 277.624 180.518 277.781ZM180.518 283.618C180.518 283.77 180.507 283.898 180.485 284.001C180.469 284.098 180.434 284.177 180.379 284.237C180.325 284.296 180.252 284.337 180.16 284.359C180.073 284.386 179.959 284.4 179.818 284.4C179.677 284.4 179.563 284.386 179.476 284.359C179.389 284.337 179.318 284.296 179.264 284.237C179.21 284.177 179.172 284.098 179.15 284.001C179.134 283.898 179.126 283.77 179.126 283.618C179.126 283.466 179.134 283.339 179.15 283.235C179.172 283.132 179.21 283.054 179.264 282.999C179.318 282.94 179.389 282.899 179.476 282.877C179.563 282.85 179.677 282.837 179.818 282.837C179.959 282.837 180.073 282.85 180.16 282.877C180.252 282.899 180.325 282.94 180.379 282.999C180.434 283.054 180.469 283.132 180.485 283.235C180.507 283.339 180.518 283.466 180.518 283.618Z" fill="black"/>
<path d="M170.5 148.51C170.5 148.586 170.474 148.653 170.421 148.714C170.376 148.774 170.296 148.823 170.183 148.861C170.07 148.899 169.919 148.929 169.73 148.952C169.541 148.974 169.299 148.986 169.005 148.986C168.718 148.986 168.476 148.974 168.28 148.952C168.091 148.929 167.94 148.899 167.826 148.861C167.713 148.823 167.63 148.774 167.577 148.714C167.532 148.653 167.509 148.586 167.509 148.51V134.666C167.509 134.59 167.532 134.522 167.577 134.462C167.63 134.401 167.713 134.352 167.826 134.314C167.947 134.277 168.102 134.246 168.291 134.224C168.48 134.201 168.718 134.19 169.005 134.19C169.299 134.19 169.541 134.201 169.73 134.224C169.919 134.246 170.07 134.277 170.183 134.314C170.296 134.352 170.376 134.401 170.421 134.462C170.474 134.522 170.5 134.59 170.5 134.666V148.51ZM185.783 147.876C185.783 148.049 185.753 148.204 185.693 148.34C185.632 148.476 185.549 148.589 185.443 148.68C185.345 148.771 185.224 148.839 185.081 148.884C184.945 148.922 184.805 148.941 184.662 148.941H183.393C183.129 148.941 182.898 148.914 182.702 148.861C182.513 148.808 182.335 148.714 182.169 148.578C182.011 148.434 181.856 148.246 181.705 148.012C181.554 147.77 181.384 147.46 181.195 147.083L177.547 140.228C177.336 139.82 177.12 139.382 176.901 138.914C176.682 138.438 176.486 137.978 176.312 137.532H176.289C176.32 138.076 176.342 138.62 176.357 139.163C176.373 139.7 176.38 140.255 176.38 140.829V148.499C176.38 148.574 176.357 148.642 176.312 148.703C176.274 148.763 176.203 148.816 176.097 148.861C175.999 148.899 175.863 148.929 175.689 148.952C175.515 148.974 175.292 148.986 175.021 148.986C174.756 148.986 174.537 148.974 174.363 148.952C174.19 148.929 174.054 148.899 173.956 148.861C173.857 148.816 173.789 148.763 173.752 148.703C173.714 148.642 173.695 148.574 173.695 148.499V135.323C173.695 134.968 173.797 134.703 174.001 134.53C174.212 134.348 174.469 134.258 174.771 134.258H176.369C176.656 134.258 176.897 134.284 177.094 134.337C177.29 134.382 177.464 134.462 177.615 134.575C177.774 134.688 177.921 134.847 178.057 135.051C178.193 135.247 178.332 135.493 178.476 135.787L181.331 141.146C181.497 141.471 181.66 141.792 181.818 142.109C181.984 142.419 182.143 142.732 182.294 143.049C182.445 143.359 182.592 143.665 182.736 143.967C182.879 144.269 183.019 144.571 183.155 144.873H183.166C183.144 144.345 183.125 143.793 183.11 143.219C183.102 142.645 183.098 142.098 183.098 141.576V134.7C183.098 134.624 183.121 134.556 183.166 134.496C183.212 134.435 183.287 134.382 183.393 134.337C183.499 134.292 183.638 134.262 183.812 134.246C183.986 134.224 184.209 134.212 184.48 134.212C184.737 134.212 184.953 134.224 185.126 134.246C185.3 134.262 185.432 134.292 185.523 134.337C185.621 134.382 185.689 134.435 185.727 134.496C185.764 134.556 185.783 134.624 185.783 134.7V147.876ZM197.215 135.481C197.215 135.708 197.203 135.901 197.181 136.059C197.165 136.21 197.135 136.331 197.09 136.422C197.052 136.512 197.007 136.58 196.954 136.626C196.901 136.671 196.841 136.694 196.773 136.694H191.98V140.636H196.478C196.546 140.636 196.607 140.655 196.659 140.693C196.712 140.731 196.758 140.795 196.795 140.885C196.841 140.976 196.871 141.097 196.886 141.248C196.909 141.399 196.92 141.588 196.92 141.814C196.92 142.041 196.909 142.23 196.886 142.381C196.871 142.532 196.841 142.657 196.795 142.755C196.758 142.853 196.712 142.925 196.659 142.97C196.607 143.008 196.546 143.027 196.478 143.027H191.98V148.487C191.98 148.57 191.958 148.642 191.912 148.703C191.867 148.763 191.784 148.816 191.663 148.861C191.55 148.899 191.399 148.929 191.21 148.952C191.021 148.974 190.78 148.986 190.485 148.986C190.198 148.986 189.956 148.974 189.76 148.952C189.571 148.929 189.42 148.899 189.307 148.861C189.193 148.816 189.11 148.763 189.058 148.703C189.012 148.642 188.99 148.57 188.99 148.487V135.198C188.99 134.866 189.073 134.628 189.239 134.484C189.412 134.333 189.624 134.258 189.873 134.258H196.773C196.841 134.258 196.901 134.28 196.954 134.326C197.007 134.364 197.052 134.431 197.09 134.53C197.135 134.62 197.165 134.745 197.181 134.904C197.203 135.062 197.215 135.255 197.215 135.481ZM212.645 141.418C212.645 142.634 212.494 143.721 212.192 144.681C211.89 145.64 211.44 146.456 210.844 147.128C210.247 147.792 209.507 148.302 208.623 148.657C207.747 149.005 206.731 149.178 205.576 149.178C204.435 149.178 203.438 149.031 202.585 148.737C201.739 148.434 201.033 147.978 200.466 147.366C199.9 146.754 199.473 145.976 199.186 145.032C198.906 144.088 198.767 142.97 198.767 141.678C198.767 140.493 198.918 139.428 199.22 138.484C199.522 137.532 199.971 136.724 200.568 136.059C201.165 135.394 201.901 134.885 202.777 134.53C203.661 134.175 204.684 133.997 205.847 133.997C206.958 133.997 207.936 134.144 208.782 134.439C209.635 134.734 210.345 135.187 210.912 135.799C211.486 136.41 211.916 137.185 212.203 138.121C212.498 139.05 212.645 140.149 212.645 141.418ZM209.518 141.576C209.518 140.806 209.458 140.107 209.337 139.481C209.216 138.846 209.008 138.306 208.714 137.86C208.427 137.407 208.042 137.06 207.558 136.818C207.075 136.569 206.471 136.444 205.746 136.444C205.013 136.444 204.401 136.584 203.91 136.864C203.419 137.135 203.023 137.502 202.721 137.962C202.418 138.423 202.203 138.963 202.075 139.583C201.954 140.194 201.894 140.844 201.894 141.531C201.894 142.332 201.954 143.053 202.075 143.695C202.196 144.329 202.4 144.873 202.687 145.326C202.974 145.78 203.359 146.127 203.842 146.369C204.326 146.603 204.934 146.72 205.666 146.72C206.399 146.72 207.011 146.584 207.502 146.312C207.992 146.04 208.389 145.67 208.691 145.202C208.993 144.734 209.205 144.19 209.326 143.57C209.454 142.944 209.518 142.279 209.518 141.576ZM226.036 148.533C226.036 148.616 226.021 148.687 225.991 148.748C225.961 148.801 225.889 148.846 225.776 148.884C225.662 148.922 225.496 148.948 225.277 148.963C225.058 148.978 224.76 148.986 224.382 148.986C224.065 148.986 223.812 148.978 223.623 148.963C223.434 148.948 223.283 148.922 223.17 148.884C223.064 148.839 222.989 148.786 222.943 148.725C222.898 148.657 222.86 148.578 222.83 148.487L221.516 145.213C221.357 144.843 221.202 144.515 221.051 144.228C220.9 143.941 220.73 143.703 220.542 143.514C220.36 143.317 220.149 143.17 219.907 143.072C219.665 142.974 219.386 142.925 219.069 142.925H218.14V148.51C218.14 148.586 218.113 148.653 218.06 148.714C218.015 148.774 217.936 148.823 217.823 148.861C217.709 148.899 217.558 148.929 217.369 148.952C217.181 148.974 216.939 148.986 216.644 148.986C216.357 148.986 216.116 148.974 215.919 148.952C215.73 148.929 215.579 148.899 215.466 148.861C215.353 148.823 215.273 148.774 215.228 148.714C215.183 148.653 215.16 148.586 215.16 148.51V135.198C215.16 134.866 215.243 134.628 215.409 134.484C215.583 134.333 215.795 134.258 216.044 134.258H219.839C220.224 134.258 220.542 134.265 220.791 134.28C221.04 134.296 221.267 134.314 221.471 134.337C222.06 134.42 222.588 134.564 223.057 134.768C223.532 134.972 223.933 135.24 224.258 135.572C224.59 135.897 224.843 136.286 225.017 136.739C225.19 137.185 225.277 137.698 225.277 138.28C225.277 138.771 225.213 139.22 225.085 139.628C224.964 140.028 224.782 140.387 224.541 140.704C224.299 141.021 224.001 141.297 223.646 141.531C223.291 141.765 222.887 141.954 222.434 142.098C222.653 142.203 222.856 142.332 223.045 142.483C223.242 142.634 223.423 142.819 223.589 143.038C223.763 143.249 223.925 143.495 224.076 143.774C224.227 144.046 224.375 144.356 224.518 144.703L225.753 147.592C225.866 147.879 225.942 148.091 225.98 148.227C226.017 148.355 226.036 148.457 226.036 148.533ZM222.196 138.586C222.196 138.102 222.086 137.694 221.867 137.362C221.648 137.03 221.289 136.796 220.791 136.66C220.64 136.622 220.466 136.592 220.27 136.569C220.081 136.546 219.816 136.535 219.477 136.535H218.14V140.693H219.658C220.081 140.693 220.451 140.644 220.768 140.546C221.085 140.44 221.35 140.296 221.561 140.115C221.773 139.926 221.931 139.703 222.037 139.447C222.143 139.19 222.196 138.903 222.196 138.586ZM245.319 148.51C245.319 148.586 245.296 148.653 245.251 148.714C245.213 148.774 245.137 148.823 245.024 148.861C244.918 148.899 244.775 148.929 244.594 148.952C244.412 148.974 244.182 148.986 243.902 148.986C243.631 148.986 243.404 148.974 243.223 148.952C243.041 148.929 242.898 148.899 242.792 148.861C242.686 148.823 242.611 148.774 242.566 148.714C242.52 148.653 242.498 148.586 242.498 148.51V136.58H242.475L238.227 148.499C238.196 148.597 238.147 148.68 238.079 148.748C238.011 148.808 237.917 148.857 237.796 148.895C237.683 148.933 237.535 148.956 237.354 148.963C237.173 148.978 236.954 148.986 236.697 148.986C236.44 148.986 236.221 148.974 236.04 148.952C235.859 148.937 235.708 148.91 235.587 148.873C235.474 148.827 235.383 148.774 235.315 148.714C235.247 148.653 235.202 148.582 235.179 148.499L231.078 136.58H231.055V148.51C231.055 148.586 231.032 148.653 230.987 148.714C230.949 148.774 230.874 148.823 230.761 148.861C230.647 148.899 230.5 148.929 230.319 148.952C230.145 148.974 229.918 148.986 229.639 148.986C229.367 148.986 229.14 148.974 228.959 148.952C228.778 148.929 228.631 148.899 228.517 148.861C228.412 148.823 228.336 148.774 228.291 148.714C228.253 148.653 228.234 148.586 228.234 148.51V135.447C228.234 135.062 228.336 134.768 228.54 134.564C228.744 134.36 229.016 134.258 229.356 134.258H231.304C231.652 134.258 231.95 134.288 232.199 134.348C232.449 134.401 232.664 134.496 232.845 134.632C233.026 134.76 233.177 134.934 233.298 135.153C233.419 135.364 233.525 135.629 233.616 135.946L236.788 144.681H236.833L240.119 135.968C240.217 135.651 240.322 135.383 240.436 135.164C240.557 134.945 240.693 134.768 240.844 134.632C241.002 134.496 241.187 134.401 241.399 134.348C241.61 134.288 241.856 134.258 242.135 134.258H244.14C244.344 134.258 244.518 134.284 244.662 134.337C244.813 134.39 244.933 134.469 245.024 134.575C245.122 134.673 245.194 134.798 245.239 134.949C245.292 135.092 245.319 135.259 245.319 135.447V148.51ZM257.203 147.751C257.203 147.97 257.192 148.155 257.169 148.306C257.154 148.45 257.128 148.567 257.09 148.657C257.052 148.748 257.003 148.816 256.942 148.861C256.89 148.899 256.829 148.918 256.761 148.918H249.397C249.148 148.918 248.936 148.846 248.763 148.703C248.597 148.552 248.514 148.31 248.514 147.978V135.198C248.514 134.866 248.597 134.628 248.763 134.484C248.936 134.333 249.148 134.258 249.397 134.258H256.716C256.784 134.258 256.844 134.277 256.897 134.314C256.95 134.352 256.995 134.42 257.033 134.518C257.071 134.609 257.097 134.73 257.112 134.881C257.135 135.024 257.146 135.209 257.146 135.436C257.146 135.647 257.135 135.829 257.112 135.98C257.097 136.123 257.071 136.24 257.033 136.331C256.995 136.422 256.95 136.49 256.897 136.535C256.844 136.573 256.784 136.592 256.716 136.592H251.482V140.172H255.912C255.979 140.172 256.04 140.194 256.093 140.24C256.153 140.277 256.202 140.342 256.24 140.432C256.278 140.515 256.304 140.632 256.319 140.783C256.342 140.927 256.353 141.104 256.353 141.316C256.353 141.535 256.342 141.716 256.319 141.86C256.304 142.003 256.278 142.12 256.24 142.211C256.202 142.294 256.153 142.354 256.093 142.392C256.04 142.43 255.979 142.449 255.912 142.449H251.482V146.584H256.761C256.829 146.584 256.89 146.607 256.942 146.652C257.003 146.69 257.052 146.754 257.09 146.845C257.128 146.935 257.154 147.056 257.169 147.207C257.192 147.351 257.203 147.532 257.203 147.751ZM272.022 141.373C272.022 142.717 271.844 143.869 271.489 144.828C271.142 145.78 270.64 146.558 269.982 147.162C269.325 147.766 268.525 148.212 267.581 148.499C266.644 148.778 265.526 148.918 264.227 148.918H260.726C260.477 148.918 260.266 148.846 260.092 148.703C259.926 148.552 259.843 148.31 259.843 147.978V135.198C259.843 134.866 259.926 134.628 260.092 134.484C260.266 134.333 260.477 134.258 260.726 134.258H264.488C265.794 134.258 266.901 134.413 267.807 134.722C268.721 135.024 269.488 135.478 270.107 136.082C270.734 136.678 271.21 137.419 271.535 138.302C271.859 139.186 272.022 140.209 272.022 141.373ZM268.94 141.475C268.94 140.78 268.857 140.134 268.691 139.537C268.532 138.941 268.272 138.423 267.909 137.985C267.554 137.547 267.094 137.207 266.527 136.965C265.968 136.716 265.232 136.592 264.318 136.592H262.811V146.561H264.363C265.179 146.561 265.866 146.456 266.425 146.244C266.984 146.033 267.448 145.715 267.819 145.292C268.196 144.862 268.476 144.329 268.657 143.695C268.846 143.061 268.94 142.32 268.94 141.475ZM185.047 174.697C185.047 174.886 185.039 175.049 185.024 175.184C185.017 175.313 185.002 175.426 184.979 175.524C184.956 175.615 184.926 175.694 184.888 175.762C184.851 175.83 184.79 175.91 184.707 176C184.624 176.083 184.462 176.193 184.22 176.329C183.986 176.465 183.695 176.597 183.348 176.725C183.008 176.846 182.615 176.948 182.169 177.031C181.731 177.114 181.255 177.156 180.742 177.156C179.737 177.156 178.831 177.001 178.023 176.691C177.215 176.382 176.527 175.921 175.961 175.309C175.394 174.69 174.96 173.919 174.658 172.998C174.356 172.076 174.205 171.004 174.205 169.78C174.205 168.534 174.371 167.428 174.703 166.461C175.036 165.494 175.5 164.682 176.097 164.025C176.694 163.368 177.407 162.87 178.238 162.53C179.076 162.19 179.998 162.02 181.002 162.02C181.41 162.02 181.803 162.054 182.181 162.122C182.558 162.19 182.906 162.28 183.223 162.394C183.548 162.499 183.838 162.624 184.095 162.768C184.352 162.911 184.53 163.036 184.628 163.141C184.734 163.24 184.805 163.323 184.843 163.391C184.881 163.459 184.911 163.546 184.934 163.651C184.956 163.757 184.971 163.882 184.979 164.025C184.994 164.169 185.002 164.346 185.002 164.558C185.002 164.784 184.994 164.977 184.979 165.135C184.964 165.294 184.937 165.422 184.9 165.521C184.862 165.619 184.817 165.691 184.764 165.736C184.711 165.781 184.65 165.804 184.582 165.804C184.469 165.804 184.326 165.74 184.152 165.611C183.978 165.475 183.752 165.328 183.472 165.169C183.2 165.003 182.872 164.856 182.487 164.728C182.109 164.592 181.656 164.524 181.127 164.524C180.545 164.524 180.024 164.644 179.564 164.886C179.11 165.12 178.721 165.46 178.397 165.906C178.079 166.344 177.838 166.876 177.672 167.503C177.505 168.13 177.422 168.836 177.422 169.622C177.422 170.483 177.509 171.231 177.683 171.865C177.864 172.492 178.117 173.009 178.442 173.417C178.774 173.825 179.171 174.131 179.632 174.335C180.1 174.531 180.625 174.629 181.206 174.629C181.735 174.629 182.192 174.569 182.577 174.448C182.962 174.32 183.291 174.18 183.563 174.029C183.842 173.878 184.069 173.742 184.243 173.621C184.424 173.5 184.564 173.44 184.662 173.44C184.737 173.44 184.798 173.455 184.843 173.485C184.888 173.515 184.926 173.576 184.956 173.666C184.987 173.757 185.009 173.885 185.024 174.052C185.039 174.21 185.047 174.425 185.047 174.697ZM200.194 169.418C200.194 170.634 200.043 171.721 199.741 172.681C199.439 173.64 198.99 174.456 198.393 175.128C197.796 175.792 197.056 176.302 196.172 176.657C195.296 177.005 194.28 177.178 193.125 177.178C191.984 177.178 190.987 177.031 190.134 176.737C189.288 176.434 188.582 175.978 188.015 175.366C187.449 174.754 187.022 173.976 186.735 173.032C186.456 172.088 186.316 170.97 186.316 169.678C186.316 168.493 186.467 167.428 186.769 166.484C187.071 165.532 187.521 164.724 188.117 164.059C188.714 163.394 189.45 162.885 190.326 162.53C191.21 162.175 192.233 161.997 193.397 161.997C194.507 161.997 195.485 162.144 196.331 162.439C197.184 162.734 197.894 163.187 198.461 163.799C199.035 164.41 199.465 165.185 199.752 166.121C200.047 167.05 200.194 168.149 200.194 169.418ZM197.067 169.576C197.067 168.806 197.007 168.107 196.886 167.481C196.765 166.846 196.557 166.306 196.263 165.86C195.976 165.407 195.591 165.06 195.107 164.818C194.624 164.569 194.02 164.444 193.295 164.444C192.562 164.444 191.95 164.584 191.459 164.864C190.968 165.135 190.572 165.502 190.27 165.962C189.968 166.423 189.752 166.963 189.624 167.583C189.503 168.194 189.443 168.844 189.443 169.531C189.443 170.332 189.503 171.053 189.624 171.695C189.745 172.329 189.949 172.873 190.236 173.326C190.523 173.78 190.908 174.127 191.391 174.369C191.875 174.603 192.483 174.72 193.215 174.72C193.948 174.72 194.56 174.584 195.051 174.312C195.542 174.04 195.938 173.67 196.24 173.202C196.542 172.734 196.754 172.19 196.875 171.57C197.003 170.944 197.067 170.279 197.067 169.576ZM214.798 175.876C214.798 176.049 214.767 176.204 214.707 176.34C214.647 176.476 214.563 176.589 214.458 176.68C214.36 176.771 214.239 176.839 214.095 176.884C213.959 176.922 213.82 176.941 213.676 176.941H212.407C212.143 176.941 211.912 176.914 211.716 176.861C211.527 176.808 211.35 176.714 211.184 176.578C211.025 176.434 210.87 176.246 210.719 176.012C210.568 175.77 210.398 175.46 210.209 175.083L206.561 168.228C206.35 167.82 206.134 167.382 205.915 166.914C205.696 166.438 205.5 165.978 205.326 165.532H205.304C205.334 166.076 205.357 166.62 205.372 167.163C205.387 167.7 205.394 168.255 205.394 168.829V176.499C205.394 176.574 205.372 176.642 205.326 176.703C205.289 176.763 205.217 176.816 205.111 176.861C205.013 176.899 204.877 176.929 204.703 176.952C204.53 176.974 204.307 176.986 204.035 176.986C203.77 176.986 203.551 176.974 203.378 176.952C203.204 176.929 203.068 176.899 202.97 176.861C202.872 176.816 202.804 176.763 202.766 176.703C202.728 176.642 202.709 176.574 202.709 176.499V163.323C202.709 162.968 202.811 162.703 203.015 162.53C203.227 162.348 203.483 162.258 203.786 162.258H205.383C205.67 162.258 205.912 162.284 206.108 162.337C206.304 162.382 206.478 162.462 206.629 162.575C206.788 162.688 206.935 162.847 207.071 163.051C207.207 163.247 207.347 163.493 207.49 163.787L210.345 169.146C210.511 169.471 210.674 169.792 210.832 170.109C210.999 170.419 211.157 170.732 211.308 171.049C211.459 171.359 211.607 171.665 211.75 171.967C211.894 172.269 212.033 172.571 212.169 172.873H212.181C212.158 172.345 212.139 171.793 212.124 171.219C212.116 170.645 212.113 170.098 212.113 169.576V162.7C212.113 162.624 212.135 162.556 212.181 162.496C212.226 162.435 212.301 162.382 212.407 162.337C212.513 162.292 212.653 162.262 212.826 162.246C213 162.224 213.223 162.212 213.495 162.212C213.752 162.212 213.967 162.224 214.141 162.246C214.314 162.262 214.446 162.292 214.537 162.337C214.635 162.382 214.703 162.435 214.741 162.496C214.779 162.556 214.798 162.624 214.798 162.7V175.876ZM226.693 172.522C226.693 173.292 226.55 173.968 226.263 174.55C225.976 175.132 225.587 175.619 225.096 176.012C224.605 176.397 224.031 176.687 223.374 176.884C222.717 177.08 222.014 177.178 221.267 177.178C220.761 177.178 220.289 177.137 219.85 177.054C219.42 176.971 219.039 176.873 218.706 176.759C218.374 176.638 218.094 176.514 217.868 176.385C217.649 176.257 217.49 176.144 217.392 176.045C217.294 175.947 217.222 175.808 217.177 175.626C217.139 175.437 217.12 175.169 217.12 174.822C217.12 174.588 217.128 174.391 217.143 174.233C217.158 174.074 217.181 173.946 217.211 173.848C217.249 173.749 217.294 173.681 217.347 173.644C217.407 173.598 217.475 173.576 217.551 173.576C217.656 173.576 217.804 173.64 217.992 173.768C218.189 173.889 218.438 174.025 218.74 174.176C219.042 174.327 219.401 174.467 219.816 174.595C220.239 174.716 220.727 174.777 221.278 174.777C221.64 174.777 221.965 174.735 222.252 174.652C222.539 174.561 222.781 174.437 222.977 174.278C223.181 174.12 223.336 173.923 223.442 173.689C223.548 173.455 223.6 173.194 223.6 172.907C223.6 172.575 223.51 172.292 223.329 172.058C223.147 171.816 222.909 171.604 222.615 171.423C222.328 171.234 221.999 171.061 221.629 170.902C221.259 170.736 220.878 170.562 220.485 170.381C220.092 170.2 219.711 169.996 219.341 169.769C218.971 169.535 218.638 169.259 218.344 168.942C218.057 168.617 217.823 168.236 217.641 167.798C217.46 167.36 217.369 166.835 217.369 166.223C217.369 165.521 217.498 164.905 217.755 164.376C218.019 163.84 218.37 163.398 218.808 163.051C219.254 162.696 219.775 162.431 220.372 162.258C220.976 162.084 221.614 161.997 222.286 161.997C222.634 161.997 222.981 162.024 223.329 162.077C223.676 162.129 224.001 162.201 224.303 162.292C224.605 162.382 224.873 162.484 225.107 162.598C225.341 162.711 225.496 162.805 225.572 162.881C225.647 162.956 225.696 163.021 225.719 163.073C225.749 163.126 225.772 163.198 225.787 163.289C225.81 163.372 225.825 163.481 225.832 163.617C225.84 163.746 225.844 163.908 225.844 164.104C225.844 164.323 225.836 164.509 225.821 164.66C225.813 164.811 225.795 164.935 225.764 165.033C225.742 165.132 225.704 165.203 225.651 165.249C225.606 165.294 225.542 165.317 225.458 165.317C225.375 165.317 225.243 165.264 225.062 165.158C224.881 165.052 224.658 164.939 224.393 164.818C224.129 164.69 223.823 164.576 223.476 164.478C223.128 164.373 222.747 164.32 222.332 164.32C222.007 164.32 221.724 164.361 221.482 164.444C221.24 164.52 221.036 164.629 220.87 164.773C220.711 164.909 220.591 165.075 220.508 165.271C220.432 165.468 220.394 165.675 220.394 165.894C220.394 166.219 220.481 166.502 220.655 166.744C220.836 166.978 221.074 167.19 221.369 167.379C221.671 167.56 222.011 167.734 222.388 167.9C222.766 168.058 223.151 168.228 223.544 168.41C223.937 168.591 224.322 168.799 224.699 169.033C225.077 169.259 225.413 169.535 225.708 169.86C226.002 170.177 226.24 170.555 226.421 170.993C226.603 171.423 226.693 171.933 226.693 172.522ZM237.66 175.751C237.66 175.97 237.649 176.155 237.626 176.306C237.611 176.45 237.585 176.567 237.547 176.657C237.509 176.748 237.46 176.816 237.399 176.861C237.347 176.899 237.286 176.918 237.218 176.918H229.854C229.605 176.918 229.393 176.846 229.22 176.703C229.054 176.552 228.971 176.31 228.971 175.978V163.198C228.971 162.866 229.054 162.628 229.22 162.484C229.393 162.333 229.605 162.258 229.854 162.258H237.173C237.241 162.258 237.301 162.277 237.354 162.314C237.407 162.352 237.452 162.42 237.49 162.518C237.528 162.609 237.554 162.73 237.569 162.881C237.592 163.024 237.603 163.209 237.603 163.436C237.603 163.647 237.592 163.829 237.569 163.98C237.554 164.123 237.528 164.24 237.49 164.331C237.452 164.422 237.407 164.49 237.354 164.535C237.301 164.573 237.241 164.592 237.173 164.592H231.939V168.172H236.369C236.437 168.172 236.497 168.194 236.55 168.24C236.61 168.277 236.659 168.342 236.697 168.432C236.735 168.515 236.761 168.632 236.776 168.783C236.799 168.927 236.81 169.104 236.81 169.316C236.81 169.535 236.799 169.716 236.776 169.86C236.761 170.003 236.735 170.12 236.697 170.211C236.659 170.294 236.61 170.354 236.55 170.392C236.497 170.43 236.437 170.449 236.369 170.449H231.939V174.584H237.218C237.286 174.584 237.347 174.607 237.399 174.652C237.46 174.69 237.509 174.754 237.547 174.845C237.585 174.935 237.611 175.056 237.626 175.207C237.649 175.351 237.66 175.532 237.66 175.751ZM252.388 175.876C252.388 176.049 252.358 176.204 252.297 176.34C252.237 176.476 252.154 176.589 252.048 176.68C251.95 176.771 251.829 176.839 251.686 176.884C251.55 176.922 251.41 176.941 251.267 176.941H249.998C249.733 176.941 249.503 176.914 249.307 176.861C249.118 176.808 248.94 176.714 248.774 176.578C248.615 176.434 248.461 176.246 248.31 176.012C248.159 175.77 247.989 175.46 247.8 175.083L244.152 168.228C243.94 167.82 243.725 167.382 243.506 166.914C243.287 166.438 243.091 165.978 242.917 165.532H242.894C242.924 166.076 242.947 166.62 242.962 167.163C242.977 167.7 242.985 168.255 242.985 168.829V176.499C242.985 176.574 242.962 176.642 242.917 176.703C242.879 176.763 242.807 176.816 242.702 176.861C242.603 176.899 242.467 176.929 242.294 176.952C242.12 176.974 241.897 176.986 241.625 176.986C241.361 176.986 241.142 176.974 240.968 176.952C240.794 176.929 240.659 176.899 240.56 176.861C240.462 176.816 240.394 176.763 240.356 176.703C240.319 176.642 240.3 176.574 240.3 176.499V163.323C240.3 162.968 240.402 162.703 240.606 162.53C240.817 162.348 241.074 162.258 241.376 162.258H242.973C243.261 162.258 243.502 162.284 243.699 162.337C243.895 162.382 244.069 162.462 244.22 162.575C244.378 162.688 244.526 162.847 244.662 163.051C244.798 163.247 244.937 163.493 245.081 163.787L247.936 169.146C248.102 169.471 248.264 169.792 248.423 170.109C248.589 170.419 248.748 170.732 248.899 171.049C249.05 171.359 249.197 171.665 249.341 171.967C249.484 172.269 249.624 172.571 249.76 172.873H249.771C249.748 172.345 249.73 171.793 249.714 171.219C249.707 170.645 249.703 170.098 249.703 169.576V162.7C249.703 162.624 249.726 162.556 249.771 162.496C249.816 162.435 249.892 162.382 249.998 162.337C250.103 162.292 250.243 162.262 250.417 162.246C250.591 162.224 250.813 162.212 251.085 162.212C251.342 162.212 251.557 162.224 251.731 162.246C251.905 162.262 252.037 162.292 252.128 162.337C252.226 162.382 252.294 162.435 252.331 162.496C252.369 162.556 252.388 162.624 252.388 162.7V175.876ZM265.349 163.481C265.349 163.7 265.337 163.889 265.315 164.048C265.3 164.199 265.273 164.323 265.236 164.422C265.198 164.512 265.149 164.58 265.088 164.626C265.035 164.671 264.975 164.694 264.907 164.694H261.236V176.51C261.236 176.586 261.21 176.653 261.157 176.714C261.112 176.774 261.032 176.823 260.919 176.861C260.806 176.899 260.651 176.929 260.455 176.952C260.266 176.974 260.028 176.986 259.741 176.986C259.454 176.986 259.212 176.974 259.016 176.952C258.827 176.929 258.676 176.899 258.563 176.861C258.449 176.823 258.366 176.774 258.313 176.714C258.268 176.653 258.245 176.586 258.245 176.51V164.694H254.575C254.499 164.694 254.435 164.671 254.382 164.626C254.329 164.58 254.284 164.512 254.246 164.422C254.208 164.323 254.178 164.199 254.155 164.048C254.14 163.889 254.133 163.7 254.133 163.481C254.133 163.255 254.14 163.062 254.155 162.904C254.178 162.745 254.208 162.62 254.246 162.53C254.284 162.431 254.329 162.364 254.382 162.326C254.435 162.28 254.499 162.258 254.575 162.258H264.907C264.975 162.258 265.035 162.28 265.088 162.326C265.149 162.364 265.198 162.431 265.236 162.53C265.273 162.62 265.3 162.745 265.315 162.904C265.337 163.062 265.349 163.255 265.349 163.481Z" fill="black"/>
<path d="M273.027 334.302C273.125 330.076 273.822 325.902 273.822 321.678C273.822 320.714 273.922 319.991 273.557 321.589C272.684 325.415 272.068 329.228 271.659 333.132C271.48 334.837 271.499 336.863 270.865 338.495C270.745 338.802 269.681 333.605 269.629 333.198C269.121 329.233 268.967 325.225 268.746 321.236C268.59 318.438 268.81 319.996 269.629 321.655C271.141 324.723 272.986 327.685 275.543 329.998C277.48 331.749 281.813 335.204 284.769 334.522C286.306 334.167 286.113 331.598 286.137 330.506C286.143 330.252 286.137 325.504 286.137 327.681C286.137 329.819 286.083 331.965 286.159 334.103C286.169 334.384 286.511 337.189 286.534 335.273C286.56 333.169 286.534 331.064 286.534 328.961C286.534 328.283 286.882 326.317 286.358 325.694C285.231 324.357 283.488 323.42 282.231 322.185C280.672 320.655 279.27 318.973 277.861 317.308C276.648 315.874 275.977 315.158 275.19 317.33C273.959 320.728 273.205 324.491 272.807 328.078C272.744 328.643 271.854 335.219 273.513 334.39C274.661 333.816 278.904 328.077 279.163 328.122C280.083 328.282 281.149 330.46 281.679 331.079C282.645 332.208 283.959 333.306 285.563 332.977C287.094 332.663 287.826 331.33 288.256 329.954C288.406 329.472 288.812 326.414 289.712 328.078C290.994 330.447 290.326 331.234 293.045 329.579C294.565 328.653 296.751 328.701 298.452 327.945" stroke="black" stroke-width="0.794521" stroke-linecap="round" stroke-linejoin="round"/>
<g filter="url(#filter1_ii)">
<path fill-rule="evenodd" clip-rule="evenodd" d="M197.548 82.0411H172.123V111.438H269.849V82.0411H243.63C243.63 69.3159 233.314 59 220.589 59C207.864 59 197.548 69.3159 197.548 82.0411ZM236.299 82.0411H204.879C204.879 73.3648 211.913 66.3313 220.589 66.3313C229.265 66.3313 236.299 73.3648 236.299 82.0411Z" fill="#C4C4C4"/>
</g>
<defs>
<filter id="filter0_dii" x="99.8219" y="83.6301" width="238.356" height="305.096" filterUnits="userSpaceOnUse" color-interpolation-filters="sRGB">
<feFlood flood-opacity="0" result="BackgroundImageFix"/>
<feColorMatrix in="SourceAlpha" type="matrix" values="0 0 0 0 0 0 0 0 0 0 0 0 0 0 0 0 0 0 127 0"/>
<feOffset dy="6.35616"/>
<feGaussianBlur stdDeviation="1.58904"/>
<feColorMatrix type="matrix" values="0 0 0 0 0 0 0 0 0 0 0 0 0 0 0 0 0 0 0.17 0"/>
<feBlend mode="normal" in2="BackgroundImageFix" result="effect1_dropShadow"/>
<feBlend mode="normal" in="SourceGraphic" in2="effect1_dropShadow" result="shape"/>
<feColorMatrix in="SourceAlpha" type="matrix" values="0 0 0 0 0 0 0 0 0 0 0 0 0 0 0 0 0 0 127 0" result="hardAlpha"/>
<feOffset dy="-5.56164"/>
<feGaussianBlur stdDeviation="1.58904"/>
<feComposite in2="hardAlpha" operator="arithmetic" k2="-1" k3="1"/>
<feColorMatrix type="matrix" values="0 0 0 0 0 0 0 0 0 0 0 0 0 0 0 0 0 0 0.25 0"/>
<feBlend mode="normal" in2="shape" result="effect2_innerShadow"/>
<feColorMatrix in="SourceAlpha" type="matrix" values="0 0 0 0 0 0 0 0 0 0 0 0 0 0 0 0 0 0 127 0" result="hardAlpha"/>
<feOffset dy="5.56164"/>
<feGaussianBlur stdDeviation="1.58904"/>
<feComposite in2="hardAlpha" operator="arithmetic" k2="-1" k3="1"/>
<feColorMatrix type="matrix" values="0 0 0 0 1 0 0 0 0 1 0 0 0 0 1 0 0 0 0.24 0"/>
<feBlend mode="normal" in2="effect2_innerShadow" result="effect3_innerShadow"/>
</filter>
<filter id="filter1_ii" x="172.123" y="55.8219" width="97.726" height="58.7945" filterUnits="userSpaceOnUse" color-interpolation-filters="sRGB">
<feFlood flood-opacity="0" result="BackgroundImageFix"/>
<feBlend mode="normal" in="SourceGraphic" in2="BackgroundImageFix" result="shape"/>
<feColorMatrix in="SourceAlpha" type="matrix" values="0 0 0 0 0 0 0 0 0 0 0 0 0 0 0 0 0 0 127 0" result="hardAlpha"/>
<feOffset dy="-3.9726"/>
<feGaussianBlur stdDeviation="1.58904"/>
<feComposite in2="hardAlpha" operator="arithmetic" k2="-1" k3="1"/>
<feColorMatrix type="matrix" values="0 0 0 0 0 0 0 0 0 0 0 0 0 0 0 0 0 0 0.25 0"/>
<feBlend mode="normal" in2="shape" result="effect1_innerShadow"/>
<feColorMatrix in="SourceAlpha" type="matrix" values="0 0 0 0 0 0 0 0 0 0 0 0 0 0 0 0 0 0 127 0" result="hardAlpha"/>
<feOffset dy="6.35616"/>
<feGaussianBlur stdDeviation="1.58904"/>
<feComposite in2="hardAlpha" operator="arithmetic" k2="-1" k3="1"/>
<feColorMatrix type="matrix" values="0 0 0 0 1 0 0 0 0 1 0 0 0 0 1 0 0 0 0.28 0"/>
<feBlend mode="normal" in2="effect1_innerShadow" result="effect2_innerShadow"/>
</filter>
<linearGradient id="paint0_linear" x1="219" y1="0" x2="219" y2="438" gradientUnits="userSpaceOnUse">
<stop stop-color="white"/>
<stop offset="1" stop-color="#E9E9E9"/>
</linearGradient>
</defs>
</svg>
