<svg width="438" height="438" viewBox="0 0 438 438" fill="none" xmlns="http://www.w3.org/2000/svg">
<circle cx="219" cy="219" r="219" fill="url(#paint0_linear)"/>
<g filter="url(#filter0_i)">
<path d="M278.449 317.849H286.996V427C283.842 428.681 281.953 429.346 278.449 430L278.449 317.849Z" fill="#F5F5F5"/>
</g>
<g filter="url(#filter1_i)">
<rect x="259.765" y="303.25" width="46.8793" height="15.2867" rx="7.64336" fill="#C4C4C4"/>
</g>
<g filter="url(#filter2_i)">
<rect x="219" y="130" width="132.485" height="181.402" rx="32.6117" fill="#C4C4C4"/>
</g>
<path d="M250.593 301.211H319.892C333.401 301.211 344.351 290.261 344.351 276.753V172.293C333.311 167.028 305.217 159.656 281.166 172.293C257.115 184.93 234.457 177.559 226.134 172.293V276.753C226.134 290.261 237.084 301.211 250.593 301.211Z" fill="#E7CE4C"/>
<path d="M319.892 301.211H250.592C237.084 301.211 226.134 290.261 226.134 276.753V172.293C237.174 167.028 265.268 159.656 289.319 172.293C313.37 184.93 336.028 177.559 344.351 172.293V276.753C344.351 290.261 333.401 301.211 319.892 301.211Z" fill="url(#paint1_linear)"/>
<rect x="247.535" y="201.338" width="77.4527" height="49.9366" rx="6.11469" fill="white"/>
<line x1="276.07" y1="218.153" x2="297.472" y2="218.153" stroke="#D2B935" stroke-width="1.01911"/>
<line x1="256.707" y1="222.23" x2="315.816" y2="222.23" stroke="#D2B935" stroke-width="1.01911"/>
<line x1="256.707" y1="227.325" x2="315.816" y2="227.325" stroke="#D2B935" stroke-width="1.01911"/>
<line x1="256.707" y1="232.421" x2="315.816" y2="232.421" stroke="#D2B935" stroke-width="1.01911"/>
<path d="M275.144 243.427C276.004 243.427 276.634 243.591 277.035 243.917C277.442 244.238 277.645 244.679 277.645 245.241C277.645 245.596 277.559 245.917 277.387 246.203C277.221 246.484 276.966 246.707 276.622 246.873C276.284 247.034 275.866 247.114 275.368 247.114C274.944 247.114 274.534 247.051 274.139 246.925C273.743 246.793 273.417 246.613 273.159 246.384L273.554 245.705C273.761 245.899 274.024 246.057 274.345 246.177C274.666 246.292 275.004 246.349 275.359 246.349C275.812 246.349 276.161 246.255 276.407 246.066C276.66 245.871 276.786 245.607 276.786 245.275C276.786 244.914 276.648 244.642 276.373 244.459C276.098 244.27 275.628 244.175 274.964 244.175H273.597L273.915 241.03H277.31V241.777H274.637L274.474 243.427H275.144ZM280.818 247.114C280.342 247.114 279.918 246.994 279.546 246.753C279.179 246.507 278.89 246.152 278.678 245.687C278.466 245.223 278.36 244.673 278.36 244.037C278.36 243.402 278.466 242.852 278.678 242.387C278.89 241.923 279.179 241.571 279.546 241.33C279.918 241.084 280.342 240.961 280.818 240.961C281.288 240.961 281.706 241.084 282.073 241.33C282.445 241.571 282.737 241.923 282.949 242.387C283.161 242.852 283.267 243.402 283.267 244.037C283.267 244.673 283.161 245.223 282.949 245.687C282.737 246.152 282.445 246.507 282.073 246.753C281.706 246.994 281.288 247.114 280.818 247.114ZM280.818 246.349C281.299 246.349 281.683 246.152 281.97 245.756C282.262 245.361 282.408 244.788 282.408 244.037C282.408 243.287 282.262 242.714 281.97 242.319C281.683 241.923 281.299 241.726 280.818 241.726C280.331 241.726 279.941 241.923 279.649 242.319C279.363 242.714 279.22 243.287 279.22 244.037C279.22 244.788 279.363 245.361 279.649 245.756C279.941 246.152 280.331 246.349 280.818 246.349ZM286.55 247.114C286.074 247.114 285.65 246.994 285.278 246.753C284.911 246.507 284.622 246.152 284.41 245.687C284.198 245.223 284.092 244.673 284.092 244.037C284.092 243.402 284.198 242.852 284.41 242.387C284.622 241.923 284.911 241.571 285.278 241.33C285.65 241.084 286.074 240.961 286.55 240.961C287.02 240.961 287.438 241.084 287.805 241.33C288.177 241.571 288.469 241.923 288.681 242.387C288.893 242.852 288.999 243.402 288.999 244.037C288.999 244.673 288.893 245.223 288.681 245.687C288.469 246.152 288.177 246.507 287.805 246.753C287.438 246.994 287.02 247.114 286.55 247.114ZM286.55 246.349C287.031 246.349 287.415 246.152 287.702 245.756C287.994 245.361 288.14 244.788 288.14 244.037C288.14 243.287 287.994 242.714 287.702 242.319C287.415 241.923 287.031 241.726 286.55 241.726C286.063 241.726 285.673 241.923 285.381 242.319C285.095 242.714 284.951 243.287 284.951 244.037C284.951 244.788 285.095 245.361 285.381 245.756C285.673 246.152 286.063 246.349 286.55 246.349ZM294.487 247.097C294.023 247.097 293.607 246.997 293.241 246.796C292.88 246.596 292.596 246.321 292.39 245.971C292.184 245.616 292.08 245.215 292.08 244.768C292.08 244.321 292.184 243.923 292.39 243.573C292.596 243.218 292.88 242.943 293.241 242.748C293.607 242.548 294.023 242.448 294.487 242.448C294.899 242.448 295.266 242.531 295.587 242.697C295.913 242.863 296.165 243.104 296.343 243.419L295.716 243.823C295.572 243.605 295.395 243.442 295.183 243.333C294.971 243.224 294.736 243.169 294.478 243.169C294.18 243.169 293.911 243.235 293.67 243.367C293.435 243.499 293.249 243.688 293.112 243.934C292.98 244.175 292.914 244.453 292.914 244.768C292.914 245.089 292.98 245.372 293.112 245.619C293.249 245.859 293.435 246.046 293.67 246.177C293.911 246.309 294.18 246.375 294.478 246.375C294.736 246.375 294.971 246.321 295.183 246.212C295.395 246.103 295.572 245.94 295.716 245.722L296.343 246.117C296.165 246.432 295.913 246.676 295.587 246.848C295.266 247.014 294.899 247.097 294.487 247.097ZM299.329 247.097C298.865 247.097 298.45 246.997 298.083 246.796C297.722 246.596 297.438 246.321 297.232 245.971C297.026 245.616 296.923 245.215 296.923 244.768C296.923 244.321 297.026 243.923 297.232 243.573C297.438 243.218 297.722 242.943 298.083 242.748C298.45 242.548 298.865 242.448 299.329 242.448C299.742 242.448 300.108 242.531 300.429 242.697C300.756 242.863 301.008 243.104 301.185 243.419L300.558 243.823C300.415 243.605 300.237 243.442 300.025 243.333C299.813 243.224 299.578 243.169 299.32 243.169C299.023 243.169 298.753 243.235 298.513 243.367C298.278 243.499 298.092 243.688 297.954 243.934C297.822 244.175 297.756 244.453 297.756 244.768C297.756 245.089 297.822 245.372 297.954 245.619C298.092 245.859 298.278 246.046 298.513 246.177C298.753 246.309 299.023 246.375 299.32 246.375C299.578 246.375 299.813 246.321 300.025 246.212C300.237 246.103 300.415 245.94 300.558 245.722L301.185 246.117C301.008 246.432 300.756 246.676 300.429 246.848C300.108 247.014 299.742 247.097 299.329 247.097Z" fill="#D2B935"/>
<path d="M150.781 200.378C150.781 200.378 141.527 194.282 129.201 200.378C116.876 206.474 107.622 200.378 107.622 200.378V305.331C107.622 317.249 117.283 326.911 129.201 326.911V326.911C141.119 326.911 150.781 317.249 150.781 305.331V200.378Z" fill="url(#paint2_linear)"/>
<path d="M107.622 199.852C107.622 199.852 116.876 193.756 129.201 199.852C141.527 205.948 150.78 199.852 150.78 199.852V304.806C150.78 316.724 141.119 326.385 129.201 326.385V326.385C117.283 326.385 107.622 316.724 107.622 304.806V199.852Z" fill="url(#paint3_linear)"/>
<path d="M107.632 212.443C124.403 214.752 133.855 214.576 151.106 212.443V270.006C134.159 273.002 124.746 273.078 107.632 270.006V212.443Z" fill="white"/>
<path d="M150.78 155.713V304.806C150.78 316.724 141.119 326.385 129.201 326.385V326.385C117.283 326.385 107.622 316.724 107.622 304.806V155.713" stroke="#EBCD2E" stroke-width="0.980873"/>
<rect x="101" y="140" width="56.0009" height="31.6847" rx="6.63168" fill="#C09012"/>
<line x1="118.192" y1="278.036" x2="118.192" y2="308.495" stroke="white" stroke-opacity="0.89" stroke-width="1.96175" stroke-linecap="round" stroke-linejoin="round"/>
<line x1="125.56" y1="287.615" x2="125.56" y2="298.916" stroke="white" stroke-opacity="0.89" stroke-width="1.96175" stroke-linecap="round" stroke-linejoin="round"/>
<path d="M118.316 236.528C126.664 237.123 131.338 237.148 139.685 236.528" stroke="#EBCD2E" stroke-width="0.736853" stroke-linecap="round"/>
<path d="M113.158 240.212C125.82 241.213 132.919 241.279 145.58 240.212" stroke="#EBCD2E" stroke-width="0.736853" stroke-linecap="round"/>
<path d="M113.158 243.896C125.71 245.226 132.768 245.215 145.58 243.896" stroke="#EBCD2E" stroke-width="0.736853" stroke-linecap="round"/>
<defs>
<filter id="filter0_i" x="278.449" y="317.849" width="8.54673" height="115.259" filterUnits="userSpaceOnUse" color-interpolation-filters="sRGB">
<feFlood flood-opacity="0" result="BackgroundImageFix"/>
<feBlend mode="normal" in="SourceGraphic" in2="BackgroundImageFix" result="shape"/>
<feColorMatrix in="SourceAlpha" type="matrix" values="0 0 0 0 0 0 0 0 0 0 0 0 0 0 0 0 0 0 127 0" result="hardAlpha"/>
<feOffset dy="3.1079"/>
<feGaussianBlur stdDeviation="1.55395"/>
<feComposite in2="hardAlpha" operator="arithmetic" k2="-1" k3="1"/>
<feColorMatrix type="matrix" values="0 0 0 0 0 0 0 0 0 0 0 0 0 0 0 0 0 0 0.25 0"/>
<feBlend mode="normal" in2="shape" result="effect1_innerShadow"/>
</filter>
<filter id="filter1_i" x="259.765" y="303.25" width="46.8793" height="16.8407" filterUnits="userSpaceOnUse" color-interpolation-filters="sRGB">
<feFlood flood-opacity="0" result="BackgroundImageFix"/>
<feBlend mode="normal" in="SourceGraphic" in2="BackgroundImageFix" result="shape"/>
<feColorMatrix in="SourceAlpha" type="matrix" values="0 0 0 0 0 0 0 0 0 0 0 0 0 0 0 0 0 0 127 0" result="hardAlpha"/>
<feMorphology radius="2.33093" operator="erode" in="SourceAlpha" result="effect1_innerShadow"/>
<feOffset dy="1.55395"/>
<feGaussianBlur stdDeviation="1.55395"/>
<feComposite in2="hardAlpha" operator="arithmetic" k2="-1" k3="1"/>
<feColorMatrix type="matrix" values="0 0 0 0 0 0 0 0 0 0 0 0 0 0 0 0 0 0 0.25 0"/>
<feBlend mode="normal" in2="shape" result="effect1_innerShadow"/>
</filter>
<filter id="filter2_i" x="219" y="130" width="132.485" height="184.51" filterUnits="userSpaceOnUse" color-interpolation-filters="sRGB">
<feFlood flood-opacity="0" result="BackgroundImageFix"/>
<feBlend mode="normal" in="SourceGraphic" in2="BackgroundImageFix" result="shape"/>
<feColorMatrix in="SourceAlpha" type="matrix" values="0 0 0 0 0 0 0 0 0 0 0 0 0 0 0 0 0 0 127 0" result="hardAlpha"/>
<feOffset dy="5.43883"/>
<feGaussianBlur stdDeviation="1.55395"/>
<feComposite in2="hardAlpha" operator="arithmetic" k2="-1" k3="1"/>
<feColorMatrix type="matrix" values="0 0 0 0 1 0 0 0 0 1 0 0 0 0 1 0 0 0 0.25 0"/>
<feBlend mode="normal" in2="shape" result="effect1_innerShadow"/>
</filter>
<linearGradient id="paint0_linear" x1="219" y1="0" x2="219" y2="438" gradientUnits="userSpaceOnUse">
<stop stop-color="white"/>
<stop offset="1" stop-color="#E9E9E9"/>
</linearGradient>
<linearGradient id="paint1_linear" x1="285.242" y1="165.316" x2="285.242" y2="301.211" gradientUnits="userSpaceOnUse">
<stop stop-color="#FFE665"/>
<stop offset="1" stop-color="#DEC334"/>
</linearGradient>
<linearGradient id="paint2_linear" x1="129.201" y1="197.669" x2="129.201" y2="326.911" gradientUnits="userSpaceOnUse">
<stop stop-color="#EBCD2E"/>
<stop offset="1" stop-color="#FFDE34"/>
</linearGradient>
<linearGradient id="paint3_linear" x1="129.201" y1="197.143" x2="129.201" y2="326.385" gradientUnits="userSpaceOnUse">
<stop stop-color="#FFDE34"/>
<stop offset="1" stop-color="#EBCD2E"/>
</linearGradient>
</defs>
</svg>
