<svg width="438" height="438" viewBox="0 0 438 438" fill="none" xmlns="http://www.w3.org/2000/svg">
<circle cx="219" cy="219" r="219" fill="url(#paint0_linear)"/>
<path d="M215.152 193.379C215.282 192.768 215.814 192.324 216.439 192.307L218.518 192.249C219.66 192.217 220.802 192.354 221.904 192.655L223.217 193.012C223.806 193.173 224.214 193.708 224.214 194.319V199.242L218.91 199.107L217.752 198.534C217.251 198.286 216.709 198.131 216.153 198.078L214.195 197.888L215.152 193.379Z" fill="#2F2F2F"/>
<g filter="url(#filter0_i)">
<path d="M223.932 370.12L227.046 353.872L221.088 347.102L200.372 334.645C195.704 334.645 193.281 343.672 192.654 348.185C191.659 354.965 196.883 357.187 200.973 357.605C202.453 357.757 203.914 357.337 205.341 356.919C217.468 353.359 222.774 364.012 223.932 370.12Z" fill="#C4C4C4"/>
</g>
<path d="M203.633 332.207C220.098 334.266 227.148 329.86 228.276 327.468L226.787 353.872C223.586 348.683 212.523 345.775 204.462 345C201.27 344.693 197.502 344.411 195.9 341.633C193.579 337.61 199.515 333.855 203.633 332.207Z" fill="#C4C4C4"/>
<g filter="url(#filter1_d)">
<path d="M199.842 244.737H210.945L209.346 336.927C209.33 337.852 208.799 338.704 207.937 339.039C205.349 340.044 203.56 339.964 201.251 339.055C200.377 338.711 199.842 337.838 199.842 336.898V244.737Z" fill="#C4C4C4"/>
</g>
<rect x="210.403" y="239.592" width="4.60368" height="4.06207" rx="1.62483" fill="#F4F4F4"/>
<path d="M211.757 234.988L213.788 234.718L213.653 237.967L211.757 238.644V234.988Z" fill="#8B8989"/>
<rect x="213.653" y="234.176" width="4.06207" height="3.79127" fill="#B3AFAF"/>
<g filter="url(#filter2_d)">
<path d="M198.488 230.656H212.028V233.928L211.757 241.894L211.889 243.799C211.968 244.932 211.157 245.939 210.028 246.069C206.546 246.468 203.98 246.455 200.5 246.063C199.366 245.935 198.549 244.926 198.628 243.788L198.759 241.894L198.488 230.656Z" fill="#C4C4C4"/>
</g>
<g filter="url(#filter3_d)">
<path d="M195.509 199.513L210.674 200.309L215.007 207.073V234.525C207.392 236.258 203.124 236.194 195.509 234.525V199.513Z" fill="#C4C4C4"/>
</g>
<path d="M151.108 175.432C152.604 170.373 157.741 167.302 162.886 168.465C180.03 172.339 192.542 176.036 209.907 182.393C214.862 184.207 217.517 189.578 216.021 194.638V194.638C214.533 199.67 209.431 202.733 204.309 201.599C186.347 197.622 173.826 193.897 157.153 187.663C152.231 185.823 149.618 180.47 151.108 175.432V175.432Z" fill="#E7E7E7"/>
<g filter="url(#filter4_i)">
<path d="M196.322 199.513L195.645 218.063C190.842 207.91 187.41 202.694 179.667 195.045L196.322 199.513Z" fill="#A9A9A9"/>
</g>
<g filter="url(#filter5_i)">
<path d="M226.521 349.539L305.357 350.206C306.034 350.212 306.603 350.717 306.689 351.388L308.781 367.741C308.885 368.55 308.254 369.267 307.438 369.267H296.41C296.034 369.267 295.676 369.111 295.42 368.836L294.197 367.523C293.936 367.243 293.568 367.087 293.186 367.093L238.38 367.92C238.077 367.925 237.785 368.031 237.549 368.221L235.573 369.819C235.332 370.014 235.031 370.12 234.721 370.12H223.673L226.521 349.539Z" fill="#C4C4C4"/>
</g>
<g filter="url(#filter6_d)">
<path d="M228.34 320.376C228.457 318.957 229.653 317.87 231.077 317.89L294.183 318.775C295.338 318.792 296.356 319.539 296.717 320.636L306.586 350.587C307.163 352.339 305.859 354.143 304.014 354.143H228.508C226.925 354.143 225.679 352.791 225.809 351.213L228.34 320.376Z" fill="#C4C4C4"/>
</g>
<path d="M231.404 321.248C231.479 320.403 232.192 319.757 233.041 319.767L293.044 320.415C293.745 320.422 294.361 320.878 294.575 321.545L303.154 348.387C303.489 349.435 302.707 350.507 301.606 350.507H230.593C229.639 350.507 228.89 349.689 228.974 348.739L231.404 321.248Z" fill="#2F2F2F"/>
<path d="M218.121 207.096H224.35L219.909 337.238C219.892 337.727 219.616 338.179 219.166 338.37C218.018 338.858 217.159 338.887 216.014 338.394C215.55 338.194 215.285 337.714 215.296 337.209L218.121 207.096Z" fill="#2F2F2F"/>
<path d="M217.986 202.795C220.169 202.558 221.482 202.457 224.485 202.795V207.277C221.891 207.795 220.476 207.718 217.986 207.277V202.795Z" fill="#C4C4C4"/>
<path d="M217.986 199.157C220.169 198.955 221.482 198.868 224.485 199.157V202.996C221.891 203.439 220.476 203.374 217.986 202.996V199.157Z" fill="#C4C4C4"/>
<circle cx="222.725" cy="235.665" r="2.30184" fill="#2F2F2F"/>
<g filter="url(#filter7_d)">
<path d="M215.549 195.857C198.189 191.919 171.451 184.724 151.097 175.547C149.256 181.938 153.399 185.837 155.972 187.056C167.481 192.878 194.065 199.287 205.529 201.95C212.245 201.95 214.917 197.888 215.549 195.857Z" fill="#C4C4C4"/>
</g>
<g filter="url(#filter8_dii)">
<rect x="275" y="88.6287" width="86.8821" height="109.495" rx="6.24837" fill="#803A13"/>
</g>
<rect x="279.761" y="94.5795" width="77.3608" height="97.5936" rx="3.86804" fill="#FBFBFB"/>
<g filter="url(#filter9_ii)">
<path fill-rule="evenodd" clip-rule="evenodd" d="M309.812 88.6287H300.291V99.6377H336.889V88.6287L327.07 88.6287C327.07 83.8632 323.207 80 318.441 80C313.676 80 309.812 83.8632 309.812 88.6287ZM324.324 88.6287C324.324 85.3795 321.69 82.7455 318.441 82.7455C315.192 82.7455 312.558 85.3795 312.558 88.6287C312.558 88.6287 312.558 88.6287 312.558 88.6287L324.324 88.6287Z" fill="#C4C4C4"/>
</g>
<mask id="path-24-inside-1" fill="white">
<rect x="289.282" y="113.027" width="16.6623" height="16.6623" rx="0.595083"/>
</mask>
<rect x="289.282" y="113.027" width="16.6623" height="16.6623" rx="0.595083" stroke="#1C1C1C" stroke-width="1.78525" mask="url(#path-24-inside-1)"/>
<mask id="path-25-inside-2" fill="white">
<rect x="289.282" y="137.425" width="16.6623" height="16.6623" rx="0.595083"/>
</mask>
<rect x="289.282" y="137.425" width="16.6623" height="16.6623" rx="0.595083" stroke="#1C1C1C" stroke-width="1.78525" mask="url(#path-25-inside-2)"/>
<mask id="path-26-inside-3" fill="white">
<rect x="289.282" y="161.824" width="16.6623" height="16.6623" rx="0.595083"/>
</mask>
<rect x="289.282" y="161.824" width="16.6623" height="16.6623" rx="0.595083" stroke="#1C1C1C" stroke-width="1.78525" mask="url(#path-26-inside-3)"/>
<line x1="320.226" y1="142.335" x2="336.889" y2="142.335" stroke="black" stroke-width="0.297541"/>
<line x1="320.226" y1="117.936" x2="336.889" y2="117.936" stroke="black" stroke-width="0.297541"/>
<line x1="320.226" y1="166.733" x2="336.889" y2="166.733" stroke="black" stroke-width="0.297541"/>
<line x1="311.895" y1="145.905" x2="345.517" y2="145.905" stroke="black" stroke-width="0.297541"/>
<line x1="311.895" y1="121.507" x2="345.517" y2="121.507" stroke="black" stroke-width="0.297541"/>
<line x1="311.895" y1="170.304" x2="345.517" y2="170.304" stroke="black" stroke-width="0.297541"/>
<line x1="311.895" y1="149.178" x2="345.517" y2="149.178" stroke="black" stroke-width="0.297541"/>
<line x1="311.895" y1="124.78" x2="345.517" y2="124.78" stroke="black" stroke-width="0.297541"/>
<line x1="311.895" y1="173.577" x2="345.517" y2="173.577" stroke="black" stroke-width="0.297541"/>
<path d="M291.662 121.019L295.249 127.011L304.159 115.705" stroke="#DD0404" stroke-width="1.19017"/>
<path d="M291.662 145.417L295.249 151.41L304.159 140.103" stroke="#DD0404" stroke-width="1.19017"/>
<path d="M291.662 169.816L295.249 175.808L304.159 164.502" stroke="#DD0404" stroke-width="1.19017"/>
<path d="M58.0348 112.539C55.9365 107.702 58.742 102.147 63.8804 100.965L105.83 91.3151C109.439 90.4849 113.167 92.1066 115.021 95.3129L141.824 141.681C144.553 146.401 142.153 152.43 136.928 153.984L90.1405 167.9C86.0515 169.117 81.6982 167.087 80.0005 163.174L58.0348 112.539Z" fill="#D0D0D0"/>
<g filter="url(#filter10_d)">
<path d="M58.9451 110.023C56.6869 105.161 59.4784 99.4541 64.7024 98.2524L105.351 88.9017C108.99 88.0643 112.748 89.7212 114.584 92.9737L140.941 139.657C143.613 144.388 141.178 150.373 135.964 151.897L92.2343 164.675C88.2328 165.844 83.9775 163.914 82.2213 160.133L58.9451 110.023Z" fill="white"/>
</g>
<g filter="url(#filter11_i)">
<path d="M71.0629 110.173C70.2256 108.476 71.1582 106.437 72.99 105.961L103.469 98.0399C104.77 97.7018 106.136 98.2743 106.808 99.4386L127.357 135.079C128.311 136.734 127.488 138.847 125.667 139.42L93.3319 149.596C91.9266 150.038 90.4087 149.39 89.757 148.068L71.0629 110.173Z" fill="#C4C4C4"/>
</g>
<path d="M101.72 102.337L79.1015 108.271C76.9995 108.822 75.9355 111.166 76.9043 113.111L91.8879 143.196C92.6374 144.701 94.3682 145.44 95.9734 144.94L119.861 137.498C121.949 136.847 122.901 134.434 121.82 132.533L105.567 103.957C104.8 102.608 103.222 101.943 101.72 102.337Z" fill="#5B5B5B" fill-opacity="0.7" stroke="#282828" stroke-width="0.878394"/>
<g filter="url(#filter12_i)">
<rect x="98.2598" y="150.666" width="12.8769" height="5.49666" rx="1.58111" transform="rotate(-15.7514 98.2598 150.666)" fill="#C4C4C4"/>
</g>
<g filter="url(#filter13_i)">
<rect x="114.376" y="146.285" width="12.8769" height="5.49666" rx="1.58111" transform="rotate(-15.7514 114.376 146.285)" fill="#C4C4C4"/>
</g>
<line x1="75.0122" y1="117.783" x2="78.7787" y2="116.917" stroke="#282828" stroke-width="0.175679"/>
<line x1="79.6895" y1="127.163" x2="83.4166" y2="126.125" stroke="#282828" stroke-width="0.175679"/>
<line x1="84.5811" y1="136.673" x2="88.1371" y2="135.675" stroke="#282828" stroke-width="0.175679"/>
<path d="M77.2707 140.003L76.5957 137.842L77.4108 137.587C77.5542 137.543 77.6659 137.515 77.7459 137.505C77.8575 137.49 77.957 137.496 78.0444 137.524C78.1315 137.55 78.2106 137.602 78.2818 137.678C78.3539 137.753 78.4067 137.845 78.4402 137.952C78.4975 138.135 78.4877 138.309 78.4107 138.474C78.3334 138.637 78.1419 138.766 77.8364 138.862L77.2822 139.035L77.5566 139.913L77.2707 140.003ZM77.2025 138.78L77.7611 138.605C77.9458 138.548 78.0663 138.472 78.1224 138.379C78.1786 138.286 78.1871 138.177 78.1482 138.053C78.1199 137.962 78.0727 137.892 78.0066 137.843C77.9412 137.792 77.8679 137.768 77.7867 137.771C77.7346 137.773 77.6437 137.794 77.514 137.835L76.9613 138.008L77.2025 138.78ZM80.0268 136.77L80.3127 136.681L80.7027 137.929C80.7705 138.146 80.7998 138.326 80.7906 138.47C80.7813 138.613 80.7249 138.745 80.6214 138.865C80.5185 138.985 80.3629 139.077 80.1546 139.142C79.9522 139.205 79.7758 139.222 79.6253 139.193C79.4748 139.163 79.3514 139.091 79.2553 138.977C79.1588 138.861 79.0749 138.689 79.0033 138.46L78.6134 137.212L78.8993 137.122L79.2888 138.369C79.3474 138.557 79.4079 138.69 79.4702 138.769C79.5332 138.846 79.6145 138.896 79.714 138.917C79.8145 138.939 79.9262 138.93 80.049 138.892C80.2593 138.826 80.3942 138.732 80.4539 138.609C80.5135 138.485 80.501 138.288 80.4163 138.017L80.0268 136.77ZM81.4534 138.696L80.7785 136.535L81.0644 136.446L81.6596 138.352L82.7237 138.019L82.8034 138.274L81.4534 138.696ZM79.206 141.493L78.9072 140.537L79.0522 140.492L79.0942 140.626C79.1096 140.569 79.1378 140.519 79.1788 140.476C79.2196 140.431 79.2719 140.399 79.3355 140.379C79.4064 140.357 79.4689 140.354 79.5231 140.369C79.5779 140.384 79.6229 140.415 79.658 140.462C79.6988 140.327 79.7798 140.241 79.9011 140.203C79.996 140.173 80.0772 140.177 80.1448 140.214C80.2121 140.25 80.2629 140.323 80.297 140.432L80.5021 141.088L80.3409 141.139L80.1526 140.536C80.1324 140.471 80.1125 140.427 80.0928 140.402C80.0736 140.376 80.0475 140.359 80.0144 140.35C79.9814 140.341 79.9462 140.343 79.909 140.354C79.8417 140.375 79.7929 140.415 79.7626 140.474C79.732 140.533 79.7321 140.611 79.7629 140.709L79.9365 141.265L79.7743 141.316L79.5802 140.694C79.5577 140.622 79.5276 140.572 79.4899 140.545C79.4523 140.517 79.4034 140.512 79.3434 140.531C79.2977 140.545 79.2592 140.571 79.2276 140.607C79.1967 140.643 79.1798 140.687 79.1768 140.738C79.1738 140.79 79.1859 140.859 79.2131 140.946L79.3681 141.443L79.206 141.493ZM80.3893 139.879L80.331 139.693L80.4931 139.642L80.5514 139.828L80.3893 139.879ZM80.7435 141.013L80.4447 140.057L80.6068 140.006L80.9056 140.962L80.7435 141.013ZM81.1533 140.885L80.8545 139.929L81.0004 139.883L81.0429 140.019C81.0803 139.892 81.1654 139.808 81.2981 139.766C81.3557 139.748 81.4118 139.742 81.4664 139.748C81.5214 139.753 81.5662 139.769 81.6007 139.795C81.6353 139.821 81.6645 139.856 81.6886 139.899C81.704 139.927 81.7234 139.979 81.7468 140.054L81.9305 140.642L81.7684 140.693L81.5867 140.111C81.566 140.045 81.5444 139.998 81.5216 139.969C81.4987 139.94 81.468 139.921 81.4296 139.912C81.3916 139.902 81.351 139.904 81.3077 139.917C81.2387 139.939 81.1858 139.98 81.149 140.039C81.1129 140.099 81.1139 140.19 81.1522 140.312L81.3154 140.834L81.1533 140.885Z" fill="#282828"/>
<path d="M67.8931 120.21L68.1603 120.115C68.2018 120.221 68.2553 120.303 68.3206 120.362C68.3866 120.419 68.4751 120.456 68.5862 120.474C68.697 120.491 68.8146 120.483 68.9391 120.45C69.0496 120.422 69.1429 120.38 69.219 120.325C69.2951 120.27 69.3461 120.208 69.3721 120.141C69.3988 120.072 69.4033 120.004 69.3856 119.936C69.3677 119.868 69.3321 119.813 69.279 119.773C69.2257 119.731 69.1486 119.705 69.0479 119.694C68.9831 119.687 68.8439 119.685 68.6303 119.69C68.4163 119.694 68.2634 119.685 68.1716 119.663C68.0527 119.636 67.9568 119.588 67.8839 119.521C67.8118 119.453 67.7626 119.368 67.7363 119.268C67.7074 119.157 67.7118 119.046 67.7496 118.934C67.7871 118.821 67.8596 118.724 67.9671 118.643C68.0746 118.561 68.202 118.501 68.3494 118.463C68.5117 118.42 68.6616 118.409 68.7988 118.43C68.9369 118.449 69.0525 118.501 69.1458 118.585C69.2391 118.669 69.305 118.775 69.3435 118.902L69.0711 118.996C69.02 118.861 68.9419 118.77 68.8368 118.722C68.7327 118.673 68.5964 118.671 68.4281 118.715C68.2528 118.761 68.1333 118.827 68.0696 118.913C68.0066 118.997 67.9869 119.085 68.0106 119.175C68.0311 119.254 68.0764 119.311 68.1465 119.347C68.2155 119.384 68.3746 119.398 68.6237 119.39C68.8735 119.381 69.0475 119.385 69.1455 119.402C69.2883 119.428 69.402 119.478 69.4864 119.553C69.5706 119.626 69.628 119.722 69.6587 119.839C69.6892 119.956 69.6846 120.075 69.6449 120.196C69.605 120.316 69.5299 120.421 69.4195 120.512C69.3098 120.601 69.1768 120.666 69.0205 120.707C68.8223 120.759 68.6484 120.773 68.4989 120.751C68.3503 120.728 68.2226 120.669 68.1157 120.573C68.0096 120.476 67.9354 120.355 67.8931 120.21ZM70.8332 120.193L70.5908 119.266L69.4168 118.224L69.7694 118.132L70.3737 118.679C70.4856 118.782 70.5921 118.886 70.6931 118.991C70.7289 118.86 70.7749 118.71 70.831 118.542L71.087 117.787L71.4246 117.699L70.8806 119.19L71.123 120.117L70.8332 120.193ZM71.9744 119.143L72.2415 119.048C72.2831 119.154 72.3366 119.236 72.4018 119.295C72.4679 119.352 72.5564 119.39 72.6674 119.407C72.7782 119.424 72.8959 119.416 73.0204 119.384C73.1309 119.355 73.2242 119.313 73.3003 119.258C73.3763 119.203 73.4274 119.142 73.4534 119.074C73.4801 119.006 73.4846 118.937 73.4669 118.87C73.449 118.801 73.4134 118.746 73.3603 118.706C73.3069 118.665 73.2299 118.639 73.1291 118.628C73.0644 118.62 72.9252 118.619 72.7115 118.623C72.4976 118.627 72.3447 118.618 72.2528 118.597C72.134 118.569 72.0381 118.522 71.9652 118.455C71.8931 118.386 71.8439 118.302 71.8176 118.201C71.7887 118.091 71.7931 117.979 71.8309 117.867C71.8684 117.754 71.9409 117.657 72.0484 117.576C72.1558 117.495 72.2833 117.435 72.4307 117.396C72.593 117.354 72.7428 117.343 72.8801 117.363C73.0181 117.383 73.1338 117.434 73.2271 117.518C73.3203 117.603 73.3863 117.708 73.4248 117.835L73.1524 117.929C73.1013 117.794 73.0232 117.703 72.9181 117.655C72.8139 117.607 72.6777 117.605 72.5094 117.649C72.3341 117.694 72.2146 117.76 72.1508 117.846C72.0878 117.931 72.0682 118.018 72.0919 118.109C72.1124 118.187 72.1577 118.245 72.2278 118.281C72.2968 118.317 72.4559 118.331 72.705 118.324C72.9548 118.315 73.1287 118.319 73.2268 118.336C73.3696 118.361 73.4833 118.411 73.5677 118.486C73.6519 118.56 73.7093 118.655 73.74 118.773C73.7705 118.889 73.7659 119.008 73.7262 119.129C73.6863 119.249 73.6111 119.354 73.5008 119.445C73.3911 119.534 73.2581 119.599 73.1017 119.64C72.9035 119.692 72.7297 119.707 72.5801 119.684C72.4316 119.661 72.3039 119.602 72.197 119.506C72.0909 119.41 72.0167 119.289 71.9744 119.143Z" fill="#282828"/>
<path d="M98.9439 115.829L97.8069 115.304L97.1278 113.344L97.7098 112.268L98.9439 115.829ZM92.4358 109.41L96.0054 108.173L95.5227 109.304L93.5547 109.986L92.4358 109.41ZM96.3552 108.435L97.5893 111.997L96.4689 111.519L95.787 109.551L96.3552 108.435ZM101.59 115.305L102.112 114.16L104.08 113.478L105.151 114.071L101.59 115.305ZM105.285 113.632L104.14 113.11L103.461 111.15L104.051 110.071L105.285 113.632ZM101.019 111.442C100.781 111.358 100.542 111.277 100.301 111.2L100.721 110.582L102.896 109.828L103.6 110.057L103.194 110.689L101.019 111.442ZM98.7767 107.213L102.338 105.978L101.848 107.112L99.8955 107.789L98.7767 107.213ZM99.8745 111.205L98.6404 107.644L99.7687 108.118L100.453 110.094L99.8745 111.205Z" fill="#282828"/>
<path d="M72.8115 130.481L72.1411 128.319L72.8858 128.088C73.054 128.036 73.1855 128.006 73.2803 127.999C73.4131 127.989 73.5348 128.008 73.6454 128.056C73.7894 128.117 73.9127 128.214 74.0154 128.347C74.1187 128.479 74.2003 128.641 74.26 128.834C74.311 128.998 74.3369 129.149 74.3379 129.288C74.3389 129.427 74.3223 129.547 74.2883 129.649C74.2539 129.75 74.2083 129.836 74.1515 129.907C74.0953 129.976 74.0204 130.038 73.9268 130.094C73.8341 130.15 73.7224 130.198 73.5916 130.239L72.8115 130.481ZM73.0185 130.137L73.4801 129.994C73.6226 129.949 73.7301 129.902 73.8025 129.85C73.8759 129.798 73.9292 129.741 73.9624 129.678C74.0092 129.589 74.0336 129.481 74.0356 129.356C74.0383 129.229 74.0143 129.084 73.9637 128.921C73.8936 128.694 73.8024 128.533 73.6902 128.435C73.5787 128.336 73.4634 128.282 73.3444 128.274C73.2586 128.268 73.1306 128.291 72.9605 128.344L72.5063 128.485L73.0185 130.137ZM75.0428 129.789L74.3724 127.627L74.6585 127.538L75.3289 129.7L75.0428 129.789ZM75.5973 129.617L75.7572 127.197L76.0654 127.102L77.6207 128.989L77.2948 129.09L76.8396 128.514L75.9355 128.794L75.9011 129.523L75.5973 129.617ZM75.9459 128.536L76.6788 128.308L76.2675 127.779C76.1423 127.619 76.0448 127.485 75.9751 127.379C75.9906 127.526 75.9944 127.676 75.9867 127.828L75.9459 128.536Z" fill="#282828"/>
<path d="M102.541 127.568L103.004 126.398L104.934 125.615L106.034 126.152L102.541 127.568ZM106.145 125.707L104.974 125.244L104.195 123.322L104.728 122.214L106.145 125.707ZM101.771 123.74C101.53 123.668 101.287 123.6 101.042 123.536L101.429 122.896L103.562 122.031L104.277 122.224L103.905 122.875L101.771 123.74ZM99.3137 119.632L102.807 118.216L102.375 119.373L100.461 120.15L99.3137 119.632ZM100.616 123.563L99.1999 120.07L100.351 120.485L101.137 122.423L100.616 123.563ZM108.791 125.034L109.254 123.864L111.184 123.081L112.284 123.618L108.791 125.034ZM112.395 123.172L111.225 122.71L110.445 120.787L110.978 119.679L112.395 123.172ZM108.021 121.206C107.78 121.134 107.537 121.066 107.292 121.001L107.679 120.362L109.813 119.497L110.528 119.689L110.155 120.341L108.021 121.206ZM105.564 117.098L109.057 115.681L108.626 116.839L106.711 117.615L105.564 117.098ZM106.867 121.028L105.45 117.535L106.601 117.951L107.387 119.889L106.867 121.028Z" fill="#282828"/>
<path d="M107.729 137.97L108.191 136.8L110.12 136.015L111.221 136.55L107.729 137.97ZM105.935 134.23L107.109 134.7L107.887 136.613L107.355 137.722L105.935 134.23ZM111.331 136.105L110.16 135.643L109.379 133.722L109.911 132.613L111.331 136.105ZM106.955 134.143C106.714 134.071 106.471 134.003 106.226 133.939L106.612 133.299L108.745 132.432L109.46 132.624L109.088 133.276L106.955 134.143ZM104.494 130.037L107.985 128.617L107.555 129.775L105.641 130.554L104.494 130.037ZM105.8 133.966L104.38 130.475L105.532 130.889L106.32 132.827L105.8 133.966ZM113.977 135.429L114.438 134.259L116.368 133.474L117.468 134.009L113.977 135.429ZM117.578 133.564L116.408 133.103L115.626 131.181L116.158 130.072L117.578 133.564ZM113.203 131.602C112.961 131.53 112.718 131.462 112.474 131.398L112.86 130.759L114.992 129.891L115.707 130.083L115.335 130.735L113.203 131.602ZM110.741 127.496L114.233 126.076L113.803 127.234L111.889 128.013L110.741 127.496ZM112.048 131.426L110.628 127.934L111.78 128.349L112.567 130.286L112.048 131.426Z" fill="#282828"/>
<path d="M122.888 146.809L120.796 149.182L119.889 145.802L122.888 146.809Z" fill="#6A6A6A"/>
<path d="M103.412 152.058L106.443 152.962L105.422 149.615L103.412 152.058Z" fill="#6A6A6A"/>
<path d="M118.232 263.779C118.232 263.779 113.664 262.91 109.872 267.26C106.08 271.609 101.512 270.74 101.512 270.74L118.442 311.4C120.364 316.017 125.665 318.201 130.282 316.279V316.279C134.899 314.356 137.084 309.055 135.161 304.438L118.232 263.779Z" fill="#FA3A3A"/>
<path d="M101.455 270.614C101.455 270.614 104.057 266.759 109.815 267.133C115.573 267.506 118.175 263.652 118.175 263.652L135.104 304.311C137.026 308.928 134.842 314.23 130.225 316.152V316.152C125.608 318.074 120.307 315.89 118.384 311.273L101.455 270.614Z" fill="url(#paint1_linear)"/>
<path d="M103.49 275.49C110.359 273.679 113.993 272.086 120.332 268.477L129.617 290.777C123.535 294.672 119.9 296.219 112.775 297.79L103.49 275.49Z" fill="white"/>
<path d="M111.055 246.552L135.104 304.311C137.026 308.928 134.842 314.23 130.225 316.152V316.152C125.608 318.074 120.307 315.89 118.384 311.273L94.3353 253.514" stroke="#832626" stroke-width="0.411616"/>
<rect x="89.2354" y="248.495" width="23.5003" height="13.2962" rx="2.78293" transform="rotate(-22.6054 89.2354 248.495)" fill="#832626"/>
<line x1="118.161" y1="299.197" x2="123.074" y2="310.997" stroke="white" stroke-opacity="0.89" stroke-width="0.823231" stroke-linecap="round" stroke-linejoin="round"/>
<line x1="122.561" y1="301.72" x2="124.384" y2="306.098" stroke="white" stroke-opacity="0.89" stroke-width="0.823231" stroke-linecap="round" stroke-linejoin="round"/>
<path d="M111.514 283.097C114.844 281.981 116.658 281.236 119.792 279.65" stroke="#832626" stroke-width="0.309215" stroke-linecap="round"/>
<path d="M110.11 285.356C115.177 283.701 117.937 282.582 122.67 280.126" stroke="#832626" stroke-width="0.309215" stroke-linecap="round"/>
<path d="M110.704 286.783C115.781 285.274 118.514 284.131 123.264 281.554" stroke="#832626" stroke-width="0.309215" stroke-linecap="round"/>
<defs>
<filter id="filter0_i" x="192.53" y="333.562" width="34.5156" height="36.5587" filterUnits="userSpaceOnUse" color-interpolation-filters="sRGB">
<feFlood flood-opacity="0" result="BackgroundImageFix"/>
<feBlend mode="normal" in="SourceGraphic" in2="BackgroundImageFix" result="shape"/>
<feColorMatrix in="SourceAlpha" type="matrix" values="0 0 0 0 0 0 0 0 0 0 0 0 0 0 0 0 0 0 127 0" result="hardAlpha"/>
<feOffset dy="-1.08322"/>
<feGaussianBlur stdDeviation="0.54161"/>
<feComposite in2="hardAlpha" operator="arithmetic" k2="-1" k3="1"/>
<feColorMatrix type="matrix" values="0 0 0 0 0 0 0 0 0 0 0 0 0 0 0 0 0 0 0.25 0"/>
<feBlend mode="normal" in2="shape" result="effect1_innerShadow"/>
</filter>
<filter id="filter1_d" x="199.571" y="244.737" width="11.6446" height="96.111" filterUnits="userSpaceOnUse" color-interpolation-filters="sRGB">
<feFlood flood-opacity="0" result="BackgroundImageFix"/>
<feColorMatrix in="SourceAlpha" type="matrix" values="0 0 0 0 0 0 0 0 0 0 0 0 0 0 0 0 0 0 127 0"/>
<feOffset dy="0.812415"/>
<feGaussianBlur stdDeviation="0.135402"/>
<feColorMatrix type="matrix" values="0 0 0 0 0 0 0 0 0 0 0 0 0 0 0 0 0 0 0.25 0"/>
<feBlend mode="normal" in2="BackgroundImageFix" result="effect1_dropShadow"/>
<feBlend mode="normal" in="SourceGraphic" in2="effect1_dropShadow" result="shape"/>
</filter>
<filter id="filter2_d" x="197.405" y="230.656" width="15.7067" height="17.8731" filterUnits="userSpaceOnUse" color-interpolation-filters="sRGB">
<feFlood flood-opacity="0" result="BackgroundImageFix"/>
<feColorMatrix in="SourceAlpha" type="matrix" values="0 0 0 0 0 0 0 0 0 0 0 0 0 0 0 0 0 0 127 0"/>
<feOffset dy="1.08322"/>
<feGaussianBlur stdDeviation="0.54161"/>
<feColorMatrix type="matrix" values="0 0 0 0 0 0 0 0 0 0 0 0 0 0 0 0 0 0 0.25 0"/>
<feBlend mode="normal" in2="BackgroundImageFix" result="effect1_dropShadow"/>
<feBlend mode="normal" in="SourceGraphic" in2="effect1_dropShadow" result="shape"/>
</filter>
<filter id="filter3_d" x="194.426" y="199.513" width="21.6644" height="38.4543" filterUnits="userSpaceOnUse" color-interpolation-filters="sRGB">
<feFlood flood-opacity="0" result="BackgroundImageFix"/>
<feColorMatrix in="SourceAlpha" type="matrix" values="0 0 0 0 0 0 0 0 0 0 0 0 0 0 0 0 0 0 127 0"/>
<feOffset dy="1.08322"/>
<feGaussianBlur stdDeviation="0.54161"/>
<feColorMatrix type="matrix" values="0 0 0 0 0 0 0 0 0 0 0 0 0 0 0 0 0 0 0.25 0"/>
<feBlend mode="normal" in2="BackgroundImageFix" result="effect1_dropShadow"/>
<feBlend mode="normal" in="SourceGraphic" in2="effect1_dropShadow" result="shape"/>
</filter>
<filter id="filter4_i" x="178.855" y="189.92" width="23.7677" height="31.5619" filterUnits="userSpaceOnUse" color-interpolation-filters="sRGB">
<feFlood flood-opacity="0" result="BackgroundImageFix"/>
<feBlend mode="normal" in="SourceGraphic" in2="BackgroundImageFix" result="shape"/>
<feColorMatrix in="SourceAlpha" type="matrix" values="0 0 0 0 0 0 0 0 0 0 0 0 0 0 0 0 0 0 127 0" result="hardAlpha"/>
<feOffset dx="-0.812415" dy="1.08322"/>
<feGaussianBlur stdDeviation="0.54161"/>
<feComposite in2="hardAlpha" operator="arithmetic" k2="-1" k3="1"/>
<feColorMatrix type="matrix" values="0 0 0 0 0 0 0 0 0 0 0 0 0 0 0 0 0 0 0.25 0"/>
<feBlend mode="normal" in2="shape" result="effect1_innerShadow"/>
</filter>
<filter id="filter5_i" x="222.86" y="348.456" width="85.9319" height="21.6644" filterUnits="userSpaceOnUse" color-interpolation-filters="sRGB">
<feFlood flood-opacity="0" result="BackgroundImageFix"/>
<feBlend mode="normal" in="SourceGraphic" in2="BackgroundImageFix" result="shape"/>
<feColorMatrix in="SourceAlpha" type="matrix" values="0 0 0 0 0 0 0 0 0 0 0 0 0 0 0 0 0 0 127 0" result="hardAlpha"/>
<feOffset dx="-0.812415" dy="-1.08322"/>
<feGaussianBlur stdDeviation="0.54161"/>
<feComposite in2="hardAlpha" operator="arithmetic" k2="-1" k3="1"/>
<feColorMatrix type="matrix" values="0 0 0 0 0 0 0 0 0 0 0 0 0 0 0 0 0 0 0.25 0"/>
<feBlend mode="normal" in2="shape" result="effect1_innerShadow"/>
</filter>
<filter id="filter6_d" x="224.716" y="317.89" width="83.091" height="38.4191" filterUnits="userSpaceOnUse" color-interpolation-filters="sRGB">
<feFlood flood-opacity="0" result="BackgroundImageFix"/>
<feColorMatrix in="SourceAlpha" type="matrix" values="0 0 0 0 0 0 0 0 0 0 0 0 0 0 0 0 0 0 127 0"/>
<feOffset dy="1.08322"/>
<feGaussianBlur stdDeviation="0.54161"/>
<feColorMatrix type="matrix" values="0 0 0 0 0 0 0 0 0 0 0 0 0 0 0 0 0 0 0.25 0"/>
<feBlend mode="normal" in2="BackgroundImageFix" result="effect1_dropShadow"/>
<feBlend mode="normal" in="SourceGraphic" in2="effect1_dropShadow" result="shape"/>
</filter>
<filter id="filter7_d" x="149.556" y="175.547" width="67.0755" height="28.5699" filterUnits="userSpaceOnUse" color-interpolation-filters="sRGB">
<feFlood flood-opacity="0" result="BackgroundImageFix"/>
<feColorMatrix in="SourceAlpha" type="matrix" values="0 0 0 0 0 0 0 0 0 0 0 0 0 0 0 0 0 0 127 0"/>
<feOffset dy="1.08322"/>
<feGaussianBlur stdDeviation="0.54161"/>
<feColorMatrix type="matrix" values="0 0 0 0 0 0 0 0 0 0 0 0 0 0 0 0 0 0 0.25 0"/>
<feBlend mode="normal" in2="BackgroundImageFix" result="effect1_dropShadow"/>
<feBlend mode="normal" in="SourceGraphic" in2="effect1_dropShadow" result="shape"/>
</filter>
<filter id="filter8_dii" x="273.81" y="87.4386" width="89.2625" height="114.256" filterUnits="userSpaceOnUse" color-interpolation-filters="sRGB">
<feFlood flood-opacity="0" result="BackgroundImageFix"/>
<feColorMatrix in="SourceAlpha" type="matrix" values="0 0 0 0 0 0 0 0 0 0 0 0 0 0 0 0 0 0 127 0"/>
<feOffset dy="2.38033"/>
<feGaussianBlur stdDeviation="0.595083"/>
<feColorMatrix type="matrix" values="0 0 0 0 0 0 0 0 0 0 0 0 0 0 0 0 0 0 0.17 0"/>
<feBlend mode="normal" in2="BackgroundImageFix" result="effect1_dropShadow"/>
<feBlend mode="normal" in="SourceGraphic" in2="effect1_dropShadow" result="shape"/>
<feColorMatrix in="SourceAlpha" type="matrix" values="0 0 0 0 0 0 0 0 0 0 0 0 0 0 0 0 0 0 127 0" result="hardAlpha"/>
<feOffset dy="-2.08279"/>
<feGaussianBlur stdDeviation="0.595083"/>
<feComposite in2="hardAlpha" operator="arithmetic" k2="-1" k3="1"/>
<feColorMatrix type="matrix" values="0 0 0 0 0 0 0 0 0 0 0 0 0 0 0 0 0 0 0.25 0"/>
<feBlend mode="normal" in2="shape" result="effect2_innerShadow"/>
<feColorMatrix in="SourceAlpha" type="matrix" values="0 0 0 0 0 0 0 0 0 0 0 0 0 0 0 0 0 0 127 0" result="hardAlpha"/>
<feOffset dy="2.08279"/>
<feGaussianBlur stdDeviation="0.595083"/>
<feComposite in2="hardAlpha" operator="arithmetic" k2="-1" k3="1"/>
<feColorMatrix type="matrix" values="0 0 0 0 1 0 0 0 0 1 0 0 0 0 1 0 0 0 0.24 0"/>
<feBlend mode="normal" in2="effect2_innerShadow" result="effect3_innerShadow"/>
</filter>
<filter id="filter9_ii" x="300.291" y="78.8098" width="36.5976" height="22.0181" filterUnits="userSpaceOnUse" color-interpolation-filters="sRGB">
<feFlood flood-opacity="0" result="BackgroundImageFix"/>
<feBlend mode="normal" in="SourceGraphic" in2="BackgroundImageFix" result="shape"/>
<feColorMatrix in="SourceAlpha" type="matrix" values="0 0 0 0 0 0 0 0 0 0 0 0 0 0 0 0 0 0 127 0" result="hardAlpha"/>
<feOffset dy="-1.48771"/>
<feGaussianBlur stdDeviation="0.595083"/>
<feComposite in2="hardAlpha" operator="arithmetic" k2="-1" k3="1"/>
<feColorMatrix type="matrix" values="0 0 0 0 0 0 0 0 0 0 0 0 0 0 0 0 0 0 0.25 0"/>
<feBlend mode="normal" in2="shape" result="effect1_innerShadow"/>
<feColorMatrix in="SourceAlpha" type="matrix" values="0 0 0 0 0 0 0 0 0 0 0 0 0 0 0 0 0 0 127 0" result="hardAlpha"/>
<feOffset dy="2.38033"/>
<feGaussianBlur stdDeviation="0.595083"/>
<feComposite in2="hardAlpha" operator="arithmetic" k2="-1" k3="1"/>
<feColorMatrix type="matrix" values="0 0 0 0 1 0 0 0 0 1 0 0 0 0 1 0 0 0 0.28 0"/>
<feBlend mode="normal" in2="effect1_innerShadow" result="effect2_innerShadow"/>
</filter>
<filter id="filter10_d" x="53.4814" y="80.5978" width="93.8239" height="91.659" filterUnits="userSpaceOnUse" color-interpolation-filters="sRGB">
<feFlood flood-opacity="0" result="BackgroundImageFix"/>
<feColorMatrix in="SourceAlpha" type="matrix" values="0 0 0 0 0 0 0 0 0 0 0 0 0 0 0 0 0 0 127 0"/>
<feOffset/>
<feGaussianBlur stdDeviation="1.5"/>
<feColorMatrix type="matrix" values="0 0 0 0 0 0 0 0 0 0 0 0 0 0 0 0 0 0 0.25 0"/>
<feBlend mode="normal" in2="BackgroundImageFix" result="effect1_dropShadow"/>
<feBlend mode="normal" in="SourceGraphic" in2="effect1_dropShadow" result="shape"/>
</filter>
<filter id="filter11_i" x="70.0293" y="93.4883" width="58.6187" height="59.0056" filterUnits="userSpaceOnUse" color-interpolation-filters="sRGB">
<feFlood flood-opacity="0" result="BackgroundImageFix"/>
<feBlend mode="normal" in="SourceGraphic" in2="BackgroundImageFix" result="shape"/>
<feColorMatrix in="SourceAlpha" type="matrix" values="0 0 0 0 0 0 0 0 0 0 0 0 0 0 0 0 0 0 127 0" result="hardAlpha"/>
<feOffset dx="-0.351358" dy="0.878394"/>
<feComposite in2="hardAlpha" operator="arithmetic" k2="-1" k3="1"/>
<feColorMatrix type="matrix" values="0 0 0 0 0 0 0 0 0 0 0 0 0 0 0 0 0 0 0.22 0"/>
<feBlend mode="normal" in2="shape" result="effect1_innerShadow"/>
</filter>
<filter id="filter12_i" x="98.2598" y="147.17" width="13.8855" height="8.78587" filterUnits="userSpaceOnUse" color-interpolation-filters="sRGB">
<feFlood flood-opacity="0" result="BackgroundImageFix"/>
<feBlend mode="normal" in="SourceGraphic" in2="BackgroundImageFix" result="shape"/>
<feColorMatrix in="SourceAlpha" type="matrix" values="0 0 0 0 0 0 0 0 0 0 0 0 0 0 0 0 0 0 127 0" result="hardAlpha"/>
<feMorphology radius="0.527036" operator="erode" in="SourceAlpha" result="effect1_innerShadow"/>
<feOffset/>
<feGaussianBlur stdDeviation="0.351358"/>
<feComposite in2="hardAlpha" operator="arithmetic" k2="-1" k3="1"/>
<feColorMatrix type="matrix" values="0 0 0 0 1 0 0 0 0 1 0 0 0 0 1 0 0 0 0.43 0"/>
<feBlend mode="normal" in2="shape" result="effect1_innerShadow"/>
</filter>
<filter id="filter13_i" x="114.376" y="142.789" width="13.8855" height="8.78587" filterUnits="userSpaceOnUse" color-interpolation-filters="sRGB">
<feFlood flood-opacity="0" result="BackgroundImageFix"/>
<feBlend mode="normal" in="SourceGraphic" in2="BackgroundImageFix" result="shape"/>
<feColorMatrix in="SourceAlpha" type="matrix" values="0 0 0 0 0 0 0 0 0 0 0 0 0 0 0 0 0 0 127 0" result="hardAlpha"/>
<feMorphology radius="0.527036" operator="erode" in="SourceAlpha" result="effect1_innerShadow"/>
<feOffset/>
<feGaussianBlur stdDeviation="0.351358"/>
<feComposite in2="hardAlpha" operator="arithmetic" k2="-1" k3="1"/>
<feColorMatrix type="matrix" values="0 0 0 0 1 0 0 0 0 1 0 0 0 0 1 0 0 0 0.25 0"/>
<feBlend mode="normal" in2="shape" result="effect1_innerShadow"/>
</filter>
<linearGradient id="paint0_linear" x1="219" y1="0" x2="219" y2="438" gradientUnits="userSpaceOnUse">
<stop stop-color="white"/>
<stop offset="1" stop-color="#E9E9E9"/>
</linearGradient>
<linearGradient id="paint1_linear" x1="109.378" y1="266.083" x2="130.225" y2="316.152" gradientUnits="userSpaceOnUse">
<stop stop-color="#D82F2F"/>
<stop offset="1" stop-color="#B91919"/>
</linearGradient>
</defs>
</svg>
