<svg width="450" height="438" viewBox="0 0 450 438" fill="none" xmlns="http://www.w3.org/2000/svg">
<circle cx="219" cy="219" r="219" fill="url(#paint0_linear)"/>
<g filter="url(#filter0_d)">
<rect x="98.6582" y="78.8102" width="240.342" height="279.38" rx="10.1824" fill="url(#paint1_linear)"/>
</g>
<line x1="175.323" y1="119.726" x2="263.276" y2="119.726" stroke="black" stroke-width="0.947328"/>
<line x1="131.582" y1="131.014" x2="308.898" y2="131.014" stroke="black" stroke-width="0.947328"/>
<line x1="123.116" y1="174.755" x2="164.976" y2="174.755" stroke="black" stroke-width="0.947328"/>
<line x1="180.026" y1="174.755" x2="313.602" y2="174.755" stroke="black" stroke-width="0.947328"/>
<line x1="180.026" y1="198.743" x2="313.602" y2="198.743" stroke="black" stroke-width="0.947328"/>
<line x1="180.026" y1="223.2" x2="313.602" y2="223.2" stroke="black" stroke-width="0.947328"/>
<line x1="269.39" y1="305.509" x2="307.488" y2="305.509" stroke="black" stroke-width="0.947328"/>
<line x1="259.984" y1="342.195" x2="316.894" y2="342.195" stroke="black" stroke-width="0.947328"/>
<line x1="131.582" y1="141.362" x2="308.898" y2="141.362" stroke="black" stroke-width="0.947328"/>
<line x1="123.116" y1="198.743" x2="164.976" y2="198.743" stroke="black" stroke-width="0.947328"/>
<line x1="123.116" y1="223.2" x2="164.976" y2="223.2" stroke="black" stroke-width="0.947328"/>
<path d="M172.099 167.474C172.099 167.649 172.086 167.798 172.06 167.921C172.041 168.037 171.999 168.131 171.934 168.202C171.87 168.273 171.782 168.325 171.672 168.357C171.569 168.383 171.433 168.396 171.265 168.396C171.096 168.396 170.96 168.383 170.857 168.357C170.753 168.325 170.669 168.273 170.605 168.202C170.54 168.131 170.495 168.037 170.469 167.921C170.449 167.798 170.44 167.649 170.44 167.474C170.44 167.287 170.449 167.134 170.469 167.018C170.495 166.895 170.54 166.798 170.605 166.727C170.669 166.656 170.753 166.607 170.857 166.581C170.96 166.549 171.096 166.533 171.265 166.533C171.433 166.533 171.569 166.549 171.672 166.581C171.782 166.607 171.87 166.656 171.934 166.727C171.999 166.798 172.041 166.895 172.06 167.018C172.086 167.134 172.099 167.287 172.099 167.474ZM172.099 174.433C172.099 174.614 172.086 174.767 172.06 174.889C172.041 175.006 171.999 175.1 171.934 175.171C171.87 175.242 171.782 175.291 171.672 175.317C171.569 175.349 171.433 175.365 171.265 175.365C171.096 175.365 170.96 175.349 170.857 175.317C170.753 175.291 170.669 175.242 170.605 175.171C170.54 175.1 170.495 175.006 170.469 174.889C170.449 174.767 170.44 174.614 170.44 174.433C170.44 174.252 170.449 174.1 170.469 173.977C170.495 173.854 170.54 173.76 170.605 173.696C170.669 173.624 170.753 173.576 170.857 173.55C170.96 173.518 171.096 173.502 171.265 173.502C171.433 173.502 171.569 173.518 171.672 173.55C171.782 173.576 171.87 173.624 171.934 173.696C171.999 173.76 172.041 173.854 172.06 173.977C172.086 174.1 172.099 174.252 172.099 174.433Z" fill="black"/>
<path d="M195.574 259.065C195.574 259.213 195.548 259.346 195.496 259.462C195.444 259.579 195.373 259.676 195.283 259.754C195.199 259.831 195.095 259.89 194.972 259.928C194.856 259.961 194.736 259.977 194.613 259.977H193.526C193.299 259.977 193.102 259.954 192.934 259.909C192.772 259.864 192.62 259.783 192.478 259.666C192.342 259.543 192.209 259.382 192.08 259.181C191.95 258.974 191.805 258.709 191.643 258.385L188.518 252.513C188.337 252.164 188.152 251.788 187.964 251.387C187.777 250.98 187.609 250.585 187.46 250.203H187.44C187.466 250.669 187.486 251.135 187.499 251.601C187.512 252.06 187.518 252.536 187.518 253.027V259.598C187.518 259.663 187.499 259.721 187.46 259.773C187.427 259.825 187.366 259.87 187.275 259.909C187.191 259.941 187.075 259.967 186.926 259.987C186.777 260.006 186.586 260.016 186.353 260.016C186.127 260.016 185.939 260.006 185.79 259.987C185.642 259.967 185.525 259.941 185.441 259.909C185.357 259.87 185.299 259.825 185.266 259.773C185.234 259.721 185.218 259.663 185.218 259.598V248.31C185.218 248.006 185.305 247.78 185.48 247.631C185.661 247.476 185.881 247.398 186.14 247.398H187.508C187.754 247.398 187.961 247.421 188.129 247.466C188.298 247.505 188.447 247.573 188.576 247.67C188.712 247.767 188.838 247.903 188.954 248.077C189.071 248.246 189.191 248.456 189.314 248.708L191.759 253.299C191.902 253.577 192.041 253.852 192.177 254.124C192.319 254.39 192.455 254.658 192.584 254.93C192.714 255.195 192.84 255.457 192.963 255.716C193.086 255.975 193.206 256.234 193.322 256.492H193.332C193.312 256.04 193.296 255.567 193.283 255.075C193.277 254.584 193.274 254.115 193.274 253.668V247.777C193.274 247.712 193.293 247.654 193.332 247.602C193.371 247.55 193.435 247.505 193.526 247.466C193.617 247.427 193.736 247.401 193.885 247.388C194.034 247.369 194.225 247.359 194.458 247.359C194.678 247.359 194.862 247.369 195.011 247.388C195.16 247.401 195.273 247.427 195.351 247.466C195.435 247.505 195.493 247.55 195.525 247.602C195.558 247.654 195.574 247.712 195.574 247.777V259.065ZM205.765 258.958C205.765 259.145 205.755 259.304 205.736 259.433C205.723 259.556 205.7 259.657 205.668 259.734C205.636 259.812 205.594 259.87 205.542 259.909C205.497 259.941 205.445 259.957 205.387 259.957H199.078C198.864 259.957 198.683 259.896 198.534 259.773C198.392 259.644 198.321 259.437 198.321 259.152V248.204C198.321 247.919 198.392 247.715 198.534 247.592C198.683 247.463 198.864 247.398 199.078 247.398H205.348C205.406 247.398 205.458 247.414 205.503 247.447C205.548 247.479 205.587 247.537 205.619 247.621C205.652 247.699 205.674 247.802 205.687 247.932C205.707 248.055 205.717 248.213 205.717 248.407C205.717 248.589 205.707 248.744 205.687 248.873C205.674 248.996 205.652 249.097 205.619 249.174C205.587 249.252 205.548 249.31 205.503 249.349C205.458 249.381 205.406 249.397 205.348 249.397H200.864V252.465H204.659C204.717 252.465 204.769 252.484 204.814 252.523C204.866 252.555 204.908 252.61 204.94 252.688C204.972 252.759 204.995 252.859 205.008 252.989C205.027 253.112 205.037 253.264 205.037 253.445C205.037 253.632 205.027 253.788 205.008 253.911C204.995 254.034 204.972 254.134 204.94 254.212C204.908 254.283 204.866 254.335 204.814 254.367C204.769 254.399 204.717 254.415 204.659 254.415H200.864V257.958H205.387C205.445 257.958 205.497 257.977 205.542 258.016C205.594 258.049 205.636 258.104 205.668 258.181C205.7 258.259 205.723 258.362 205.736 258.492C205.755 258.615 205.765 258.77 205.765 258.958ZM217.81 249.349C217.81 249.537 217.8 249.698 217.781 249.834C217.768 249.97 217.745 250.08 217.713 250.164C217.687 250.242 217.652 250.297 217.606 250.329C217.567 250.362 217.519 250.378 217.461 250.378C217.377 250.378 217.241 250.32 217.053 250.203C216.865 250.087 216.616 249.96 216.306 249.825C215.995 249.689 215.623 249.562 215.189 249.446C214.762 249.33 214.264 249.271 213.695 249.271C213.087 249.271 212.537 249.378 212.045 249.592C211.553 249.799 211.132 250.096 210.783 250.485C210.434 250.866 210.165 251.329 209.977 251.872C209.79 252.41 209.696 253.005 209.696 253.658C209.696 254.377 209.79 255.011 209.977 255.561C210.172 256.104 210.44 256.56 210.783 256.929C211.126 257.298 211.537 257.576 212.016 257.764C212.501 257.952 213.035 258.045 213.617 258.045C213.902 258.045 214.183 258.013 214.462 257.948C214.74 257.884 214.999 257.787 215.238 257.657V254.745H212.86C212.744 254.745 212.653 254.674 212.588 254.532C212.524 254.383 212.491 254.134 212.491 253.785C212.491 253.603 212.498 253.451 212.511 253.328C212.53 253.205 212.556 253.108 212.588 253.037C212.621 252.96 212.659 252.905 212.705 252.872C212.75 252.833 212.802 252.814 212.86 252.814H217.102C217.205 252.814 217.296 252.833 217.373 252.872C217.457 252.905 217.529 252.956 217.587 253.027C217.652 253.099 217.7 253.186 217.732 253.29C217.765 253.387 217.781 253.5 217.781 253.629V258.628C217.781 258.822 217.745 258.993 217.674 259.142C217.609 259.285 217.47 259.398 217.257 259.482C217.05 259.566 216.791 259.653 216.48 259.744C216.17 259.835 215.846 259.912 215.51 259.977C215.18 260.042 214.843 260.09 214.5 260.122C214.164 260.155 213.824 260.171 213.481 260.171C212.478 260.171 211.579 260.029 210.783 259.744C209.994 259.453 209.324 259.035 208.774 258.492C208.224 257.942 207.803 257.275 207.512 256.492C207.221 255.703 207.075 254.81 207.075 253.814C207.075 252.785 207.231 251.863 207.541 251.047C207.852 250.226 208.292 249.53 208.861 248.961C209.431 248.385 210.117 247.945 210.919 247.641C211.728 247.337 212.627 247.185 213.617 247.185C214.161 247.185 214.656 247.223 215.102 247.301C215.549 247.372 215.937 247.463 216.267 247.573C216.603 247.676 216.882 247.79 217.102 247.912C217.322 248.035 217.474 248.142 217.558 248.233C217.648 248.323 217.713 248.453 217.752 248.621C217.791 248.783 217.81 249.025 217.81 249.349ZM230.699 259.006C230.777 259.239 230.826 259.424 230.845 259.56C230.864 259.695 230.839 259.799 230.767 259.87C230.696 259.935 230.57 259.974 230.389 259.987C230.208 260.006 229.959 260.016 229.642 260.016C229.312 260.016 229.053 260.009 228.865 259.996C228.684 259.99 228.545 259.974 228.448 259.948C228.351 259.915 228.283 259.873 228.244 259.822C228.205 259.77 228.173 259.702 228.147 259.618L227.302 257.094H222.585L221.789 259.55C221.764 259.64 221.728 259.718 221.683 259.783C221.644 259.841 221.576 259.89 221.479 259.928C221.388 259.961 221.256 259.983 221.081 259.996C220.913 260.009 220.689 260.016 220.411 260.016C220.114 260.016 219.881 260.006 219.712 259.987C219.544 259.967 219.428 259.922 219.363 259.851C219.298 259.773 219.276 259.666 219.295 259.53C219.314 259.395 219.363 259.213 219.441 258.987L223.313 247.845C223.352 247.735 223.397 247.647 223.449 247.582C223.501 247.511 223.582 247.46 223.692 247.427C223.808 247.388 223.967 247.366 224.167 247.359C224.368 247.346 224.633 247.34 224.963 247.34C225.345 247.34 225.649 247.346 225.876 247.359C226.102 247.366 226.277 247.388 226.4 247.427C226.529 247.46 226.62 247.511 226.672 247.582C226.73 247.654 226.778 247.751 226.817 247.874L230.699 259.006ZM224.934 249.795H224.924L223.148 255.134H226.71L224.934 249.795ZM239.27 248.446C239.27 248.634 239.26 248.796 239.241 248.932C239.228 249.061 239.205 249.168 239.173 249.252C239.14 249.33 239.098 249.388 239.046 249.427C239.001 249.465 238.949 249.485 238.891 249.485H235.746V259.608C235.746 259.673 235.724 259.731 235.679 259.783C235.64 259.835 235.572 259.877 235.475 259.909C235.378 259.941 235.245 259.967 235.077 259.987C234.915 260.006 234.711 260.016 234.465 260.016C234.219 260.016 234.012 260.006 233.844 259.987C233.682 259.967 233.553 259.941 233.456 259.909C233.359 259.877 233.288 259.835 233.242 259.783C233.204 259.731 233.184 259.673 233.184 259.608V249.485H230.039C229.975 249.485 229.92 249.465 229.874 249.427C229.829 249.388 229.79 249.33 229.758 249.252C229.726 249.168 229.7 249.061 229.68 248.932C229.667 248.796 229.661 248.634 229.661 248.446C229.661 248.252 229.667 248.087 229.68 247.951C229.7 247.815 229.726 247.709 229.758 247.631C229.79 247.547 229.829 247.489 229.874 247.456C229.92 247.417 229.975 247.398 230.039 247.398H238.891C238.949 247.398 239.001 247.417 239.046 247.456C239.098 247.489 239.14 247.547 239.173 247.631C239.205 247.709 239.228 247.815 239.241 247.951C239.26 248.087 239.27 248.252 239.27 248.446ZM243.317 259.608C243.317 259.673 243.294 259.731 243.249 259.783C243.21 259.835 243.142 259.877 243.045 259.909C242.948 259.941 242.819 259.967 242.657 259.987C242.495 260.006 242.288 260.016 242.036 260.016C241.79 260.016 241.583 260.006 241.415 259.987C241.253 259.967 241.124 259.941 241.027 259.909C240.929 259.877 240.858 259.835 240.813 259.783C240.774 259.731 240.755 259.673 240.755 259.608V247.747C240.755 247.683 240.774 247.625 240.813 247.573C240.858 247.521 240.929 247.479 241.027 247.447C241.13 247.414 241.263 247.388 241.424 247.369C241.586 247.35 241.79 247.34 242.036 247.34C242.288 247.34 242.495 247.35 242.657 247.369C242.819 247.388 242.948 247.414 243.045 247.447C243.142 247.479 243.21 247.521 243.249 247.573C243.294 247.625 243.317 247.683 243.317 247.747V259.608ZM253.101 248.446C253.101 248.64 253.091 248.805 253.072 248.941C253.059 249.071 253.033 249.174 252.994 249.252C252.962 249.33 252.923 249.388 252.877 249.427C252.832 249.465 252.78 249.485 252.722 249.485H248.617V252.862H252.47C252.528 252.862 252.58 252.879 252.625 252.911C252.67 252.943 252.709 252.998 252.742 253.076C252.78 253.154 252.806 253.257 252.819 253.387C252.839 253.516 252.848 253.678 252.848 253.872C252.848 254.066 252.839 254.228 252.819 254.357C252.806 254.487 252.78 254.593 252.742 254.677C252.709 254.762 252.67 254.823 252.625 254.862C252.58 254.894 252.528 254.91 252.47 254.91H248.617V259.589C248.617 259.66 248.597 259.721 248.558 259.773C248.519 259.825 248.448 259.87 248.345 259.909C248.248 259.941 248.118 259.967 247.957 259.987C247.795 260.006 247.588 260.016 247.335 260.016C247.089 260.016 246.882 260.006 246.714 259.987C246.552 259.967 246.423 259.941 246.326 259.909C246.229 259.87 246.158 259.825 246.112 259.773C246.074 259.721 246.054 259.66 246.054 259.589V248.204C246.054 247.919 246.125 247.715 246.268 247.592C246.417 247.463 246.598 247.398 246.811 247.398H252.722C252.78 247.398 252.832 247.417 252.877 247.456C252.923 247.489 252.962 247.547 252.994 247.631C253.033 247.709 253.059 247.815 253.072 247.951C253.091 248.087 253.101 248.252 253.101 248.446Z" fill="black"/>
<path d="M172.099 190.991C172.099 191.166 172.086 191.314 172.06 191.437C172.041 191.554 171.999 191.648 171.934 191.719C171.87 191.79 171.782 191.842 171.672 191.874C171.569 191.9 171.433 191.913 171.265 191.913C171.096 191.913 170.96 191.9 170.857 191.874C170.753 191.842 170.669 191.79 170.605 191.719C170.54 191.648 170.495 191.554 170.469 191.437C170.449 191.314 170.44 191.166 170.44 190.991C170.44 190.803 170.449 190.651 170.469 190.535C170.495 190.412 170.54 190.315 170.605 190.243C170.669 190.172 170.753 190.124 170.857 190.098C170.96 190.066 171.096 190.049 171.265 190.049C171.433 190.049 171.569 190.066 171.672 190.098C171.782 190.124 171.87 190.172 171.934 190.243C171.999 190.315 172.041 190.412 172.06 190.535C172.086 190.651 172.099 190.803 172.099 190.991ZM172.099 197.95C172.099 198.131 172.086 198.283 172.06 198.406C172.041 198.523 171.999 198.616 171.934 198.688C171.87 198.759 171.782 198.807 171.672 198.833C171.569 198.866 171.433 198.882 171.265 198.882C171.096 198.882 170.96 198.866 170.857 198.833C170.753 198.807 170.669 198.759 170.605 198.688C170.54 198.616 170.495 198.523 170.469 198.406C170.449 198.283 170.44 198.131 170.44 197.95C170.44 197.769 170.449 197.617 170.469 197.494C170.495 197.371 170.54 197.277 170.605 197.212C170.669 197.141 170.753 197.093 170.857 197.067C170.96 197.034 171.096 197.018 171.265 197.018C171.433 197.018 171.569 197.034 171.672 197.067C171.782 197.093 171.87 197.141 171.934 197.212C171.999 197.277 172.041 197.371 172.06 197.494C172.086 197.617 172.099 197.769 172.099 197.95Z" fill="black"/>
<path d="M172.099 215.919C172.099 216.093 172.086 216.242 172.06 216.365C172.041 216.482 171.999 216.575 171.934 216.647C171.87 216.718 171.782 216.769 171.672 216.802C171.569 216.828 171.433 216.841 171.265 216.841C171.096 216.841 170.96 216.828 170.857 216.802C170.753 216.769 170.669 216.718 170.605 216.647C170.54 216.575 170.495 216.482 170.469 216.365C170.449 216.242 170.44 216.093 170.44 215.919C170.44 215.731 170.449 215.579 170.469 215.462C170.495 215.339 170.54 215.242 170.605 215.171C170.669 215.1 170.753 215.052 170.857 215.026C170.96 214.993 171.096 214.977 171.265 214.977C171.433 214.977 171.569 214.993 171.672 215.026C171.782 215.052 171.87 215.1 171.934 215.171C171.999 215.242 172.041 215.339 172.06 215.462C172.086 215.579 172.099 215.731 172.099 215.919ZM172.099 222.878C172.099 223.059 172.086 223.211 172.06 223.334C172.041 223.45 171.999 223.544 171.934 223.615C171.87 223.687 171.782 223.735 171.672 223.761C171.569 223.793 171.433 223.809 171.265 223.809C171.096 223.809 170.96 223.793 170.857 223.761C170.753 223.735 170.669 223.687 170.605 223.615C170.54 223.544 170.495 223.45 170.469 223.334C170.449 223.211 170.44 223.059 170.44 222.878C170.44 222.697 170.449 222.544 170.469 222.422C170.495 222.299 170.54 222.205 170.605 222.14C170.669 222.069 170.753 222.02 170.857 221.994C170.96 221.962 171.096 221.946 171.265 221.946C171.433 221.946 171.569 221.962 171.672 221.994C171.782 222.02 171.87 222.069 171.934 222.14C171.999 222.205 172.041 222.299 172.06 222.422C172.086 222.544 172.099 222.697 172.099 222.878Z" fill="black"/>
<path d="M277.412 327.792C277.529 322.768 278.367 317.807 278.367 312.785C278.367 311.639 278.487 310.78 278.049 312.68C277 317.229 276.26 321.761 275.768 326.401C275.554 328.428 275.576 330.836 274.814 332.776C274.67 333.141 273.391 326.964 273.329 326.48C272.719 321.766 272.534 317.002 272.268 312.261C272.081 308.935 272.346 310.786 273.329 312.759C275.146 316.406 277.362 319.927 280.435 322.676C282.762 324.758 287.967 328.865 291.518 328.054C293.365 327.632 293.133 324.577 293.162 323.279C293.169 322.978 293.162 317.334 293.162 319.921C293.162 322.463 293.097 325.015 293.189 327.555C293.201 327.89 293.611 331.224 293.64 328.946C293.671 326.446 293.64 323.943 293.64 321.443C293.64 320.637 294.058 318.3 293.428 317.56C292.074 315.97 289.98 314.857 288.469 313.389C286.597 311.57 284.912 309.57 283.219 307.591C281.762 305.887 280.956 305.036 280.011 307.617C278.532 311.656 277.626 316.13 277.147 320.393C277.072 321.065 276.002 328.883 277.996 327.897C279.374 327.214 284.473 320.392 284.783 320.446C285.889 320.636 287.17 323.225 287.806 323.961C288.966 325.303 290.546 326.609 292.473 326.217C294.312 325.844 295.191 324.26 295.708 322.623C295.889 322.051 296.377 318.416 297.458 320.393C298.998 323.209 298.195 324.145 301.462 322.177C303.288 321.077 305.914 321.135 307.958 320.236" stroke="black" stroke-width="0.947328" stroke-linecap="round" stroke-linejoin="round"/>
<defs>
<filter id="filter0_d" x="91.0214" y="74.1734" width="255.615" height="294.653" filterUnits="userSpaceOnUse" color-interpolation-filters="sRGB">
<feFlood flood-opacity="0" result="BackgroundImageFix"/>
<feColorMatrix in="SourceAlpha" type="matrix" values="0 0 0 0 0 0 0 0 0 0 0 0 0 0 0 0 0 0 127 0"/>
<feMorphology radius="1.9092" operator="dilate" in="SourceAlpha" result="effect1_dropShadow"/>
<feOffset dy="3"/>
<feGaussianBlur stdDeviation="2.8638"/>
<feColorMatrix type="matrix" values="0 0 0 0 0 0 0 0 0 0 0 0 0 0 0 0 0 0 0.25 0"/>
<feBlend mode="normal" in2="BackgroundImageFix" result="effect1_dropShadow"/>
<feBlend mode="normal" in="SourceGraphic" in2="effect1_dropShadow" result="shape"/>
</filter>
<linearGradient id="paint0_linear" x1="219" y1="0" x2="219" y2="438" gradientUnits="userSpaceOnUse">
<stop stop-color="white"/>
<stop offset="1" stop-color="#E9E9E9"/>
</linearGradient>
<linearGradient id="paint1_linear" x1="218.829" y1="78.8102" x2="218.829" y2="358.19" gradientUnits="userSpaceOnUse">
<stop stop-color="white"/>
<stop offset="1" stop-color="#F9F9F9"/>
</linearGradient>
</defs>
</svg>
