<svg width="438" height="438" viewBox="0 0 438 438" fill="none" xmlns="http://www.w3.org/2000/svg">
<circle cx="219" cy="219" r="219" fill="url(#paint0_linear)"/>
<path d="M214.571 187.677C214.571 187.677 202.013 179.404 185.286 187.677C168.558 195.95 156 187.677 156 187.677V330.112C156 346.286 169.112 359.397 185.286 359.397V359.397C201.46 359.397 214.571 346.286 214.571 330.112V187.677Z" fill="#FA3A3A"/>
<path d="M155.987 187.227C155.987 187.227 168.545 178.954 185.273 187.227C202 195.5 214.558 187.227 214.558 187.227V329.662C214.558 345.836 201.447 358.947 185.273 358.947V358.947C169.099 358.947 155.987 345.836 155.987 329.662V187.227Z" fill="url(#paint1_linear)"/>
<path d="M156 204.314C178.76 207.447 191.588 207.209 215 204.314V282.434C192 286.5 179.226 286.603 156 282.434V204.314Z" fill="white"/>
<path d="M214.558 127.325V329.662C214.558 345.836 201.447 358.947 185.273 358.947V358.947C169.099 358.947 155.987 345.836 155.987 329.662V127.325" stroke="#832626" stroke-width="1.33117"/>
<rect x="147" y="106" width="76" height="43" rx="9" fill="#832626"/>
<line x1="170.331" y1="293.331" x2="170.331" y2="334.669" stroke="white" stroke-opacity="0.89" stroke-width="2.66233" stroke-linecap="round" stroke-linejoin="round"/>
<line x1="180.331" y1="306.331" x2="180.331" y2="321.669" stroke="white" stroke-opacity="0.89" stroke-width="2.66233" stroke-linecap="round" stroke-linejoin="round"/>
<rect x="168.5" y="214.5" width="9" height="9" stroke="#832626"/>
<rect x="193.5" y="214.5" width="9" height="9" stroke="#832626"/>
<path d="M165.373 243.115C164.689 243.115 164.068 242.968 163.511 242.674C162.961 242.373 162.526 241.96 162.206 241.435C161.892 240.904 161.736 240.306 161.736 239.64C161.736 238.975 161.892 238.38 162.206 237.855C162.526 237.324 162.961 236.911 163.511 236.617C164.068 236.316 164.692 236.166 165.383 236.166C165.965 236.166 166.49 236.268 166.957 236.473C167.431 236.678 167.827 236.972 168.147 237.356L167.149 238.277C166.695 237.753 166.132 237.49 165.46 237.49C165.044 237.49 164.673 237.583 164.346 237.769C164.02 237.948 163.764 238.201 163.578 238.527C163.399 238.853 163.31 239.225 163.31 239.64C163.31 240.056 163.399 240.428 163.578 240.754C163.764 241.08 164.02 241.336 164.346 241.522C164.673 241.701 165.044 241.791 165.46 241.791C166.132 241.791 166.695 241.525 167.149 240.994L168.147 241.915C167.827 242.306 167.431 242.603 166.957 242.808C166.484 243.013 165.956 243.115 165.373 243.115ZM172.311 243.115C171.613 243.115 170.983 242.965 170.42 242.664C169.863 242.363 169.425 241.951 169.105 241.426C168.791 240.895 168.635 240.3 168.635 239.64C168.635 238.981 168.791 238.389 169.105 237.865C169.425 237.334 169.863 236.918 170.42 236.617C170.983 236.316 171.613 236.166 172.311 236.166C173.008 236.166 173.635 236.316 174.192 236.617C174.749 236.918 175.187 237.334 175.507 237.865C175.827 238.389 175.987 238.981 175.987 239.64C175.987 240.3 175.827 240.895 175.507 241.426C175.187 241.951 174.749 242.363 174.192 242.664C173.635 242.965 173.008 243.115 172.311 243.115ZM172.311 241.791C172.708 241.791 173.066 241.701 173.386 241.522C173.706 241.336 173.955 241.08 174.135 240.754C174.32 240.428 174.413 240.056 174.413 239.64C174.413 239.225 174.32 238.853 174.135 238.527C173.955 238.201 173.706 237.948 173.386 237.769C173.066 237.583 172.708 237.49 172.311 237.49C171.914 237.49 171.556 237.583 171.236 237.769C170.916 237.948 170.663 238.201 170.477 238.527C170.298 238.853 170.209 239.225 170.209 239.64C170.209 240.056 170.298 240.428 170.477 240.754C170.663 241.08 170.916 241.336 171.236 241.522C171.556 241.701 171.914 241.791 172.311 241.791ZM183.391 236.281L180.482 243H178.946L176.048 236.281H177.727L179.772 241.08L181.845 236.281H183.391ZM183.952 236.281H185.507V243H183.952V236.281ZM187.101 236.281H190.154C190.883 236.281 191.526 236.422 192.083 236.703C192.646 236.978 193.081 237.369 193.388 237.874C193.702 238.38 193.859 238.969 193.859 239.64C193.859 240.312 193.702 240.901 193.388 241.407C193.081 241.912 192.646 242.306 192.083 242.587C191.526 242.862 190.883 243 190.154 243H187.101V236.281ZM190.077 241.723C190.749 241.723 191.283 241.538 191.68 241.167C192.083 240.789 192.284 240.28 192.284 239.64C192.284 239.001 192.083 238.495 191.68 238.124C191.283 237.746 190.749 237.558 190.077 237.558H188.656V241.723H190.077ZM194.771 239.698H197.488V240.898H194.771V239.698ZM200.734 236.281V243H199.179V237.529H197.836V236.281H200.734ZM204.263 236.166C205.204 236.166 205.939 236.454 206.471 237.03C207.002 237.599 207.267 238.421 207.267 239.497C207.267 240.258 207.123 240.911 206.835 241.455C206.554 241.999 206.154 242.411 205.635 242.693C205.117 242.974 204.519 243.115 203.841 243.115C203.482 243.115 203.14 243.077 202.813 243C202.487 242.917 202.209 242.802 201.978 242.654L202.554 241.512C202.881 241.736 203.3 241.848 203.812 241.848C204.381 241.848 204.832 241.682 205.165 241.349C205.498 241.01 205.677 240.524 205.703 239.89C205.3 240.293 204.743 240.495 204.032 240.495C203.604 240.495 203.213 240.408 202.861 240.236C202.51 240.063 202.231 239.82 202.026 239.506C201.822 239.186 201.719 238.818 201.719 238.402C201.719 237.954 201.831 237.561 202.055 237.222C202.279 236.882 202.583 236.623 202.967 236.444C203.357 236.259 203.789 236.166 204.263 236.166ZM204.378 239.333C204.717 239.333 204.992 239.241 205.204 239.055C205.421 238.863 205.53 238.62 205.53 238.325C205.53 238.031 205.424 237.791 205.213 237.606C205.008 237.42 204.724 237.327 204.359 237.327C204.026 237.327 203.754 237.417 203.543 237.596C203.338 237.775 203.236 238.018 203.236 238.325C203.236 238.633 203.338 238.879 203.543 239.065C203.754 239.244 204.032 239.333 204.378 239.333ZM181.468 248.35L180.904 248.938V250H179.938V245.8H180.904V247.762L182.764 245.8H183.844L182.104 247.672L183.946 250H182.812L181.468 248.35ZM184.38 245.8H185.352V250H184.38V245.8ZM187.219 246.592H185.875V245.8H189.535V246.592H188.191V250H187.219V246.592Z" fill="#832626"/>
<path d="M170.5 260.5C181.828 261.308 188.172 261.341 199.5 260.5" stroke="#832626" stroke-linecap="round"/>
<path d="M163.5 265.5C180.684 266.858 190.318 266.948 207.5 265.5" stroke="#832626" stroke-linecap="round"/>
<path d="M163.5 270.5C180.534 272.305 190.113 272.29 207.5 270.5" stroke="#832626" stroke-linecap="round"/>
<path d="M270.744 346.539C258.3 346.539 263.179 325.066 269.28 314.329H275.136C279.284 325.066 285.385 346.539 270.744 346.539Z" fill="#AAAAAA"/>
<rect x="269.28" y="124" width="5.85628" height="190.329" fill="#B98E66"/>
<defs>
<linearGradient id="paint0_linear" x1="219" y1="0" x2="219" y2="438" gradientUnits="userSpaceOnUse">
<stop stop-color="white"/>
<stop offset="1" stop-color="#E9E9E9"/>
</linearGradient>
<linearGradient id="paint1_linear" x1="185.273" y1="183.55" x2="185.273" y2="358.947" gradientUnits="userSpaceOnUse">
<stop stop-color="#D82F2F"/>
<stop offset="1" stop-color="#B91919"/>
</linearGradient>
</defs>
</svg>
