<svg width="458" height="438" viewBox="0 0 458 438" fill="none" xmlns="http://www.w3.org/2000/svg">
<circle cx="219" cy="219" r="219" fill="url(#paint0_linear)"/>
<g filter="url(#filter0_ii)">
<path d="M166.902 227.215C166.902 308.155 141.642 332.887 129.011 335.135H309.34C278.392 323.43 270.92 263.189 267.878 227.215H249.032V243.284H185.55V227.215H166.902Z" fill="#E21818"/>
</g>
<g filter="url(#filter1_i)">
<rect x="129.011" y="334.937" width="180.527" height="44.8342" fill="#E21818"/>
</g>
<g filter="url(#filter2_i)">
<path d="M104.015 226.224C100.682 227.969 98.1298 234.886 97.2701 238.126L153.412 245.863C153.095 239.515 159.628 236.473 162.934 235.746H272.044C281.09 233.841 283.087 249.236 282.955 257.171L343.263 241.301C341.517 234.476 337.113 228.406 335.13 226.224C318.73 217.164 273.314 199.363 222.846 200.632C159.76 202.219 108.181 224.041 104.015 226.224Z" fill="#E21818"/>
</g>
<g filter="url(#filter3_i)">
<path d="M159.24 262.248C163.757 259.918 165.236 254.524 161.261 251.357C161.001 251.15 160.724 250.924 160.428 250.676C156.206 247.141 151.083 244.939 145.874 243.284C140.665 241.629 135.472 240.553 130.068 241.03C124.664 241.507 119.425 243.059 114.649 245.595C109.872 248.132 105.653 251.605 102.232 255.815C98.8109 260.025 96.2546 264.891 94.7092 270.133C93.1637 275.376 92.6594 280.893 93.2251 286.37C93.2755 286.858 93.3081 287.302 93.3276 287.709C93.5703 292.784 98.3523 294.659 102.812 292.223L131.392 276.612L159.24 262.248Z" fill="#E21818"/>
</g>
<g filter="url(#filter4_i)">
<path d="M282.462 272.141C277.493 271.071 274.657 266.251 277.667 262.155C277.863 261.888 278.072 261.598 278.293 261.28C281.445 256.765 285.815 253.302 290.411 250.344C295.007 247.386 299.738 244.99 305.079 244.04C310.42 243.089 315.883 243.218 321.156 244.419C326.429 245.62 331.409 247.87 335.811 251.041C340.213 254.211 343.951 258.24 346.813 262.897C349.674 267.554 351.602 272.748 352.486 278.182C352.565 278.666 352.649 279.103 352.737 279.501C353.828 284.464 349.702 287.523 344.761 286.336L313.096 278.732L282.462 272.141Z" fill="#E21818"/>
</g>
<g filter="url(#filter5_di)">
<path d="M154.159 246.71C151.913 242.482 148.9 238.715 145.291 235.624C141.682 232.533 137.548 230.179 133.126 228.695C128.703 227.211 124.078 226.627 119.514 226.977C114.951 227.326 110.539 228.602 106.53 230.732C102.52 232.861 98.9927 235.802 96.148 239.388C93.3033 242.973 91.1973 247.132 89.9502 251.627C88.7031 256.122 88.3394 260.866 88.8797 265.587C89.42 270.307 90.8539 274.913 93.0995 279.141L123.629 262.925L154.159 246.71Z" fill="#E21818"/>
</g>
<g filter="url(#filter6_di)">
<path d="M283.309 255.815C284.372 251.147 286.297 246.724 288.973 242.798C291.649 238.871 295.025 235.519 298.906 232.931C302.788 230.344 307.1 228.572 311.596 227.718C316.093 226.863 320.685 226.942 325.111 227.95C329.537 228.959 333.711 230.877 337.393 233.594C341.076 236.312 344.195 239.777 346.573 243.79C348.951 247.803 350.541 252.287 351.252 256.985C351.964 261.683 351.783 266.504 350.72 271.171L317.014 263.493L283.309 255.815Z" fill="#E21818"/>
</g>
<g filter="url(#filter7_d)">
<ellipse cx="217.688" cy="279.191" rx="46.6196" ry="39.8747" fill="#E21818"/>
</g>
<g filter="url(#filter8_d)">
<ellipse cx="234.55" cy="305.012" rx="7.14173" ry="6.57791" fill="white"/>
</g>
<g filter="url(#filter9_d)">
<ellipse cx="248.834" cy="294.3" rx="7.14173" ry="6.57791" fill="white"/>
</g>
<g filter="url(#filter10_d)">
<ellipse cx="234.55" cy="253.036" rx="7.14173" ry="6.57791" fill="white"/>
</g>
<g filter="url(#filter11_d)">
<ellipse cx="217.886" cy="249.862" rx="7.14173" ry="6.57791" fill="white"/>
</g>
<g filter="url(#filter12_d)">
<ellipse cx="201.222" cy="253.036" rx="7.14173" ry="6.57791" fill="white"/>
</g>
<g filter="url(#filter13_d)">
<ellipse cx="186.939" cy="262.955" rx="7.14173" ry="6.57791" fill="white"/>
</g>
<g filter="url(#filter14_d)">
<ellipse cx="181.781" cy="278.429" rx="7.14173" ry="6.57791" fill="white"/>
</g>
<g filter="url(#filter15_d)">
<ellipse cx="186.939" cy="294.3" rx="7.14173" ry="6.57791" fill="white"/>
</g>
<g filter="url(#filter16_d)">
<ellipse cx="201.222" cy="305.012" rx="7.14173" ry="6.57791" fill="white"/>
</g>
<g filter="url(#filter17_d)">
<ellipse cx="217.886" cy="309.773" rx="7.14173" ry="6.57791" fill="white"/>
</g>
<g filter="url(#filter18_d)">
<ellipse cx="217.093" cy="278.596" rx="21.0284" ry="19.0446" fill="white"/>
</g>
<path d="M366.908 117.743C366.908 149.825 335.347 175.987 296.204 175.987C257.061 175.987 225.5 149.825 225.5 117.743C225.5 85.6622 257.061 59.5 296.204 59.5C335.347 59.5 366.908 85.6622 366.908 117.743Z" fill="white"/>
<path d="M366.908 117.743C366.908 149.825 335.347 175.987 296.204 175.987C257.061 175.987 225.5 149.825 225.5 117.743C225.5 85.6622 257.061 59.5 296.204 59.5C335.347 59.5 366.908 85.6622 366.908 117.743Z" fill="url(#paint1_linear)"/>
<path d="M366.908 117.743C366.908 149.825 335.347 175.987 296.204 175.987C257.061 175.987 225.5 149.825 225.5 117.743C225.5 85.6622 257.061 59.5 296.204 59.5C335.347 59.5 366.908 85.6622 366.908 117.743Z" stroke="url(#paint2_linear)"/>
<path d="M278.079 173.757L262.31 187.622L264.337 166.722L278.079 173.757Z" fill="white" stroke="url(#paint3_linear)"/>
<rect x="260.199" y="111.676" width="29.2295" height="34.1558" fill="#E9E9E9"/>
<rect x="298.953" y="111.676" width="29.2295" height="34.1558" fill="#E9E9E9"/>
<path d="M258.721 113.646C258.721 111.742 260.265 110.198 262.17 110.198H287.458C289.363 110.198 290.907 111.742 290.907 113.646H258.721Z" fill="#FF2F2F"/>
<path d="M298.953 113.646C298.953 111.742 300.497 110.198 302.401 110.198H327.69C329.594 110.198 331.138 111.742 331.138 113.646H298.953Z" fill="#FF2F2F"/>
<rect x="280.069" y="93.12" width="29.2295" height="52.7117" fill="#FBFBFB"/>
<rect x="289.429" y="130.232" width="10.5095" height="15.6" fill="#E21919"/>
<rect x="295.833" y="98.539" width="8.53896" height="2.29895" transform="rotate(90 295.833 98.539)" fill="#FF2F2F"/>
<rect x="290.414" y="101.659" width="8.53896" height="2.29895" fill="#FF2F2F"/>
<rect x="264.469" y="117.752" width="10.5095" height="7.38948" fill="#FF2F2F" fill-opacity="0.35"/>
<rect x="313.568" y="117.752" width="10.5095" height="7.38948" fill="#FF2F2F" fill-opacity="0.35"/>
<rect x="264.469" y="131.545" width="10.5095" height="7.88212" fill="#FF2F2F" fill-opacity="0.35"/>
<rect x="313.568" y="131.545" width="10.5095" height="7.88212" fill="#FF2F2F" fill-opacity="0.35"/>
<path d="M278.591 93.6126C278.591 91.6174 280.208 90 282.204 90H307.164C309.159 90 310.776 91.6174 310.776 93.6126H278.591Z" fill="#FF2F2F"/>
<defs>
<filter id="filter0_ii" x="129.011" y="225.628" width="180.329" height="111.094" filterUnits="userSpaceOnUse" color-interpolation-filters="sRGB">
<feFlood flood-opacity="0" result="BackgroundImageFix"/>
<feBlend mode="normal" in="SourceGraphic" in2="BackgroundImageFix" result="shape"/>
<feColorMatrix in="SourceAlpha" type="matrix" values="0 0 0 0 0 0 0 0 0 0 0 0 0 0 0 0 0 0 127 0" result="hardAlpha"/>
<feOffset dy="-2.38058"/>
<feGaussianBlur stdDeviation="0.793526"/>
<feComposite in2="hardAlpha" operator="arithmetic" k2="-1" k3="1"/>
<feColorMatrix type="matrix" values="0 0 0 0 0 0 0 0 0 0 0 0 0 0 0 0 0 0 0.25 0"/>
<feBlend mode="normal" in2="shape" result="effect1_innerShadow"/>
<feColorMatrix in="SourceAlpha" type="matrix" values="0 0 0 0 0 0 0 0 0 0 0 0 0 0 0 0 0 0 127 0" result="hardAlpha"/>
<feOffset dy="5.55468"/>
<feGaussianBlur stdDeviation="0.793526"/>
<feComposite in2="hardAlpha" operator="arithmetic" k2="-1" k3="1"/>
<feColorMatrix type="matrix" values="0 0 0 0 1 0 0 0 0 1 0 0 0 0 1 0 0 0 0.25 0"/>
<feBlend mode="normal" in2="effect1_innerShadow" result="effect2_innerShadow"/>
</filter>
<filter id="filter1_i" x="129.011" y="332.159" width="180.527" height="47.6116" filterUnits="userSpaceOnUse" color-interpolation-filters="sRGB">
<feFlood flood-opacity="0" result="BackgroundImageFix"/>
<feBlend mode="normal" in="SourceGraphic" in2="BackgroundImageFix" result="shape"/>
<feColorMatrix in="SourceAlpha" type="matrix" values="0 0 0 0 0 0 0 0 0 0 0 0 0 0 0 0 0 0 127 0" result="hardAlpha"/>
<feMorphology radius="1.19029" operator="erode" in="SourceAlpha" result="effect1_innerShadow"/>
<feOffset dy="-4.36439"/>
<feGaussianBlur stdDeviation="0.793526"/>
<feComposite in2="hardAlpha" operator="arithmetic" k2="-1" k3="1"/>
<feColorMatrix type="matrix" values="0 0 0 0 0 0 0 0 0 0 0 0 0 0 0 0 0 0 0.25 0"/>
<feBlend mode="normal" in2="shape" result="effect1_innerShadow"/>
</filter>
<filter id="filter2_i" x="97.2701" y="200.568" width="245.993" height="58.1902" filterUnits="userSpaceOnUse" color-interpolation-filters="sRGB">
<feFlood flood-opacity="0" result="BackgroundImageFix"/>
<feBlend mode="normal" in="SourceGraphic" in2="BackgroundImageFix" result="shape"/>
<feColorMatrix in="SourceAlpha" type="matrix" values="0 0 0 0 0 0 0 0 0 0 0 0 0 0 0 0 0 0 127 0" result="hardAlpha"/>
<feOffset dy="3.96763"/>
<feGaussianBlur stdDeviation="0.793526"/>
<feComposite in2="hardAlpha" operator="arithmetic" k2="-1" k3="1"/>
<feColorMatrix type="matrix" values="0 0 0 0 1 0 0 0 0 1 0 0 0 0 1 0 0 0 0.25 0"/>
<feBlend mode="normal" in2="shape" result="effect1_innerShadow"/>
</filter>
<filter id="filter3_i" x="93.0002" y="239.329" width="70.5674" height="53.9528" filterUnits="userSpaceOnUse" color-interpolation-filters="sRGB">
<feFlood flood-opacity="0" result="BackgroundImageFix"/>
<feBlend mode="normal" in="SourceGraphic" in2="BackgroundImageFix" result="shape"/>
<feColorMatrix in="SourceAlpha" type="matrix" values="0 0 0 0 0 0 0 0 0 0 0 0 0 0 0 0 0 0 127 0" result="hardAlpha"/>
<feOffset dy="-4.36439"/>
<feGaussianBlur stdDeviation="0.793526"/>
<feComposite in2="hardAlpha" operator="arithmetic" k2="-1" k3="1"/>
<feColorMatrix type="matrix" values="0 0 0 0 0 0 0 0 0 0 0 0 0 0 0 0 0 0 0.25 0"/>
<feBlend mode="normal" in2="shape" result="effect1_innerShadow"/>
</filter>
<filter id="filter4_i" x="276.432" y="241.824" width="76.8782" height="44.7678" filterUnits="userSpaceOnUse" color-interpolation-filters="sRGB">
<feFlood flood-opacity="0" result="BackgroundImageFix"/>
<feBlend mode="normal" in="SourceGraphic" in2="BackgroundImageFix" result="shape"/>
<feColorMatrix in="SourceAlpha" type="matrix" values="0 0 0 0 0 0 0 0 0 0 0 0 0 0 0 0 0 0 127 0" result="hardAlpha"/>
<feOffset dx="0.396763" dy="-3.96763"/>
<feGaussianBlur stdDeviation="0.793526"/>
<feComposite in2="hardAlpha" operator="arithmetic" k2="-1" k3="1"/>
<feColorMatrix type="matrix" values="0 0 0 0 0 0 0 0 0 0 0 0 0 0 0 0 0 0 0.25 0"/>
<feBlend mode="normal" in2="shape" result="effect1_innerShadow"/>
</filter>
<filter id="filter5_di" x="85.0661" y="224.895" width="72.6634" height="59.4042" filterUnits="userSpaceOnUse" color-interpolation-filters="sRGB">
<feFlood flood-opacity="0" result="BackgroundImageFix"/>
<feColorMatrix in="SourceAlpha" type="matrix" values="0 0 0 0 0 0 0 0 0 0 0 0 0 0 0 0 0 0 127 0"/>
<feOffset dy="1.58705"/>
<feGaussianBlur stdDeviation="1.78543"/>
<feColorMatrix type="matrix" values="0 0 0 0 0 0 0 0 0 0 0 0 0 0 0 0 0 0 0.25 0"/>
<feBlend mode="normal" in2="BackgroundImageFix" result="effect1_dropShadow"/>
<feBlend mode="normal" in="SourceGraphic" in2="effect1_dropShadow" result="shape"/>
<feColorMatrix in="SourceAlpha" type="matrix" values="0 0 0 0 0 0 0 0 0 0 0 0 0 0 0 0 0 0 127 0" result="hardAlpha"/>
<feOffset dx="3.96763" dy="8.72878"/>
<feGaussianBlur stdDeviation="0.793526"/>
<feComposite in2="hardAlpha" operator="arithmetic" k2="-1" k3="1"/>
<feColorMatrix type="matrix" values="0 0 0 0 1 0 0 0 0 1 0 0 0 0 1 0 0 0 0.25 0"/>
<feBlend mode="normal" in2="shape" result="effect2_innerShadow"/>
</filter>
<filter id="filter6_di" x="280.135" y="225.544" width="74.7175" height="50.3889" filterUnits="userSpaceOnUse" color-interpolation-filters="sRGB">
<feFlood flood-opacity="0" result="BackgroundImageFix"/>
<feColorMatrix in="SourceAlpha" type="matrix" values="0 0 0 0 0 0 0 0 0 0 0 0 0 0 0 0 0 0 127 0"/>
<feOffset dy="1.58705"/>
<feGaussianBlur stdDeviation="1.58705"/>
<feColorMatrix type="matrix" values="0 0 0 0 0 0 0 0 0 0 0 0 0 0 0 0 0 0 0.25 0"/>
<feBlend mode="normal" in2="BackgroundImageFix" result="effect1_dropShadow"/>
<feBlend mode="normal" in="SourceGraphic" in2="effect1_dropShadow" result="shape"/>
<feColorMatrix in="SourceAlpha" type="matrix" values="0 0 0 0 0 0 0 0 0 0 0 0 0 0 0 0 0 0 127 0" result="hardAlpha"/>
<feOffset dx="-1.98381" dy="8.72878"/>
<feGaussianBlur stdDeviation="0.793526"/>
<feComposite in2="hardAlpha" operator="arithmetic" k2="-1" k3="1"/>
<feColorMatrix type="matrix" values="0 0 0 0 1 0 0 0 0 1 0 0 0 0 1 0 0 0 0.25 0"/>
<feBlend mode="normal" in2="shape" result="effect2_innerShadow"/>
</filter>
<filter id="filter7_d" x="171.068" y="239.317" width="93.2393" height="82.9235" filterUnits="userSpaceOnUse" color-interpolation-filters="sRGB">
<feFlood flood-opacity="0" result="BackgroundImageFix"/>
<feColorMatrix in="SourceAlpha" type="matrix" values="0 0 0 0 0 0 0 0 0 0 0 0 0 0 0 0 0 0 127 0"/>
<feOffset dy="3.1741"/>
<feColorMatrix type="matrix" values="0 0 0 0 0 0 0 0 0 0 0 0 0 0 0 0 0 0 0.25 0"/>
<feBlend mode="normal" in2="BackgroundImageFix" result="effect1_dropShadow"/>
<feBlend mode="normal" in="SourceGraphic" in2="effect1_dropShadow" result="shape"/>
</filter>
<filter id="filter8_d" x="227.408" y="298.434" width="14.2835" height="14.7429" filterUnits="userSpaceOnUse" color-interpolation-filters="sRGB">
<feFlood flood-opacity="0" result="BackgroundImageFix"/>
<feColorMatrix in="SourceAlpha" type="matrix" values="0 0 0 0 0 0 0 0 0 0 0 0 0 0 0 0 0 0 127 0"/>
<feOffset dy="1.58705"/>
<feColorMatrix type="matrix" values="0 0 0 0 0 0 0 0 0 0 0 0 0 0 0 0 0 0 0.25 0"/>
<feBlend mode="normal" in2="BackgroundImageFix" result="effect1_dropShadow"/>
<feBlend mode="normal" in="SourceGraphic" in2="effect1_dropShadow" result="shape"/>
</filter>
<filter id="filter9_d" x="241.692" y="287.722" width="14.2835" height="14.7429" filterUnits="userSpaceOnUse" color-interpolation-filters="sRGB">
<feFlood flood-opacity="0" result="BackgroundImageFix"/>
<feColorMatrix in="SourceAlpha" type="matrix" values="0 0 0 0 0 0 0 0 0 0 0 0 0 0 0 0 0 0 127 0"/>
<feOffset dy="1.58705"/>
<feColorMatrix type="matrix" values="0 0 0 0 0 0 0 0 0 0 0 0 0 0 0 0 0 0 0.25 0"/>
<feBlend mode="normal" in2="BackgroundImageFix" result="effect1_dropShadow"/>
<feBlend mode="normal" in="SourceGraphic" in2="effect1_dropShadow" result="shape"/>
</filter>
<filter id="filter10_d" x="227.408" y="246.458" width="14.2835" height="14.7429" filterUnits="userSpaceOnUse" color-interpolation-filters="sRGB">
<feFlood flood-opacity="0" result="BackgroundImageFix"/>
<feColorMatrix in="SourceAlpha" type="matrix" values="0 0 0 0 0 0 0 0 0 0 0 0 0 0 0 0 0 0 127 0"/>
<feOffset dy="1.58705"/>
<feColorMatrix type="matrix" values="0 0 0 0 0 0 0 0 0 0 0 0 0 0 0 0 0 0 0.25 0"/>
<feBlend mode="normal" in2="BackgroundImageFix" result="effect1_dropShadow"/>
<feBlend mode="normal" in="SourceGraphic" in2="effect1_dropShadow" result="shape"/>
</filter>
<filter id="filter11_d" x="210.744" y="243.284" width="14.2835" height="14.7429" filterUnits="userSpaceOnUse" color-interpolation-filters="sRGB">
<feFlood flood-opacity="0" result="BackgroundImageFix"/>
<feColorMatrix in="SourceAlpha" type="matrix" values="0 0 0 0 0 0 0 0 0 0 0 0 0 0 0 0 0 0 127 0"/>
<feOffset dy="1.58705"/>
<feColorMatrix type="matrix" values="0 0 0 0 0 0 0 0 0 0 0 0 0 0 0 0 0 0 0.25 0"/>
<feBlend mode="normal" in2="BackgroundImageFix" result="effect1_dropShadow"/>
<feBlend mode="normal" in="SourceGraphic" in2="effect1_dropShadow" result="shape"/>
</filter>
<filter id="filter12_d" x="194.08" y="246.458" width="14.2835" height="14.7429" filterUnits="userSpaceOnUse" color-interpolation-filters="sRGB">
<feFlood flood-opacity="0" result="BackgroundImageFix"/>
<feColorMatrix in="SourceAlpha" type="matrix" values="0 0 0 0 0 0 0 0 0 0 0 0 0 0 0 0 0 0 127 0"/>
<feOffset dy="1.58705"/>
<feColorMatrix type="matrix" values="0 0 0 0 0 0 0 0 0 0 0 0 0 0 0 0 0 0 0.25 0"/>
<feBlend mode="normal" in2="BackgroundImageFix" result="effect1_dropShadow"/>
<feBlend mode="normal" in="SourceGraphic" in2="effect1_dropShadow" result="shape"/>
</filter>
<filter id="filter13_d" x="179.797" y="256.378" width="14.2835" height="14.7429" filterUnits="userSpaceOnUse" color-interpolation-filters="sRGB">
<feFlood flood-opacity="0" result="BackgroundImageFix"/>
<feColorMatrix in="SourceAlpha" type="matrix" values="0 0 0 0 0 0 0 0 0 0 0 0 0 0 0 0 0 0 127 0"/>
<feOffset dy="1.58705"/>
<feColorMatrix type="matrix" values="0 0 0 0 0 0 0 0 0 0 0 0 0 0 0 0 0 0 0.25 0"/>
<feBlend mode="normal" in2="BackgroundImageFix" result="effect1_dropShadow"/>
<feBlend mode="normal" in="SourceGraphic" in2="effect1_dropShadow" result="shape"/>
</filter>
<filter id="filter14_d" x="174.639" y="271.851" width="14.2835" height="14.7429" filterUnits="userSpaceOnUse" color-interpolation-filters="sRGB">
<feFlood flood-opacity="0" result="BackgroundImageFix"/>
<feColorMatrix in="SourceAlpha" type="matrix" values="0 0 0 0 0 0 0 0 0 0 0 0 0 0 0 0 0 0 127 0"/>
<feOffset dy="1.58705"/>
<feColorMatrix type="matrix" values="0 0 0 0 0 0 0 0 0 0 0 0 0 0 0 0 0 0 0.25 0"/>
<feBlend mode="normal" in2="BackgroundImageFix" result="effect1_dropShadow"/>
<feBlend mode="normal" in="SourceGraphic" in2="effect1_dropShadow" result="shape"/>
</filter>
<filter id="filter15_d" x="179.797" y="287.722" width="14.2835" height="14.7429" filterUnits="userSpaceOnUse" color-interpolation-filters="sRGB">
<feFlood flood-opacity="0" result="BackgroundImageFix"/>
<feColorMatrix in="SourceAlpha" type="matrix" values="0 0 0 0 0 0 0 0 0 0 0 0 0 0 0 0 0 0 127 0"/>
<feOffset dy="1.58705"/>
<feColorMatrix type="matrix" values="0 0 0 0 0 0 0 0 0 0 0 0 0 0 0 0 0 0 0.25 0"/>
<feBlend mode="normal" in2="BackgroundImageFix" result="effect1_dropShadow"/>
<feBlend mode="normal" in="SourceGraphic" in2="effect1_dropShadow" result="shape"/>
</filter>
<filter id="filter16_d" x="194.08" y="298.434" width="14.2835" height="14.7429" filterUnits="userSpaceOnUse" color-interpolation-filters="sRGB">
<feFlood flood-opacity="0" result="BackgroundImageFix"/>
<feColorMatrix in="SourceAlpha" type="matrix" values="0 0 0 0 0 0 0 0 0 0 0 0 0 0 0 0 0 0 127 0"/>
<feOffset dy="1.58705"/>
<feColorMatrix type="matrix" values="0 0 0 0 0 0 0 0 0 0 0 0 0 0 0 0 0 0 0.25 0"/>
<feBlend mode="normal" in2="BackgroundImageFix" result="effect1_dropShadow"/>
<feBlend mode="normal" in="SourceGraphic" in2="effect1_dropShadow" result="shape"/>
</filter>
<filter id="filter17_d" x="210.744" y="303.196" width="14.2835" height="14.7429" filterUnits="userSpaceOnUse" color-interpolation-filters="sRGB">
<feFlood flood-opacity="0" result="BackgroundImageFix"/>
<feColorMatrix in="SourceAlpha" type="matrix" values="0 0 0 0 0 0 0 0 0 0 0 0 0 0 0 0 0 0 127 0"/>
<feOffset dy="1.58705"/>
<feColorMatrix type="matrix" values="0 0 0 0 0 0 0 0 0 0 0 0 0 0 0 0 0 0 0.25 0"/>
<feBlend mode="normal" in2="BackgroundImageFix" result="effect1_dropShadow"/>
<feBlend mode="normal" in="SourceGraphic" in2="effect1_dropShadow" result="shape"/>
</filter>
<filter id="filter18_d" x="194.477" y="259.552" width="45.231" height="41.6601" filterUnits="userSpaceOnUse" color-interpolation-filters="sRGB">
<feFlood flood-opacity="0" result="BackgroundImageFix"/>
<feColorMatrix in="SourceAlpha" type="matrix" values="0 0 0 0 0 0 0 0 0 0 0 0 0 0 0 0 0 0 127 0"/>
<feOffset dy="1.98381"/>
<feGaussianBlur stdDeviation="0.793526"/>
<feColorMatrix type="matrix" values="0 0 0 0 0 0 0 0 0 0 0 0 0 0 0 0 0 0 0.25 0"/>
<feBlend mode="normal" in2="BackgroundImageFix" result="effect1_dropShadow"/>
<feBlend mode="normal" in="SourceGraphic" in2="effect1_dropShadow" result="shape"/>
</filter>
<linearGradient id="paint0_linear" x1="219" y1="0" x2="219" y2="438" gradientUnits="userSpaceOnUse">
<stop stop-color="white"/>
<stop offset="1" stop-color="#E9E9E9"/>
</linearGradient>
<linearGradient id="paint1_linear" x1="296.204" y1="59" x2="296.204" y2="176.487" gradientUnits="userSpaceOnUse">
<stop stop-color="white"/>
<stop offset="1" stop-color="white" stop-opacity="0"/>
</linearGradient>
<linearGradient id="paint2_linear" x1="296.204" y1="59" x2="296.204" y2="176.487" gradientUnits="userSpaceOnUse">
<stop stop-color="#FF7E7E"/>
<stop offset="0.572917" stop-color="#AA3333" stop-opacity="0"/>
</linearGradient>
<linearGradient id="paint3_linear" x1="261.69" y1="188.833" x2="274.684" y2="163.448" gradientUnits="userSpaceOnUse">
<stop stop-color="#FF7E7E"/>
<stop offset="0.572917" stop-color="#AA3333" stop-opacity="0"/>
</linearGradient>
</defs>
</svg>
