<svg width="438" height="438" viewBox="0 0 438 438" fill="none" xmlns="http://www.w3.org/2000/svg">
<circle cx="219" cy="219" r="219" fill="url(#paint0_linear)"/>
<g filter="url(#filter0_i)">
<path d="M185.757 213.81C185.555 201.841 182.123 181.435 180.432 172.729L173.839 173.743L180.432 218.882C180.432 222.432 180.179 222.939 180.432 224.714V231.815C186.315 230.8 187.617 225.475 187.533 222.939C188.953 220.505 186.941 215.839 185.757 213.81Z" fill="#FFD9B6"/>
</g>
<g filter="url(#filter1_i)">
<path d="M91.6762 326.149C97.3566 319.658 98.0159 316.175 97.5087 315.499C101.882 317.729 103.706 318.767 107.145 318.542C105.725 324.019 105.708 326.234 105.877 326.657L105.624 332.236L91.6762 326.149Z" fill="#FFD9B6"/>
</g>
<g filter="url(#filter2_i)">
<path d="M72.3683 333.879C80.486 331.668 88.3217 325.891 91.2249 323.279C92.666 323.286 94.8923 325.324 95.8254 326.342C98.1799 327.015 103.518 327.622 106.035 324.675C107.014 325.389 108.966 328.672 108.948 336.092C110.013 339.34 100.594 340.628 95.7511 340.866C80.5928 346.013 72.0237 342.546 69.634 340.17C67.7596 336.827 70.6759 334.583 72.3683 333.879Z" fill="url(#paint1_linear)"/>
</g>
<g filter="url(#filter3_i)">
<path d="M161.803 336.314C162.314 335.44 162.345 334.211 162.171 332.954C161.89 330.918 163.25 328.939 165.305 328.939H171.547C173.721 328.939 175.377 331.255 175.414 333.428C175.435 334.637 175.603 335.712 175.867 336.314C178.992 346.94 177.097 353.174 173.659 356.641C171.404 358.916 167.665 359.039 165.219 356.969C157.802 350.692 160.923 337.821 161.803 336.314Z" fill="url(#paint2_linear)"/>
</g>
<path d="M181.583 231.561C182.857 230.56 184.236 229.533 186.518 224.207M180.686 231.054C181.687 229.962 184.489 228.011 184.997 223.7" stroke="#C09771" stroke-width="0.163857"/>
<g filter="url(#filter4_i)">
<path d="M163.949 325.389C167.905 327.293 170.006 327.19 173.585 325.389C173.324 328.573 173.301 330.518 173.432 332.833C173.498 334.015 172.572 335.025 171.388 335.025H166.109C164.938 335.025 164.016 334.037 164.072 332.868C164.179 330.622 164.176 328.694 163.949 325.389Z" fill="#FFD9B6"/>
</g>
<path d="M168.513 332.996C165.876 332.996 164.033 334.518 163.441 335.279H173.331C172.824 334.518 171.049 332.996 168.513 332.996Z" fill="#FCFCFC"/>
<path d="M95.4802 313.977C109.884 278.475 121.6 229.363 125.657 209.245L181.193 211.274C182.807 243.548 177.535 301.559 174.649 326.982C174.62 327.238 174.4 327.418 174.142 327.417C164.572 327.381 161.833 326.225 161.667 325.642C157.618 280.912 153.859 247.909 152.262 232.771C152.206 232.233 151.456 232.152 151.272 232.66C139.774 264.287 119.884 301.78 111.203 319.556C102.276 321.382 97.0017 316.598 95.4802 313.977Z" fill="#1C2D46" stroke="black" stroke-width="0.507176"/>
<g filter="url(#filter5_i)">
<path d="M98.2696 161.824C97.2552 158.984 100.383 154.048 102.073 151.935C105.725 147.066 116.105 147.708 120.839 148.638C112.318 155.738 110.357 160.218 110.442 161.571C112.876 170.294 119.486 180.252 122.36 184.394C124.096 184.828 125.715 184.556 127.351 183.912C130.087 182.834 133.434 182.718 136.099 183.962C138.364 185.019 140.648 186.115 140.872 187.014C141.278 188.637 140.365 188.367 139.858 188.029C136.206 185.188 132.589 184.985 131.236 185.239C133.349 186.084 137.728 188.282 138.336 190.311C138.945 192.34 138.083 192.001 137.576 191.579C134.127 188.333 130.729 187.352 129.461 187.268C131.574 188.198 135.902 190.767 136.308 193.607C136.714 196.448 135.97 195.805 135.547 195.129C133.315 191.274 129.376 189.973 127.686 189.804C129.461 190.903 133.011 193.709 133.011 196.143C133.011 198.578 132.166 198.003 131.743 197.411C130.323 193.76 127.939 192.509 126.925 192.34C120.433 193.963 117.12 190.987 116.021 189.466C106.131 176.533 99.5375 165.375 98.2696 161.824Z" fill="#FFD9B6"/>
</g>
<path d="M140.554 102.742C138.96 114.612 135.801 120.49 128.446 126.576L169.274 137.987C166.638 120.019 172.061 124.773 172.522 107.265C172.63 103.161 171.926 99.456 170.785 96.2291C167.375 86.588 155.068 84.3586 147.393 91.1158C143.989 94.1123 141.197 97.9576 140.554 102.742Z" fill="#490303"/>
<path d="M120.331 130.633C123.24 127.725 127.27 125.445 131.169 123.925C137.367 121.508 144.211 122.217 150.591 124.099C165.814 128.59 174.479 135.315 176.882 138.494C182.968 145.392 187.194 165.713 188.547 175.011C183.538 178.017 177.938 177.064 175.927 176.307C177.984 189.608 180.589 205.839 181.953 214.571C157.713 222.581 145.326 221.817 124.135 213.81C126.57 203.261 128.869 189.297 129.207 184.14C126.773 170.345 126.333 158.443 126.417 154.217L110.695 161.571C101.972 158.934 99.4526 154.386 99.2836 152.442C103.764 146.947 114.651 136.314 120.331 130.633Z" fill="#306AFF"/>
<path d="M142.14 122.518C145.995 120.895 146.789 115.925 146.705 113.643L162.934 117.193C159.689 122.468 160.737 126.829 161.667 128.351L142.14 122.518Z" fill="#E4BA93"/>
<g filter="url(#filter6_i)">
<path d="M126.925 192.34C120.433 193.963 117.119 190.987 116.021 189.466L119.19 186.93L122.36 184.394C124.096 184.828 125.715 184.556 127.351 183.912C130.087 182.834 133.434 182.718 136.099 183.962C138.364 185.019 140.647 186.115 140.872 187.014C141.278 188.637 140.365 188.367 139.858 188.029C136.206 185.188 132.588 184.985 131.236 185.239C133.349 186.084 137.728 188.282 138.336 190.311C138.945 192.34 138.083 192.001 137.576 191.579C134.127 188.333 130.729 187.352 129.461 187.268C131.574 188.198 135.902 190.767 136.308 193.607C136.713 196.448 135.969 195.805 135.547 195.129C133.315 191.274 129.376 189.973 127.686 189.804C129.461 190.903 133.011 193.709 133.011 196.143C133.011 198.578 132.166 198.003 131.743 197.411C130.323 193.76 127.939 192.509 126.925 192.34Z" fill="#FFD9B6"/>
</g>
<rect x="146.898" y="92.3552" width="23.8373" height="25.7527" rx="11.9186" transform="rotate(9.70479 146.898 92.3552)" fill="#FFD9B6"/>
<g filter="url(#filter7_d)">
<path d="M146.844 103.906C147.232 103.302 146.981 98.2292 146.638 95.7177C155.829 88.9684 166.978 94.2964 171.404 97.8041C167.395 97.2396 166.421 100.417 166.434 102.077C163.995 101.337 162.659 94.2693 162.932 96.5011C163.205 98.733 157.799 100.646 156.363 101.373C155.745 99.8262 153.212 97.7779 153.223 96.1779C150.822 98.9715 146.389 104.613 146.844 103.906Z" fill="#490303"/>
</g>
<path d="M142.94 181.313C142.556 184.401 139.627 192.715 130.982 201.268" stroke="#1B57F2" stroke-width="1.01435" stroke-linecap="round" stroke-linejoin="bevel"/>
<circle cx="151.113" cy="106.173" r="1.0818" fill="#490303"/>
<circle cx="163.013" cy="107.255" r="1.0818" fill="#490303"/>
<path d="M153.374 114.744C154.811 116.012 156.958 116.278 158.702 115.404" stroke="#490303" stroke-width="0.32454"/>
<g filter="url(#filter8_i)">
<path d="M331.805 338.868C332.344 337.885 332.374 336.503 332.189 335.09C331.89 332.811 333.432 330.616 335.731 330.616H341.802C344.228 330.616 346.079 333.159 346.11 335.584C346.128 336.959 346.305 338.185 346.587 338.868C349.601 349.78 348.077 354.302 344.967 356.884C342.013 359.336 337.454 359.322 334.572 356.786C327.636 350.684 330.905 340.506 331.805 338.868Z" fill="#803A13"/>
</g>
<g filter="url(#filter9_i)">
<path d="M299.837 338.556C299.372 337.537 299.446 336.156 299.736 334.761C300.204 332.51 298.83 330.206 296.538 330.035L290.484 329.581C288.064 329.4 286.029 331.797 285.817 334.213C285.696 335.582 285.428 336.792 285.096 337.452C281.275 348.109 282.457 352.732 285.365 355.538C288.128 358.204 292.675 358.532 295.739 356.218C303.111 350.651 300.612 340.257 299.837 338.556Z" fill="#803A13"/>
</g>
<g filter="url(#filter10_i)">
<path d="M333.8 326.278H344.696C344.401 329.879 344.375 332.077 344.522 334.696C344.597 336.032 343.55 337.174 342.212 337.174H336.242C334.919 337.174 333.876 336.057 333.939 334.735C334.06 332.196 334.057 330.015 333.8 326.278Z" fill="#FFD9B6"/>
</g>
<g filter="url(#filter11_i)">
<path d="M298.788 325.853L287.922 325.039C287.947 328.651 287.809 330.846 287.466 333.446C287.292 334.773 288.25 335.99 289.585 336.09L295.538 336.536C296.858 336.635 297.981 335.599 298.017 334.276C298.086 331.734 298.252 329.56 298.788 325.853Z" fill="#FFD9B6"/>
</g>
<path d="M339.067 334.335C336.092 334.335 334.013 336.4 333.346 337.433H344.501C343.929 336.4 341.927 334.335 339.067 334.335Z" fill="#7F3A13"/>
<path d="M292.934 333.493C295.9 333.715 297.819 335.931 298.407 337.011L287.283 336.177C287.931 335.19 290.082 333.28 292.934 333.493Z" fill="#7F3A13"/>
<path d="M283.768 325.349C288.725 280.728 290.378 240.239 290.894 225.572H347.6C346.608 258.542 347.6 305.207 349.149 327.208C343.447 330.678 332.313 328.654 329.937 327.208C328.698 308.616 327.458 270.296 320.951 248.192C319.464 244.226 317.646 246.54 316.923 248.192C311.965 258.108 308.66 303.348 302.979 327.208C295.79 330.183 284.904 327.518 283.768 325.349Z" fill="#2B2B2D"/>
<path d="M306.078 129.204C311.779 125.486 311.759 117.739 311.036 114.331H325.29C324.794 122.759 328.388 127.758 330.247 129.204H306.078Z" fill="#ECBC8F"/>
<path d="M359.363 205.888C359.772 205.196 359.979 203.528 360.032 202.781C362.234 201.428 364.436 202.48 365.262 203.174L364.711 207.776C364.685 209.152 364.648 212.503 364.711 214.894C364.774 217.285 363.82 218.407 363.335 218.669C362.202 219.298 358.721 219.325 357.121 219.259C355.831 219.259 355.85 217.791 356.02 217.057C353.755 217.277 353.398 215.89 353.503 215.169C353.958 213.957 354.915 211.534 355.587 209.845C355.87 209.133 356.338 208.51 356.92 208.013C357.713 207.337 358.767 206.414 359.363 205.888Z" fill="#FFD9B6" stroke="#B98E66" stroke-width="0.142538"/>
<g filter="url(#filter12_d)">
<path d="M355.981 217.057C356.558 216.087 358.128 214.052 359.795 213.675C359.795 214.223 359.938 215.232 360.425 215.974M361.211 216.703C360.882 216.538 360.624 216.279 360.425 215.974M360.425 215.974H359.323C359.245 215.811 358.985 215.405 358.576 215.09" stroke="#B98E66" stroke-width="0.142538"/>
</g>
<g filter="url(#filter13_d)">
<path d="M358.026 217.017C358.249 216.755 358.82 216.184 359.324 215.995" stroke="#FFD9B6" stroke-width="0.142538"/>
</g>
<path d="M262.718 203.572C263.088 168.375 273.817 146.335 280.846 136.401C284.137 131.749 289.387 129.033 294.88 127.517C313.437 122.395 330.646 124.129 341.891 127.025C348.206 128.65 353.698 132.62 356.855 138.325C368.477 159.323 369.168 192.264 368.249 205.121H355.656C354.397 198.076 351.232 165.458 347.034 149.587C350.812 178.239 349.174 212.802 347.6 226.502C324.59 231.628 312.221 231.334 290.894 226.502C287.37 197.375 289.491 169.158 291.94 149.587C282.528 164.219 280.381 191.177 278.984 203.572C272.389 205.957 268.836 205.847 262.718 203.572Z" fill="#FFA857"/>
<rect x="301.18" y="79.0064" width="35.936" height="40.2483" rx="17.968" fill="#FFD9B6"/>
<path d="M337.116 96.968C337.116 90.1402 333.036 79.3099 319.092 79C317.89 83.1925 320.677 92.6557 337.116 96.968Z" fill="url(#paint3_linear)"/>
<path d="M301.18 96.9744C300.461 89.7872 307.225 78.6965 319 79.0064C320.202 83.1989 317.619 92.662 301.18 96.9744Z" fill="url(#paint4_linear)"/>
<path d="M276.958 205.308C277.039 203.826 276.385 202.13 276.049 201.467L272.612 207.06L270.759 209.789C270.274 210.22 270.288 210.777 270.355 211.002C270.355 211.702 271.86 211.586 272.612 211.44C273.367 211.494 274.948 211.642 275.644 211.709C276.534 211.413 277.362 209.834 277.666 209.081C278.016 208.084 277.34 206.15 276.958 205.308Z" fill="#FFD9B6" stroke="#CA9462" stroke-width="0.0673802"/>
<path d="M258.884 215.539C263.628 202.45 273.807 202.685 279.339 204.412C280.299 204.711 281.199 205.186 281.995 205.801C284.333 207.609 284.707 208.951 284.174 209.851C282.89 212.019 279.618 210.464 277.141 209.999C269.732 208.608 263.577 214.407 263.027 219.422V354.565C263.027 355.603 262.938 356.766 262.09 357.366C260.978 358.153 259.326 358.013 258.382 357.156C257.782 356.611 257.739 355.724 257.739 354.913V223.461C257.739 220.777 257.97 218.062 258.884 215.539Z" fill="#8B8989"/>
<g filter="url(#filter14_d)">
<path d="M264.459 208.812C263.138 204.203 264.628 202.602 265.537 202.377C266.049 202.485 266.447 201.995 266.582 201.737C266.824 201.225 267.648 201.209 268.03 201.265C268.92 201.454 269.479 200.782 269.647 200.423C270.51 199.48 271.534 199.918 271.938 200.255C272.396 200.848 273.14 200.614 273.454 200.423C275.206 200.073 275.891 200.928 276.015 201.4C276.877 207.033 276.374 208.801 276.015 208.98C274.991 209.87 273.477 209.351 272.848 208.98C271.662 210.22 270.198 209.766 269.614 209.385C267.484 210.382 266.615 209.531 266.447 208.98C265.315 209.277 264.65 208.992 264.459 208.812Z" fill="#FFD9B6"/>
<path d="M264.459 208.812C263.138 204.203 264.628 202.602 265.537 202.377C266.049 202.485 266.447 201.995 266.582 201.737C266.824 201.225 267.648 201.209 268.03 201.265C268.92 201.454 269.479 200.782 269.647 200.423C270.51 199.48 271.534 199.918 271.938 200.255C272.396 200.848 273.14 200.614 273.454 200.423C275.206 200.073 275.891 200.928 276.015 201.4C276.877 207.033 276.374 208.801 276.015 208.98C274.991 209.87 273.477 209.351 272.848 208.98C271.662 210.22 270.198 209.766 269.614 209.385C267.484 210.382 266.615 209.531 266.447 208.98C265.315 209.277 264.65 208.992 264.459 208.812Z" stroke="#B98E66" stroke-width="0.0673802"/>
</g>
<path d="M266.447 209.018C266.144 207.595 266.029 206.773 265.975 205.245" stroke="#B98E66" stroke-width="0.0673802"/>
<path d="M269.614 209.422C269.309 207.517 269.173 206.331 269.007 203.964" stroke="#B98E66" stroke-width="0.0673802"/>
<path d="M272.848 209.015C272.77 207.065 272.74 205.892 272.713 203.624" stroke="#B98E66" stroke-width="0.0673802"/>
<path d="M306.078 101.355C309.361 99.6507 311.261 99.6516 314.754 101.355" stroke="#9D7C27" stroke-width="0.619729"/>
<path d="M324.05 101.355C327.333 99.6507 329.233 99.6516 332.726 101.355" stroke="#9D7C27" stroke-width="0.619729"/>
<defs>
<filter id="filter0_i" x="173.839" y="172.729" width="14.1822" height="59.086" filterUnits="userSpaceOnUse" color-interpolation-filters="sRGB">
<feFlood flood-opacity="0" result="BackgroundImageFix"/>
<feBlend mode="normal" in="SourceGraphic" in2="BackgroundImageFix" result="shape"/>
<feColorMatrix in="SourceAlpha" type="matrix" values="0 0 0 0 0 0 0 0 0 0 0 0 0 0 0 0 0 0 127 0" result="hardAlpha"/>
<feOffset dx="3.55023" dy="1.01435"/>
<feComposite in2="hardAlpha" operator="arithmetic" k2="-1" k3="1"/>
<feColorMatrix type="matrix" values="0 0 0 0 0.92549 0 0 0 0 0.760784 0 0 0 0 0.611765 0 0 0 1 0"/>
<feBlend mode="normal" in2="shape" result="effect1_innerShadow"/>
</filter>
<filter id="filter1_i" x="90.8093" y="315.499" width="16.3357" height="19.3374" filterUnits="userSpaceOnUse" color-interpolation-filters="sRGB">
<feFlood flood-opacity="0" result="BackgroundImageFix"/>
<feBlend mode="normal" in="SourceGraphic" in2="BackgroundImageFix" result="shape"/>
<feColorMatrix in="SourceAlpha" type="matrix" values="0 0 0 0 0 0 0 0 0 0 0 0 0 0 0 0 0 0 127 0" result="hardAlpha"/>
<feOffset dx="-0.866873" dy="2.60062"/>
<feGaussianBlur stdDeviation="1.73375"/>
<feComposite in2="hardAlpha" operator="arithmetic" k2="-1" k3="1"/>
<feColorMatrix type="matrix" values="0 0 0 0 0.316667 0 0 0 0 0.230533 0 0 0 0 0.182083 0 0 0 0.25 0"/>
<feBlend mode="normal" in2="shape" result="effect1_innerShadow"/>
</filter>
<filter id="filter2_i" x="69.0277" y="323.279" width="40.0038" height="20.2554" filterUnits="userSpaceOnUse" color-interpolation-filters="sRGB">
<feFlood flood-opacity="0" result="BackgroundImageFix"/>
<feBlend mode="normal" in="SourceGraphic" in2="BackgroundImageFix" result="shape"/>
<feColorMatrix in="SourceAlpha" type="matrix" values="0 0 0 0 0 0 0 0 0 0 0 0 0 0 0 0 0 0 127 0" result="hardAlpha"/>
<feOffset dy="-1.52153"/>
<feComposite in2="hardAlpha" operator="arithmetic" k2="-1" k3="1"/>
<feColorMatrix type="matrix" values="0 0 0 0 0 0 0 0 0 0 0 0 0 0 0 0 0 0 0.25 0"/>
<feBlend mode="normal" in2="shape" result="effect1_innerShadow"/>
</filter>
<filter id="filter3_i" x="160.398" y="328.939" width="17.054" height="29.4997" filterUnits="userSpaceOnUse" color-interpolation-filters="sRGB">
<feFlood flood-opacity="0" result="BackgroundImageFix"/>
<feBlend mode="normal" in="SourceGraphic" in2="BackgroundImageFix" result="shape"/>
<feColorMatrix in="SourceAlpha" type="matrix" values="0 0 0 0 0 0 0 0 0 0 0 0 0 0 0 0 0 0 127 0" result="hardAlpha"/>
<feOffset dy="-1.52153"/>
<feComposite in2="hardAlpha" operator="arithmetic" k2="-1" k3="1"/>
<feColorMatrix type="matrix" values="0 0 0 0 0 0 0 0 0 0 0 0 0 0 0 0 0 0 0.25 0"/>
<feBlend mode="normal" in2="shape" result="effect1_innerShadow"/>
</filter>
<filter id="filter4_i" x="163.949" y="325.389" width="9.63635" height="11.3701" filterUnits="userSpaceOnUse" color-interpolation-filters="sRGB">
<feFlood flood-opacity="0" result="BackgroundImageFix"/>
<feBlend mode="normal" in="SourceGraphic" in2="BackgroundImageFix" result="shape"/>
<feColorMatrix in="SourceAlpha" type="matrix" values="0 0 0 0 0 0 0 0 0 0 0 0 0 0 0 0 0 0 127 0" result="hardAlpha"/>
<feOffset dy="1.73375"/>
<feGaussianBlur stdDeviation="1.73375"/>
<feComposite in2="hardAlpha" operator="arithmetic" k2="-1" k3="1"/>
<feColorMatrix type="matrix" values="0 0 0 0 0 0 0 0 0 0 0 0 0 0 0 0 0 0 0.25 0"/>
<feBlend mode="normal" in2="shape" result="effect1_innerShadow"/>
</filter>
<filter id="filter5_i" x="98.0715" y="147.988" width="42.902" height="49.9392" filterUnits="userSpaceOnUse" color-interpolation-filters="sRGB">
<feFlood flood-opacity="0" result="BackgroundImageFix"/>
<feBlend mode="normal" in="SourceGraphic" in2="BackgroundImageFix" result="shape"/>
<feColorMatrix in="SourceAlpha" type="matrix" values="0 0 0 0 0 0 0 0 0 0 0 0 0 0 0 0 0 0 127 0" result="hardAlpha"/>
<feOffset dx="2.53588" dy="1.01435"/>
<feComposite in2="hardAlpha" operator="arithmetic" k2="-1" k3="1"/>
<feColorMatrix type="matrix" values="0 0 0 0 0.925 0 0 0 0 0.762491 0 0 0 0 0.612813 0 0 0 1 0"/>
<feBlend mode="normal" in2="shape" result="effect1_innerShadow"/>
</filter>
<filter id="filter6_i" x="116.021" y="183.066" width="24.9527" height="14.8613" filterUnits="userSpaceOnUse" color-interpolation-filters="sRGB">
<feFlood flood-opacity="0" result="BackgroundImageFix"/>
<feBlend mode="normal" in="SourceGraphic" in2="BackgroundImageFix" result="shape"/>
<feColorMatrix in="SourceAlpha" type="matrix" values="0 0 0 0 0 0 0 0 0 0 0 0 0 0 0 0 0 0 127 0" result="hardAlpha"/>
<feOffset dy="-2.0287"/>
<feComposite in2="hardAlpha" operator="arithmetic" k2="-1" k3="1"/>
<feColorMatrix type="matrix" values="0 0 0 0 0.92549 0 0 0 0 0.760784 0 0 0 0 0.611765 0 0 0 1 0"/>
<feBlend mode="normal" in2="shape" result="effect1_innerShadow"/>
</filter>
<filter id="filter7_d" x="146.638" y="92.4734" width="24.7664" height="12.5073" filterUnits="userSpaceOnUse" color-interpolation-filters="sRGB">
<feFlood flood-opacity="0" result="BackgroundImageFix"/>
<feColorMatrix in="SourceAlpha" type="matrix" values="0 0 0 0 0 0 0 0 0 0 0 0 0 0 0 0 0 0 127 0"/>
<feOffset dy="1.01435"/>
<feColorMatrix type="matrix" values="0 0 0 0 0.286275 0 0 0 0 0.0117647 0 0 0 0 0.0117647 0 0 0 0.15 0"/>
<feBlend mode="normal" in2="BackgroundImageFix" result="effect1_dropShadow"/>
<feBlend mode="normal" in="SourceGraphic" in2="effect1_dropShadow" result="shape"/>
</filter>
<filter id="filter8_i" x="330.247" y="330.616" width="17.9721" height="28.0895" filterUnits="userSpaceOnUse" color-interpolation-filters="sRGB">
<feFlood flood-opacity="0" result="BackgroundImageFix"/>
<feBlend mode="normal" in="SourceGraphic" in2="BackgroundImageFix" result="shape"/>
<feColorMatrix in="SourceAlpha" type="matrix" values="0 0 0 0 0 0 0 0 0 0 0 0 0 0 0 0 0 0 127 0" result="hardAlpha"/>
<feOffset dy="-1.72044"/>
<feComposite in2="hardAlpha" operator="arithmetic" k2="-1" k3="1"/>
<feColorMatrix type="matrix" values="0 0 0 0 0 0 0 0 0 0 0 0 0 0 0 0 0 0 0.25 0"/>
<feBlend mode="normal" in2="shape" result="effect1_innerShadow"/>
</filter>
<filter id="filter9_i" x="282.678" y="329.571" width="18.1957" height="28.1934" filterUnits="userSpaceOnUse" color-interpolation-filters="sRGB">
<feFlood flood-opacity="0" result="BackgroundImageFix"/>
<feBlend mode="normal" in="SourceGraphic" in2="BackgroundImageFix" result="shape"/>
<feColorMatrix in="SourceAlpha" type="matrix" values="0 0 0 0 0 0 0 0 0 0 0 0 0 0 0 0 0 0 127 0" result="hardAlpha"/>
<feOffset dy="-1.72044"/>
<feComposite in2="hardAlpha" operator="arithmetic" k2="-1" k3="1"/>
<feColorMatrix type="matrix" values="0 0 0 0 0 0 0 0 0 0 0 0 0 0 0 0 0 0 0.25 0"/>
<feBlend mode="normal" in2="shape" result="effect1_innerShadow"/>
</filter>
<filter id="filter10_i" x="333.8" y="326.278" width="10.8961" height="14.3636" filterUnits="userSpaceOnUse" color-interpolation-filters="sRGB">
<feFlood flood-opacity="0" result="BackgroundImageFix"/>
<feBlend mode="normal" in="SourceGraphic" in2="BackgroundImageFix" result="shape"/>
<feColorMatrix in="SourceAlpha" type="matrix" values="0 0 0 0 0 0 0 0 0 0 0 0 0 0 0 0 0 0 127 0" result="hardAlpha"/>
<feOffset dy="3.46749"/>
<feGaussianBlur stdDeviation="1.73375"/>
<feComposite in2="hardAlpha" operator="arithmetic" k2="-1" k3="1"/>
<feColorMatrix type="matrix" values="0 0 0 0 0 0 0 0 0 0 0 0 0 0 0 0 0 0 0.25 0"/>
<feBlend mode="normal" in2="shape" result="effect1_innerShadow"/>
</filter>
<filter id="filter11_i" x="287.446" y="325.039" width="11.3422" height="14.9713" filterUnits="userSpaceOnUse" color-interpolation-filters="sRGB">
<feFlood flood-opacity="0" result="BackgroundImageFix"/>
<feBlend mode="normal" in="SourceGraphic" in2="BackgroundImageFix" result="shape"/>
<feColorMatrix in="SourceAlpha" type="matrix" values="0 0 0 0 0 0 0 0 0 0 0 0 0 0 0 0 0 0 127 0" result="hardAlpha"/>
<feOffset dy="3.46749"/>
<feGaussianBlur stdDeviation="1.73375"/>
<feComposite in2="hardAlpha" operator="arithmetic" k2="-1" k3="1"/>
<feColorMatrix type="matrix" values="0 0 0 0 0 0 0 0 0 0 0 0 0 0 0 0 0 0 0.25 0"/>
<feBlend mode="normal" in2="shape" result="effect1_innerShadow"/>
</filter>
<filter id="filter12_d" x="353.441" y="213.585" width="10.2814" height="8.46556" filterUnits="userSpaceOnUse" color-interpolation-filters="sRGB">
<feFlood flood-opacity="0" result="BackgroundImageFix"/>
<feColorMatrix in="SourceAlpha" type="matrix" values="0 0 0 0 0 0 0 0 0 0 0 0 0 0 0 0 0 0 127 0"/>
<feOffset dy="2.47892"/>
<feGaussianBlur stdDeviation="1.23946"/>
<feColorMatrix type="matrix" values="0 0 0 0 0 0 0 0 0 0 0 0 0 0 0 0 0 0 0.25 0"/>
<feBlend mode="normal" in2="BackgroundImageFix" result="effect1_dropShadow"/>
<feBlend mode="normal" in="SourceGraphic" in2="effect1_dropShadow" result="shape"/>
</filter>
<filter id="filter13_d" x="355.493" y="215.928" width="6.33494" height="6.09321" filterUnits="userSpaceOnUse" color-interpolation-filters="sRGB">
<feFlood flood-opacity="0" result="BackgroundImageFix"/>
<feColorMatrix in="SourceAlpha" type="matrix" values="0 0 0 0 0 0 0 0 0 0 0 0 0 0 0 0 0 0 127 0"/>
<feOffset dy="2.47892"/>
<feGaussianBlur stdDeviation="1.23946"/>
<feColorMatrix type="matrix" values="0 0 0 0 0 0 0 0 0 0 0 0 0 0 0 0 0 0 0.25 0"/>
<feBlend mode="normal" in2="BackgroundImageFix" result="effect1_dropShadow"/>
<feBlend mode="normal" in="SourceGraphic" in2="effect1_dropShadow" result="shape"/>
</filter>
<filter id="filter14_d" x="263.768" y="199.82" width="13.1613" height="10.5981" filterUnits="userSpaceOnUse" color-interpolation-filters="sRGB">
<feFlood flood-opacity="0" result="BackgroundImageFix"/>
<feColorMatrix in="SourceAlpha" type="matrix" values="0 0 0 0 0 0 0 0 0 0 0 0 0 0 0 0 0 0 127 0"/>
<feOffset dx="0.13476" dy="0.269521"/>
<feGaussianBlur stdDeviation="0.13476"/>
<feColorMatrix type="matrix" values="0 0 0 0 0.7375 0 0 0 0 0.539297 0 0 0 0 0.359531 0 0 0 0.56 0"/>
<feBlend mode="normal" in2="BackgroundImageFix" result="effect1_dropShadow"/>
<feBlend mode="normal" in="SourceGraphic" in2="effect1_dropShadow" result="shape"/>
</filter>
<linearGradient id="paint0_linear" x1="219" y1="0" x2="219" y2="438" gradientUnits="userSpaceOnUse">
<stop stop-color="white"/>
<stop offset="1" stop-color="#E9E9E9"/>
</linearGradient>
<linearGradient id="paint1_linear" x1="89.1015" y1="323.268" x2="88.9977" y2="343.574" gradientUnits="userSpaceOnUse">
<stop stop-color="#FEFBFB"/>
<stop offset="1" stop-color="#EEE9E9"/>
</linearGradient>
<linearGradient id="paint2_linear" x1="168.926" y1="328.939" x2="168.926" y2="359.369" gradientUnits="userSpaceOnUse">
<stop stop-color="#FEFBFB"/>
<stop offset="1" stop-color="#EEE9E9"/>
</linearGradient>
<linearGradient id="paint3_linear" x1="327.981" y1="79" x2="327.981" y2="96.968" gradientUnits="userSpaceOnUse">
<stop stop-color="#BDBDBD"/>
<stop offset="1" stop-color="#999999"/>
</linearGradient>
<linearGradient id="paint4_linear" x1="310.191" y1="79" x2="310.191" y2="96.9744" gradientUnits="userSpaceOnUse">
<stop stop-color="#BDBDBD"/>
<stop offset="1" stop-color="#999999"/>
</linearGradient>
</defs>
</svg>
