<?xml version="1.0" encoding="UTF-8"?>
<!DOCTYPE svg PUBLIC "-//W3C//DTD SVG 1.1//EN" "http://www.w3.org/Graphics/SVG/1.1/DTD/svg11.dtd">
<!-- Creator: CorelDRAW X7 -->
<svg xmlns="http://www.w3.org/2000/svg" xml:space="preserve" width="2350px" height="1080px" version="1.1" style="shape-rendering:geometricPrecision; text-rendering:geometricPrecision; image-rendering:optimizeQuality; fill-rule:evenodd; clip-rule:evenodd"
viewBox="0 0 2350 1080"
 xmlns:xlink="http://www.w3.org/1999/xlink">
 <defs>
  <style type="text/css">
   <![CDATA[
    .fil1 {fill:#D1DC05}
    .fil0 {fill:#18B3AB}
    .fil2 {fill:#222222}
   ]]>
  </style>
 </defs>
 <g id="Layer_x0020_1">
  <metadata id="CorelCorpID_0Corel-Layer"/>
  <g id="_2319919527952">
   <path class="fil0" d="M699 912l0 4c0,90 -74,164 -165,164l0 0c-90,0 -164,-74 -164,-164l0 -333 329 329zm-165 -912l0 0c91,0 165,74 165,164l0 4 -329 329 0 -333c0,-90 74,-164 164,-164zm-534 540l0 0c0,-90 74,-164 164,-164l172 0 0 328 -172 0c-90,0 -164,-74 -164,-164z"/>
   <path class="fil1" d="M699 216l0 307 -308 0 308 -307zm33 -34c61,-56 158,-55 217,5l0 0c61,61 61,160 0,221l-115 115 -102 0 0 -341zm102 375l115 115c61,61 61,160 0,221l0 0c-59,60 -156,61 -217,5l0 -341 102 0zm-135 0l0 307 -308 -307 308 0z"/>
   <g>
    <path class="fil2" d="M1198 193l0 44 46 -51c2,-3 4,-5 6,-6 1,-1 3,-2 6,-2 3,0 6,1 8,3 2,3 3,5 3,8 0,4 -2,7 -5,11l-28 29 32 50c2,3 4,6 5,9 2,2 2,5 2,7 0,3 -1,5 -3,7 -2,2 -5,3 -8,3 -3,0 -6,0 -8,-2 -2,-1 -4,-3 -5,-6 -2,-2 -3,-4 -4,-6l-28 -46 -19 20 0 25c0,5 -1,9 -3,12 -2,2 -5,3 -8,3 -2,0 -4,0 -6,-1 -2,-1 -3,-3 -4,-5 -1,-1 -2,-3 -2,-5 0,-2 0,-5 0,-9l0 -92c0,-5 1,-8 3,-11 2,-2 5,-4 9,-4 3,0 6,2 8,4 2,3 3,6 3,11zm172 7l-53 0 0 30 49 0c3,0 6,1 7,2 2,2 3,4 3,7 0,3 -1,5 -2,7 -2,2 -5,3 -8,3l-49 0 0 35 54 0c4,0 7,1 9,2 2,2 3,5 3,8 0,2 -1,5 -3,7 -2,1 -5,2 -9,2l-63 0c-5,0 -9,-1 -11,-3 -2,-3 -3,-7 -3,-12l0 -92c0,-4 0,-7 1,-9 1,-2 3,-4 5,-5 2,-1 5,-2 8,-2l62 0c3,0 6,1 8,3 2,2 3,4 3,7 0,3 -1,5 -3,7 -2,2 -5,3 -8,3zm70 85l-19 -79 0 85c0,5 0,9 -2,11 -2,2 -5,3 -8,3 -3,0 -6,-1 -8,-3 -2,-2 -3,-6 -3,-11l0 -97c0,-5 1,-9 4,-11 3,-2 6,-3 11,-3l7 0c4,0 7,1 9,2 2,0 4,2 5,4 1,2 2,6 3,11l17 67 16 -67c1,-5 3,-9 3,-11 1,-2 3,-4 5,-4 2,-1 5,-2 9,-2l7 0c5,0 8,1 11,3 3,2 4,6 4,11l0 97c0,5 -1,9 -3,11 -2,2 -5,3 -8,3 -3,0 -5,-1 -7,-3 -2,-2 -3,-6 -3,-11l0 -85 -19 79c-1,5 -2,9 -3,11 -1,2 -2,5 -4,6 -2,2 -5,3 -8,3 -3,0 -5,0 -7,-1 -2,-2 -4,-3 -5,-5 -1,-2 -2,-4 -2,-7 -1,-2 -1,-5 -2,-7zm171 -85l-53 0 0 30 49 0c3,0 6,1 8,2 1,2 2,4 2,7 0,3 -1,5 -2,7 -2,2 -5,3 -8,3l-49 0 0 35 55 0c3,0 6,1 8,2 2,2 3,5 3,8 0,2 -1,5 -3,7 -2,1 -5,2 -8,2l-64 0c-5,0 -8,-1 -11,-3 -2,-3 -3,-7 -3,-12l0 -92c0,-4 0,-7 1,-9 1,-2 3,-4 5,-5 2,-1 5,-2 8,-2l62 0c3,0 6,1 8,3 2,2 3,4 3,7 0,3 -1,5 -3,7 -2,2 -5,3 -8,3zm62 -7l44 73 0 -73c0,-5 1,-9 3,-11 2,-2 5,-4 8,-4 3,0 6,1 8,4 2,2 3,6 3,11l0 96c0,11 -4,16 -13,16 -2,0 -4,0 -5,-1 -2,0 -4,-1 -5,-3 -2,-1 -3,-3 -4,-5 -1,-1 -3,-3 -4,-5l-44 -72 0 72c0,5 -1,8 -3,11 -2,2 -4,3 -8,3 -3,0 -6,-1 -8,-3 -2,-3 -3,-6 -3,-11l0 -95c0,-4 1,-7 2,-9 1,-3 2,-5 5,-6 2,-2 4,-3 7,-3 2,0 4,1 6,1 1,1 2,2 3,3 2,2 3,3 4,5 1,2 2,4 4,6zm166 8l-25 0 0 89c0,5 -1,9 -4,12 -2,2 -5,3 -8,3 -3,0 -6,-1 -8,-3 -3,-3 -4,-7 -4,-12l0 -89 -25 0c-4,0 -7,-1 -9,-3 -2,-2 -3,-4 -3,-7 0,-3 1,-6 3,-8 2,-2 5,-3 9,-3l74 0c4,0 7,1 9,3 2,2 3,5 3,8 0,3 -1,5 -3,7 -2,2 -5,3 -9,3zm102 -1l-53 0 0 30 48 0c4,0 7,1 8,2 2,2 3,4 3,7 0,3 -1,5 -3,7 -1,2 -4,3 -8,3l-48 0 0 35 54 0c4,0 7,1 9,2 1,2 2,5 2,8 0,2 -1,5 -2,7 -2,1 -5,2 -9,2l-63 0c-5,0 -9,-1 -11,-3 -2,-3 -3,-7 -3,-12l0 -92c0,-4 0,-7 1,-9 1,-2 3,-4 5,-5 2,-1 5,-2 8,-2l62 0c3,0 6,1 8,3 2,2 3,4 3,7 0,3 -1,5 -3,7 -2,2 -5,3 -8,3zm62 51l-8 0 0 39c0,5 -1,9 -3,12 -2,2 -5,3 -9,3 -3,0 -6,-1 -8,-3 -2,-3 -3,-7 -3,-12l0 -94c0,-6 1,-10 3,-12 2,-2 6,-4 11,-4l38 0c5,0 10,1 13,1 4,1 7,2 10,3 4,2 7,4 10,7 3,3 5,6 6,10 2,4 2,9 2,13 0,9 -2,17 -7,22 -5,6 -12,10 -22,12 4,2 8,6 12,10 4,5 7,10 10,15 3,5 5,10 7,14 2,4 3,7 3,8 0,2 -1,4 -2,5 -1,2 -2,3 -4,4 -2,1 -4,1 -6,1 -2,0 -5,0 -6,-2 -2,-1 -4,-3 -5,-5 -1,-2 -3,-5 -5,-8l-9 -17c-4,-6 -7,-11 -9,-14 -3,-3 -6,-5 -8,-6 -3,-2 -7,-2 -11,-2zm14 -52l-22 0 0 34 21 0c6,0 10,-1 14,-2 4,-1 7,-2 9,-5 2,-2 3,-6 3,-10 0,-4 -1,-7 -3,-9 -1,-3 -3,-5 -6,-6 -3,-1 -8,-2 -16,-2zm71 91l0 -97c0,-5 2,-8 4,-11 2,-2 5,-4 8,-4 4,0 6,2 9,4 2,3 3,6 3,11l0 97c0,5 -1,9 -3,12 -3,2 -5,3 -9,3 -3,0 -6,-1 -8,-3 -2,-3 -4,-7 -4,-12zm123 -1l-5 -15 -47 0 -5 16c-2,6 -4,10 -6,12 -1,2 -4,3 -7,3 -3,0 -6,-1 -8,-3 -2,-2 -3,-5 -3,-8 0,-2 0,-3 0,-5 1,-2 2,-4 3,-7l29 -80c1,-3 2,-5 3,-9 2,-3 3,-5 4,-8 2,-2 3,-3 5,-5 3,-1 5,-2 9,-2 3,0 5,1 8,2 2,2 4,3 5,5 1,2 2,5 3,7 1,2 2,6 4,10l30 79c2,6 3,10 3,13 0,3 -1,5 -3,8 -2,2 -5,3 -8,3 -2,0 -3,0 -5,-1 -1,0 -2,-1 -3,-2 -1,-2 -2,-4 -3,-6 -1,-3 -2,-5 -3,-7zm-46 -34l35 0 -18 -50 -17 50zm119 -62l45 73 0 -73c0,-5 1,-9 2,-11 2,-2 5,-4 8,-4 4,0 6,1 8,4 2,2 3,6 3,11l0 96c0,11 -4,16 -13,16 -2,0 -4,0 -5,-1 -2,0 -3,-1 -5,-3 -1,-1 -3,-3 -4,-5 -1,-1 -2,-3 -4,-5l-43 -72 0 72c0,5 -1,8 -3,11 -3,2 -5,3 -8,3 -4,0 -6,-1 -8,-3 -2,-3 -3,-6 -3,-11l0 -95c0,-4 0,-7 1,-9 1,-3 3,-5 5,-6 2,-2 5,-3 7,-3 3,0 4,1 6,1 1,1 3,2 4,3 1,2 2,3 3,5 1,2 3,4 4,6zm-1086 199l0 43 46 -51c2,-2 4,-4 6,-5 1,-1 3,-2 6,-2 3,0 6,1 8,3 2,2 3,5 3,8 0,4 -2,7 -5,11l-28 28 32 50c2,4 4,7 5,9 2,3 2,6 2,8 0,3 -1,5 -3,7 -2,2 -5,3 -8,3 -3,0 -6,-1 -8,-2 -2,-1 -4,-3 -5,-6 -2,-2 -3,-5 -4,-7l-28 -45 -19 20 0 25c0,5 -1,9 -3,11 -2,3 -5,4 -8,4 -2,0 -4,0 -6,-1 -2,-2 -3,-3 -4,-5 -1,-2 -2,-3 -2,-5 0,-3 0,-6 0,-9l0 -92c0,-5 1,-9 3,-11 2,-3 5,-4 9,-4 3,0 6,1 8,4 2,2 3,6 3,11zm172 6l-53 0 0 31 49 0c3,0 6,0 7,2 2,2 3,4 3,7 0,3 -1,5 -2,7 -2,1 -5,2 -8,2l-49 0 0 35 54 0c4,0 7,1 9,3 2,2 3,4 3,7 0,3 -1,6 -3,7 -2,2 -5,3 -9,3l-63 0c-5,0 -9,-1 -11,-3 -2,-3 -3,-7 -3,-12l0 -93c0,-3 0,-6 1,-8 1,-3 3,-4 5,-5 2,-1 5,-2 8,-2l62 0c3,0 6,1 8,3 2,2 3,4 3,7 0,3 -1,5 -3,7 -2,2 -5,2 -8,2zm119 67c0,8 -2,14 -6,20 -3,6 -9,11 -16,14 -7,4 -15,5 -24,5 -12,0 -21,-2 -28,-7 -5,-3 -10,-7 -13,-13 -3,-5 -5,-11 -5,-16 0,-3 1,-5 3,-8 2,-2 5,-3 8,-3 2,0 4,1 6,3 1,1 3,4 4,7 2,4 3,7 5,10 2,3 4,5 7,6 3,2 7,3 12,3 7,0 13,-2 17,-5 4,-4 7,-8 7,-13 0,-4 -2,-7 -4,-10 -2,-3 -5,-4 -9,-6 -4,-1 -9,-3 -15,-4 -8,-2 -15,-5 -21,-7 -5,-3 -10,-7 -13,-12 -3,-4 -5,-10 -5,-18 0,-6 2,-12 5,-18 4,-5 9,-9 15,-12 7,-3 15,-4 24,-4 7,0 13,1 18,3 5,2 9,4 13,7 3,3 6,7 7,10 2,4 3,7 3,10 0,3 -1,6 -3,8 -2,3 -5,4 -8,4 -2,0 -4,-1 -6,-2 -1,-2 -3,-4 -4,-7 -2,-5 -5,-9 -8,-11 -3,-3 -8,-4 -14,-4 -6,0 -11,1 -15,4 -3,3 -5,6 -5,10 0,3 0,5 2,7 1,1 3,3 5,4 2,1 4,2 7,3 2,1 6,2 11,3 6,2 12,4 17,6 6,2 10,4 14,7 3,3 6,6 8,11 2,4 4,9 4,15zm95 -67l-52 0 0 31 48 0c3,0 6,0 8,2 2,2 3,4 3,7 0,3 -1,5 -3,7 -2,1 -4,2 -8,2l-48 0 0 35 54 0c4,0 6,1 8,3 2,2 3,4 3,7 0,3 -1,6 -3,7 -2,2 -4,3 -8,3l-63 0c-6,0 -9,-1 -11,-3 -3,-3 -4,-7 -4,-12l0 -93c0,-3 1,-6 2,-8 1,-3 2,-4 4,-5 3,-1 5,-2 9,-2l61 0c4,0 7,1 8,3 2,2 3,4 3,7 0,3 -1,5 -3,7 -1,2 -4,2 -8,2zm55 -6l0 35 50 0 0 -35c0,-5 1,-9 3,-11 3,-3 5,-4 9,-4 3,0 6,1 8,4 2,2 4,6 4,11l0 97c0,5 -2,9 -4,11 -2,3 -5,4 -8,4 -4,0 -7,-1 -9,-4 -2,-2 -3,-6 -3,-11l0 -41 -50 0 0 41c0,5 -1,9 -3,11 -3,3 -5,4 -9,4 -3,0 -6,-1 -8,-4 -2,-2 -3,-6 -3,-11l0 -97c0,-5 1,-9 3,-11 2,-3 5,-4 8,-4 4,0 7,1 9,4 2,2 3,6 3,11zm172 96l-5 -15 -47 0 -6 16c-2,6 -3,10 -5,12 -2,2 -4,3 -7,3 -3,0 -6,-1 -8,-3 -2,-3 -4,-5 -4,-8 0,-2 1,-3 1,-5 1,-2 2,-5 3,-8l29 -80c1,-2 2,-5 3,-8 1,-3 3,-6 4,-8 1,-2 3,-4 5,-5 2,-1 5,-2 8,-2 4,0 6,1 8,2 3,1 4,3 6,5 1,2 2,4 3,7 1,2 2,5 4,9l30 80c2,6 3,10 3,13 0,3 -1,5 -3,8 -2,2 -5,3 -8,3 -2,0 -4,0 -5,-1 -1,-1 -2,-1 -3,-3 -1,-1 -2,-3 -3,-5 -1,-3 -2,-5 -3,-7zm-46 -34l34 0 -17 -51 -17 51zm149 -54l-26 0 0 89c0,5 -1,9 -3,11 -2,3 -5,4 -8,4 -4,0 -6,-1 -9,-4 -2,-2 -3,-6 -3,-11l0 -89 -25 0c-4,0 -7,-1 -9,-3 -2,-2 -3,-4 -3,-8 0,-3 1,-5 3,-7 2,-2 5,-3 9,-3l74 0c4,0 7,1 9,3 2,2 3,4 3,7 0,4 -1,6 -3,8 -2,2 -5,3 -9,3zm89 88l-5 -15 -47 0 -6 16c-2,6 -4,10 -5,12 -2,2 -4,3 -8,3 -3,0 -5,-1 -7,-3 -3,-3 -4,-5 -4,-8 0,-2 0,-3 1,-5 1,-2 1,-5 3,-8l29 -80c1,-2 2,-5 3,-8 1,-3 2,-6 4,-8 1,-2 3,-4 5,-5 2,-1 5,-2 8,-2 3,0 6,1 8,2 2,1 4,3 5,5 2,2 3,4 4,7 1,2 2,5 3,9l30 80c3,6 4,10 4,13 0,3 -1,5 -3,8 -3,2 -5,3 -8,3 -2,0 -4,0 -5,-1 -1,-1 -3,-1 -3,-3 -1,-1 -2,-3 -3,-5 -1,-3 -2,-5 -3,-7zm-46 -34l34 0 -17 -51 -17 51zm118 -62l45 73 0 -74c0,-4 1,-8 3,-10 2,-3 5,-4 8,-4 3,0 6,1 8,4 2,2 3,6 3,10l0 97c0,11 -5,16 -13,16 -2,0 -4,0 -6,-1 -1,0 -3,-1 -4,-3 -2,-1 -3,-3 -4,-5 -2,-2 -3,-4 -4,-5l-44 -72 0 72c0,5 -1,8 -3,11 -2,2 -5,3 -8,3 -3,0 -6,-1 -8,-3 -2,-3 -3,-6 -3,-11l0 -95c0,-4 1,-7 2,-9 1,-3 2,-5 5,-7 2,-1 4,-2 7,-2 2,0 4,0 5,1 2,1 3,2 4,3 1,1 3,3 4,5 1,2 2,4 3,6zm-869 256l-8 0 0 40c0,5 -1,9 -3,11 -2,3 -5,4 -9,4 -3,0 -6,-1 -8,-4 -2,-2 -3,-6 -3,-11l0 -95c0,-5 1,-9 3,-11 2,-3 6,-4 11,-4l38 0c5,0 10,0 13,1 4,0 7,1 10,3 4,1 7,3 10,7 3,3 5,6 6,10 2,4 2,8 2,13 0,9 -2,16 -7,22 -5,5 -12,9 -22,11 4,3 8,6 12,11 4,4 7,9 10,14 3,6 5,10 7,14 2,5 2,7 2,9 0,2 0,3 -1,5 -1,1 -2,3 -4,4 -2,1 -4,1 -6,1 -2,0 -5,-1 -6,-2 -2,-1 -4,-3 -5,-5 -1,-2 -3,-5 -5,-9l-9 -16c-4,-7 -7,-11 -9,-14 -3,-4 -6,-6 -9,-7 -2,-1 -6,-2 -10,-2zm14 -51l-22 0 0 34 21 0c6,0 10,-1 14,-2 4,-1 7,-3 9,-5 2,-3 3,-6 3,-11 0,-3 -1,-6 -3,-9 -1,-2 -3,-4 -6,-6 -3,-1 -8,-1 -16,-1zm146 0l-52 0 0 30 48 0c4,0 6,1 8,3 2,2 3,4 3,7 0,2 -1,5 -3,6 -2,2 -4,3 -8,3l-48 0 0 35 54 0c4,0 7,1 8,3 2,2 3,4 3,7 0,3 -1,5 -3,7 -1,2 -4,3 -8,3l-63 0c-5,0 -9,-1 -11,-4 -2,-2 -3,-6 -3,-11l0 -93c0,-3 0,-6 1,-9 1,-2 3,-3 5,-5 2,-1 4,-1 8,-1l61 0c4,0 7,1 9,3 1,1 2,4 2,7 0,2 -1,5 -2,7 -2,1 -5,2 -9,2zm76 56l-21 0 0 35c0,5 -1,9 -3,11 -2,3 -5,4 -9,4 -3,0 -6,-1 -8,-4 -2,-2 -3,-6 -3,-11l0 -95c0,-5 1,-9 3,-12 3,-2 6,-3 11,-3l30 0c9,0 16,1 21,2 4,2 9,4 12,7 3,3 6,7 8,12 2,5 2,10 2,16 0,12 -3,22 -10,28 -8,7 -18,10 -33,10zm-5 -56l-16 0 0 37 16 0c5,0 10,0 14,-2 3,-1 6,-3 8,-6 2,-2 3,-6 3,-11 0,-5 -2,-9 -5,-13 -3,-4 -10,-5 -20,-5zm68 53l0 -59c0,-5 1,-9 3,-11 2,-3 5,-4 9,-4 3,0 6,1 8,4 2,2 3,6 3,11l0 60c0,7 1,13 3,18 1,4 4,8 7,10 4,3 9,4 16,4 9,0 15,-2 19,-8 4,-5 6,-13 6,-23l0 -61c0,-5 1,-9 3,-11 2,-3 5,-4 8,-4 4,0 6,1 9,4 2,2 3,6 3,11l0 59c0,10 -1,18 -3,24 -2,7 -5,12 -10,17 -4,4 -9,7 -14,9 -6,2 -12,3 -20,3 -9,0 -16,-1 -23,-3 -6,-2 -11,-5 -15,-10 -4,-4 -7,-9 -9,-16 -2,-7 -3,-15 -3,-24z"/>
    <path class="fil2" d="M1676 701l-35 0c-5,0 -9,-1 -11,-4 -2,-2 -3,-6 -3,-11l0 -93c0,-5 1,-9 3,-11 2,-3 6,-4 11,-4l37 0c6,0 11,0 15,1 4,1 7,2 10,4 3,2 6,4 8,7 2,2 3,5 4,9 2,3 2,6 2,10 0,12 -6,21 -17,27 15,5 22,15 22,30 0,7 -1,13 -4,18 -4,6 -8,10 -14,13 -3,1 -7,2 -12,3 -4,1 -10,1 -16,1zm-2 -55l-24 0 0 36 25 0c16,0 24,-6 24,-18 0,-6 -2,-11 -6,-14 -4,-2 -10,-4 -19,-4zm-24 -49l0 31 22 0c5,0 10,0 13,-1 3,-2 6,-4 7,-7 2,-2 2,-5 2,-8 0,-6 -2,-10 -6,-12 -4,-2 -10,-3 -19,-3l-19 0zm115 -6l0 89 48 0c3,0 6,1 8,3 2,2 3,5 3,8 0,3 -1,5 -3,7 -2,2 -5,3 -8,3l-57 0c-5,0 -8,-1 -11,-4 -2,-2 -3,-6 -3,-11l0 -95c0,-5 1,-9 3,-11 2,-3 5,-4 9,-4 3,0 6,1 8,4 2,2 3,6 3,11zm76 97l0 -97c0,-5 1,-9 3,-11 2,-3 5,-4 8,-4 4,0 7,1 9,4 2,2 3,6 3,11l0 97c0,5 -1,9 -3,11 -2,3 -5,4 -9,4 -3,0 -6,-1 -8,-4 -2,-2 -3,-6 -3,-11zm72 -97l0 43 46 -51c2,-2 4,-4 6,-5 1,-2 3,-2 6,-2 3,0 6,1 8,3 2,2 3,5 3,8 0,3 -2,7 -5,11l-28 28 32 50c3,4 4,7 5,9 2,3 2,5 2,8 0,3 -1,5 -3,7 -2,2 -5,3 -8,3 -3,0 -6,-1 -8,-2 -2,-2 -4,-4 -5,-6 -2,-3 -3,-5 -4,-7l-27 -45 -20 19 0 26c0,5 -1,9 -3,11 -2,3 -5,4 -8,4 -2,0 -4,-1 -6,-2 -2,-1 -3,-2 -4,-4 -1,-2 -1,-4 -2,-6 0,-2 0,-5 0,-9l0 -91c0,-5 1,-9 3,-11 2,-3 5,-4 9,-4 3,0 6,1 8,4 2,2 3,6 3,11zm-737 296l0 -97c0,-5 1,-9 3,-12 2,-2 5,-3 8,-3 4,0 7,1 9,3 2,3 3,7 3,12l0 97c0,5 -1,8 -3,11 -2,3 -5,4 -9,4 -3,0 -6,-1 -8,-4 -2,-3 -3,-6 -3,-11zm80 -97l44 72 0 -73c0,-5 1,-8 3,-11 2,-2 5,-3 8,-3 3,0 6,1 8,3 2,3 3,6 3,11l0 97c0,10 -4,16 -13,16 -2,0 -4,-1 -5,-1 -2,-1 -4,-2 -5,-3 -2,-2 -3,-3 -4,-5 -1,-2 -3,-4 -4,-6l-44 -71 0 72c0,4 -1,8 -3,10 -2,3 -4,4 -8,4 -3,0 -5,-1 -7,-4 -2,-2 -3,-6 -3,-10l0 -95c0,-4 0,-7 1,-10 1,-2 2,-4 5,-6 2,-2 5,-2 7,-2 2,0 4,0 6,1 1,1 2,1 4,3 1,1 2,3 3,4 1,2 2,4 4,7zm106 -13l30 0c8,0 15,1 20,2 6,2 11,5 16,9 12,11 18,28 18,50 0,7 -1,14 -2,20 -1,6 -3,12 -5,17 -3,5 -6,9 -10,13 -3,3 -7,5 -10,7 -4,2 -8,3 -12,4 -4,0 -9,1 -14,1l-31 0c-4,0 -7,-1 -9,-2 -2,-2 -4,-4 -4,-6 -1,-3 -1,-6 -1,-10l0 -90c0,-5 1,-9 3,-12 2,-2 6,-3 11,-3zm9 19l0 84 17 0c4,0 7,0 10,0 2,-1 4,-1 6,-2 3,-1 5,-2 7,-4 7,-7 11,-19 11,-36 0,-12 -1,-21 -5,-28 -3,-6 -8,-9 -13,-11 -5,-2 -11,-3 -18,-3l-15 0zm146 -21c12,0 22,2 31,7 8,6 15,13 19,22 4,10 7,21 7,34 0,10 -2,18 -4,26 -2,8 -6,14 -11,20 -5,6 -10,10 -18,13 -7,3 -15,5 -24,5 -9,0 -17,-2 -24,-5 -7,-3 -13,-7 -18,-13 -4,-6 -8,-12 -10,-20 -3,-8 -4,-17 -4,-26 0,-10 1,-18 4,-26 2,-8 6,-15 11,-20 5,-6 11,-10 17,-13 7,-3 15,-4 24,-4zm33 63c0,-9 -1,-17 -4,-24 -3,-6 -7,-11 -12,-15 -5,-3 -11,-5 -17,-5 -5,0 -9,1 -13,3 -4,2 -7,5 -10,8 -3,4 -5,9 -7,14 -2,6 -2,12 -2,19 0,7 0,13 2,19 2,6 4,10 7,14 3,4 7,6 10,8 4,2 9,3 13,3 6,0 12,-2 17,-5 5,-3 9,-8 12,-15 3,-6 4,-14 4,-24zm74 -48l45 72 0 -73c0,-5 1,-8 3,-11 2,-2 4,-3 7,-3 4,0 6,1 8,3 2,3 3,6 3,11l0 97c0,10 -4,16 -12,16 -2,0 -4,-1 -6,-1 -2,-1 -3,-2 -5,-3 -1,-2 -2,-3 -4,-5 -1,-2 -2,-4 -4,-6l-43 -71 0 72c0,4 -1,8 -3,10 -2,3 -5,4 -8,4 -3,0 -6,-1 -8,-4 -2,-2 -3,-6 -3,-10l0 -95c0,-4 0,-7 1,-10 1,-2 3,-4 5,-6 2,-2 5,-2 8,-2 2,0 3,0 5,1 1,1 3,1 4,3 1,1 2,3 3,4 2,2 3,4 4,7zm168 6l-53 0 0 30 48 0c4,0 7,1 8,3 2,1 3,4 3,6 0,3 -1,6 -3,7 -1,2 -4,3 -8,3l-48 0 0 35 54 0c4,0 7,1 9,3 1,1 2,4 2,7 0,3 -1,5 -2,7 -2,2 -5,3 -9,3l-63 0c-5,0 -9,-1 -11,-4 -2,-2 -3,-6 -3,-12l0 -92c0,-4 0,-7 1,-9 1,-2 3,-4 5,-5 2,-1 5,-1 8,-1l62 0c3,0 6,1 8,2 2,2 3,4 3,7 0,3 -1,6 -3,7 -2,2 -5,3 -8,3zm118 67c0,7 -1,14 -5,20 -4,6 -9,10 -16,14 -7,3 -15,5 -24,5 -12,0 -21,-3 -28,-7 -6,-3 -10,-8 -13,-13 -3,-6 -5,-11 -5,-16 0,-3 1,-6 3,-8 2,-2 4,-3 7,-3 3,0 5,1 7,2 1,2 3,4 4,8 1,4 3,7 5,9 1,3 4,5 7,7 3,2 7,3 12,3 7,0 13,-2 17,-6 4,-3 6,-7 6,-12 0,-5 -1,-8 -3,-10 -2,-3 -5,-5 -9,-6 -4,-2 -9,-3 -15,-5 -8,-2 -15,-4 -21,-7 -5,-3 -10,-6 -13,-11 -3,-5 -5,-11 -5,-18 0,-7 2,-13 5,-18 4,-5 9,-9 15,-12 7,-3 15,-4 23,-4 7,0 14,1 19,2 5,2 9,5 13,8 3,3 5,6 7,10 2,3 2,6 2,10 0,3 -1,5 -3,8 -2,2 -4,3 -7,3 -3,0 -5,0 -6,-2 -1,-1 -3,-4 -5,-7 -2,-5 -4,-8 -7,-11 -3,-2 -8,-4 -14,-4 -6,0 -11,2 -15,5 -3,2 -5,6 -5,10 0,2 0,4 2,6 1,2 3,3 5,5 2,1 4,2 6,3 3,1 6,2 12,3 6,2 12,3 17,5 5,2 10,5 14,8 3,2 6,6 8,10 2,4 3,10 3,16zm21 24l0 -97c0,-5 1,-9 3,-12 2,-2 5,-3 9,-3 3,0 6,1 8,3 2,3 3,7 3,12l0 97c0,5 -1,8 -3,11 -2,3 -5,4 -8,4 -4,0 -6,-1 -9,-4 -2,-3 -3,-6 -3,-11zm123 -1l-5 -16 -47 0 -6 16c-2,6 -4,10 -5,13 -2,2 -4,3 -8,3 -3,0 -5,-1 -7,-4 -3,-2 -4,-5 -4,-7 0,-2 0,-4 1,-6 1,-1 1,-4 3,-7l29 -80c1,-2 2,-5 3,-8 1,-3 2,-6 4,-8 1,-2 3,-4 5,-5 2,-2 5,-2 8,-2 3,0 6,0 8,2 2,1 4,3 5,5 2,2 3,4 4,6 1,3 2,6 3,10l30 79c3,6 4,11 4,13 0,3 -1,6 -3,8 -3,3 -5,4 -8,4 -2,0 -4,-1 -5,-1 -1,-1 -3,-2 -3,-3 -1,-1 -2,-3 -3,-6 -1,-2 -2,-4 -3,-6zm-46 -34l34 0 -17 -51 -17 51z"/>
   </g>
  </g>
 </g>
</svg>
