<svg width="272" height="54" viewBox="0 0 272 54" fill="none" xmlns="http://www.w3.org/2000/svg">
<path fill-rule="evenodd" clip-rule="evenodd" d="M37.2654 43.9944V44.1772C37.2654 48.2887 33.8244 51.6693 29.593 51.6693C25.4081 51.6693 21.9671 48.2887 21.9671 44.1772V28.9644L37.2654 43.9944ZM29.593 2.33069C33.8244 2.33069 37.2654 5.71129 37.2654 9.82287V10.0056L21.9671 25.0356V9.82287C21.9671 5.71129 25.4081 2.33069 29.593 2.33069ZM4.76239 27C4.76239 22.8885 8.20333 19.5079 12.3883 19.5079H20.3862V34.4922H12.3883C8.20333 34.4922 4.76239 31.1116 4.76239 27Z" fill="#18B3AB"/>
<path fill-rule="evenodd" clip-rule="evenodd" d="M37.2654 12.1984V26.2234H22.9436L37.2654 12.1984ZM38.7998 10.6452C41.6363 8.08688 46.1467 8.13257 48.8902 10.8736C51.7266 13.6603 51.7266 18.183 48.8902 20.9698L43.5428 26.2234H38.7998V10.6452ZM43.5428 27.7767L48.8902 33.0303C51.7266 35.817 51.7266 40.3397 48.8902 43.1265C46.1467 45.8675 41.6363 45.9132 38.7998 43.3549V27.7767H43.5428ZM37.2654 27.7767V41.8016L22.9436 27.7767H37.2654Z" fill="#D1DC05"/>
<path fill-rule="evenodd" clip-rule="evenodd" d="M60.4685 11.1477V13.1578L62.6075 10.8279C62.7005 10.6909 62.7935 10.5995 62.8865 10.5538C62.933 10.5081 63.026 10.4624 63.1655 10.4624C63.305 10.4624 63.4445 10.5081 63.5375 10.5995C63.6305 10.7365 63.677 10.8279 63.677 10.965C63.677 11.1477 63.584 11.2847 63.4445 11.4675L62.1425 12.7923L63.6305 15.0765C63.7235 15.2136 63.8164 15.3506 63.863 15.4877C63.956 15.579 63.956 15.7161 63.956 15.8074C63.956 15.9445 63.9095 16.0359 63.8164 16.1272C63.7235 16.2186 63.584 16.2643 63.4445 16.2643C63.305 16.2643 63.1655 16.2643 63.0725 16.1729C62.9795 16.1272 62.8865 16.0359 62.84 15.8988C62.747 15.8074 62.7005 15.7161 62.654 15.6247L61.352 13.5233L60.4685 14.4369V15.579C60.4685 15.8074 60.422 15.9902 60.329 16.1272C60.236 16.2186 60.0965 16.2643 59.957 16.2643C59.864 16.2643 59.771 16.2643 59.678 16.2186C59.585 16.1729 59.5385 16.0816 59.492 15.9902C59.4455 15.9445 59.399 15.8531 59.399 15.7618C59.399 15.6704 59.399 15.5333 59.399 15.3506V11.1477C59.399 10.9193 59.4455 10.7822 59.5385 10.6452C59.6315 10.5538 59.771 10.4624 59.957 10.4624C60.0965 10.4624 60.236 10.5538 60.329 10.6452C60.422 10.7822 60.4685 10.9193 60.4685 11.1477ZM68.4664 11.4675H66.0019V12.838H68.2804C68.4199 12.838 68.5594 12.8837 68.6059 12.9294C68.6989 13.0207 68.7454 13.1121 68.7454 13.2491C68.7454 13.3862 68.6989 13.4776 68.6524 13.5689C68.5594 13.6603 68.4199 13.706 68.2804 13.706H66.0019V15.3049H68.5129C68.6989 15.3049 68.8384 15.3506 68.9314 15.3963C69.0244 15.4877 69.0709 15.6247 69.0709 15.7618C69.0709 15.8531 69.0244 15.9902 68.9314 16.0816C68.8384 16.1272 68.6989 16.1729 68.5129 16.1729H65.5834C65.3509 16.1729 65.1649 16.1272 65.0719 16.0359C64.9789 15.8988 64.9325 15.7161 64.9325 15.4877V11.2847C64.9325 11.102 64.9325 10.965 64.9789 10.8736C65.0254 10.7822 65.1184 10.6909 65.2115 10.6452C65.3044 10.5995 65.4439 10.5538 65.5834 10.5538H68.4664C68.6059 10.5538 68.7454 10.5995 68.8384 10.6909C68.9314 10.7822 68.9779 10.8736 68.9779 11.0106C68.9779 11.1477 68.9314 11.2391 68.8384 11.3304C68.7454 11.4218 68.6059 11.4675 68.4664 11.4675ZM71.7213 15.3506L70.8378 11.7416V15.6247C70.8378 15.8531 70.8378 16.0359 70.7449 16.1272C70.6518 16.2186 70.5123 16.2643 70.3729 16.2643C70.2333 16.2643 70.0939 16.2186 70.0009 16.1272C69.9078 16.0359 69.8614 15.8531 69.8614 15.6247V11.1934C69.8614 10.965 69.9078 10.7822 70.0474 10.6909C70.1869 10.5995 70.3264 10.5538 70.5588 10.5538H70.8843C71.0704 10.5538 71.2098 10.5995 71.3028 10.6452C71.3958 10.6452 71.4888 10.7365 71.5353 10.8279C71.5818 10.9193 71.6283 11.102 71.6748 11.3304L72.4653 14.3912L73.2093 11.3304C73.2558 11.102 73.3488 10.9193 73.3488 10.8279C73.3953 10.7365 73.4883 10.6452 73.5813 10.6452C73.6743 10.5995 73.8138 10.5538 73.9998 10.5538H74.3253C74.5578 10.5538 74.6973 10.5995 74.8368 10.6909C74.9763 10.7822 75.0228 10.965 75.0228 11.1934V15.6247C75.0228 15.8531 74.9763 16.0359 74.8833 16.1272C74.7903 16.2186 74.6508 16.2643 74.5113 16.2643C74.3718 16.2643 74.2788 16.2186 74.1858 16.1272C74.0928 16.0359 74.0463 15.8531 74.0463 15.6247V11.7416L73.1628 15.3506C73.1163 15.579 73.0698 15.7618 73.0233 15.8531C72.9768 15.9445 72.9303 16.0816 72.8373 16.1272C72.7443 16.2186 72.6048 16.2643 72.4653 16.2643C72.3258 16.2643 72.2328 16.2643 72.1398 16.2186C72.0468 16.1272 71.9538 16.0816 71.9073 15.9902C71.8608 15.8988 71.8143 15.8074 71.8143 15.6704C71.7678 15.579 71.7678 15.442 71.7213 15.3506ZM79.6727 11.4675H77.2082V12.838H79.4867C79.6262 12.838 79.7657 12.8837 79.8587 12.9294C79.9052 13.0207 79.9517 13.1121 79.9517 13.2491C79.9517 13.3862 79.9052 13.4776 79.8587 13.5689C79.7657 13.6603 79.6262 13.706 79.4867 13.706H77.2082V15.3049H79.7657C79.9052 15.3049 80.0447 15.3506 80.1377 15.3963C80.2307 15.4877 80.2772 15.6247 80.2772 15.7618C80.2772 15.8531 80.2307 15.9902 80.1377 16.0816C80.0447 16.1272 79.9052 16.1729 79.7657 16.1729H76.7898C76.5573 16.1729 76.4177 16.1272 76.2783 16.0359C76.1853 15.8988 76.1388 15.7161 76.1388 15.4877V11.2847C76.1388 11.102 76.1388 10.965 76.1853 10.8736C76.2318 10.7822 76.3247 10.6909 76.4177 10.6452C76.5108 10.5995 76.6502 10.5538 76.7898 10.5538H79.6727C79.8122 10.5538 79.9517 10.5995 80.0447 10.6909C80.1377 10.7822 80.1842 10.8736 80.1842 11.0106C80.1842 11.1477 80.1377 11.2391 80.0447 11.3304C79.9517 11.4218 79.8122 11.4675 79.6727 11.4675ZM82.5556 11.1477L84.6016 14.4826V11.1477C84.6016 10.9193 84.6481 10.7365 84.7411 10.6452C84.8341 10.5538 84.9736 10.4624 85.1131 10.4624C85.2526 10.4624 85.3921 10.5081 85.4851 10.6452C85.5781 10.7365 85.6246 10.9193 85.6246 11.1477V15.5333C85.6246 16.0359 85.4386 16.2643 85.0201 16.2643C84.9271 16.2643 84.8341 16.2643 84.7876 16.2186C84.6946 16.2186 84.6016 16.1729 84.5551 16.0816C84.4621 16.0359 84.4156 15.9445 84.3691 15.8531C84.3226 15.8074 84.2296 15.7161 84.1831 15.6247L82.1372 12.3355V15.6247C82.1372 15.8531 82.0907 15.9902 81.9977 16.1272C81.9046 16.2186 81.8117 16.2643 81.6257 16.2643C81.4862 16.2643 81.3467 16.2186 81.2537 16.1272C81.1607 15.9902 81.1142 15.8531 81.1142 15.6247V11.2847C81.1142 11.102 81.1607 10.965 81.2072 10.8736C81.2537 10.7365 81.3002 10.6452 81.4397 10.5995C81.5327 10.5081 81.6257 10.4624 81.7652 10.4624C81.8581 10.4624 81.9512 10.5081 82.0442 10.5081C82.0907 10.5538 82.1372 10.5995 82.1836 10.6452C82.2767 10.7365 82.3232 10.7822 82.3697 10.8736C82.4162 10.965 82.4626 11.0563 82.5556 11.1477ZM90.2745 11.5132H89.1121V15.579C89.1121 15.8074 89.0656 15.9902 88.926 16.1272C88.8331 16.2186 88.6936 16.2643 88.554 16.2643C88.4146 16.2643 88.275 16.2186 88.1821 16.1272C88.0426 15.9902 87.996 15.8074 87.996 15.579V11.5132H86.8336C86.6476 11.5132 86.5081 11.4675 86.4151 11.3761C86.3221 11.2847 86.2756 11.1934 86.2756 11.0563C86.2756 10.9193 86.3221 10.7822 86.4151 10.6909C86.5081 10.5995 86.6476 10.5538 86.8336 10.5538H90.2745C90.4605 10.5538 90.6 10.5995 90.693 10.6909C90.786 10.7822 90.8325 10.9193 90.8325 11.0563C90.8325 11.1934 90.786 11.2847 90.693 11.3761C90.6 11.4675 90.4605 11.5132 90.2745 11.5132ZM95.0174 11.4675H92.553V12.838H94.785C94.9709 12.838 95.1104 12.8837 95.1569 12.9294C95.2499 13.0207 95.2964 13.1121 95.2964 13.2491C95.2964 13.3862 95.2499 13.4776 95.1569 13.5689C95.1104 13.6603 94.9709 13.706 94.785 13.706H92.553V15.3049H95.0639C95.2499 15.3049 95.3894 15.3506 95.4824 15.3963C95.529 15.4877 95.5754 15.6247 95.5754 15.7618C95.5754 15.8531 95.529 15.9902 95.4824 16.0816C95.3894 16.1272 95.2499 16.1729 95.0639 16.1729H92.1345C91.902 16.1729 91.716 16.1272 91.623 16.0359C91.53 15.8988 91.4835 15.7161 91.4835 15.4877V11.2847C91.4835 11.102 91.4835 10.965 91.53 10.8736C91.5765 10.7822 91.6695 10.6909 91.7625 10.6452C91.8555 10.5995 91.995 10.5538 92.1345 10.5538H95.0174C95.157 10.5538 95.2964 10.5995 95.3894 10.6909C95.4825 10.7822 95.529 10.8736 95.529 11.0106C95.529 11.1477 95.4825 11.2391 95.3894 11.3304C95.2964 11.4218 95.157 11.4675 95.0174 11.4675ZM97.9004 13.7974H97.5284V15.579C97.5284 15.8074 97.4819 15.9902 97.3889 16.1272C97.2959 16.2186 97.1564 16.2643 96.9704 16.2643C96.8309 16.2643 96.6914 16.2186 96.5984 16.1272C96.5054 15.9902 96.4589 15.8074 96.4589 15.579V11.2847C96.4589 11.0106 96.5054 10.8279 96.5984 10.7365C96.6914 10.6452 96.8774 10.5538 97.1099 10.5538H98.8769C99.1094 10.5538 99.3419 10.5995 99.4814 10.5995C99.6674 10.6452 99.8069 10.6909 99.9464 10.7365C100.132 10.8279 100.272 10.9193 100.411 11.0563C100.551 11.1934 100.644 11.3304 100.69 11.5132C100.783 11.6959 100.783 11.9243 100.783 12.1071C100.783 12.5182 100.69 12.8837 100.458 13.1121C100.225 13.3862 99.8999 13.5689 99.4349 13.6603C99.6209 13.7517 99.8069 13.9344 99.9929 14.1171C100.179 14.3456 100.318 14.574 100.458 14.8024C100.597 15.0308 100.69 15.2592 100.783 15.442C100.876 15.6247 100.923 15.7618 100.923 15.8074C100.923 15.8988 100.876 15.9902 100.83 16.0359C100.783 16.1272 100.737 16.1729 100.644 16.2186C100.551 16.2643 100.458 16.2643 100.365 16.2643C100.272 16.2643 100.132 16.2643 100.086 16.1729C99.9929 16.1272 99.8999 16.0359 99.8534 15.9445C99.8069 15.8531 99.7139 15.7161 99.6209 15.579L99.2024 14.8024C99.0164 14.5283 98.8769 14.2999 98.7839 14.1628C98.6444 14.0258 98.5049 13.9344 98.4119 13.8887C98.2724 13.7974 98.0864 13.7974 97.9004 13.7974ZM98.5514 11.4218H97.5284V12.975H98.5049C98.7839 12.975 98.9699 12.9294 99.1559 12.8837C99.3419 12.838 99.4814 12.7923 99.5744 12.6553C99.6674 12.5639 99.7139 12.3812 99.7139 12.1984C99.7139 12.0157 99.6674 11.8786 99.5744 11.7873C99.5279 11.6502 99.4349 11.5588 99.2954 11.5132C99.1559 11.4675 98.9234 11.4218 98.5514 11.4218ZM101.853 15.579V11.1477C101.853 10.9193 101.946 10.7822 102.039 10.6452C102.132 10.5538 102.271 10.4624 102.411 10.4624C102.597 10.4624 102.69 10.5538 102.829 10.6452C102.922 10.7822 102.969 10.9193 102.969 11.1477V15.579C102.969 15.8074 102.922 15.9902 102.829 16.1272C102.69 16.2186 102.597 16.2643 102.411 16.2643C102.271 16.2643 102.132 16.2186 102.039 16.1272C101.946 15.9902 101.853 15.8074 101.853 15.579ZM107.572 15.5333L107.34 14.8481H105.154L104.922 15.579C104.829 15.8531 104.736 16.0359 104.643 16.1272C104.596 16.2186 104.457 16.2643 104.317 16.2643C104.178 16.2643 104.038 16.2186 103.945 16.1272C103.852 16.0359 103.806 15.8988 103.806 15.7618C103.806 15.6704 103.806 15.6247 103.806 15.5333C103.852 15.442 103.899 15.3506 103.945 15.2136L105.294 11.5588C105.34 11.4218 105.387 11.3304 105.433 11.1477C105.526 11.0106 105.573 10.9193 105.619 10.7822C105.712 10.6909 105.759 10.6452 105.852 10.5538C105.991 10.5081 106.084 10.4624 106.27 10.4624C106.41 10.4624 106.503 10.5081 106.642 10.5538C106.735 10.6452 106.828 10.6909 106.875 10.7822C106.921 10.8736 106.968 11.0106 107.014 11.102C107.061 11.1934 107.107 11.3761 107.2 11.5588L108.595 15.1679C108.688 15.442 108.735 15.6247 108.735 15.7618C108.735 15.8988 108.688 15.9902 108.595 16.1272C108.502 16.2186 108.363 16.2643 108.223 16.2643C108.13 16.2643 108.084 16.2643 107.991 16.2186C107.944 16.2186 107.898 16.1729 107.851 16.1272C107.805 16.0359 107.758 15.9445 107.712 15.8531C107.665 15.7161 107.619 15.6247 107.572 15.5333ZM105.433 13.9801H107.061L106.224 11.6959L105.433 13.9801ZM110.967 11.1477L113.059 14.4826V11.1477C113.059 10.9193 113.106 10.7365 113.152 10.6452C113.245 10.5538 113.385 10.4624 113.524 10.4624C113.71 10.4624 113.803 10.5081 113.896 10.6452C113.989 10.7365 114.036 10.9193 114.036 11.1477V15.5333C114.036 16.0359 113.85 16.2643 113.431 16.2643C113.338 16.2643 113.245 16.2643 113.199 16.2186C113.106 16.2186 113.059 16.1729 112.966 16.0816C112.92 16.0359 112.827 15.9445 112.78 15.8531C112.734 15.8074 112.687 15.7161 112.594 15.6247L110.595 12.3355V15.6247C110.595 15.8531 110.548 15.9902 110.455 16.1272C110.316 16.2186 110.223 16.2643 110.083 16.2643C109.897 16.2643 109.804 16.2186 109.711 16.1272C109.618 15.9902 109.572 15.8531 109.572 15.6247V11.2847C109.572 11.102 109.572 10.965 109.618 10.8736C109.665 10.7365 109.758 10.6452 109.851 10.5995C109.944 10.5081 110.083 10.4624 110.176 10.4624C110.316 10.4624 110.362 10.5081 110.455 10.5081C110.502 10.5538 110.595 10.5995 110.641 10.6452C110.688 10.7365 110.734 10.7822 110.781 10.8736C110.827 10.965 110.92 11.0563 110.967 11.1477ZM60.4685 20.2388V22.2032L62.6075 19.8733C62.7005 19.7819 62.7935 19.6906 62.8865 19.6449C62.933 19.5992 63.026 19.5535 63.1655 19.5535C63.305 19.5535 63.4445 19.5992 63.5375 19.6906C63.6305 19.7819 63.677 19.919 63.677 20.056C63.677 20.2388 63.584 20.3758 63.4445 20.5586L62.1425 21.8377L63.6305 24.1219C63.7235 24.3046 63.8164 24.4417 63.863 24.5331C63.956 24.6701 63.956 24.8072 63.956 24.8985C63.956 25.0356 63.9095 25.127 63.8164 25.2183C63.7235 25.3097 63.584 25.3554 63.4445 25.3554C63.305 25.3554 63.1655 25.3097 63.0725 25.264C62.9795 25.2183 62.8865 25.127 62.84 24.9899C62.747 24.8985 62.7005 24.7615 62.654 24.6701L61.352 22.6143L60.4685 23.528V24.6701C60.4685 24.8985 60.422 25.0813 60.329 25.1726C60.236 25.3097 60.0965 25.3554 59.957 25.3554C59.864 25.3554 59.771 25.3554 59.678 25.3097C59.585 25.2183 59.5385 25.1726 59.492 25.0813C59.4455 24.9899 59.399 24.9442 59.399 24.8529C59.399 24.7158 59.399 24.5788 59.399 24.4417V20.2388C59.399 20.0104 59.4455 19.8276 59.5385 19.7363C59.6315 19.5992 59.771 19.5535 59.957 19.5535C60.0965 19.5535 60.236 19.5992 60.329 19.7363C60.422 19.8276 60.4685 20.0104 60.4685 20.2388ZM68.4664 20.5129H66.0019V21.9291H68.2804C68.4199 21.9291 68.5594 21.9291 68.6059 22.0205C68.6989 22.1118 68.7454 22.2032 68.7454 22.3402C68.7454 22.4773 68.6989 22.5687 68.6524 22.66C68.5594 22.7057 68.4199 22.7514 68.2804 22.7514H66.0019V24.3503H68.5129C68.6989 24.3503 68.8384 24.396 68.9314 24.4874C69.0244 24.5788 69.0709 24.6701 69.0709 24.8072C69.0709 24.9442 69.0244 25.0813 68.9314 25.127C68.8384 25.2183 68.6989 25.264 68.5129 25.264H65.5834C65.3509 25.264 65.1649 25.2183 65.0719 25.127C64.9789 24.9899 64.9325 24.8072 64.9325 24.5788V20.3302C64.9325 20.1931 64.9325 20.056 64.9789 19.9647C65.0254 19.8276 65.1184 19.7819 65.2115 19.7363C65.3044 19.6906 65.4439 19.6449 65.5834 19.6449H68.4664C68.6059 19.6449 68.7454 19.6906 68.8384 19.7819C68.9314 19.8733 68.9779 19.9647 68.9779 20.1017C68.9779 20.2388 68.9314 20.3302 68.8384 20.4215C68.7454 20.5129 68.6059 20.5129 68.4664 20.5129ZM73.9998 23.5737C73.9998 23.9392 73.9068 24.2133 73.7208 24.4874C73.5813 24.7615 73.3023 24.9899 72.9768 25.127C72.6513 25.3097 72.2793 25.3554 71.8608 25.3554C71.3029 25.3554 70.8843 25.264 70.5588 25.0356C70.3264 24.8985 70.0939 24.7158 69.9543 24.4417C69.8149 24.2133 69.7219 23.9392 69.7219 23.7108C69.7219 23.5737 69.7684 23.4823 69.8614 23.3453C69.9543 23.2539 70.0939 23.2082 70.2333 23.2082C70.3264 23.2082 70.4194 23.2539 70.5123 23.3453C70.5588 23.391 70.6519 23.528 70.6984 23.6651C70.7913 23.8478 70.8378 23.9849 70.9308 24.1219C71.0239 24.259 71.1168 24.3503 71.2563 24.396C71.3958 24.4874 71.5818 24.5331 71.8143 24.5331C72.1398 24.5331 72.4188 24.4417 72.6048 24.3047C72.7908 24.1219 72.9303 23.9392 72.9303 23.7108C72.9303 23.528 72.8373 23.391 72.7443 23.2539C72.6513 23.1169 72.5118 23.0712 72.3258 22.9798C72.1398 22.9341 71.9073 22.8428 71.6284 22.7971C71.2563 22.7057 70.9308 22.5687 70.6518 22.4773C70.4194 22.3402 70.1869 22.1575 70.0474 21.9291C69.9078 21.7464 69.8149 21.4722 69.8149 21.1068C69.8149 20.8327 69.9078 20.5586 70.0474 20.2845C70.2333 20.056 70.4659 19.8733 70.7449 19.7363C71.0704 19.5992 71.4423 19.5535 71.8608 19.5535C72.1863 19.5535 72.4653 19.5992 72.6978 19.6906C72.9303 19.7819 73.1163 19.8733 73.3023 20.0104C73.4418 20.1474 73.5813 20.3302 73.6278 20.4672C73.7208 20.6499 73.7673 20.787 73.7673 20.924C73.7673 21.0611 73.7208 21.1981 73.6278 21.2895C73.5348 21.4266 73.3953 21.4722 73.2558 21.4722C73.1628 21.4722 73.0698 21.4266 72.9768 21.3809C72.9303 21.2895 72.8373 21.1981 72.7908 21.0611C72.6978 20.8327 72.5583 20.6499 72.4188 20.5586C72.2793 20.4215 72.0468 20.3758 71.7678 20.3758C71.4888 20.3758 71.2563 20.4215 71.0704 20.5586C70.9308 20.6956 70.8378 20.8327 70.8378 21.0154C70.8378 21.1525 70.8378 21.2438 70.9308 21.3352C70.9774 21.3809 71.0704 21.4722 71.1633 21.5179C71.2563 21.5636 71.3494 21.6093 71.4888 21.655C71.5818 21.7007 71.7678 21.7464 72.0003 21.792C72.2793 21.8834 72.5583 21.9748 72.7908 22.0661C73.0698 22.1575 73.2558 22.2489 73.4418 22.3859C73.5813 22.523 73.7208 22.66 73.8138 22.8884C73.9068 23.0712 73.9998 23.2996 73.9998 23.5737ZM78.4172 20.5129H75.9993V21.9291H78.2312C78.3707 21.9291 78.5102 21.9291 78.6032 22.0205C78.6962 22.1118 78.7427 22.2032 78.7427 22.3402C78.7427 22.4773 78.6962 22.5687 78.6032 22.66C78.5102 22.7057 78.4172 22.7514 78.2312 22.7514H75.9993V24.3503H78.5102C78.6962 24.3503 78.7892 24.396 78.8822 24.4874C78.9752 24.5788 79.0217 24.6701 79.0217 24.8072C79.0217 24.9442 78.9752 25.0813 78.8822 25.127C78.7892 25.2183 78.6962 25.264 78.5102 25.264H75.5808C75.3018 25.264 75.1623 25.2183 75.0693 25.127C74.9298 24.9899 74.8833 24.8072 74.8833 24.5788V20.3302C74.8833 20.1931 74.9298 20.056 74.9763 19.9647C75.0228 19.8276 75.0693 19.7819 75.1623 19.7363C75.3018 19.6906 75.3948 19.6449 75.5808 19.6449H78.4172C78.6032 19.6449 78.7427 19.6906 78.7892 19.7819C78.8822 19.8733 78.9287 19.9647 78.9287 20.1017C78.9287 20.2388 78.8822 20.3302 78.7892 20.4215C78.7427 20.5129 78.6032 20.5129 78.4172 20.5129ZM80.9747 20.2388V21.8377H83.2997V20.2388C83.2997 20.0104 83.3461 19.8276 83.4391 19.7363C83.5787 19.5992 83.6716 19.5535 83.8576 19.5535C83.9971 19.5535 84.1366 19.5992 84.2296 19.7363C84.3226 19.8276 84.4156 20.0104 84.4156 20.2388V24.6701C84.4156 24.8985 84.3226 25.0813 84.2296 25.1726C84.1366 25.3097 83.9971 25.3554 83.8576 25.3554C83.6716 25.3554 83.5322 25.3097 83.4391 25.1726C83.3461 25.0813 83.2997 24.8985 83.2997 24.6701V22.7971H80.9747V24.6701C80.9747 24.8985 80.9282 25.0813 80.8352 25.1726C80.6957 25.3097 80.6027 25.3554 80.4167 25.3554C80.2772 25.3554 80.1377 25.3097 80.0447 25.1726C79.9517 25.0813 79.9052 24.8985 79.9052 24.6701V20.2388C79.9052 20.0104 79.9517 19.8276 80.0447 19.7363C80.1377 19.5992 80.2772 19.5535 80.4167 19.5535C80.6027 19.5535 80.7422 19.5992 80.8352 19.7363C80.9282 19.8276 80.9747 20.0104 80.9747 20.2388ZM88.9725 24.6244L88.7401 23.9392H86.5546L86.2756 24.6701C86.1826 24.9442 86.1361 25.127 86.0431 25.2183C85.9501 25.3097 85.8571 25.3554 85.7176 25.3554C85.5781 25.3554 85.4386 25.3097 85.3456 25.2183C85.2526 25.0813 85.1596 24.9899 85.1596 24.8529C85.1596 24.7615 85.2061 24.7158 85.2061 24.6244C85.2526 24.5331 85.2991 24.396 85.3456 24.259L86.6941 20.6043C86.7406 20.5129 86.7871 20.3758 86.8336 20.2388C86.8801 20.1017 86.9731 19.9647 87.0196 19.8733C87.0661 19.7819 87.1591 19.6906 87.2521 19.6449C87.3451 19.5992 87.4846 19.5535 87.6241 19.5535C87.8101 19.5535 87.9031 19.5992 87.996 19.6449C88.1356 19.6906 88.1821 19.7819 88.275 19.8733C88.3216 19.9647 88.3681 20.056 88.4146 20.1931C88.4611 20.2845 88.5076 20.4215 88.6005 20.6043L89.9955 24.259C90.0885 24.5331 90.135 24.7158 90.135 24.8529C90.135 24.9899 90.0885 25.0813 89.9955 25.2183C89.9025 25.3097 89.763 25.3554 89.6235 25.3554C89.5305 25.3554 89.4375 25.3554 89.3911 25.3097C89.3445 25.264 89.298 25.264 89.2515 25.1726C89.205 25.127 89.1585 25.0356 89.1121 24.9442C89.0656 24.8072 89.0191 24.7158 88.9725 24.6244ZM86.8336 23.0712H88.4146L87.6241 20.7413L86.8336 23.0712ZM93.762 20.6043H92.553V24.6701C92.553 24.8985 92.5065 25.0813 92.4135 25.1726C92.3205 25.3097 92.181 25.3554 92.0415 25.3554C91.8555 25.3554 91.7625 25.3097 91.623 25.1726C91.53 25.0813 91.4835 24.8985 91.4835 24.6701V20.6043H90.321C90.135 20.6043 89.9955 20.5586 89.9025 20.4672C89.8095 20.3758 89.763 20.2845 89.763 20.1017C89.763 19.9647 89.8095 19.8733 89.9025 19.7819C89.9955 19.6906 90.135 19.6449 90.321 19.6449H93.762C93.948 19.6449 94.0874 19.6906 94.1805 19.7819C94.2735 19.8733 94.32 19.9647 94.32 20.1017C94.32 20.2845 94.2735 20.3758 94.1805 20.4672C94.0874 20.5586 93.948 20.6043 93.762 20.6043ZM97.9004 24.6244L97.6679 23.9392H95.4824L95.2035 24.6701C95.1104 24.9442 95.0174 25.127 94.9709 25.2183C94.878 25.3097 94.785 25.3554 94.599 25.3554C94.4594 25.3554 94.3665 25.3097 94.2735 25.2183C94.134 25.0813 94.0874 24.9899 94.0874 24.8529C94.0874 24.7615 94.0874 24.7158 94.134 24.6244C94.1805 24.5331 94.1805 24.396 94.2735 24.259L95.6219 20.6043C95.6684 20.5129 95.7149 20.3758 95.7614 20.2388C95.808 20.1017 95.8544 19.9647 95.9474 19.8733C95.9939 19.7819 96.0869 19.6906 96.1799 19.6449C96.2729 19.5992 96.4124 19.5535 96.5519 19.5535C96.6914 19.5535 96.8309 19.5992 96.9239 19.6449C97.0169 19.6906 97.1099 19.7819 97.1564 19.8733C97.2494 19.9647 97.2959 20.056 97.3424 20.1931C97.3889 20.2845 97.4354 20.4215 97.4819 20.6043L98.8769 24.259C99.0164 24.5331 99.0629 24.7158 99.0629 24.8529C99.0629 24.9899 99.0164 25.0813 98.9234 25.2183C98.7839 25.3097 98.6909 25.3554 98.5514 25.3554C98.4584 25.3554 98.3654 25.3554 98.3189 25.3097C98.2724 25.264 98.1794 25.264 98.1794 25.1726C98.1329 25.127 98.0864 25.0356 98.0399 24.9442C97.9934 24.8072 97.9469 24.7158 97.9004 24.6244ZM95.7614 23.0712H97.3424L96.5519 20.7413L95.7614 23.0712ZM101.248 20.2388L103.341 23.5737V20.1931C103.341 20.0104 103.387 19.8276 103.48 19.7363C103.573 19.5992 103.713 19.5535 103.852 19.5535C103.992 19.5535 104.131 19.5992 104.224 19.7363C104.317 19.8276 104.364 20.0104 104.364 20.1931V24.6244C104.364 25.127 104.131 25.3554 103.759 25.3554C103.666 25.3554 103.573 25.3554 103.48 25.3097C103.434 25.3097 103.341 25.264 103.294 25.1726C103.201 25.127 103.155 25.0356 103.108 24.9442C103.015 24.8529 102.969 24.7615 102.922 24.7158L100.876 21.4266V24.7158C100.876 24.9442 100.83 25.0813 100.737 25.2183C100.644 25.3097 100.504 25.3554 100.365 25.3554C100.225 25.3554 100.086 25.3097 99.9929 25.2183C99.8999 25.0813 99.8534 24.9442 99.8534 24.7158V20.3758C99.8534 20.1931 99.8999 20.056 99.9464 19.9647C99.9929 19.8276 100.039 19.7363 100.179 19.6449C100.272 19.5992 100.365 19.5535 100.504 19.5535C100.597 19.5535 100.69 19.5535 100.737 19.5992C100.83 19.6449 100.876 19.6906 100.923 19.7363C100.969 19.7819 101.062 19.8733 101.109 19.9647C101.155 20.056 101.202 20.1474 101.248 20.2388ZM60.8405 31.9339H60.4685V33.7612C60.4685 33.9896 60.422 34.1724 60.329 34.2637C60.236 34.4008 60.0965 34.4465 59.9105 34.4465C59.771 34.4465 59.6315 34.4008 59.5385 34.2637C59.4455 34.1724 59.399 33.9896 59.399 33.7612V29.4212C59.399 29.1928 59.4455 29.0101 59.5385 28.9187C59.6315 28.7817 59.8175 28.736 60.05 28.736H61.817C62.0495 28.736 62.282 28.736 62.4215 28.7817C62.6075 28.7817 62.747 28.8274 62.8865 28.9187C63.0725 28.9644 63.212 29.0558 63.3515 29.2385C63.491 29.3756 63.584 29.5126 63.6305 29.6953C63.7235 29.8781 63.7235 30.0608 63.7235 30.2892C63.7235 30.7004 63.6305 31.0202 63.398 31.2943C63.1655 31.5227 62.84 31.7054 62.375 31.7968C62.561 31.9339 62.747 32.0709 62.933 32.2993C63.119 32.4821 63.2585 32.7105 63.398 32.9389C63.5374 33.213 63.6305 33.3957 63.7235 33.5785C63.8164 33.8069 63.8164 33.8983 63.8164 33.9896C63.8164 34.081 63.8164 34.1267 63.77 34.2181C63.7235 34.2637 63.677 34.3551 63.584 34.4008C63.491 34.4465 63.398 34.4465 63.305 34.4465C63.212 34.4465 63.0725 34.4008 63.026 34.3551C62.933 34.3094 62.84 34.2181 62.7935 34.1267C62.747 34.0353 62.654 33.8983 62.561 33.7155L62.1425 32.9846C61.9565 32.6648 61.817 32.4821 61.724 32.345C61.5845 32.1623 61.445 32.0709 61.3055 32.0252C61.2125 31.9795 61.0265 31.9339 60.8405 31.9339ZM61.4915 29.604H60.4685V31.1572H61.445C61.724 31.1572 61.91 31.1115 62.096 31.0659C62.282 31.0202 62.4215 30.9288 62.5145 30.8374C62.6075 30.7004 62.654 30.5633 62.654 30.3349C62.654 30.1979 62.6075 30.0608 62.5145 29.9238C62.468 29.8324 62.375 29.741 62.2355 29.6497C62.096 29.604 61.8635 29.604 61.4915 29.604ZM68.2804 29.604H65.8624V30.9745H68.0944C68.2804 30.9745 68.3734 31.0202 68.4664 31.1115C68.5594 31.2029 68.6059 31.2943 68.6059 31.4313C68.6059 31.5227 68.5594 31.6598 68.4664 31.7054C68.3734 31.7968 68.2804 31.8425 68.0944 31.8425H65.8624V33.4414H68.3734C68.5594 33.4414 68.6989 33.4871 68.7454 33.5785C68.8384 33.6698 68.8849 33.7612 68.8849 33.8983C68.8849 34.0353 68.8384 34.1267 68.7454 34.2181C68.6989 34.3094 68.5594 34.3551 68.3734 34.3551H65.4439C65.2115 34.3551 65.0254 34.3094 64.9325 34.1724C64.8394 34.081 64.7929 33.8983 64.7929 33.6698V29.4212C64.7929 29.2842 64.7929 29.1471 64.8394 29.0101C64.886 28.9187 64.9789 28.873 65.0719 28.7817C65.1649 28.736 65.2579 28.736 65.4439 28.736H68.2804C68.4664 28.736 68.6059 28.7817 68.6989 28.873C68.7454 28.9187 68.7919 29.0558 68.7919 29.1928C68.7919 29.2842 68.7454 29.4212 68.6989 29.5126C68.6059 29.5583 68.4664 29.604 68.2804 29.604ZM71.8143 32.1623H70.8378V33.7612C70.8378 33.9896 70.7913 34.1724 70.6984 34.2637C70.6053 34.4008 70.4659 34.4465 70.2798 34.4465C70.1404 34.4465 70.0009 34.4008 69.9078 34.2637C69.8149 34.1724 69.7684 33.9896 69.7684 33.7612V29.4212C69.7684 29.1928 69.8149 29.0101 69.9078 28.873C70.0474 28.7817 70.1869 28.736 70.4194 28.736H71.8143C72.2328 28.736 72.5583 28.7817 72.7908 28.8274C72.9768 28.9187 73.2093 29.0101 73.3488 29.1471C73.4883 29.2842 73.6278 29.4669 73.7208 29.6953C73.8138 29.9238 73.8138 30.1522 73.8138 30.4263C73.8138 30.9745 73.6743 31.4313 73.3488 31.7054C72.9768 32.0252 72.5118 32.1623 71.8143 32.1623ZM71.5818 29.604H70.8378V31.2943H71.5818C71.8143 31.2943 72.0468 31.2943 72.2328 31.2029C72.3723 31.1572 72.5118 31.0659 72.6048 30.9288C72.6978 30.8374 72.7443 30.6547 72.7443 30.4263C72.7443 30.1979 72.6513 30.0151 72.5118 29.8324C72.3723 29.6497 72.0468 29.604 71.5818 29.604ZM74.7438 32.0252V29.3299C74.7438 29.1015 74.7903 28.9187 74.8833 28.8274C74.9763 28.6903 75.1158 28.6446 75.3018 28.6446C75.4413 28.6446 75.5808 28.6903 75.6738 28.8274C75.7668 28.9187 75.8133 29.1015 75.8133 29.3299V32.0709C75.8133 32.3907 75.8598 32.6648 75.9528 32.8932C75.9993 33.076 76.1388 33.2587 76.2783 33.3501C76.4643 33.4871 76.6967 33.5328 77.0222 33.5328C77.4408 33.5328 77.7197 33.4414 77.9057 33.1673C78.0917 32.9389 78.1847 32.5734 78.1847 32.1166V29.3299C78.1847 29.1015 78.2312 28.9187 78.3242 28.8274C78.4172 28.6903 78.5567 28.6446 78.6962 28.6446C78.8822 28.6446 78.9752 28.6903 79.1147 28.8274C79.2077 28.9187 79.2542 29.1015 79.2542 29.3299V32.0252C79.2542 32.4821 79.2077 32.8475 79.1147 33.1216C79.0217 33.4414 78.8822 33.6698 78.6497 33.8983C78.4637 34.081 78.2312 34.2181 77.9987 34.3094C77.7197 34.4008 77.4408 34.4465 77.0687 34.4465C76.6502 34.4465 76.3247 34.4008 75.9993 34.3094C75.7203 34.2181 75.4878 34.081 75.3018 33.8526C75.1158 33.6698 74.9763 33.4414 74.8833 33.1216C74.7903 32.8018 74.7438 32.4364 74.7438 32.0252Z" fill="white"/>
<path fill-rule="evenodd" clip-rule="evenodd" d="M82.6954 34.3551H81.0679C80.8354 34.3551 80.6494 34.3095 80.5564 34.1724C80.4634 34.081 80.4169 33.8983 80.4169 33.6699V29.4213C80.4169 29.1929 80.4634 29.0101 80.5564 28.9188C80.6494 28.7817 80.8354 28.736 81.0679 28.736H82.7884C83.0674 28.736 83.2999 28.736 83.4859 28.7817C83.6719 28.8274 83.8114 28.8731 83.9508 28.9644C84.0904 29.0558 84.2298 29.1472 84.3228 29.2842C84.4159 29.3756 84.4624 29.5126 84.5088 29.6954C84.6018 29.8324 84.6018 29.9695 84.6018 30.1522C84.6018 30.7004 84.3229 31.1116 83.8114 31.3857C84.5088 31.6141 84.8343 32.0709 84.8343 32.7562C84.8343 33.076 84.7878 33.3501 84.6484 33.5785C84.4624 33.8526 84.2763 34.0354 83.9973 34.1724C83.8579 34.2181 83.6719 34.2638 83.4394 34.3095C83.2534 34.3551 82.9744 34.3551 82.6954 34.3551ZM82.6024 31.8425H81.4864V33.4871H82.6489C83.3929 33.4871 83.7649 33.213 83.7649 32.6648C83.7649 32.3907 83.6719 32.1623 83.4859 32.0253C83.2999 31.9339 83.0209 31.8425 82.6024 31.8425ZM81.4864 29.604V31.0202H82.5094C82.7419 31.0202 82.9744 31.0202 83.1139 30.9745C83.2534 30.8832 83.3929 30.7918 83.4394 30.6547C83.5324 30.5634 83.5324 30.4263 83.5324 30.2893C83.5324 30.0152 83.4394 29.8324 83.2534 29.7411C83.0674 29.6497 82.7884 29.604 82.3699 29.604H81.4864ZM86.8338 29.3299V33.3958H89.0658C89.2053 33.3958 89.3448 33.4415 89.4378 33.5328C89.5308 33.6242 89.5773 33.7613 89.5773 33.8983C89.5773 34.0354 89.5308 34.1267 89.4378 34.2181C89.3448 34.3095 89.2053 34.3551 89.0658 34.3551H86.4153C86.1828 34.3551 86.0433 34.3095 85.9038 34.1724C85.8108 34.081 85.7643 33.8983 85.7643 33.6699V29.3299C85.7643 29.1015 85.8108 28.9188 85.9038 28.8274C85.9968 28.6903 86.1363 28.6447 86.3223 28.6447C86.4618 28.6447 86.6013 28.6903 86.6943 28.8274C86.7873 28.9188 86.8338 29.1015 86.8338 29.3299ZM90.3677 33.7613V29.3299C90.3677 29.1015 90.4142 28.9188 90.5073 28.8274C90.6002 28.6903 90.7397 28.6447 90.8793 28.6447C91.0652 28.6447 91.2047 28.6903 91.2977 28.8274C91.3908 28.9188 91.4373 29.1015 91.4373 29.3299V33.7613C91.4373 33.9897 91.3908 34.1724 91.2977 34.2638C91.2047 34.4008 91.0652 34.4465 90.8793 34.4465C90.7397 34.4465 90.6002 34.4008 90.5073 34.2638C90.4142 34.1724 90.3677 33.9897 90.3677 33.7613ZM93.7157 29.3299V31.2943L95.8546 28.9644C95.9477 28.8731 96.0407 28.7817 96.1336 28.736C96.1801 28.6447 96.2732 28.6447 96.4127 28.6447C96.5522 28.6447 96.6917 28.6903 96.7846 28.7817C96.8777 28.8731 96.9242 29.0101 96.9242 29.1472C96.9242 29.2842 96.8311 29.467 96.6917 29.6497L95.3897 30.9289L96.8777 33.213C97.0171 33.3958 97.0636 33.5328 97.1101 33.6242C97.2032 33.7613 97.2032 33.8526 97.2032 33.9897C97.2032 34.1267 97.1566 34.2181 97.0636 34.3095C96.9707 34.4008 96.8311 34.4465 96.6917 34.4465C96.5522 34.4465 96.4127 34.4008 96.3197 34.3551C96.2267 34.2638 96.1336 34.1724 96.0872 34.081C95.9942 33.944 95.9477 33.8526 95.9012 33.7613L94.6457 31.7055L93.7157 32.5735V33.7613C93.7157 33.9897 93.6692 34.1724 93.5762 34.2638C93.4832 34.4008 93.3437 34.4465 93.2042 34.4465C93.1112 34.4465 93.0182 34.4008 92.9252 34.3551C92.8322 34.3095 92.7857 34.2638 92.7392 34.1724C92.6927 34.081 92.6927 33.9897 92.6462 33.8983C92.6462 33.8069 92.6462 33.6699 92.6462 33.4871V29.3299C92.6462 29.1015 92.6927 28.9188 92.7857 28.8274C92.8787 28.6903 93.0182 28.6447 93.2042 28.6447C93.3437 28.6447 93.4832 28.6903 93.5762 28.8274C93.6692 28.9188 93.7157 29.1015 93.7157 29.3299ZM59.4457 42.8523V38.421C59.4457 38.1926 59.4922 38.0099 59.5853 37.8728C59.6783 37.7814 59.8177 37.7358 59.9573 37.7358C60.1432 37.7358 60.2828 37.7814 60.3757 37.8728C60.4687 38.0099 60.5152 38.1926 60.5152 38.421V42.8523C60.5152 43.0808 60.4687 43.2178 60.3757 43.3549C60.2828 43.4919 60.1432 43.5376 59.9573 43.5376C59.8177 43.5376 59.6783 43.4919 59.5853 43.3549C59.4922 43.2178 59.4457 43.0808 59.4457 42.8523ZM63.1657 38.421L65.2117 41.7103V38.3753C65.2117 38.1469 65.2581 38.0099 65.3512 37.8728C65.4442 37.7814 65.5836 37.7358 65.7232 37.7358C65.8626 37.7358 66.0022 37.7814 66.0952 37.8728C66.1881 38.0099 66.2346 38.1469 66.2346 38.3753V42.8067C66.2346 43.2635 66.0487 43.5376 65.6301 43.5376C65.5372 43.5376 65.4442 43.4919 65.3977 43.4919C65.3046 43.4462 65.2117 43.4006 65.1652 43.3549C65.0722 43.2635 65.0257 43.2178 64.9791 43.1265C64.9327 43.0351 64.8397 42.9437 64.7932 42.8523L62.7472 39.6088V42.898C62.7472 43.0808 62.7007 43.2635 62.6077 43.3549C62.5147 43.4919 62.4217 43.5376 62.2357 43.5376C62.0962 43.5376 62.0032 43.4919 61.9102 43.3549C61.8172 43.2635 61.7707 43.0808 61.7707 42.898V38.5581C61.7707 38.3753 61.7707 38.2383 61.8172 38.1012C61.8637 38.0099 61.9102 37.9185 62.0497 37.8271C62.1427 37.7358 62.2822 37.7358 62.3752 37.7358C62.4682 37.7358 62.5612 37.7358 62.6542 37.7814C62.7007 37.8271 62.7472 37.8271 62.8402 37.9185C62.8867 37.9642 62.9332 38.0555 62.9797 38.1012C63.0262 38.1926 63.0727 38.284 63.1657 38.421ZM68.0946 37.8271H69.4896C69.8616 37.8271 70.1871 37.8728 70.4196 37.9185C70.6986 38.0099 70.9311 38.1469 71.1636 38.3296C71.7215 38.8322 72.0005 39.6088 72.0005 40.6138C72.0005 40.9336 71.954 41.2534 71.9076 41.5275C71.8611 41.8016 71.7681 42.0757 71.675 42.3041C71.5356 42.5326 71.396 42.7153 71.2101 42.898C71.0706 43.0351 70.8846 43.1265 70.7451 43.2178C70.5591 43.3092 70.3731 43.3549 70.1871 43.4006C70.0011 43.4006 69.7686 43.4462 69.5361 43.4462H68.0946C67.9086 43.4462 67.7691 43.4006 67.6761 43.3549C67.5831 43.2635 67.4901 43.1721 67.4901 43.0808C67.4436 42.9437 67.4436 42.8067 67.4436 42.6239V38.5124C67.4436 38.284 67.4901 38.1012 67.5831 37.9642C67.6761 37.8728 67.8621 37.8271 68.0946 37.8271ZM68.5131 38.6951V42.5326H69.3036C69.4896 42.5326 69.6291 42.5326 69.7686 42.5326C69.8616 42.4869 69.9546 42.4869 70.0476 42.4412C70.1871 42.3955 70.2801 42.3498 70.3731 42.2585C70.6986 41.9387 70.8846 41.3905 70.8846 40.6138C70.8846 40.0656 70.8381 39.6545 70.6521 39.3347C70.5126 39.0606 70.2801 38.9235 70.0476 38.8322C69.8151 38.7408 69.5361 38.6951 69.2106 38.6951H68.5131ZM75.302 37.7358C75.86 37.7358 76.325 37.8271 76.7435 38.0555C77.1155 38.3296 77.441 38.6494 77.627 39.0606C77.8129 39.5174 77.9525 40.0199 77.9525 40.6138C77.9525 41.0707 77.8594 41.4361 77.7665 41.8016C77.6735 42.1671 77.4874 42.4412 77.255 42.7153C77.0225 42.9894 76.79 43.1721 76.418 43.3092C76.0925 43.4462 75.7205 43.5376 75.302 43.5376C74.8835 43.5376 74.5115 43.4462 74.186 43.3092C73.8605 43.1721 73.5815 42.9894 73.349 42.7153C73.163 42.4412 72.977 42.1671 72.884 41.8016C72.7445 41.4361 72.698 41.025 72.698 40.6138C72.698 40.157 72.7445 39.7915 72.884 39.4261C72.977 39.0606 73.163 38.7408 73.3955 38.5124C73.628 38.2383 73.907 38.0555 74.186 37.9185C74.5115 37.7814 74.8835 37.7358 75.302 37.7358ZM76.8365 40.6138C76.8365 40.2027 76.79 39.8372 76.6505 39.5174C76.511 39.2433 76.325 39.0149 76.0925 38.8322C75.86 38.6951 75.581 38.6037 75.302 38.6037C75.0695 38.6037 74.8835 38.6494 74.6975 38.7408C74.5115 38.8322 74.372 38.9692 74.2325 39.1063C74.093 39.289 74 39.5174 73.907 39.7458C73.814 40.0199 73.814 40.294 73.814 40.6138C73.814 40.9336 73.814 41.2077 73.907 41.4818C74 41.7559 74.093 41.9387 74.2325 42.1214C74.372 42.3041 74.558 42.3955 74.6975 42.4869C74.8835 42.5782 75.116 42.6239 75.302 42.6239C75.581 42.6239 75.86 42.5326 76.0925 42.3955C76.325 42.2585 76.511 42.03 76.6505 41.7103C76.79 41.4361 76.8365 41.0707 76.8365 40.6138ZM80.2774 38.421L82.3699 41.7103V38.3753C82.3699 38.1469 82.4164 38.0099 82.5094 37.8728C82.6024 37.7814 82.6954 37.7358 82.8349 37.7358C83.0209 37.7358 83.1139 37.7814 83.2069 37.8728C83.2999 38.0099 83.3464 38.1469 83.3464 38.3753V42.8067C83.3464 43.2635 83.1604 43.5376 82.7884 43.5376C82.6954 43.5376 82.6024 43.4919 82.5094 43.4919C82.4164 43.4462 82.3699 43.4006 82.2769 43.3549C82.2304 43.2635 82.1839 43.2178 82.0909 43.1265C82.0444 43.0351 81.9979 42.9437 81.9049 42.8523L79.9054 39.6088V42.898C79.9054 43.0808 79.8589 43.2635 79.7659 43.3549C79.6729 43.4919 79.5334 43.5376 79.3939 43.5376C79.2544 43.5376 79.1149 43.4919 79.0219 43.3549C78.929 43.2635 78.8825 43.0808 78.8825 42.898V38.5581C78.8825 38.3753 78.8825 38.2383 78.929 38.1012C78.9754 38.0099 79.0684 37.9185 79.1615 37.8271C79.2544 37.7358 79.3939 37.7358 79.5334 37.7358C79.6264 37.7358 79.6729 37.7358 79.7659 37.7814C79.8124 37.8271 79.9054 37.8271 79.9519 37.9185C79.9984 37.9642 80.0449 38.0555 80.0914 38.1012C80.1844 38.1926 80.2309 38.284 80.2774 38.421ZM88.0893 38.6951H85.6249V40.0656H87.8568C88.0428 40.0656 88.1823 40.1113 88.2288 40.2027C88.3218 40.2484 88.3683 40.3854 88.3683 40.4768C88.3683 40.6138 88.3218 40.7509 88.2288 40.7966C88.1823 40.8879 88.0428 40.9336 87.8568 40.9336H85.6249V42.5326H88.1358C88.3218 42.5326 88.4613 42.5782 88.5543 42.6696C88.6008 42.7153 88.6473 42.8523 88.6473 42.9894C88.6473 43.1264 88.6008 43.2178 88.5543 43.3092C88.4613 43.4006 88.3218 43.4462 88.1358 43.4462H85.2063C84.9738 43.4462 84.7878 43.4006 84.6949 43.2635C84.6018 43.1721 84.5553 42.9894 84.5553 42.7153V38.5124C84.5553 38.3296 84.5553 38.1926 84.6018 38.1012C84.6484 38.0099 84.7414 37.9185 84.8343 37.8728C84.9273 37.8271 85.0668 37.8271 85.2063 37.8271H88.0893C88.2288 37.8271 88.3683 37.8728 88.4613 37.9185C88.5543 38.0099 88.6008 38.1012 88.6008 38.2383C88.6008 38.3753 88.5543 38.5124 88.4613 38.5581C88.3683 38.6494 88.2288 38.6951 88.0893 38.6951ZM93.5762 41.7559C93.5762 42.0757 93.5297 42.3955 93.3437 42.6696C93.1577 42.9437 92.9252 43.1264 92.5997 43.3092C92.2742 43.4462 91.9022 43.5376 91.4837 43.5376C90.9257 43.5376 90.5073 43.4006 90.1818 43.2178C89.9028 43.0808 89.7167 42.8524 89.5773 42.6239C89.4378 42.3498 89.3448 42.1214 89.3448 41.893C89.3448 41.7559 89.3913 41.6189 89.4843 41.5275C89.5773 41.4361 89.6703 41.3905 89.8098 41.3905C89.9493 41.3905 90.0422 41.4361 90.1353 41.4818C90.1818 41.5732 90.2748 41.6646 90.3212 41.8473C90.3677 42.03 90.4608 42.1671 90.5538 42.2585C90.6002 42.3955 90.7397 42.4869 90.8793 42.5782C91.0187 42.6696 91.2047 42.7153 91.4373 42.7153C91.7627 42.7153 92.0417 42.6239 92.2277 42.4412C92.4137 42.3041 92.5067 42.1214 92.5067 41.893C92.5067 41.6646 92.4602 41.5275 92.3672 41.4361C92.2742 41.2991 92.1347 41.2077 91.9487 41.162C91.7627 41.0707 91.5302 41.025 91.2512 40.9336C90.8793 40.8423 90.5538 40.7509 90.2748 40.6138C90.0422 40.4768 89.8098 40.3397 89.6703 40.1113C89.5308 39.8829 89.4378 39.6088 89.4378 39.289C89.4378 38.9692 89.5308 38.6951 89.6703 38.4667C89.8563 38.2383 90.0887 38.0555 90.3677 37.9185C90.6932 37.7814 91.0653 37.7358 91.4373 37.7358C91.7627 37.7358 92.0882 37.7814 92.3207 37.8271C92.5532 37.9185 92.7392 38.0555 92.9252 38.1926C93.0647 38.3296 93.1577 38.4667 93.2507 38.6494C93.3437 38.7865 93.3437 38.9235 93.3437 39.1063C93.3437 39.2433 93.2972 39.3347 93.2042 39.4717C93.1112 39.5631 93.0182 39.6088 92.8787 39.6088C92.7392 39.6088 92.6462 39.6088 92.5997 39.5174C92.5532 39.4717 92.4602 39.3347 92.3672 39.1976C92.2742 38.9692 92.1812 38.8322 92.0417 38.6951C91.9022 38.6037 91.6697 38.5124 91.3907 38.5124C91.1118 38.5124 90.8793 38.6037 90.6932 38.7408C90.5538 38.8322 90.4608 39.0149 90.4608 39.1976C90.4608 39.289 90.4608 39.3804 90.5538 39.4717C90.6002 39.5631 90.6932 39.6088 90.7863 39.7002C90.8793 39.7458 90.9722 39.7915 91.0652 39.8372C91.2047 39.8829 91.3442 39.9286 91.6232 39.9743C91.9022 40.0656 92.1812 40.1113 92.4137 40.2027C92.6462 40.2941 92.8787 40.4311 93.0647 40.5682C93.2042 40.6595 93.3437 40.8423 93.4367 41.025C93.5297 41.2077 93.5762 41.4818 93.5762 41.7559ZM94.5527 42.8523V38.421C94.5527 38.1926 94.5992 38.0099 94.6922 37.8728C94.7852 37.7814 94.9247 37.7358 95.1107 37.7358C95.2502 37.7358 95.3897 37.7814 95.4827 37.8728C95.5757 38.0099 95.6222 38.1926 95.6222 38.421V42.8523C95.6222 43.0808 95.5757 43.2178 95.4827 43.3549C95.3897 43.4919 95.2502 43.5376 95.1107 43.5376C94.9247 43.5376 94.8317 43.4919 94.6922 43.3549C94.5992 43.2178 94.5527 43.0808 94.5527 42.8523ZM100.272 42.8067L100.04 42.0757H97.8541L97.5752 42.8067C97.4821 43.0808 97.3891 43.2635 97.3426 43.4006C97.2497 43.4919 97.1567 43.5376 96.9707 43.5376C96.8312 43.5376 96.7381 43.4919 96.6452 43.3549C96.5056 43.2635 96.4591 43.1265 96.4591 43.0351C96.4591 42.9437 96.4591 42.8523 96.5056 42.761C96.5522 42.7153 96.5522 42.5782 96.6452 42.4412L97.9936 38.7865C98.0401 38.6951 98.0866 38.5581 98.1331 38.421C98.1796 38.284 98.2261 38.1469 98.3191 38.0555C98.3656 37.9642 98.4586 37.8728 98.5516 37.8271C98.6446 37.7358 98.7841 37.7358 98.9236 37.7358C99.0631 37.7358 99.2026 37.7358 99.2956 37.8271C99.3886 37.8728 99.4816 37.9642 99.5281 38.0555C99.6211 38.1469 99.6676 38.2383 99.7141 38.3296C99.7606 38.4667 99.8071 38.6037 99.8536 38.7865L101.249 42.3955C101.388 42.6696 101.435 42.898 101.435 42.9894C101.435 43.1264 101.388 43.2635 101.295 43.3549C101.156 43.4919 101.063 43.5376 100.923 43.5376C100.83 43.5376 100.737 43.4919 100.691 43.4919C100.644 43.4462 100.551 43.4006 100.551 43.3549C100.505 43.3092 100.458 43.2178 100.412 43.0808C100.365 42.9894 100.319 42.898 100.272 42.8067ZM98.1331 41.2534H99.7141L98.9236 38.9235L98.1331 41.2534Z" fill="white"/>
<path fill-rule="evenodd" clip-rule="evenodd" d="M170.46 46.515L170.201 46.7086L169.935 46.8942L169.662 47.0714L169.383 47.2404L169.099 47.4003L168.809 47.5514L168.513 47.6933L168.212 47.8262L167.906 47.9493L167.595 48.0629L167.279 48.1665L166.959 48.2601L166.634 48.3435L166.306 48.4163L165.973 48.4785L165.637 48.5299L165.297 48.5699L164.955 48.599L164.609 48.6165L164.256 48.6224L163.744 48.6095L163.234 48.5713L162.731 48.5081L162.236 48.4208L161.749 48.31L161.272 48.1761L160.804 48.0202L160.347 47.8427L159.901 47.6438L159.467 47.4251L159.046 47.1866L158.637 46.9291L158.243 46.653L157.863 46.3594L157.497 46.0484L157.148 45.721L156.814 45.3773L156.498 45.0184L156.199 44.6449L155.918 44.2574L155.656 43.8562L155.413 43.4421L155.19 43.0159L154.988 42.5779L154.807 42.1285L154.649 41.6693L154.512 41.2001L154.4 40.7218L154.311 40.2354L154.246 39.7413L154.208 39.24L154.194 38.7395L154.197 38.5001L154.206 38.2682L154.219 38.0378L154.238 37.8082L154.263 37.5805L154.292 37.3542L154.328 37.1295L154.367 36.9064L154.413 36.6847L154.463 36.4651L154.518 36.2478L154.578 36.0318L154.642 35.8179L154.712 35.606L154.786 35.3961L154.865 35.1879L154.949 34.9825L155.037 34.78L155.129 34.5794L155.226 34.3808L155.327 34.1849L155.432 33.9914L155.542 33.8007L155.655 33.6124L155.773 33.427L155.836 33.333L155.574 33.2348L155.183 33.0694L154.801 32.8881L154.428 32.692L154.065 32.4808L153.712 32.2558L153.369 32.0167L153.037 31.7642L152.716 31.4985L152.407 31.2204L152.109 30.9301L151.824 30.6279L151.552 30.3138L151.293 29.9891L151.048 29.6539L150.817 29.3084L150.6 28.9528L150.398 28.5878L150.211 28.2137L150.041 27.831L149.886 27.44L149.748 27.0412L149.627 26.6352L149.523 26.2222L149.437 25.8027L149.37 25.377L149.321 24.9461L149.292 24.5101L149.282 24.0678L149.295 23.5623L149.334 23.0611L149.398 22.567L149.487 22.0806L149.6 21.6024L149.736 21.1332L149.895 20.6739L150.076 20.2245L150.278 19.7865L150.501 19.3603L150.744 18.9462L151.006 18.545L151.287 18.1574L151.586 17.784L151.902 17.4251L152.235 17.0815L152.585 16.7541L152.95 16.4431L153.331 16.1494L153.725 15.8733L154.133 15.6158L154.555 15.3773L154.989 15.1586L155.435 14.9597L155.892 14.7822L156.359 14.6263L156.837 14.4924L157.324 14.3816L157.819 14.2943L158.322 14.2311L158.832 14.1929L159.339 14.1802L159.486 14.181L159.624 14.1839L159.76 14.1884L159.897 14.1948L160.033 14.2031L160.168 14.2129L160.303 14.2246L160.438 14.238L160.573 14.2534L160.706 14.2704L160.838 14.289L160.971 14.3092L161.103 14.3316L161.234 14.355L161.365 14.3804L161.495 14.4075L161.625 14.4363L161.754 14.4668L161.882 14.4988L162.01 14.5323L162.116 14.5619L162.117 14.5176L162.156 14.0164L162.22 13.5223L162.309 13.0359L162.422 12.5576L162.558 12.0884L162.717 11.6292L162.898 11.1798L163.1 10.7418L163.323 10.3156L163.565 9.90148L163.827 9.5003L164.108 9.11273L164.407 8.73928L164.724 8.38041L165.057 8.03676L165.407 7.70934L165.772 7.3983L166.152 7.10466L166.547 6.82853L166.955 6.57111L167.377 6.33255L167.811 6.11384L168.256 5.91499L168.714 5.73749L169.181 5.58156L169.659 5.44769L170.146 5.33688L170.641 5.2496L171.144 5.18632L171.654 5.14818L172.17 5.13507L172.686 5.14818L173.196 5.18632L173.699 5.2496L174.194 5.33688L174.681 5.44769L175.159 5.58156L175.626 5.73749L176.083 5.91499L176.529 6.11384L176.963 6.33255L177.385 6.5713L177.793 6.82853L178.187 7.10466L178.568 7.39849L178.933 7.70953L179.282 8.03676L179.616 8.38022L179.932 8.73905L180.231 9.11273L180.512 9.5003L180.775 9.90148L181.017 10.3156L181.24 10.742L181.442 11.1798L181.623 11.6289L181.782 12.0884L181.918 12.5578L182.031 13.0358L182.12 13.5223L182.184 14.0166L182.223 14.5178L182.224 14.5679L182.323 14.5406L182.45 14.5075L182.577 14.4759L182.705 14.446L182.834 14.4174L182.964 14.3907L183.094 14.3656L183.224 14.3423L183.355 14.3205L183.486 14.3005L183.618 14.282L183.751 14.2653L183.884 14.2503L184.018 14.2371L184.152 14.2256L184.286 14.2157L184.422 14.2076L184.557 14.2015L184.692 14.1969L184.829 14.194L184.975 14.1932L185.482 14.206L185.992 14.2441L186.496 14.3074L186.991 14.3946L187.478 14.5055L187.955 14.6393L188.423 14.7952L188.88 14.9728L189.326 15.1716L189.76 15.3903L190.181 15.629L190.589 15.8863L190.984 16.1624L191.364 16.4563L191.729 16.7673L192.079 17.0945L192.412 17.438L192.729 17.7968L193.028 18.1705L193.309 18.558L193.571 18.9592L193.813 19.3733L194.036 19.7997L194.238 20.2376L194.419 20.6867L194.578 21.1461L194.714 21.6155L194.827 22.0934L194.916 22.5801L194.98 23.0744L195.019 23.5756L195.032 24.0807L195.022 24.5217L194.993 24.9565L194.945 25.3864L194.877 25.8107L194.793 26.229L194.689 26.6411L194.569 27.0462L194.432 27.4437L194.278 27.8336L194.108 28.2154L193.923 28.5888L193.722 28.953L193.506 29.308L193.276 29.653L193.032 29.988L192.774 30.312L192.504 30.6253L192.221 30.9274L191.925 31.2178L191.617 31.4957L191.298 31.7613L190.967 32.014L190.626 32.2533L190.274 32.4784L189.913 32.6898L189.542 32.8868L189.162 33.0686L188.773 33.2351L188.52 33.3308L188.589 33.4335L188.709 33.6198L188.825 33.8093L188.936 34.0015L189.043 34.1959L189.146 34.3932L189.244 34.5931L189.338 34.7954L189.428 35.0002L189.513 35.2067L189.593 35.4159L189.669 35.6277L189.739 35.8413L189.805 36.0567L189.867 36.275L189.922 36.4947L189.974 36.7161L190.02 36.9394L190.06 37.1643L190.096 37.3911L190.126 37.6198L190.151 37.8494L190.17 38.0809L190.184 38.3138L190.193 38.5477L190.195 38.7891L190.182 39.2894L190.144 39.7906L190.079 40.2849L189.99 40.7714L189.878 41.2494L189.742 41.7188L189.583 42.1783L189.402 42.6274L189.2 43.0652L188.977 43.4916L188.734 43.9057L188.472 44.3068L188.191 44.6945L187.892 45.0681L187.576 45.4269L187.242 45.7704L186.893 46.0976L186.528 46.4087L186.147 46.7025L185.753 46.9787L185.345 47.2359L184.923 47.4746L184.489 47.6933L184.043 47.8922L183.586 48.0697L183.118 48.2256L182.641 48.3595L182.154 48.4703L181.659 48.5576L181.156 48.6208L180.646 48.659L180.134 48.6719L179.779 48.6659L179.431 48.6482L179.087 48.6188L178.745 48.578L178.407 48.5261L178.072 48.4633L177.742 48.3895L177.415 48.3054L177.094 48.2106L176.776 48.1057L176.464 47.9908L176.156 47.8663L175.854 47.7319L175.557 47.5884L175.265 47.4356L174.979 47.2738L174.7 47.1029L174.426 46.9237L174.16 46.7361L173.899 46.5402L173.645 46.3363L173.399 46.1248L173.159 45.9055L172.927 45.679L172.702 45.4446L172.485 45.2037L172.276 44.9561L172.176 44.8291L172.081 44.9476L171.872 45.1929L171.655 45.4313L171.431 45.6628L171.199 45.8869L170.96 46.104L170.714 46.3133L170.46 46.515Z" fill="#E62129"/>
<path fill-rule="evenodd" clip-rule="evenodd" d="M186.934 32.8296C188.372 34.4142 189.248 36.501 189.248 38.7826C189.248 43.7169 185.152 47.7414 180.13 47.7414C176.725 47.7414 173.747 45.8916 172.181 43.1632C170.608 45.8645 167.644 47.6918 164.26 47.6918C159.238 47.6918 155.142 43.6675 155.142 38.7331C155.142 36.4726 156.002 34.4034 157.416 32.8243C153.317 31.9497 150.229 28.3526 150.229 24.0693C150.229 19.135 154.326 15.1106 159.348 15.1106C160.682 15.1106 161.951 15.3948 163.095 15.9045C163.066 15.6149 163.051 15.3214 163.051 15.0246C163.051 10.0902 167.147 6.06583 172.17 6.06583C177.192 6.06583 181.288 10.0902 181.288 15.0246C181.288 15.3221 181.273 15.6162 181.244 15.9065C182.381 15.4038 183.642 15.1236 184.966 15.1236C189.988 15.1236 194.085 19.148 194.085 24.0823C194.085 28.3531 191.016 31.9416 186.934 32.8296Z" fill="#FEFEFE"/>
<path fill-rule="evenodd" clip-rule="evenodd" d="M167.38 14.625L176.297 14.6253V23.3693H185.197V32.13H176.297V40.874H167.38V32.13H158.479L158.48 23.3693H167.38V14.625Z" fill="#E62129"/>
<path fill-rule="evenodd" clip-rule="evenodd" d="M249.526 48.865C249.526 48.8509 249.526 48.8369 249.526 48.8298C249.247 48.8017 248.961 48.7526 248.689 48.6963C248.56 48.6542 248.439 48.612 248.317 48.5699C248.017 48.4223 247.588 48.1553 247.466 47.8251C247.23 47.5158 247.208 47.0521 247.166 46.6867C247.158 46.497 247.158 46.3073 247.158 46.1176C247.173 46.0964 247.187 46.0754 247.208 46.0613C247.809 46.0543 248.417 46.0543 249.025 46.0543C249.032 46.2511 249.047 46.4478 249.061 46.6516C249.118 46.8062 249.182 47.1083 249.333 47.1786C249.333 47.298 249.783 47.4526 249.883 47.4667C250.041 47.4667 250.205 47.4667 250.37 47.4667C250.513 47.4386 250.684 47.3823 250.806 47.305C250.942 47.1926 251.028 47.0521 251.114 46.9116C251.135 46.771 251.164 46.6235 251.164 46.4759C251.142 46.3846 251.128 46.2932 251.114 46.2089C251.092 46.1738 251.071 46.1386 251.056 46.1035C251.013 46.0613 250.978 46.0191 250.942 45.977C250.827 45.8927 250.713 45.8083 250.606 45.7311C250.377 45.6679 250.155 45.5344 249.919 45.4781C249.869 45.4289 249.776 45.4219 249.705 45.4009C249.705 45.3728 249.54 45.3376 249.511 45.3376C249.368 45.2743 249.147 45.2322 249.025 45.1479C248.875 45.1198 248.71 45.0354 248.567 44.9863C248.36 44.8457 248.06 44.7544 247.902 44.5506C247.695 44.389 247.466 44.129 247.394 43.869C247.38 43.848 247.366 43.8268 247.359 43.8058C247.323 43.7004 247.294 43.595 247.266 43.4896C247.244 43.349 247.223 43.2085 247.201 43.068C247.201 42.9555 247.201 42.8501 247.201 42.7448C247.273 42.5621 247.23 42.3231 247.323 42.1334C247.387 41.7961 247.602 41.4799 247.852 41.234C247.995 41.1216 248.138 41.0162 248.288 40.9108C248.489 40.8265 248.682 40.7211 248.889 40.6648C249.211 40.5595 249.554 40.4962 249.905 40.4962C250.284 40.44 250.713 40.5103 251.085 40.5454C251.4 40.6157 251.707 40.7 251.993 40.8405C252.122 40.9318 252.251 41.0232 252.379 41.1216C252.408 41.1778 252.487 41.241 252.53 41.2832C252.651 41.4589 252.801 41.6696 252.851 41.8875C253.009 42.2599 252.987 42.6745 252.987 43.068C252.372 43.075 251.764 43.082 251.156 43.089C251.078 43.0118 251.099 42.9064 251.092 42.801C251.071 42.6956 251.056 42.5972 251.042 42.4988C250.985 42.3864 250.935 42.274 250.885 42.1615C250.82 42.1053 250.756 42.0561 250.692 42.0069C250.634 41.9788 250.584 41.9577 250.534 41.9366C250.313 41.9085 250.077 41.9156 249.855 41.9366C249.697 42.007 249.554 42.0842 249.419 42.1826C249.368 42.2528 249.318 42.3231 249.275 42.4004C249.254 42.4848 249.233 42.5691 249.218 42.6604C249.225 42.7448 249.233 42.8291 249.24 42.9204C249.247 42.9696 249.261 43.0188 249.275 43.068C249.304 43.1171 249.333 43.1663 249.361 43.2225C249.497 43.3841 249.669 43.4755 249.848 43.5739C250.169 43.6793 250.52 43.8409 250.849 43.9042C251.142 44.0025 251.435 44.1079 251.736 44.2133C251.879 44.2836 252.079 44.3468 252.194 44.4593C252.251 44.4943 252.315 44.5295 252.379 44.5646C252.415 44.5928 252.451 44.6209 252.494 44.649C252.494 44.656 252.494 44.663 252.494 44.6771C252.501 44.6771 252.508 44.6771 252.515 44.6771C252.601 44.7825 252.694 44.8879 252.787 44.9933C252.93 44.9933 253.088 45.6608 253.13 45.7521C253.159 46.0332 253.18 46.3213 253.166 46.6094C253.152 46.9397 253.066 47.284 252.916 47.5791C252.751 47.811 252.587 48.078 252.344 48.2396C252.344 48.3239 251.829 48.5628 251.707 48.605C251.7 48.612 251.693 48.619 251.693 48.6261C251.493 48.6753 251.3 48.7244 251.106 48.7807C250.935 48.7947 250.77 48.8088 250.606 48.8298C250.606 48.8369 250.606 48.8509 250.606 48.865C250.284 48.865 249.962 48.865 249.64 48.865C249.64 48.8509 249.64 48.8369 249.64 48.8298C249.612 48.8298 249.59 48.8298 249.569 48.8298C249.569 48.8369 249.569 48.8509 249.569 48.865C249.554 48.865 249.54 48.865 249.526 48.865Z" fill="white"/>
<path fill-rule="evenodd" clip-rule="evenodd" d="M203.645 48.6893C203.595 48.6753 203.545 48.6612 203.502 48.6542C203.502 45.1338 203.502 41.6205 203.502 38.1071C203.524 38.1001 203.545 38.0931 203.574 38.086C204.232 38.086 204.897 38.086 205.562 38.086C205.598 38.0931 205.633 38.1001 205.669 38.1071C205.669 41.6064 205.676 45.1127 205.684 48.619C205.662 48.6331 205.648 48.6542 205.633 48.6753C204.968 48.6753 204.303 48.6823 203.645 48.6893Z" fill="white"/>
<path fill-rule="evenodd" clip-rule="evenodd" d="M207.507 48.6893C207.45 48.6823 207.4 48.6682 207.364 48.6331C207.357 46.0121 207.357 43.3982 207.357 40.7843C207.364 40.7561 207.371 40.728 207.379 40.707C208.029 40.7 208.68 40.7 209.331 40.7C209.338 40.714 209.345 40.728 209.36 40.7492C209.36 41.0091 209.36 41.2691 209.367 41.5361C209.374 41.5502 209.381 41.5642 209.395 41.5853C209.41 41.5291 209.438 41.5221 209.474 41.487C209.567 41.3675 209.66 41.2481 209.753 41.1286C209.789 41.1005 209.825 41.0724 209.867 41.0443C209.867 40.9108 210.461 40.6719 210.554 40.6297C210.883 40.5384 211.226 40.4751 211.57 40.4751C211.748 40.4962 211.934 40.5172 212.12 40.5453C212.199 40.5665 212.285 40.5875 212.371 40.6157C212.435 40.6438 212.507 40.6719 212.578 40.7C212.721 40.8194 212.907 40.9108 213.036 41.0513C213.072 41.0935 213.107 41.1356 213.15 41.1848C213.215 41.2972 213.279 41.4167 213.351 41.5361C213.379 41.6134 213.408 41.6907 213.436 41.768C213.472 41.9788 213.515 42.1826 213.529 42.4004C213.529 44.4733 213.529 46.5532 213.529 48.6331C213.515 48.6471 213.501 48.6612 213.486 48.6823C212.814 48.6753 212.142 48.6753 211.477 48.6753C211.462 48.6612 211.448 48.6471 211.441 48.6331C211.434 46.7078 211.434 44.7895 211.434 42.8712C211.405 42.7447 211.377 42.6253 211.348 42.5058C211.319 42.4567 211.291 42.4075 211.262 42.3582C211.248 42.3582 211.241 42.3582 211.233 42.3582C211.083 42.1545 210.955 42.1404 210.711 42.0772C210.49 42.0772 210.304 42.0912 210.089 42.1474C210.039 42.1755 209.989 42.2037 209.939 42.2318C209.867 42.288 209.803 42.3442 209.739 42.4075C209.681 42.4918 209.631 42.5831 209.581 42.6745C209.56 42.7237 209.539 42.7799 209.524 42.8361C209.503 42.9626 209.488 43.089 209.474 43.2225C209.467 45.0073 209.467 46.7921 209.467 48.5839C209.467 48.6682 209.36 48.6753 209.295 48.6823C208.695 48.6823 208.101 48.6823 207.507 48.6893Z" fill="white"/>
<path fill-rule="evenodd" clip-rule="evenodd" d="M231.488 48.6893C231.438 48.6823 231.402 48.6542 231.381 48.612C231.381 45.9981 231.381 43.3912 231.381 40.7843C231.381 40.7421 231.402 40.714 231.424 40.6929C232.053 40.6929 232.69 40.6929 233.326 40.6929C233.341 40.6929 233.355 40.7 233.369 40.707C233.455 40.96 233.269 41.3113 233.426 41.5502C233.448 41.5502 233.562 41.3675 233.577 41.3394C233.598 41.3394 233.698 41.2129 233.712 41.1848C233.755 41.1567 233.891 41.0302 233.913 40.9881C234.099 40.8756 234.285 40.714 234.506 40.6578C234.835 40.4962 235.25 40.468 235.615 40.468C235.787 40.4891 235.958 40.5102 236.137 40.5384C236.244 40.5734 236.373 40.5945 236.466 40.6578C236.552 40.6788 236.809 40.7843 236.838 40.8756C237.117 41.0091 237.31 41.4097 237.41 41.6837C237.474 41.9226 237.532 42.1755 237.553 42.4215C237.546 44.4943 237.546 46.5743 237.546 48.6542C237.517 48.6612 237.496 48.6682 237.474 48.6823C236.824 48.6823 236.173 48.6823 235.522 48.6823C235.501 48.6682 235.486 48.6542 235.472 48.6471C235.458 46.7429 235.45 44.8387 235.443 42.9415C235.429 42.8361 235.415 42.7306 235.4 42.6252C235.372 42.562 235.35 42.4988 235.329 42.4356C235.243 42.3091 235.136 42.2247 235.007 42.1474C234.943 42.1264 234.878 42.1053 234.821 42.0842C234.657 42.0842 234.492 42.0842 234.328 42.0842C234.242 42.1053 234.156 42.1334 234.077 42.1615C234.041 42.1755 234.006 42.1966 233.97 42.2177C233.813 42.3513 233.734 42.4145 233.641 42.5831C233.634 42.6252 233.612 42.6885 233.577 42.7236C233.541 42.8993 233.505 43.075 233.476 43.2577C233.469 45.0565 233.469 46.8553 233.469 48.6542C233.455 48.6612 233.448 48.6682 233.441 48.6823C232.79 48.6823 232.139 48.6823 231.488 48.6893Z" fill="white"/>
<path fill-rule="evenodd" clip-rule="evenodd" d="M254.89 48.6893C254.876 48.6752 254.868 48.6612 254.861 48.6542C254.854 46.0262 254.854 43.3982 254.854 40.7702C254.861 40.7421 254.868 40.714 254.883 40.6929C255.555 40.6929 256.234 40.6929 256.914 40.7C256.921 40.707 256.928 40.721 256.935 40.7351C256.935 43.3701 256.935 46.0051 256.935 48.6401C256.928 48.6471 256.921 48.6542 256.914 48.6682C256.234 48.6752 255.562 48.6823 254.89 48.6893Z" fill="white"/>
<path fill-rule="evenodd" clip-rule="evenodd" d="M225.852 48.865C225.845 48.8509 225.838 48.8369 225.838 48.8228C225.531 48.7736 225.173 48.7315 224.887 48.612C224.787 48.5628 224.694 48.5136 224.601 48.4715C224.479 48.3801 224.358 48.2887 224.243 48.1974C224.172 48.1201 224.043 48.0077 224 47.9163C223.886 47.9163 223.628 47.2277 223.585 47.1575C223.528 46.9607 223.478 46.7639 223.428 46.5743C223.378 46.1878 223.328 45.8013 223.285 45.4148C223.285 45.4008 223.285 45.3938 223.285 45.3867C223.285 44.9511 223.285 44.5154 223.292 44.0798C223.292 43.9392 223.285 43.7847 223.335 43.6512C223.356 43.2506 223.414 42.8501 223.549 42.4707C223.607 42.1896 223.771 41.9437 223.9 41.6907C223.943 41.6204 223.986 41.5572 224.029 41.494C224.043 41.4799 224.057 41.4729 224.072 41.4659C224.122 41.3605 224.336 41.1145 224.451 41.0864C224.451 41.0162 224.722 40.9037 224.78 40.8475C224.822 40.8194 224.873 40.7983 224.923 40.7773C225.073 40.721 225.223 40.6648 225.38 40.6086C225.845 40.5172 226.296 40.468 226.768 40.468C226.982 40.4891 227.197 40.5102 227.411 40.5384C227.648 40.5945 227.884 40.6648 228.112 40.7491C228.213 40.8054 228.32 40.8615 228.427 40.9178C228.427 40.9389 228.613 41.0513 228.642 41.0654C228.642 41.0724 228.642 41.0794 228.649 41.0935C229.021 41.4097 229.271 41.8453 229.4 42.3021C229.407 42.3091 229.414 42.3231 229.428 42.3372C229.493 42.6674 229.593 42.9976 229.614 43.335C229.672 43.609 229.679 43.9111 229.686 44.1922C229.679 44.6911 229.672 45.19 229.664 45.6959C229.586 45.8927 229.65 46.244 229.543 46.4056C229.507 46.5532 229.478 46.7078 229.45 46.8623C229.421 46.9467 229.393 47.038 229.364 47.1294C229.335 47.1856 229.314 47.2418 229.293 47.305C229.157 47.558 229.014 47.8109 228.828 48.0358C228.77 48.071 228.599 48.2114 228.577 48.2606C228.413 48.3731 228.198 48.5488 227.998 48.5839C227.683 48.7385 227.283 48.7877 226.932 48.8298C226.932 48.8369 226.932 48.8509 226.932 48.865C226.596 48.865 226.26 48.865 225.931 48.865C225.931 48.8509 225.931 48.8369 225.931 48.8298C225.917 48.8298 225.902 48.8298 225.888 48.8298C225.888 48.8369 225.888 48.8509 225.888 48.865C225.874 48.865 225.859 48.865 225.852 48.865ZM226.281 47.4737C226.196 47.4385 226.11 47.4104 226.031 47.3823C226.031 47.3683 226.031 47.3613 226.031 47.3542C225.867 47.291 225.795 47.1645 225.702 47.031C225.695 47.031 225.688 47.031 225.681 47.031C225.631 46.9115 225.581 46.7991 225.538 46.6867C225.459 46.4056 225.438 46.1105 225.423 45.8224C225.309 45.1478 225.395 44.4241 225.395 43.7425C225.452 43.3209 225.438 42.8782 225.616 42.4848C225.659 42.4004 225.709 42.3161 225.759 42.2388C225.924 42.0491 226.06 41.9647 226.31 41.9085C226.446 41.9085 226.739 41.8664 226.847 41.9718C226.918 42.0069 226.99 42.042 227.068 42.0842C227.068 42.1264 227.111 42.1404 227.14 42.1545C227.211 42.288 227.283 42.4215 227.361 42.562C227.626 43.4333 227.59 44.3749 227.59 45.2743C227.576 45.6116 227.526 45.9629 227.497 46.3002C227.469 46.4056 227.447 46.5181 227.426 46.6304C227.376 46.7499 227.333 46.9677 227.24 47.0591C227.197 47.1504 227.104 47.2277 227.047 47.305C226.947 47.3542 226.847 47.4034 226.746 47.4526C226.589 47.4596 226.432 47.4667 226.281 47.4737Z" fill="white"/>
<path fill-rule="evenodd" clip-rule="evenodd" d="M260.254 48.865C260.247 48.8509 260.24 48.8369 260.24 48.8228C259.846 48.7666 259.353 48.5839 259.138 48.2255C259.131 48.2255 259.124 48.2255 259.117 48.2255C259.009 48.085 258.909 47.9234 258.859 47.7478C258.73 47.5931 258.688 47.1856 258.652 47.0169C258.652 46.7078 258.652 46.3986 258.652 46.0894C258.688 45.9278 258.695 45.6959 258.788 45.5554C258.852 45.2322 259.102 44.8668 259.381 44.6841C259.388 44.67 259.396 44.656 259.41 44.6419C259.689 44.4733 259.925 44.3327 260.232 44.2414C260.383 44.1852 260.54 44.1219 260.697 44.1009C260.74 44.0798 260.783 44.0657 260.826 44.0517C261.169 43.9884 261.506 43.862 261.849 43.7987C261.92 43.7707 261.999 43.7495 262.078 43.7285C262.135 43.7004 262.192 43.6793 262.257 43.6582C262.335 43.602 262.421 43.5458 262.507 43.4896C262.528 43.4544 262.55 43.4193 262.578 43.3841C262.614 43.2858 262.657 43.2085 262.671 43.1031C262.671 42.9626 262.729 42.534 262.614 42.4215C262.6 42.3794 262.585 42.3372 262.578 42.3021C262.564 42.295 262.557 42.288 262.55 42.288C262.55 42.2388 262.45 42.1404 262.421 42.0912C262.378 42.0631 262.335 42.0351 262.292 42.0069C262.228 41.9788 262.164 41.9577 262.106 41.9366C261.806 41.8875 261.284 41.8453 261.076 42.1334C260.926 42.2247 260.869 42.4567 260.812 42.6042C260.805 42.7799 260.797 42.9555 260.79 43.1382C260.168 43.1382 259.546 43.1452 258.924 43.1523C258.909 43.1452 258.902 43.1382 258.895 43.1382C258.895 42.9626 258.895 42.7869 258.902 42.6183C258.981 42.0351 259.131 41.6907 259.481 41.234C259.567 41.1567 259.653 41.0794 259.746 41.0091C259.911 40.8967 260.068 40.7983 260.254 40.7421C260.368 40.6859 260.504 40.6438 260.626 40.6086C260.726 40.5805 260.826 40.5594 260.933 40.5384C261.119 40.5243 261.312 40.5103 261.506 40.4962C261.756 40.4189 262.092 40.4962 262.357 40.4962C262.492 40.5103 262.636 40.5243 262.779 40.5384C262.893 40.5594 263.007 40.5805 263.122 40.6086C263.229 40.6438 263.365 40.6648 263.451 40.728C263.78 40.8054 264.18 41.0935 264.345 41.3956C264.538 41.5853 264.559 41.9577 264.652 42.1966C264.66 42.3021 264.674 42.4075 264.688 42.5129C264.724 44.2554 264.724 46.0191 264.731 47.7618C264.753 47.9796 264.774 48.2606 264.888 48.4504C264.896 48.5066 264.967 48.6261 264.903 48.6682C264.266 48.6682 263.63 48.6753 263 48.6823C262.979 48.6682 262.957 48.6542 262.936 48.6471C262.9 48.5839 262.864 48.5207 262.836 48.4574C262.807 48.3731 262.786 48.2887 262.764 48.2115C262.743 48.1131 262.721 48.0148 262.707 47.9163C262.678 47.9234 262.65 47.9304 262.628 47.9445C262.428 48.2325 262.192 48.5347 261.849 48.6542C261.613 48.7666 261.298 48.8017 261.041 48.8369C261.041 48.8439 261.041 48.8509 261.041 48.865C260.776 48.865 260.511 48.865 260.254 48.865ZM261.227 47.4737C261.134 47.4175 260.998 47.3894 260.933 47.284C260.654 47.0099 260.654 46.5743 260.654 46.2159C260.697 45.7943 260.869 45.4922 261.248 45.2814C261.32 45.2533 261.391 45.2252 261.463 45.2041C261.842 45.0565 262.271 45.0144 262.614 44.7684C262.628 44.7754 262.65 44.7825 262.671 44.7895C262.671 45.3587 262.671 45.9349 262.671 46.511C262.636 46.7218 262.543 46.8905 262.414 47.0591C262.314 47.1434 262.214 47.2277 262.113 47.3121C261.978 47.3542 261.849 47.4034 261.72 47.4526C261.556 47.4596 261.391 47.4667 261.227 47.4737Z" fill="white"/>
<path fill-rule="evenodd" clip-rule="evenodd" d="M217.341 48.8228C217.098 48.7877 216.791 48.7244 216.583 48.5839C216.168 48.4223 215.789 47.9304 215.646 47.5299C215.639 47.5229 215.632 47.5158 215.625 47.5089C215.546 47.2559 215.468 47.0029 215.396 46.757C215.367 46.6235 215.346 46.497 215.324 46.3705C215.296 46.0824 215.267 45.8014 215.239 45.5203C215.239 44.8808 215.246 44.2485 215.253 43.616C215.324 43.1382 215.346 42.6534 215.518 42.1966C215.639 41.6978 215.925 41.227 216.326 40.9037C216.433 40.8335 216.54 40.7632 216.648 40.7C216.712 40.6648 216.784 40.6367 216.855 40.6086C216.934 40.5805 217.012 40.5595 217.098 40.5384C217.341 40.5103 217.585 40.4681 217.828 40.4681C217.985 40.4891 218.142 40.5103 218.307 40.5384C218.457 40.6016 218.614 40.6438 218.75 40.7351C219.022 40.8686 219.251 41.1286 219.43 41.3605C219.437 41.3605 219.444 41.3605 219.458 41.3605C219.466 41.3464 219.473 41.3324 219.487 41.3183C219.487 40.2573 219.487 39.1963 219.494 38.1353C219.53 38.1001 219.573 38.1001 219.623 38.079C220.245 38.079 220.867 38.079 221.497 38.079C221.54 38.079 221.568 38.1141 221.597 38.1422C221.59 41.6346 221.59 45.1268 221.59 48.6261C221.547 48.6682 221.497 48.6753 221.432 48.6823C220.839 48.6823 220.245 48.6823 219.659 48.6823C219.637 48.6612 219.616 48.6401 219.594 48.619C219.587 48.3941 219.58 48.1693 219.58 47.9515C219.559 47.9445 219.537 47.9375 219.516 47.9375C219.169 48.3808 218.956 48.537 218.414 48.7736C218.158 48.8473 217.514 48.8837 217.341 48.8228ZM218.243 47.298C218.185 47.284 218.128 47.2699 218.078 47.2559C217.849 47.1434 217.692 47.038 217.585 46.8062C217.527 46.75 217.549 46.6375 217.492 46.5813C217.456 46.4127 217.427 46.2511 217.399 46.0894C217.377 45.8786 217.356 45.6679 217.341 45.457C217.334 45.0846 217.327 44.7122 217.327 44.3398C217.348 43.9884 217.37 43.6441 217.399 43.2998C217.442 42.9907 217.499 42.6394 217.699 42.3934C217.699 42.2599 218.092 42.1123 218.178 42.0842C218.328 42.0842 218.479 42.0842 218.629 42.0842C218.7 42.1053 218.772 42.1264 218.843 42.1545C218.893 42.1896 218.943 42.2247 218.994 42.2599C219.144 42.4145 219.237 42.555 219.28 42.7588C219.351 42.8291 219.322 42.9977 219.38 43.089C219.401 43.2788 219.43 43.4685 219.458 43.6652C219.487 44.5225 219.516 45.3938 219.387 46.244C219.358 46.3635 219.33 46.4829 219.301 46.6094C219.265 46.6867 219.23 46.764 219.201 46.8413C219.172 46.9537 219.036 47.0942 218.951 47.1575C218.893 47.1856 218.843 47.2137 218.793 47.2418C218.614 47.2769 218.428 47.291 218.243 47.298Z" fill="white"/>
<path fill-rule="evenodd" clip-rule="evenodd" d="M241.895 48.865C241.895 48.8509 241.895 48.8369 241.895 48.8298C241.53 48.7877 241.151 48.7385 240.822 48.5769C240.736 48.5769 240.55 48.4434 240.478 48.4012C240.478 48.3872 240.478 48.3801 240.478 48.3731C240.343 48.3731 240.049 48.0288 239.978 47.9655C239.778 47.6845 239.57 47.3613 239.491 47.0169C239.37 46.778 239.341 46.4267 239.298 46.1597C239.291 45.9489 239.284 45.7381 239.277 45.5273C239.184 45.3376 239.313 45.0284 239.227 44.8176C239.234 44.5436 239.241 44.2695 239.255 43.9955C239.27 43.8058 239.284 43.616 239.298 43.4333C239.32 43.2577 239.341 43.089 239.37 42.9204C239.427 42.7166 239.484 42.5129 239.542 42.3091C239.592 42.1826 239.642 42.0561 239.699 41.9366C239.735 41.9156 239.813 41.7258 239.835 41.6767C239.942 41.5361 240.049 41.4026 240.164 41.2691C240.264 41.1848 240.371 41.1005 240.478 41.0232C240.478 40.9459 240.8 40.8405 240.872 40.7702C240.915 40.7561 240.958 40.7421 241.001 40.7351C241.008 40.721 241.022 40.714 241.036 40.707C241.551 40.5384 242.073 40.4751 242.624 40.4751C242.86 40.5103 243.239 40.4681 243.432 40.5945C243.754 40.6367 244.062 40.8335 244.341 40.9951C244.641 41.2551 244.891 41.5221 245.049 41.8945C245.149 42.0912 245.235 42.3091 245.27 42.534C245.277 42.548 245.285 42.5691 245.299 42.5902C245.328 42.7728 245.356 42.9626 245.392 43.1523C245.413 43.4685 245.435 43.7847 245.463 44.1009C245.463 44.2203 245.499 44.9441 245.449 44.9933C244.097 44.9933 242.753 45.0003 241.408 45.0073C241.358 45.0284 241.358 45.0495 241.337 45.0987C241.337 45.3446 241.322 45.6046 241.365 45.8435C241.365 46.3916 241.473 46.9959 241.93 47.3613C242.009 47.3964 242.088 47.4315 242.166 47.4667C242.309 47.4667 242.452 47.4667 242.595 47.4667C242.66 47.4385 242.731 47.4175 242.803 47.3964C243.046 47.2488 243.196 47.024 243.296 46.771C243.346 46.5391 243.432 46.2932 243.447 46.0543C243.461 46.0262 243.475 45.9981 243.489 45.977C244.09 45.977 244.691 45.977 245.292 45.977C245.306 45.9981 245.32 46.0191 245.335 46.0473C245.32 46.223 245.306 46.3986 245.299 46.5813C245.256 46.7078 245.263 46.8834 245.199 46.9818C245.099 47.4385 244.734 48.1482 244.276 48.3731C244.276 48.4293 243.883 48.5909 243.804 48.6401C243.64 48.6682 243.447 48.7244 243.289 48.7807C243.146 48.7947 243.01 48.8088 242.874 48.8298C242.874 48.8369 242.874 48.8509 242.874 48.865C242.545 48.865 242.216 48.865 241.895 48.865ZM241.394 43.7636C241.372 43.7495 241.358 43.7355 241.344 43.7285C241.337 43.6301 241.337 43.5317 241.337 43.4404C241.387 43.082 241.365 42.6956 241.587 42.3864C241.594 42.3582 241.608 42.3301 241.623 42.3021C241.63 42.295 241.644 42.295 241.659 42.295C241.659 42.1966 241.859 42.0631 241.923 42.0069C241.973 41.9788 242.03 41.9577 242.088 41.9366C242.288 41.9085 242.538 41.8804 242.738 41.9366C242.853 41.9929 242.975 42.0631 243.075 42.1474C243.411 42.6183 243.418 43.1733 243.447 43.7355C243.439 43.7355 243.432 43.7426 243.432 43.7495C242.753 43.7495 242.073 43.7566 241.394 43.7636Z" fill="white"/>
<path fill-rule="evenodd" clip-rule="evenodd" d="M254.876 39.8638C254.868 39.8357 254.861 39.8076 254.854 39.7795C254.854 39.2314 254.854 38.6904 254.854 38.1493C254.876 38.1001 254.876 38.1001 254.926 38.079C255.569 38.079 256.213 38.079 256.857 38.079C256.878 38.086 256.9 38.0931 256.921 38.1001C256.921 38.6693 256.928 39.2384 256.935 39.8146C256.928 39.8216 256.921 39.8357 256.921 39.8497C256.234 39.8497 255.555 39.8568 254.876 39.8638Z" fill="white"/>
<path fill-rule="evenodd" clip-rule="evenodd" d="M203.559 32.823C203.538 32.8161 203.516 32.809 203.502 32.802C203.495 29.2816 203.488 25.7612 203.488 22.2479C203.509 22.2268 203.531 22.2128 203.552 22.1987C204.603 22.1987 205.662 22.1987 206.72 22.2058C206.742 22.276 206.763 22.3533 206.792 22.4306C206.828 22.6414 206.864 22.8522 206.907 23.063C206.914 23.0841 206.921 23.1051 206.935 23.1332C206.992 23.5057 207.071 23.9062 207.171 24.2716C207.178 24.4051 207.214 24.5526 207.257 24.6791C207.264 24.7916 207.286 24.9111 207.328 25.0164C207.35 25.2272 207.414 25.438 207.443 25.6488C207.479 25.7683 207.479 25.965 207.543 26.0634C207.579 26.2812 207.614 26.499 207.657 26.7169C207.729 26.8574 207.722 27.0682 207.779 27.2298C207.808 27.4617 207.865 27.7006 207.922 27.9255C207.994 28.4806 208.165 29.0357 208.258 29.5838C208.258 29.5908 208.265 29.5978 208.272 29.6048C208.337 29.4362 208.387 29.2676 208.408 29.0848C208.437 28.9513 208.473 28.8178 208.509 28.6843C208.544 28.4735 208.58 28.2627 208.623 28.0519C208.673 27.8903 208.68 27.7006 208.745 27.539C208.809 27.026 208.988 26.5131 209.052 26.0002C209.088 25.8245 209.131 25.6488 209.174 25.4732C209.281 24.904 209.431 24.3137 209.517 23.7516C209.524 23.7235 209.531 23.7024 209.546 23.6814C209.581 23.4213 209.639 23.1543 209.71 22.9014C209.739 22.6695 209.753 22.3884 209.896 22.1987C210.947 22.1987 211.999 22.1987 213.05 22.2058C213.057 22.2339 213.072 22.262 213.086 22.2901C213.079 25.7823 213.079 29.2746 213.079 32.7669C213.064 32.7809 213.057 32.7949 213.05 32.809C212.392 32.802 211.734 32.802 211.083 32.802C211.069 30.0616 211.055 27.3212 211.048 24.5878C211.04 24.5667 211.033 24.5456 211.026 24.5316C210.876 24.9743 210.84 25.4732 210.697 25.9229C210.611 26.4288 210.447 26.9347 210.368 27.4547C210.282 27.6304 210.254 27.9044 210.225 28.1011C210.139 28.2698 210.103 28.5227 210.082 28.7124C209.975 29.0708 209.918 29.4572 209.817 29.8156C209.674 30.448 209.531 31.0805 209.395 31.7128C209.353 31.8674 209.317 32.022 209.281 32.1766C209.26 32.3312 209.209 32.6895 209.109 32.809C208.566 32.809 208.022 32.809 207.486 32.809C207.464 32.802 207.45 32.7949 207.436 32.7949C207.386 32.6474 207.343 32.4858 207.328 32.3312C207.2 31.8815 207.078 31.3826 207.007 30.9188C206.957 30.8134 206.957 30.6658 206.907 30.5534C206.842 30.2513 206.778 29.9562 206.72 29.6611C206.663 29.5486 206.685 29.387 206.62 29.2886C206.606 29.1973 206.599 29.0357 206.549 28.9584C206.406 28.1925 206.184 27.4336 206.041 26.6677C205.941 26.4639 205.97 26.1829 205.869 25.9861C205.805 25.5786 205.676 25.171 205.612 24.7635C205.59 24.7283 205.576 24.6932 205.562 24.658C205.54 24.5878 205.526 24.5245 205.512 24.4613C205.505 24.4894 205.497 24.5175 205.49 24.5526C205.483 27.3001 205.476 30.0475 205.469 32.802C204.832 32.809 204.196 32.8161 203.559 32.823Z" fill="white"/>
<path fill-rule="evenodd" clip-rule="evenodd" d="M221.89 32.823C221.876 32.8019 221.861 32.7879 221.854 32.7738C221.854 30.1318 221.854 27.4898 221.854 24.8478C221.861 24.8407 221.869 24.8337 221.876 24.8267C222.519 24.8267 223.17 24.8267 223.821 24.8267C223.828 24.8267 223.835 24.8337 223.85 24.8407C223.85 25.1288 223.85 25.4169 223.857 25.7121C223.871 25.7402 223.885 25.7683 223.907 25.7964C224.079 25.5153 224.272 25.2764 224.515 25.0515C224.608 24.9813 224.701 24.918 224.801 24.8548C224.844 24.8267 224.894 24.7986 224.944 24.7705C225.001 24.7424 225.066 24.7143 225.13 24.6932C225.416 24.644 225.831 24.5316 226.103 24.6651C226.103 25.2904 226.103 25.9229 226.11 26.5552C226.095 26.5693 226.081 26.5833 226.074 26.6044C225.809 26.5974 225.545 26.5904 225.28 26.5904C225.151 26.6114 225.023 26.6396 224.901 26.6677C224.715 26.759 224.493 26.8293 224.358 26.9909C224.3 27.0401 224.243 27.0963 224.193 27.1525C224.136 27.2439 224.086 27.3352 224.036 27.4265C224.007 27.5039 223.986 27.5881 223.964 27.6725C223.957 29.3659 223.95 31.0593 223.943 32.7528C223.936 32.7669 223.928 32.7879 223.921 32.809C223.242 32.809 222.562 32.816 221.89 32.823Z" fill="white"/>
<path fill-rule="evenodd" clip-rule="evenodd" d="M235.064 32.823C235.036 32.7949 235.007 32.7739 234.978 32.7528C234.978 29.2605 234.978 25.7753 234.978 22.2901C234.993 22.2339 234.993 22.2198 235.043 22.1987C235.701 22.1987 236.366 22.1987 237.031 22.1987C237.053 22.2268 237.074 22.2549 237.095 22.2901C237.088 23.3581 237.088 24.4262 237.088 25.5013C237.117 25.5293 237.117 25.5364 237.174 25.5364C237.403 25.1288 237.839 24.8197 238.297 24.7213C238.376 24.644 238.626 24.644 238.74 24.6229C238.948 24.6159 239.155 24.6159 239.37 24.6159C239.513 24.637 239.656 24.658 239.806 24.6862C240.078 24.7705 240.328 24.8829 240.55 25.0586C240.55 25.0656 240.55 25.0727 240.55 25.0796C240.571 25.0937 240.593 25.1078 240.621 25.1288C240.621 25.1359 240.621 25.1429 240.621 25.1499C240.772 25.2483 240.893 25.4872 240.958 25.6418C241.008 25.6909 241.015 25.8034 241.051 25.8737C241.072 25.9791 241.093 26.0915 241.122 26.2039C241.129 26.3234 241.143 26.4428 241.158 26.5623C241.151 28.6352 241.151 30.708 241.151 32.7809C241.143 32.7879 241.136 32.7949 241.129 32.809C240.443 32.802 239.763 32.802 239.084 32.802C239.069 30.8415 239.055 28.8811 239.048 26.9206C239.005 26.7871 238.976 26.6396 238.905 26.5131C238.655 26.1969 238.29 26.1758 237.904 26.218C237.732 26.2953 237.517 26.3374 237.403 26.499C237.339 26.499 237.224 26.759 237.196 26.8293C237.153 27.026 237.11 27.2228 237.088 27.4266C237.088 29.1762 237.088 30.9258 237.095 32.6755C237.081 32.7176 237.067 32.7598 237.053 32.802C236.387 32.809 235.722 32.8161 235.064 32.823Z" fill="white"/>
<path fill-rule="evenodd" clip-rule="evenodd" d="M229.128 32.9776C229.006 32.9565 228.885 32.9354 228.77 32.9214C228.563 32.8652 228.134 32.6965 228.034 32.4998C227.826 32.3452 227.726 32.0923 227.605 31.8885C227.583 31.8323 227.562 31.7831 227.547 31.7339C227.519 31.6285 227.49 31.5301 227.462 31.4318C227.433 31.2631 227.411 31.0945 227.39 30.9258C227.39 30.5745 227.376 30.1389 227.512 29.8156C227.569 29.4643 227.826 28.9865 228.141 28.8319C228.141 28.8178 228.141 28.8038 228.141 28.7967C228.348 28.6984 228.556 28.5016 228.792 28.4595C229.085 28.3189 229.436 28.2206 229.757 28.1573C229.85 28.1152 229.993 28.1152 230.079 28.0589C230.322 27.9957 230.566 27.9325 230.809 27.8763C230.866 27.8482 230.923 27.827 230.988 27.806C231.102 27.7287 231.216 27.6514 231.317 27.553C231.338 27.5109 231.359 27.4687 231.388 27.4265C231.41 27.3282 231.431 27.2369 231.46 27.1455C231.46 27.0401 231.46 26.9347 231.46 26.8293C231.431 26.7309 231.41 26.6325 231.388 26.5342C231.259 26.3163 231.145 26.1477 230.88 26.0704C230.601 26.0493 230.151 25.965 229.922 26.1899C229.679 26.2672 229.6 26.6887 229.55 26.8855C229.543 27.012 229.536 27.1385 229.529 27.272C228.906 27.272 228.291 27.272 227.676 27.272C227.669 27.1174 227.669 26.9628 227.669 26.8152C227.69 26.4639 227.769 26.1126 227.934 25.8104C227.962 25.7612 227.991 25.7191 228.027 25.6769C228.263 25.171 228.835 24.925 229.328 24.7564C229.428 24.7283 229.536 24.7072 229.643 24.6862C229.822 24.658 230.001 24.637 230.179 24.6159C230.78 24.6159 231.388 24.6089 231.975 24.7705C232.103 24.8126 232.232 24.8618 232.368 24.911C232.582 25.0094 232.754 25.1429 232.933 25.2834C233.012 25.3888 233.09 25.4942 233.176 25.6067C233.205 25.705 233.262 25.8526 233.319 25.9369C233.341 26.0283 233.362 26.1196 233.391 26.218C233.412 26.3585 233.434 26.506 233.462 26.6536C233.469 28.3752 233.476 30.0967 233.484 31.8252C233.505 32.1344 233.569 32.4366 233.698 32.7176C233.691 32.7457 233.684 32.7738 233.684 32.809C233.047 32.809 232.411 32.809 231.774 32.816C231.66 32.7809 231.617 32.5912 231.567 32.4858C231.545 32.3382 231.503 32.1696 231.445 32.029C231.438 32.022 231.431 32.022 231.424 32.022C231.324 32.2188 231.123 32.4647 230.945 32.5912C230.945 32.6544 230.587 32.7809 230.537 32.83C230.415 32.8582 230.294 32.8863 230.179 32.9214C230.072 32.9284 229.893 32.9144 229.807 32.9706C229.579 32.9706 229.35 32.9706 229.128 32.9776ZM230.108 31.6145C229.936 31.6145 229.779 31.495 229.657 31.3896C229.614 31.3334 229.579 31.2772 229.543 31.2209C229.514 31.1577 229.493 31.0945 229.471 31.0313C229.443 30.8978 229.421 30.7642 229.4 30.6307C229.4 30.3356 229.436 30.0826 229.571 29.8156C229.586 29.7805 229.607 29.7524 229.629 29.7243C229.7 29.654 229.772 29.5838 229.843 29.5135C230.136 29.3378 230.43 29.2464 230.766 29.1832C230.837 29.1551 230.909 29.134 230.98 29.1129C231.088 29.0567 231.266 28.9935 231.352 28.9092C231.381 28.9021 231.41 28.9021 231.438 28.9021C231.438 29.4502 231.445 30.0054 231.452 30.5604C231.424 30.6588 231.402 30.7572 231.381 30.8626C231.295 31.0172 231.195 31.1648 231.066 31.2983C230.945 31.3685 230.823 31.4458 230.701 31.5231C230.501 31.5723 230.315 31.6074 230.108 31.6145Z" fill="white"/>
<path fill-rule="evenodd" clip-rule="evenodd" d="M217.47 32.9846C217.184 32.9846 216.898 32.9355 216.612 32.9214C216.519 32.8933 216.254 32.8582 216.197 32.802C216.161 32.7949 216.125 32.7879 216.09 32.7809C215.775 32.6474 215.339 32.4225 215.146 32.1344C215.024 32.0782 214.967 31.8955 214.874 31.8042C214.745 31.5231 214.616 31.2491 214.545 30.9469C214.466 30.7853 214.459 30.5745 214.423 30.3988C214.402 30.1318 214.38 29.8648 214.366 29.6048C214.359 29.2464 214.352 28.8881 214.352 28.5368C214.38 28.1081 214.409 27.6795 214.445 27.2509C214.481 27.1174 214.473 26.9276 214.545 26.8152C214.566 26.7028 214.609 26.4358 214.688 26.3585C214.724 26.2531 214.759 26.1547 214.802 26.0564C214.902 25.8948 215.003 25.6699 215.153 25.5504C215.16 25.5293 215.167 25.5083 215.174 25.4942C215.231 25.4661 215.296 25.3958 215.332 25.3466C215.46 25.2483 215.589 25.1499 215.718 25.0515C215.811 24.9953 215.904 24.9461 216.004 24.897C216.097 24.8618 216.19 24.8267 216.29 24.7916C216.44 24.7494 216.59 24.7143 216.741 24.6791C216.891 24.658 217.048 24.637 217.206 24.6159C217.456 24.6159 217.706 24.6159 217.956 24.6159C218.121 24.637 218.285 24.658 218.45 24.6862C218.636 24.7424 218.865 24.7775 219.029 24.8899C219.122 24.8899 219.358 25.0656 219.423 25.1078C219.516 25.1781 219.609 25.2553 219.702 25.3326C219.766 25.4099 219.83 25.4872 219.902 25.5645C220.002 25.7402 220.102 25.9158 220.202 26.0985C220.231 26.1618 220.259 26.232 220.288 26.3023C220.309 26.3796 220.331 26.4569 220.36 26.5342C220.381 26.6325 220.402 26.7309 220.431 26.8293C220.452 26.9768 220.474 27.1244 220.503 27.272C220.524 27.5812 220.545 27.8903 220.574 28.2065C220.567 28.5087 220.567 28.8109 220.567 29.1129C219.194 29.12 217.821 29.1341 216.447 29.1481C216.447 29.4011 216.447 29.654 216.447 29.907C216.469 30.1318 216.49 30.3567 216.519 30.5886C216.54 30.6729 216.562 30.7572 216.59 30.8415C216.691 31.1226 216.841 31.3545 217.091 31.5302C217.148 31.5512 217.213 31.5723 217.277 31.6004C217.413 31.6004 217.556 31.6004 217.699 31.6004C217.806 31.5512 217.914 31.5021 218.028 31.4599C218.071 31.4107 218.114 31.3686 218.157 31.3264C218.257 31.3264 218.436 30.7712 218.45 30.6939C218.5 30.5323 218.521 30.3707 218.55 30.2021C218.564 30.174 218.586 30.1459 218.607 30.1248C219.208 30.1248 219.816 30.1248 220.424 30.1318C220.431 30.1459 220.438 30.1599 220.445 30.174C220.445 30.5394 220.367 30.9118 220.274 31.2561C220.209 31.4037 220.145 31.5583 220.088 31.7128C219.995 31.8815 219.88 32.0571 219.744 32.2047C219.666 32.2258 219.473 32.4506 219.401 32.5139C219.301 32.5701 219.201 32.6263 219.101 32.6895C219.044 32.7036 218.972 32.7247 218.936 32.7598C218.836 32.7879 218.743 32.8161 218.65 32.8511C218.543 32.8723 218.436 32.8933 218.328 32.9214C218.185 32.9355 218.042 32.9496 217.899 32.9706C217.756 32.9706 217.613 32.9777 217.47 32.9846ZM216.519 27.9044C216.49 27.8903 216.469 27.8763 216.447 27.8692C216.454 27.2298 216.469 26.5412 217.048 26.1337C217.248 26.0493 217.399 26.0283 217.627 26.0283C217.842 26.0634 217.956 26.1126 218.128 26.232C218.171 26.2812 218.221 26.3304 218.271 26.3866C218.293 26.4288 218.314 26.4709 218.343 26.5131C218.364 26.5693 218.386 26.6325 218.414 26.6958C218.436 26.7871 218.457 26.8855 218.486 26.9839C218.507 27.272 218.536 27.5601 218.564 27.8552C218.557 27.8622 218.55 27.8692 218.55 27.8833C217.871 27.8903 217.191 27.8974 216.519 27.9044Z" fill="white"/>
<path fill-rule="evenodd" clip-rule="evenodd" d="M203.545 15.7623C203.524 15.7482 203.509 15.7412 203.495 15.7341C203.488 12.2067 203.488 8.67934 203.488 5.159C204.968 5.159 206.449 5.159 207.936 5.159C207.936 5.16602 207.936 5.18004 207.936 5.19413C208.051 5.22223 208.237 5.20814 208.315 5.28543C208.587 5.34871 208.823 5.4963 209.066 5.61571C209.066 5.63679 209.481 5.96004 209.496 5.96706C209.51 6.00918 209.517 6.02327 209.553 6.03733C209.653 6.18492 209.753 6.33243 209.86 6.48701C209.925 6.62757 210.003 6.7681 210.046 6.91565C210.053 6.93677 210.068 6.95785 210.082 6.98596C210.132 7.21779 210.211 7.46375 210.239 7.70264C210.247 7.91343 210.318 8.34207 210.261 8.54584C210.247 8.73555 210.232 8.9253 210.218 9.12203C210.161 9.30472 210.111 9.4874 210.061 9.67009C210.025 9.76147 209.96 9.95122 209.896 10.0144C209.796 10.2393 209.639 10.422 209.488 10.6187C209.374 10.7031 209.26 10.7944 209.152 10.8858C209.152 10.8927 209.152 10.8998 209.152 10.9139C209.059 10.9701 208.966 11.0263 208.873 11.0825C208.587 11.223 208.287 11.3495 207.979 11.4057C207.951 11.4127 207.929 11.4198 207.908 11.4338C207.758 11.4549 207.614 11.476 207.472 11.5041C206.885 11.5181 206.299 11.5322 205.712 11.5462C205.705 11.5603 205.698 11.5814 205.698 11.6024C205.683 12.9797 205.676 14.3569 205.669 15.7341C205.655 15.7412 205.641 15.7482 205.633 15.7552C204.932 15.7552 204.239 15.7552 203.545 15.7623ZM205.741 9.95122C205.719 9.93014 205.705 9.90902 205.691 9.89497C205.691 8.86206 205.691 7.82911 205.691 6.79621C205.705 6.78212 205.719 6.7681 205.734 6.75401C206.17 6.75401 206.635 6.73297 207.064 6.77513C207.143 6.79621 207.228 6.81729 207.314 6.84539C207.357 6.86647 207.407 6.88751 207.457 6.91565C207.529 6.97186 207.607 7.02808 207.686 7.09135C207.736 7.16158 207.793 7.23188 207.851 7.30917C207.879 7.38646 207.908 7.46375 207.944 7.54806C208.094 7.8432 208.079 8.24371 208.079 8.56695C208.051 8.70045 208.029 8.84094 208.008 8.98151C207.979 9.0588 207.951 9.13609 207.922 9.2204C207.851 9.31877 207.779 9.42417 207.708 9.5296C207.586 9.63499 207.436 9.74039 207.293 9.81768C207.185 9.84582 207.078 9.87393 206.978 9.90203C206.563 9.91605 206.148 9.93014 205.741 9.95122Z" fill="white"/>
<path fill-rule="evenodd" clip-rule="evenodd" d="M219.637 15.7623C219.616 15.7482 219.594 15.7341 219.573 15.7271C219.566 12.1998 219.566 8.67934 219.566 5.159C220.267 5.159 220.967 5.159 221.676 5.159C221.668 8.67934 221.668 12.1998 221.668 15.7271C221.647 15.7341 221.633 15.7412 221.618 15.7482C220.953 15.7482 220.295 15.7552 219.637 15.7623Z" fill="white"/>
<path fill-rule="evenodd" clip-rule="evenodd" d="M230.973 15.7623C230.966 15.7482 230.959 15.7412 230.952 15.7342C230.952 13.0921 230.952 10.4501 230.952 7.80805C230.959 7.78701 230.966 7.77292 230.973 7.75891C231.61 7.75184 232.246 7.75184 232.883 7.75184C232.897 7.75184 232.911 7.75891 232.933 7.76593C232.94 7.77995 232.947 7.79404 232.954 7.81512C232.954 7.92051 232.926 8.61615 232.997 8.65125C233.055 8.55288 233.119 8.46158 233.183 8.3702C233.376 8.14532 233.67 7.85021 233.97 7.77292C234.134 7.66753 234.349 7.65347 234.535 7.58317C234.971 7.54808 235.465 7.52704 235.887 7.65347C236.001 7.70266 236.166 7.73783 236.259 7.82913C236.416 7.87832 236.545 8.06104 236.673 8.16643C236.745 8.27186 236.817 8.37726 236.888 8.48964C236.91 8.54585 236.931 8.60206 236.96 8.65828C236.981 8.72858 237.002 8.80587 237.031 8.88316C237.06 9.03071 237.088 9.18529 237.117 9.3399C237.117 11.469 237.117 13.598 237.117 15.7342C237.11 15.7342 237.103 15.7412 237.103 15.7482C236.423 15.7482 235.744 15.7482 235.071 15.7482C235.057 15.7412 235.05 15.7342 235.043 15.7342C235.036 13.844 235.028 11.9609 235.028 10.0777C235.007 9.95123 234.986 9.82468 234.971 9.70527C234.928 9.57177 234.871 9.45229 234.785 9.3399C234.456 9.10101 234.106 9.12205 233.72 9.19934C233.655 9.23451 233.591 9.2696 233.527 9.30474C233.319 9.4031 233.205 9.65609 233.126 9.85985C233.097 10.0215 233.069 10.1831 233.047 10.3517C233.04 12.1436 233.04 13.9353 233.04 15.7271C233.026 15.7342 233.019 15.7412 233.012 15.7482C232.332 15.7482 231.653 15.7552 230.973 15.7623Z" fill="white"/>
<path fill-rule="evenodd" clip-rule="evenodd" d="M213.522 15.9099C212.793 15.9099 212.142 15.3828 211.934 14.7083C211.82 14.4834 211.806 14.1883 211.763 13.9423C211.756 13.7526 211.756 13.563 211.756 13.3802C211.784 13.1132 211.806 12.7549 211.942 12.516C212.106 12.0311 212.564 11.5954 213.057 11.4338C213.172 11.3776 213.293 11.3144 213.429 11.2933C213.858 11.1247 214.352 11.0263 214.802 10.9139C214.824 10.8998 214.852 10.8858 214.881 10.8787C215.074 10.8366 215.274 10.7733 215.446 10.689C215.568 10.6047 215.689 10.4993 215.746 10.3587C215.768 10.2744 215.789 10.1901 215.818 10.1058C215.818 10.0004 215.818 9.89498 215.818 9.78959C215.789 9.68419 215.768 9.5788 215.746 9.4734C215.704 9.4031 215.661 9.33288 215.618 9.26261C215.46 9.108 215.36 9.05175 215.146 8.98152C214.988 8.97446 214.831 8.97446 214.681 8.97446C214.452 9.03773 214.187 9.09394 214.094 9.33288C214.087 9.33288 214.08 9.33288 214.073 9.33288C214.037 9.38909 214.009 9.45229 213.98 9.51556C213.951 9.6069 213.93 9.69825 213.908 9.78959C213.894 9.93015 213.887 10.0706 213.88 10.2112C213.272 10.2112 212.671 10.2112 212.07 10.2112C211.963 10.162 212.042 9.5788 212.049 9.43827C212.07 9.3399 212.092 9.2415 212.12 9.14313C212.178 9.0026 212.235 8.86906 212.292 8.73556C212.385 8.59507 212.485 8.45455 212.585 8.32101C212.628 8.27186 212.678 8.2226 212.728 8.18048C212.857 8.09613 212.986 7.96969 213.143 7.92051C213.279 7.78701 213.651 7.70972 213.837 7.66053C213.958 7.63243 214.08 7.61131 214.202 7.59023C214.945 7.54808 215.739 7.51294 216.455 7.74481C216.569 7.78701 216.755 7.83615 216.841 7.92051C216.962 7.9556 217.055 8.06104 217.163 8.10319C217.163 8.11022 217.163 8.11721 217.163 8.12427C217.256 8.18751 217.349 8.2929 217.406 8.37726C217.542 8.51076 217.62 8.74263 217.692 8.91825C217.692 9.0026 217.72 9.07989 217.749 9.15714C217.771 9.3118 217.792 9.46638 217.821 9.62096C217.828 11.3425 217.835 13.064 217.842 14.7856C217.842 15.0877 217.964 15.425 218.071 15.699C218.057 15.7131 218.049 15.7271 218.042 15.7482C217.391 15.7482 216.741 15.7482 216.09 15.7552C215.99 15.6569 215.975 15.4952 215.911 15.3828C215.904 15.3196 215.854 14.9823 215.789 14.9542C215.725 15.0174 215.711 15.1369 215.632 15.172C215.468 15.4601 215.124 15.692 214.81 15.7904C214.631 15.8255 214.459 15.8606 214.287 15.8958C214.03 15.8958 213.773 15.9028 213.522 15.9099ZM214.488 14.5537C214.33 14.5186 214.202 14.4834 214.073 14.385C213.737 13.9915 213.715 13.4435 213.837 12.9586C213.887 12.8532 213.937 12.7549 213.987 12.6564C214.044 12.6003 214.102 12.5441 214.159 12.4879C214.273 12.4246 214.359 12.3403 214.495 12.3052C214.659 12.2279 214.845 12.1717 215.031 12.1436C215.046 12.1295 215.06 12.1224 215.081 12.1154C215.203 12.0944 215.532 12.003 215.603 11.9046C215.646 11.8765 215.689 11.8554 215.739 11.8343C215.761 11.8273 215.782 11.8273 215.804 11.8273C215.804 12.3684 215.804 12.9165 215.811 13.4645C215.782 13.6191 215.746 13.8019 215.668 13.9423C215.589 14.0337 215.518 14.125 215.446 14.2164C215.346 14.2866 215.246 14.3569 215.146 14.4272C215.081 14.4483 215.017 14.4694 214.953 14.4975C214.795 14.5115 214.638 14.5326 214.488 14.5537Z" fill="white"/>
<path fill-rule="evenodd" clip-rule="evenodd" d="M224.923 15.9099C224.679 15.9099 224.386 15.8255 224.172 15.7342C224.107 15.692 224.043 15.6498 223.979 15.6147C223.886 15.5444 223.764 15.4742 223.714 15.3758C223.528 15.158 223.399 14.905 223.292 14.645C223.263 14.5607 223.242 14.4764 223.22 14.392C223.192 14.2374 223.17 14.0829 223.149 13.9353C223.149 13.331 223.156 12.6635 223.521 12.1436C223.521 12.1154 223.542 12.1014 223.564 12.0944C223.671 11.8835 223.95 11.6516 224.179 11.5673C224.179 11.5603 224.179 11.5533 224.179 11.5462C224.329 11.49 224.479 11.4057 224.637 11.3636C224.651 11.3495 224.665 11.3354 224.687 11.3284C225.28 11.1598 225.881 10.949 226.482 10.8366C226.596 10.7874 226.711 10.7382 226.825 10.696C226.889 10.6398 226.954 10.5906 227.018 10.5414C227.061 10.4642 227.104 10.3868 227.154 10.3166C227.168 10.2533 227.183 10.1901 227.204 10.1268C227.204 10.0214 227.204 9.92308 227.211 9.82467C227.183 9.69824 227.154 9.57879 227.133 9.45931C227.104 9.40309 227.075 9.35391 227.054 9.30473C227.047 9.30473 227.04 9.30473 227.032 9.30473C226.925 9.12204 226.739 9.04475 226.539 8.98151C226.353 8.98151 226.174 8.98151 225.995 8.98151C225.788 9.03773 225.674 9.10799 225.523 9.25558C225.473 9.3258 225.43 9.39611 225.388 9.4734C225.359 9.55069 225.338 9.62797 225.316 9.70526C225.309 9.79664 225.309 10.1549 225.252 10.2112C224.644 10.2041 224.043 10.2041 223.442 10.2041C223.435 10.1971 223.428 10.1901 223.421 10.1831C223.421 9.93014 223.406 9.66311 223.449 9.41012C223.499 9.17829 223.599 8.9675 223.671 8.75663C223.692 8.70745 223.721 8.65827 223.75 8.61615C223.757 8.61615 223.764 8.61615 223.778 8.61615C223.778 8.56696 223.807 8.51774 223.85 8.49666C223.914 8.41234 223.979 8.32807 224.043 8.24371C224.286 8.06103 224.551 7.8502 224.851 7.77994C224.966 7.72373 225.101 7.7167 225.216 7.66053C225.38 7.63242 225.545 7.60432 225.709 7.57621C226.181 7.57621 226.668 7.56915 227.14 7.59023C227.311 7.62536 227.526 7.63242 227.683 7.70971C228.034 7.76592 228.356 7.96969 228.627 8.17341C228.627 8.20858 228.692 8.23669 228.706 8.27185C228.878 8.44045 228.985 8.66533 229.071 8.88315C229.092 8.96044 229.114 9.04475 229.135 9.1291C229.157 9.28368 229.178 9.43826 229.207 9.59987C229.214 11.2371 229.221 12.8743 229.228 14.5186C229.235 14.6802 229.242 14.8418 229.25 15.0104C229.271 15.1088 229.293 15.2071 229.321 15.3125C229.364 15.425 229.407 15.5444 229.457 15.6639C229.457 15.685 229.457 15.706 229.457 15.7342C228.799 15.7412 228.141 15.7482 227.483 15.7552C227.347 15.6217 227.304 15.3758 227.276 15.2001C227.247 15.1228 227.226 15.0455 227.204 14.9682C227.197 14.9612 227.19 14.9542 227.183 14.9542C227.111 15.0807 227.004 15.2212 226.911 15.3266C226.861 15.3477 226.725 15.4742 226.718 15.5233C226.596 15.5936 226.475 15.6639 226.36 15.7412C226.138 15.8045 225.91 15.8606 225.681 15.8958C225.423 15.8958 225.173 15.9028 224.923 15.9099ZM225.874 14.5537C225.809 14.5396 225.745 14.5256 225.681 14.5115C225.488 14.4201 225.309 14.2726 225.266 14.0548C225.144 13.8159 225.159 13.5278 225.159 13.2608C225.173 13.1624 225.194 13.064 225.216 12.9656C225.237 12.9094 225.259 12.8532 225.287 12.804C225.395 12.6354 225.488 12.5229 225.652 12.4106C225.817 12.3403 225.988 12.27 226.16 12.1998C226.332 12.1505 226.503 12.1084 226.675 12.0663C226.782 11.9889 227.075 11.8273 227.197 11.8273C227.197 12.3614 227.204 12.9024 227.211 13.4435C227.183 13.5489 227.161 13.6543 227.14 13.7667C227.09 13.858 227.04 13.9494 226.997 14.0477C226.954 14.0758 226.925 14.0899 226.925 14.1461C226.911 14.1461 226.904 14.1461 226.897 14.1461C226.789 14.3077 226.532 14.4272 226.353 14.4975C226.189 14.5115 226.031 14.5326 225.874 14.5537Z" fill="white"/>
<path fill-rule="evenodd" clip-rule="evenodd" d="M241.394 18.4534C241.279 18.3973 241.115 18.4534 241 18.4113C240.557 18.3762 240.128 18.2638 239.727 18.067C239.677 18.0389 239.634 18.0178 239.591 17.9968C239.591 17.9897 239.591 17.9827 239.591 17.9756C239.241 17.7929 239.034 17.4767 238.862 17.1325C238.826 17.006 238.79 16.8795 238.762 16.753C238.748 16.5984 238.733 16.4438 238.726 16.2962C239.377 16.2892 240.035 16.2892 240.693 16.2892C240.75 16.3244 240.772 16.5211 240.793 16.5914C240.815 16.6336 240.843 16.6828 240.872 16.7319C240.9 16.76 240.929 16.7882 240.958 16.8233C241.036 16.8725 241.115 16.9287 241.201 16.9849C241.244 17.006 241.287 17.0271 241.337 17.0552C241.616 17.1043 241.923 17.1184 242.195 17.0411C242.381 16.9638 242.588 16.8373 242.653 16.6406C242.71 16.5843 242.76 16.4087 242.796 16.3244C242.917 15.8255 242.867 15.2774 242.867 14.7645C242.846 14.7574 242.824 14.7504 242.81 14.7434C242.753 14.8628 242.61 14.9682 242.524 15.0807C242.438 15.1439 242.352 15.2071 242.266 15.2774C242.223 15.3055 242.181 15.3336 242.145 15.3688C242.038 15.4179 241.93 15.4742 241.823 15.5304C241.751 15.5515 241.687 15.5725 241.623 15.6006C241.487 15.6217 241.358 15.6428 241.229 15.6709C241.136 15.6709 241.043 15.6709 240.95 15.6709C240.793 15.6428 240.636 15.6217 240.478 15.6006C240.378 15.5655 240.278 15.5374 240.178 15.5093C239.928 15.3125 239.584 15.2423 239.406 14.9541C239.391 14.9541 239.384 14.9541 239.377 14.9541C239.377 14.898 239.17 14.652 239.162 14.638C239.084 14.4694 239.005 14.3007 238.933 14.132C238.805 13.7104 238.712 13.2818 238.683 12.8462C238.662 12.7267 238.647 12.6143 238.633 12.5018C238.626 12.0311 238.619 11.5603 238.619 11.0895C238.633 10.7382 238.69 10.3868 238.705 10.0425C238.755 9.81064 238.776 9.47338 238.898 9.26958C238.912 9.20638 238.926 9.115 238.969 9.07288C239.027 8.93231 239.091 8.79175 239.155 8.65122C239.255 8.50367 239.363 8.36314 239.47 8.22258C239.534 8.22258 239.642 7.99777 239.735 7.99777C239.82 7.8291 240.178 7.73074 240.335 7.66051C240.457 7.63241 240.579 7.6043 240.7 7.57619C240.986 7.57619 241.287 7.5621 241.573 7.59021C241.723 7.64642 241.909 7.67453 242.038 7.76591C242.245 7.85018 242.46 8.02588 242.581 8.20856C242.696 8.26477 242.738 8.48263 242.831 8.57393C242.839 8.55992 242.853 8.54583 242.867 8.53177C242.867 8.30693 242.867 8.08209 242.874 7.86427C242.896 7.77992 242.91 7.78698 242.967 7.75181C243.554 7.75181 244.14 7.75181 244.734 7.75181C244.77 7.75181 244.805 7.75888 244.848 7.76591C244.856 7.77992 244.863 7.79401 244.877 7.80803C244.87 10.4852 244.87 13.1624 244.87 15.8395C244.841 16.0082 244.82 16.1768 244.798 16.3454C244.734 16.5282 244.677 16.7179 244.619 16.9076C244.541 17.0481 244.462 17.1887 244.391 17.3292C244.319 17.4065 244.255 17.4838 244.19 17.5681C244.09 17.6313 243.961 17.7719 243.883 17.8632C243.618 18.0108 243.296 18.2145 242.989 18.2567C242.881 18.2918 242.781 18.3199 242.667 18.327C242.481 18.4183 242.209 18.3621 242.016 18.4253C241.809 18.4324 241.601 18.4394 241.394 18.4534ZM241.587 14.0758C241.444 14.0337 241.287 13.9845 241.186 13.872C241.051 13.8088 240.929 13.5207 240.872 13.4013C240.843 13.2889 240.815 13.1835 240.786 13.0781C240.757 12.8883 240.736 12.6986 240.714 12.5159C240.714 12.0381 240.714 11.5673 240.714 11.0965C240.736 10.942 240.707 10.7452 240.764 10.6047C240.786 10.1971 240.85 9.77547 241.086 9.42416C241.136 9.37497 241.186 9.32579 241.237 9.28367C241.294 9.2485 241.358 9.22039 241.422 9.19229C241.68 9.15017 241.873 9.12202 242.131 9.19229C242.209 9.24147 242.295 9.29066 242.381 9.34687C242.438 9.41717 242.495 9.48739 242.552 9.55766C242.574 9.60688 242.595 9.65606 242.624 9.71227C242.646 9.78254 242.667 9.85276 242.696 9.92306C242.717 10.0214 242.738 10.1198 242.767 10.2182C242.796 10.5133 242.846 10.8085 242.86 11.1036C242.86 11.497 242.86 11.8905 242.86 12.291C242.824 12.544 242.796 12.797 242.767 13.057C242.746 13.0921 242.731 13.1273 242.717 13.1694C242.703 13.2748 242.653 13.3872 242.624 13.4856C242.538 13.605 242.452 13.7245 242.367 13.8439C242.295 13.8931 242.231 13.9423 242.166 13.9915C242.08 14.0126 241.995 14.0337 241.916 14.0618C241.802 14.0618 241.694 14.0688 241.587 14.0758Z" fill="white"/>
</svg>
