<?xml version="1.0" encoding="UTF-8" standalone="no"?><!-- Generator: Gravit.io --><svg xmlns="http://www.w3.org/2000/svg" xmlns:xlink="http://www.w3.org/1999/xlink" style="isolation:isolate" viewBox="0 0 1068.001 720" width="1068.001pt" height="720pt"><defs><clipPath id="_clipPath_30eFcF1fdOFLAZztImO0AAp6YpZnzUWW"><rect width="1068.001" height="720"/></clipPath></defs><g clip-path="url(#_clipPath_30eFcF1fdOFLAZztImO0AAp6YpZnzUWW)"><g><g><path d=" M 219.299 530.581 L 217.07 532.273 L 214.784 533.895 L 212.444 535.444 L 210.05 536.921 L 207.608 538.319 L 205.117 539.64 L 202.578 540.881 L 199.991 542.042 L 197.362 543.118 L 194.692 544.111 L 191.981 545.017 L 189.23 545.835 L 186.442 546.563 L 183.62 547.2 L 180.764 547.744 L 177.876 548.193 L 174.959 548.542 L 172.017 548.797 L 169.047 548.95 L 166.018 549.002 L 161.621 548.889 L 157.24 548.555 L 152.921 548.002 L 148.67 547.24 L 144.489 546.271 L 140.388 545.101 L 136.373 543.738 L 132.445 542.186 L 128.617 540.448 L 124.891 538.536 L 121.272 536.451 L 117.765 534.201 L 114.377 531.787 L 111.112 529.22 L 107.976 526.502 L 104.971 523.64 L 102.11 520.636 L 99.391 517.499 L 96.824 514.235 L 94.411 510.847 L 92.161 507.34 L 90.075 503.72 L 88.164 499.995 L 86.426 496.166 L 84.874 492.238 L 83.511 488.224 L 82.341 484.123 L 81.372 479.942 L 80.609 475.691 L 80.056 471.371 L 79.723 466.99 L 79.61 462.615 L 79.635 460.523 L 79.706 458.495 L 79.824 456.482 L 79.987 454.474 L 80.199 452.485 L 80.452 450.506 L 80.754 448.542 L 81.096 446.592 L 81.485 444.654 L 81.916 442.734 L 82.388 440.835 L 82.902 438.947 L 83.458 437.077 L 84.054 435.224 L 84.693 433.39 L 85.371 431.57 L 86.09 429.775 L 86.843 428.004 L 87.635 426.251 L 88.466 424.515 L 89.334 422.804 L 90.238 421.111 L 91.179 419.445 L 92.154 417.799 L 93.167 416.178 L 93.704 415.357 L 91.457 414.499 L 88.103 413.052 L 84.822 411.468 L 81.619 409.753 L 78.499 407.908 L 75.467 405.941 L 72.521 403.851 L 69.669 401.644 L 66.912 399.321 L 64.257 396.89 L 61.703 394.353 L 59.257 391.711 L 56.917 388.966 L 54.695 386.128 L 52.59 383.197 L 50.605 380.177 L 48.742 377.069 L 47.008 373.878 L 45.406 370.608 L 43.939 367.263 L 42.609 363.845 L 41.424 360.36 L 40.384 356.811 L 39.495 353.201 L 38.758 349.534 L 38.18 345.813 L 37.763 342.046 L 37.511 338.236 L 37.424 334.369 L 37.538 329.951 L 37.871 325.57 L 38.424 321.251 L 39.187 316.999 L 40.155 312.819 L 41.326 308.717 L 42.689 304.703 L 44.24 300.775 L 45.978 296.946 L 47.89 293.221 L 49.975 289.601 L 52.226 286.094 L 54.639 282.706 L 57.206 279.442 L 59.925 276.306 L 62.786 273.301 L 65.791 270.44 L 68.927 267.721 L 72.191 265.154 L 75.58 262.741 L 79.086 260.49 L 82.706 258.405 L 86.431 256.494 L 90.26 254.755 L 94.188 253.204 L 98.202 251.841 L 102.303 250.671 L 106.484 249.702 L 110.736 248.939 L 115.055 248.386 L 119.436 248.053 L 123.79 247.941 L 125.052 247.949 L 126.235 247.974 L 127.408 248.014 L 128.583 248.069 L 129.751 248.141 L 130.91 248.228 L 132.07 248.33 L 133.228 248.447 L 134.385 248.581 L 135.528 248.73 L 136.666 248.893 L 137.807 249.069 L 138.941 249.264 L 140.064 249.469 L 141.192 249.692 L 142.31 249.929 L 143.424 250.18 L 144.534 250.447 L 145.631 250.727 L 146.729 251.019 L 147.639 251.277 L 147.648 250.891 L 147.982 246.51 L 148.535 242.191 L 149.297 237.939 L 150.266 233.758 L 151.436 229.657 L 152.799 225.643 L 154.351 221.715 L 156.089 217.886 L 158.001 214.161 L 160.086 210.541 L 162.336 207.034 L 164.75 203.647 L 167.317 200.382 L 170.035 197.245 L 172.897 194.241 L 175.901 191.379 L 179.037 188.661 L 182.302 186.094 L 185.69 183.68 L 189.197 181.43 L 192.817 179.345 L 196.542 177.433 L 200.371 175.695 L 204.299 174.144 L 208.313 172.781 L 212.414 171.61 L 216.595 170.642 L 220.846 169.879 L 225.165 169.326 L 229.546 168.992 L 233.978 168.878 L 238.412 168.992 L 242.792 169.326 L 247.113 169.879 L 251.364 170.642 L 255.546 171.61 L 259.646 172.781 L 263.662 174.144 L 267.587 175.695 L 271.418 177.433 L 275.144 179.345 L 278.762 181.432 L 282.267 183.68 L 285.657 186.094 L 288.922 188.662 L 292.059 191.381 L 295.058 194.241 L 297.922 197.244 L 300.64 200.38 L 303.21 203.647 L 305.621 207.034 L 307.874 210.541 L 309.957 214.161 L 311.872 217.888 L 313.605 221.715 L 315.159 225.64 L 316.524 229.657 L 317.692 233.76 L 318.66 237.938 L 319.424 242.191 L 319.976 246.512 L 320.309 250.892 L 320.32 251.331 L 321.168 251.092 L 322.259 250.802 L 323.353 250.526 L 324.451 250.264 L 325.558 250.015 L 326.673 249.782 L 327.789 249.562 L 328.909 249.358 L 330.033 249.168 L 331.161 248.993 L 332.296 248.832 L 333.435 248.685 L 334.581 248.555 L 335.732 248.439 L 336.877 248.338 L 338.03 248.252 L 339.197 248.181 L 340.359 248.128 L 341.519 248.087 L 342.693 248.062 L 343.947 248.055 L 348.303 248.167 L 352.684 248.5 L 357.004 249.053 L 361.255 249.816 L 365.438 250.785 L 369.537 251.954 L 373.554 253.317 L 377.478 254.869 L 381.309 256.607 L 385.036 258.519 L 388.654 260.606 L 392.159 262.855 L 395.549 265.268 L 398.814 267.837 L 401.95 270.555 L 404.95 273.415 L 407.814 276.418 L 410.532 279.554 L 413.102 282.82 L 415.513 286.208 L 417.766 289.715 L 419.849 293.335 L 421.763 297.062 L 423.497 300.889 L 425.051 304.815 L 426.415 308.831 L 427.584 312.934 L 428.551 317.112 L 429.316 321.365 L 429.867 325.685 L 430.201 330.067 L 430.312 334.482 L 430.229 338.337 L 429.977 342.137 L 429.563 345.895 L 428.987 349.604 L 428.257 353.26 L 427.372 356.862 L 426.337 360.404 L 425.159 363.878 L 423.839 367.286 L 422.379 370.624 L 420.787 373.887 L 419.062 377.071 L 417.211 380.174 L 415.235 383.19 L 413.139 386.118 L 410.926 388.95 L 408.604 391.688 L 406.17 394.329 L 403.629 396.868 L 400.986 399.297 L 398.245 401.619 L 395.404 403.827 L 392.474 405.919 L 389.456 407.887 L 386.354 409.735 L 383.165 411.457 L 379.9 413.045 L 376.559 414.501 L 374.39 415.337 L 374.985 416.235 L 376.011 417.863 L 377.006 419.52 L 377.963 421.2 L 378.882 422.9 L 379.766 424.624 L 380.612 426.371 L 381.419 428.139 L 382.188 429.929 L 382.914 431.735 L 383.605 433.564 L 384.255 435.415 L 384.862 437.282 L 385.429 439.164 L 385.955 441.072 L 386.434 442.993 L 386.874 444.928 L 387.268 446.88 L 387.617 448.846 L 387.923 450.829 L 388.182 452.828 L 388.394 454.835 L 388.563 456.858 L 388.682 458.894 L 388.754 460.938 L 388.778 463.048 L 388.667 467.422 L 388.333 471.802 L 387.782 476.123 L 387.018 480.376 L 386.05 484.554 L 384.882 488.657 L 383.517 492.674 L 381.963 496.599 L 380.23 500.426 L 378.315 504.153 L 376.232 507.773 L 373.979 511.28 L 371.568 514.667 L 368.998 517.934 L 366.28 521.07 L 363.416 524.072 L 360.417 526.933 L 357.28 529.652 L 354.015 532.22 L 350.625 534.634 L 347.12 536.882 L 343.502 538.969 L 339.775 540.881 L 335.944 542.619 L 332.02 544.17 L 328.003 545.533 L 323.904 546.704 L 319.721 547.672 L 315.471 548.435 L 311.15 548.988 L 306.77 549.322 L 302.369 549.434 L 299.326 549.382 L 296.339 549.227 L 293.378 548.97 L 290.442 548.614 L 287.541 548.16 L 284.669 547.611 L 281.831 546.966 L 279.027 546.23 L 276.262 545.402 L 273.536 544.485 L 270.854 543.48 L 268.211 542.393 L 265.615 541.218 L 263.064 539.963 L 260.562 538.628 L 258.107 537.214 L 255.705 535.72 L 253.357 534.154 L 251.066 532.513 L 248.828 530.802 L 246.65 529.019 L 244.531 527.17 L 242.475 525.253 L 240.479 523.273 L 238.548 521.225 L 236.685 519.119 L 234.892 516.954 L 234.03 515.844 L 233.219 516.88 L 231.423 519.024 L 229.561 521.108 L 227.631 523.132 L 225.641 525.091 L 223.587 526.988 L 221.473 528.818 L 219.299 530.581 Z " fill-rule="evenodd" fill="rgb(230,33,41)"/><path d=" M 360.767 410.956 C 373.119 424.807 380.644 443.048 380.644 462.992 C 380.644 506.123 345.467 541.301 302.336 541.301 C 273.099 541.301 247.522 525.132 234.074 501.282 C 220.562 524.895 195.113 540.868 166.053 540.868 C 122.921 540.868 87.744 505.69 87.744 462.559 C 87.744 442.8 95.132 424.713 107.279 410.91 C 72.071 403.265 45.559 371.823 45.559 334.383 C 45.559 291.251 80.736 256.074 123.867 256.074 C 135.325 256.074 146.223 258.558 156.048 263.013 C 155.799 260.482 155.669 257.917 155.669 255.322 C 155.669 212.191 190.847 177.013 233.978 177.013 C 277.109 177.013 312.286 212.191 312.286 255.322 C 312.286 257.923 312.156 260.494 311.906 263.031 C 321.674 258.637 332.495 256.188 343.869 256.188 C 387.001 256.188 422.178 291.365 422.178 334.496 C 422.178 371.827 395.821 403.194 360.767 410.956 L 360.767 410.956 Z " fill-rule="evenodd" fill="rgb(254,254,254)"/><path d=" M 195.473 250.854 L 272.051 250.856 L 272.051 327.288 L 348.482 327.288 L 348.482 403.866 L 272.051 403.866 L 272.051 480.298 L 195.473 480.298 L 195.473 403.866 L 119.038 403.866 L 119.041 327.288 L 195.473 327.288 L 195.473 250.854 Z " fill-rule="evenodd" fill="rgb(230,33,41)"/><path d=" M 621.902 550.753 C 619.813 550.447 617.172 549.894 615.391 548.665 C 611.829 547.252 608.573 542.953 607.345 539.452 C 607.283 539.391 607.222 539.329 607.161 539.268 C 606.485 537.057 605.81 534.846 605.195 532.696 C 604.949 531.529 604.765 530.423 604.581 529.318 C 604.335 526.8 604.09 524.343 603.844 521.886 C 603.844 516.297 603.905 510.769 603.967 505.241 C 604.581 501.064 604.765 496.826 606.239 492.834 C 607.283 488.473 609.74 484.358 613.18 481.533 C 614.101 480.919 615.022 480.304 615.944 479.752 C 616.497 479.444 617.111 479.199 617.725 478.953 C 618.401 478.707 619.076 478.523 619.813 478.339 C 621.902 478.093 623.99 477.725 626.078 477.725 C 627.429 477.909 628.781 478.093 630.193 478.339 C 631.483 478.892 632.834 479.26 634.001 480.059 C 636.335 481.226 638.301 483.498 639.836 485.525 C 639.898 485.525 639.959 485.525 640.082 485.525 C 640.144 485.402 640.205 485.279 640.328 485.156 C 640.328 475.882 640.328 466.608 640.389 457.333 C 640.696 457.026 641.065 457.026 641.495 456.842 C 646.838 456.842 652.182 456.842 657.587 456.842 C 657.955 456.842 658.201 457.149 658.447 457.394 C 658.385 487.921 658.385 518.447 658.385 549.034 C 658.017 549.402 657.587 549.464 657.034 549.525 C 651.936 549.525 646.838 549.525 641.802 549.525 C 641.617 549.341 641.433 549.157 641.249 548.972 C 641.188 547.007 641.126 545.042 641.126 543.137 C 640.942 543.076 640.758 543.015 640.574 543.015 C 637.593 546.89 635.772 548.255 631.115 550.324 C 628.914 550.967 623.384 551.286 621.902 550.753 L 621.902 550.753 Z " fill-rule="evenodd" fill="rgb(0,0,0)"/><path d=" M 694.992 551.122 C 694.931 550.999 694.869 550.876 694.869 550.753 C 692.228 550.324 689.157 549.955 686.7 548.911 C 685.84 548.481 685.042 548.051 684.243 547.683 C 683.199 546.884 682.155 546.085 681.172 545.287 C 680.558 544.612 679.452 543.629 679.084 542.83 C 678.101 542.83 675.89 536.811 675.522 536.197 C 675.03 534.477 674.6 532.757 674.17 531.099 C 673.741 527.721 673.31 524.343 672.942 520.965 C 672.942 520.842 672.942 520.78 672.942 520.719 C 672.942 516.911 672.942 513.103 673.003 509.295 C 673.003 508.066 672.942 506.715 673.372 505.548 C 673.556 502.047 674.047 498.546 675.214 495.229 C 675.706 492.773 677.118 490.623 678.224 488.412 C 678.593 487.798 678.961 487.245 679.33 486.692 C 679.452 486.569 679.576 486.508 679.698 486.446 C 680.128 485.525 681.971 483.375 682.953 483.13 C 682.953 482.516 685.287 481.533 685.779 481.041 C 686.147 480.796 686.577 480.611 687.007 480.427 C 688.297 479.936 689.587 479.444 690.938 478.953 C 694.931 478.154 698.8 477.725 702.854 477.725 C 704.696 477.909 706.539 478.093 708.381 478.339 C 710.409 478.83 712.435 479.444 714.401 480.182 C 715.261 480.673 716.182 481.164 717.103 481.655 C 717.103 481.84 718.7 482.822 718.946 482.945 C 718.946 483.007 718.946 483.068 719.007 483.191 C 722.201 485.955 724.351 489.763 725.456 493.756 C 725.518 493.817 725.579 493.94 725.702 494.062 C 726.255 496.949 727.115 499.836 727.299 502.784 C 727.79 505.18 727.852 507.821 727.913 510.278 C 727.852 514.638 727.79 518.999 727.729 523.421 C 727.053 525.141 727.606 528.212 726.685 529.625 C 726.378 530.915 726.132 532.266 725.886 533.617 C 725.641 534.354 725.395 535.153 725.149 535.951 C 724.903 536.443 724.719 536.934 724.535 537.487 C 723.368 539.698 722.14 541.909 720.543 543.875 C 720.051 544.182 718.578 545.41 718.393 545.84 C 716.98 546.823 715.138 548.358 713.418 548.665 C 710.715 550.017 707.276 550.447 704.266 550.815 C 704.266 550.876 704.266 550.999 704.266 551.122 C 701.38 551.122 698.493 551.122 695.668 551.122 C 695.668 550.999 695.668 550.876 695.668 550.815 C 695.545 550.815 695.422 550.815 695.299 550.815 C 695.299 550.876 695.299 550.999 695.299 551.122 C 695.176 551.122 695.053 551.122 694.992 551.122 L 694.992 551.122 Z " fill-rule="evenodd" fill="rgb(0,0,0)"/><path d=" M 832.758 551.122 C 832.758 550.999 832.758 550.876 832.758 550.815 C 829.626 550.447 826.37 550.017 823.545 548.604 C 822.808 548.604 821.211 547.437 820.597 547.068 C 820.597 546.946 820.597 546.884 820.597 546.823 C 819.43 546.823 816.911 543.813 816.297 543.26 C 814.577 540.803 812.796 537.978 812.121 534.969 C 811.076 532.88 810.831 529.809 810.462 527.475 C 810.401 525.633 810.34 523.79 810.278 521.947 C 809.48 520.289 810.585 517.586 809.848 515.744 C 809.909 513.349 809.971 510.953 810.094 508.558 C 810.217 506.899 810.34 505.241 810.462 503.644 C 810.647 502.109 810.831 500.634 811.076 499.16 C 811.568 497.379 812.059 495.598 812.551 493.817 C 812.98 492.711 813.41 491.606 813.902 490.561 C 814.209 490.377 814.885 488.719 815.069 488.289 C 815.99 487.06 816.911 485.893 817.894 484.726 C 818.754 483.989 819.676 483.253 820.597 482.577 C 820.597 481.901 823.361 480.98 823.975 480.366 C 824.344 480.243 824.712 480.12 825.08 480.059 C 825.142 479.936 825.265 479.874 825.387 479.813 C 829.81 478.339 834.294 477.786 839.023 477.786 C 841.05 478.093 844.305 477.725 845.963 478.83 C 848.727 479.199 851.368 480.919 853.764 482.331 C 856.343 484.604 858.493 486.938 859.845 490.193 C 860.704 491.913 861.441 493.817 861.748 495.782 C 861.81 495.905 861.871 496.09 861.994 496.274 C 862.24 497.871 862.485 499.529 862.793 501.187 C 862.977 503.951 863.161 506.715 863.407 509.479 C 863.407 510.523 863.714 516.85 863.284 517.28 C 851.675 517.28 840.128 517.341 828.581 517.402 C 828.151 517.586 828.151 517.771 827.967 518.201 C 827.967 520.351 827.845 522.623 828.213 524.711 C 828.213 529.502 829.134 534.784 833.065 537.978 C 833.741 538.285 834.416 538.592 835.092 538.899 C 836.32 538.899 837.549 538.899 838.777 538.899 C 839.33 538.654 839.944 538.469 840.558 538.285 C 842.647 536.995 843.937 535.03 844.796 532.819 C 845.226 530.792 845.963 528.642 846.086 526.554 C 846.209 526.308 846.332 526.062 846.455 525.878 C 851.614 525.878 856.774 525.878 861.933 525.878 C 862.056 526.062 862.179 526.247 862.301 526.492 C 862.179 528.028 862.056 529.563 861.994 531.16 C 861.626 532.266 861.687 533.802 861.134 534.661 C 860.275 538.654 857.142 544.857 853.211 546.823 C 853.211 547.314 849.833 548.727 849.157 549.157 C 847.744 549.402 846.086 549.894 844.735 550.385 C 843.506 550.508 842.339 550.631 841.172 550.815 C 841.172 550.876 841.172 550.999 841.172 551.122 C 838.347 551.122 835.522 551.122 832.758 551.122 L 832.758 551.122 Z " fill-rule="evenodd" fill="rgb(0,0,0)"/><path d=" M 898.294 551.122 C 898.294 550.999 898.294 550.876 898.294 550.815 C 895.898 550.569 893.442 550.139 891.108 549.648 C 890.002 549.28 888.958 548.911 887.913 548.542 C 885.334 547.252 881.649 544.918 880.605 542.032 C 878.578 539.329 878.393 535.276 878.025 532.082 C 877.963 530.423 877.963 528.765 877.963 527.107 C 878.086 526.922 878.209 526.738 878.393 526.615 C 883.553 526.554 888.774 526.554 893.994 526.554 C 894.056 528.274 894.178 529.993 894.301 531.775 C 894.793 533.126 895.345 535.767 896.635 536.381 C 896.635 537.425 900.505 538.777 901.365 538.899 C 902.716 538.899 904.129 538.899 905.541 538.899 C 906.77 538.654 908.244 538.162 909.288 537.487 C 910.455 536.504 911.192 535.276 911.929 534.047 C 912.113 532.819 912.359 531.529 912.359 530.239 C 912.174 529.441 912.052 528.642 911.929 527.905 C 911.745 527.598 911.56 527.291 911.438 526.984 C 911.069 526.615 910.762 526.247 910.455 525.878 C 909.472 525.141 908.489 524.404 907.568 523.728 C 905.603 523.176 903.699 522.009 901.672 521.518 C 901.242 521.087 900.444 521.026 899.829 520.842 C 899.829 520.596 898.416 520.289 898.171 520.289 C 896.943 519.736 895.038 519.368 893.994 518.631 C 892.704 518.385 891.292 517.648 890.063 517.218 C 888.282 515.989 885.703 515.191 884.351 513.41 C 882.57 511.997 880.605 509.725 879.99 507.452 C 879.868 507.268 879.744 507.083 879.683 506.899 C 879.376 505.978 879.13 505.057 878.885 504.135 C 878.701 502.907 878.516 501.679 878.332 500.45 C 878.332 499.467 878.332 498.546 878.332 497.625 C 878.946 496.028 878.578 493.94 879.376 492.281 C 879.929 489.333 881.772 486.569 883.921 484.42 C 885.15 483.437 886.378 482.516 887.668 481.594 C 889.388 480.857 891.046 479.936 892.827 479.444 C 895.591 478.523 898.539 477.97 901.549 477.97 C 904.804 477.479 908.489 478.093 911.683 478.4 C 914.386 479.015 917.027 479.752 919.484 480.98 C 920.589 481.778 921.695 482.577 922.8 483.437 C 923.046 483.928 923.722 484.481 924.09 484.85 C 925.134 486.385 926.424 488.227 926.854 490.132 C 928.206 493.387 928.021 497.011 928.021 500.45 C 922.739 500.512 917.518 500.573 912.298 500.634 C 911.622 499.959 911.806 499.038 911.745 498.116 C 911.56 497.195 911.438 496.335 911.315 495.475 C 910.823 494.492 910.393 493.51 909.964 492.527 C 909.411 492.036 908.858 491.606 908.305 491.176 C 907.814 490.93 907.384 490.746 906.954 490.561 C 905.05 490.316 903.023 490.377 901.119 490.561 C 899.767 491.176 898.539 491.851 897.372 492.711 C 896.943 493.325 896.512 493.94 896.144 494.615 C 895.96 495.352 895.776 496.09 895.652 496.888 C 895.714 497.625 895.776 498.362 895.837 499.16 C 895.898 499.591 896.021 500.02 896.144 500.45 C 896.39 500.88 896.635 501.31 896.881 501.801 C 898.048 503.214 899.522 504.013 901.058 504.873 C 903.821 505.794 906.831 507.207 909.656 507.759 C 912.174 508.619 914.693 509.54 917.273 510.462 C 918.501 511.076 920.221 511.629 921.204 512.612 C 921.695 512.918 922.247 513.226 922.8 513.533 C 923.108 513.779 923.414 514.024 923.783 514.27 C 923.783 514.331 923.783 514.393 923.783 514.516 C 923.844 514.516 923.906 514.516 923.967 514.516 C 924.705 515.437 925.503 516.358 926.301 517.28 C 927.53 517.28 928.881 523.114 929.249 523.913 C 929.495 526.37 929.679 528.888 929.557 531.406 C 929.434 534.293 928.697 537.302 927.407 539.882 C 925.994 541.909 924.581 544.243 922.493 545.656 C 922.493 546.393 918.071 548.481 917.027 548.85 C 916.965 548.911 916.904 548.972 916.904 549.034 C 915.184 549.464 913.526 549.894 911.868 550.385 C 910.393 550.508 908.981 550.631 907.568 550.815 C 907.568 550.876 907.568 550.999 907.568 551.122 C 904.804 551.122 902.04 551.122 899.277 551.122 C 899.277 550.999 899.277 550.876 899.277 550.815 C 899.031 550.815 898.846 550.815 898.662 550.815 C 898.662 550.876 898.662 550.999 898.662 551.122 C 898.539 551.122 898.416 551.122 898.294 551.122 L 898.294 551.122 Z " fill-rule="evenodd" fill="rgb(0,0,0)"/><path d=" M 990.424 551.122 C 990.363 550.999 990.302 550.876 990.302 550.753 C 986.923 550.262 982.685 548.665 980.843 545.533 C 980.781 545.533 980.72 545.533 980.658 545.533 C 979.737 544.304 978.877 542.892 978.447 541.356 C 977.342 540.005 976.973 536.443 976.666 534.969 C 976.666 532.266 976.666 529.563 976.666 526.861 C 976.973 525.448 977.035 523.421 977.833 522.193 C 978.386 519.368 980.536 516.174 982.931 514.577 C 982.992 514.454 983.054 514.331 983.177 514.208 C 985.572 512.734 987.599 511.506 990.24 510.707 C 991.53 510.216 992.881 509.663 994.232 509.479 C 994.601 509.295 994.97 509.172 995.338 509.049 C 998.286 508.496 1001.173 507.391 1004.121 506.838 C 1004.735 506.592 1005.411 506.408 1006.086 506.224 C 1006.578 505.978 1007.069 505.794 1007.622 505.61 C 1008.298 505.118 1009.034 504.627 1009.772 504.135 C 1009.956 503.828 1010.14 503.521 1010.386 503.214 C 1010.693 502.354 1011.062 501.679 1011.184 500.758 C 1011.184 499.529 1011.676 495.782 1010.693 494.8 C 1010.57 494.431 1010.447 494.062 1010.386 493.756 C 1010.263 493.694 1010.201 493.633 1010.14 493.633 C 1010.14 493.203 1009.28 492.343 1009.034 491.913 C 1008.666 491.667 1008.298 491.422 1007.929 491.176 C 1007.377 490.93 1006.824 490.746 1006.332 490.561 C 1003.752 490.132 999.269 489.763 997.488 492.281 C 996.198 493.08 995.707 495.107 995.215 496.396 C 995.154 497.932 995.092 499.467 995.031 501.064 C 989.687 501.064 984.344 501.126 979 501.187 C 978.877 501.126 978.816 501.064 978.754 501.064 C 978.754 499.529 978.754 497.993 978.816 496.519 C 979.491 491.422 980.781 488.412 983.791 484.42 C 984.528 483.744 985.265 483.068 986.063 482.454 C 987.476 481.471 988.827 480.611 990.424 480.12 C 991.407 479.629 992.574 479.26 993.618 478.953 C 994.478 478.707 995.338 478.523 996.259 478.339 C 997.856 478.216 999.514 478.093 1001.173 477.97 C 1003.323 477.295 1006.21 477.97 1008.482 477.97 C 1009.649 478.093 1010.877 478.216 1012.106 478.339 C 1013.088 478.523 1014.071 478.707 1015.054 478.953 C 1015.975 479.26 1017.142 479.444 1017.879 479.997 C 1020.704 480.673 1024.144 483.191 1025.557 485.832 C 1027.215 487.49 1027.399 490.746 1028.198 492.834 C 1028.259 493.756 1028.382 494.677 1028.505 495.598 C 1028.812 510.83 1028.812 526.247 1028.873 541.479 C 1029.058 543.383 1029.242 545.84 1030.225 547.498 C 1030.286 547.99 1030.9 549.034 1030.347 549.402 C 1024.881 549.402 1019.415 549.464 1014.01 549.525 C 1013.825 549.402 1013.641 549.28 1013.457 549.218 C 1013.15 548.665 1012.843 548.113 1012.597 547.56 C 1012.351 546.823 1012.167 546.085 1011.983 545.41 C 1011.799 544.55 1011.614 543.69 1011.492 542.83 C 1011.246 542.892 1011 542.953 1010.816 543.076 C 1009.096 545.594 1007.069 548.235 1004.121 549.28 C 1002.094 550.262 999.392 550.569 997.18 550.876 C 997.18 550.938 997.18 550.999 997.18 551.122 C 994.908 551.122 992.636 551.122 990.424 551.122 L 990.424 551.122 Z " fill-rule="evenodd" fill="rgb(0,0,0)"/><path d=" M 504.281 549.586 C 503.851 549.464 503.421 549.341 503.053 549.28 C 503.053 518.508 503.053 487.798 503.053 457.088 C 503.237 457.026 503.421 456.964 503.667 456.903 C 509.318 456.903 515.03 456.903 520.742 456.903 C 521.049 456.964 521.356 457.026 521.663 457.088 C 521.663 487.675 521.725 518.323 521.786 548.972 C 521.602 549.095 521.479 549.28 521.356 549.464 C 515.644 549.464 509.932 549.525 504.281 549.586 L 504.281 549.586 Z " fill-rule="evenodd" fill="rgb(0,0,0)"/><path d=" M 537.448 549.586 C 536.957 549.525 536.527 549.402 536.22 549.095 C 536.159 526.186 536.159 503.337 536.159 480.488 C 536.22 480.243 536.281 479.997 536.343 479.813 C 541.932 479.752 547.521 479.752 553.111 479.752 C 553.172 479.874 553.234 479.997 553.356 480.182 C 553.356 482.454 553.356 484.726 553.418 487.06 C 553.479 487.184 553.54 487.306 553.663 487.49 C 553.786 486.999 554.032 486.938 554.339 486.631 C 555.138 485.587 555.936 484.542 556.735 483.498 C 557.041 483.253 557.349 483.007 557.717 482.761 C 557.717 481.594 562.815 479.506 563.613 479.137 C 566.439 478.339 569.387 477.786 572.335 477.786 C 573.871 477.97 575.468 478.154 577.065 478.4 C 577.74 478.585 578.477 478.769 579.215 479.015 C 579.767 479.26 580.382 479.506 580.996 479.752 C 582.224 480.796 583.821 481.594 584.926 482.822 C 585.234 483.191 585.54 483.559 585.909 483.989 C 586.462 484.972 587.015 486.017 587.629 487.06 C 587.874 487.736 588.12 488.412 588.366 489.088 C 588.673 490.93 589.041 492.711 589.165 494.615 C 589.165 512.734 589.165 530.915 589.165 549.095 C 589.041 549.218 588.919 549.341 588.796 549.525 C 583.022 549.464 577.249 549.464 571.537 549.464 C 571.414 549.341 571.291 549.218 571.23 549.095 C 571.168 532.266 571.168 515.498 571.168 498.73 C 570.923 497.625 570.677 496.581 570.431 495.537 C 570.185 495.107 569.94 494.677 569.694 494.247 C 569.571 494.247 569.51 494.247 569.448 494.247 C 568.159 492.466 567.053 492.343 564.965 491.79 C 563.061 491.79 561.464 491.913 559.621 492.404 C 559.191 492.65 558.761 492.895 558.331 493.141 C 557.717 493.633 557.164 494.124 556.611 494.677 C 556.12 495.414 555.69 496.212 555.26 497.011 C 555.076 497.441 554.892 497.932 554.769 498.424 C 554.585 499.529 554.462 500.634 554.339 501.801 C 554.277 517.402 554.277 533.003 554.277 548.665 C 554.277 549.402 553.356 549.464 552.804 549.525 C 547.644 549.525 542.547 549.525 537.448 549.586 L 537.448 549.586 Z " fill-rule="evenodd" fill="rgb(0,0,0)"/><path d=" M 743.391 549.586 C 742.961 549.525 742.654 549.28 742.47 548.911 C 742.47 526.062 742.47 503.276 742.47 480.488 C 742.47 480.12 742.654 479.874 742.839 479.69 C 748.244 479.69 753.71 479.69 759.176 479.69 C 759.299 479.69 759.422 479.752 759.545 479.813 C 760.282 482.024 758.685 485.095 760.036 487.184 C 760.22 487.184 761.203 485.587 761.326 485.341 C 761.51 485.341 762.37 484.235 762.493 483.989 C 762.862 483.744 764.029 482.638 764.213 482.27 C 765.81 481.287 767.406 479.874 769.311 479.383 C 772.136 477.97 775.698 477.725 778.831 477.725 C 780.305 477.909 781.779 478.093 783.314 478.339 C 784.236 478.646 785.342 478.83 786.14 479.383 C 786.877 479.567 789.088 480.488 789.334 481.287 C 791.729 482.454 793.387 485.955 794.247 488.351 C 794.8 490.439 795.292 492.65 795.476 494.8 C 795.414 512.918 795.414 531.099 795.414 549.28 C 795.169 549.341 794.984 549.402 794.8 549.525 C 789.211 549.525 783.622 549.525 778.032 549.525 C 777.848 549.402 777.725 549.28 777.603 549.218 C 777.479 532.573 777.418 515.928 777.357 499.345 C 777.234 498.424 777.111 497.502 776.988 496.581 C 776.742 496.028 776.558 495.475 776.374 494.923 C 775.637 493.817 774.716 493.08 773.61 492.404 C 773.057 492.22 772.505 492.036 772.013 491.851 C 770.601 491.851 769.188 491.851 767.775 491.851 C 767.038 492.036 766.301 492.281 765.625 492.527 C 765.318 492.65 765.011 492.834 764.704 493.018 C 763.353 494.185 762.677 494.738 761.879 496.212 C 761.817 496.581 761.633 497.133 761.326 497.441 C 761.019 498.976 760.712 500.512 760.466 502.109 C 760.404 517.832 760.404 533.556 760.404 549.28 C 760.282 549.341 760.22 549.402 760.159 549.525 C 754.57 549.525 748.98 549.525 743.391 549.586 L 743.391 549.586 Z " fill-rule="evenodd" fill="rgb(0,0,0)"/><path d=" M 944.359 549.586 C 944.236 549.464 944.175 549.341 944.113 549.28 C 944.052 526.308 944.052 503.337 944.052 480.366 C 944.113 480.12 944.175 479.874 944.298 479.69 C 950.071 479.69 955.906 479.69 961.741 479.752 C 961.802 479.813 961.864 479.936 961.925 480.059 C 961.925 503.092 961.925 526.124 961.925 549.157 C 961.864 549.218 961.802 549.28 961.741 549.402 C 955.906 549.464 950.133 549.525 944.359 549.586 L 944.359 549.586 Z " fill-rule="evenodd" fill="rgb(0,0,0)"/><path d=" M 698.677 538.961 C 697.94 538.654 697.203 538.408 696.527 538.162 C 696.527 538.04 696.527 537.978 696.527 537.917 C 695.115 537.364 694.501 536.258 693.702 535.091 C 693.64 535.091 693.579 535.091 693.518 535.091 C 693.088 534.047 692.658 533.064 692.289 532.082 C 691.614 529.625 691.43 527.045 691.306 524.527 C 690.324 518.631 691.061 512.304 691.061 506.347 C 691.552 502.661 691.43 498.792 692.965 495.352 C 693.334 494.615 693.764 493.878 694.193 493.203 C 695.606 491.544 696.773 490.807 698.923 490.316 C 700.09 490.316 702.608 489.947 703.529 490.869 C 704.143 491.176 704.758 491.483 705.433 491.851 C 705.433 492.22 705.802 492.343 706.047 492.466 C 706.662 493.633 707.276 494.8 707.952 496.028 C 710.224 503.644 709.917 511.874 709.917 519.736 C 709.794 522.685 709.364 525.755 709.119 528.704 C 708.873 529.625 708.689 530.608 708.505 531.59 C 708.075 532.635 707.706 534.539 706.908 535.337 C 706.539 536.135 705.741 536.811 705.249 537.487 C 704.389 537.917 703.529 538.347 702.67 538.777 C 701.318 538.838 699.967 538.899 698.677 538.961 L 698.677 538.961 Z " fill-rule="evenodd" fill="rgb(255,255,255)"/><path d=" M 998.777 538.961 C 997.979 538.469 996.812 538.224 996.259 537.302 C 993.864 534.907 993.864 531.099 993.864 527.967 C 994.232 524.281 995.707 521.64 998.962 519.798 C 999.576 519.552 1000.19 519.306 1000.804 519.122 C 1004.06 517.832 1007.745 517.464 1010.693 515.314 C 1010.816 515.375 1011 515.437 1011.184 515.498 C 1011.184 520.473 1011.184 525.51 1011.184 530.546 C 1010.877 532.389 1010.079 533.863 1008.973 535.337 C 1008.113 536.074 1007.253 536.811 1006.394 537.548 C 1005.227 537.917 1004.121 538.347 1003.015 538.777 C 1001.603 538.838 1000.19 538.899 998.777 538.961 L 998.777 538.961 Z " fill-rule="evenodd" fill="rgb(255,255,255)"/><path d=" M 629.641 537.425 C 629.149 537.302 628.658 537.18 628.228 537.057 C 626.262 536.074 624.911 535.153 623.99 533.126 C 623.499 532.635 623.683 531.652 623.191 531.16 C 622.884 529.687 622.639 528.274 622.393 526.861 C 622.209 525.019 622.024 523.176 621.902 521.333 C 621.84 518.078 621.779 514.822 621.779 511.567 C 621.963 508.496 622.147 505.487 622.393 502.477 C 622.761 499.775 623.253 496.704 624.973 494.554 C 624.973 493.387 628.351 492.097 629.088 491.851 C 630.377 491.851 631.667 491.851 632.957 491.851 C 633.572 492.036 634.186 492.22 634.8 492.466 C 635.23 492.773 635.66 493.08 636.09 493.387 C 637.379 494.738 638.178 495.966 638.546 497.748 C 639.161 498.362 638.915 499.836 639.407 500.634 C 639.591 502.293 639.836 503.951 640.082 505.671 C 640.328 513.164 640.574 520.78 639.468 528.212 C 639.222 529.256 638.977 530.301 638.731 531.406 C 638.424 532.082 638.116 532.757 637.871 533.433 C 637.625 534.416 636.458 535.644 635.721 536.197 C 635.23 536.443 634.8 536.688 634.37 536.934 C 632.834 537.241 631.238 537.364 629.641 537.425 L 629.641 537.425 Z " fill-rule="evenodd" fill="rgb(255,255,255)"/><path d=" M 828.459 506.531 C 828.274 506.408 828.151 506.285 828.029 506.224 C 827.967 505.364 827.967 504.504 827.967 503.706 C 828.397 500.573 828.213 497.195 830.117 494.492 C 830.179 494.247 830.301 494.001 830.424 493.756 C 830.485 493.694 830.608 493.694 830.731 493.694 C 830.731 492.834 832.451 491.667 833.003 491.176 C 833.434 490.93 833.925 490.746 834.416 490.561 C 836.136 490.316 838.286 490.07 840.005 490.561 C 840.988 491.053 842.033 491.667 842.892 492.404 C 845.779 496.519 845.84 501.372 846.086 506.285 C 846.025 506.285 845.963 506.347 845.963 506.408 C 840.128 506.408 834.294 506.469 828.459 506.531 L 828.459 506.531 Z " fill-rule="evenodd" fill="rgb(255,255,255)"/><path d=" M 944.236 472.443 C 944.175 472.197 944.113 471.951 944.052 471.705 C 944.052 466.914 944.052 462.185 944.052 457.456 C 944.236 457.026 944.236 457.026 944.666 456.842 C 950.194 456.842 955.722 456.842 961.249 456.842 C 961.434 456.903 961.618 456.964 961.802 457.026 C 961.802 462.001 961.864 466.976 961.925 472.013 C 961.864 472.074 961.802 472.197 961.802 472.319 C 955.906 472.319 950.071 472.381 944.236 472.443 Z " fill-rule="evenodd" fill="rgb(0,0,0)"/><path d=" M 623.007 412.312 C 620.55 412.312 618.094 411.882 615.637 411.759 C 614.838 411.513 612.566 411.206 612.074 410.715 C 611.767 410.653 611.46 410.592 611.153 410.531 C 608.45 409.364 604.704 407.398 603.045 404.88 C 602.001 404.388 601.51 402.792 600.711 401.993 C 599.606 399.536 598.5 397.141 597.886 394.5 C 597.21 393.087 597.149 391.245 596.842 389.709 C 596.658 387.375 596.474 385.041 596.351 382.769 C 596.289 379.636 596.228 376.504 596.228 373.433 C 596.474 369.686 596.719 365.939 597.026 362.193 C 597.333 361.026 597.272 359.367 597.886 358.385 C 598.071 357.402 598.439 355.068 599.114 354.392 C 599.422 353.471 599.729 352.611 600.097 351.751 C 600.957 350.339 601.817 348.373 603.107 347.329 C 603.168 347.145 603.23 346.96 603.291 346.838 C 603.782 346.592 604.335 345.978 604.643 345.548 C 605.748 344.688 606.853 343.828 607.959 342.968 C 608.758 342.477 609.556 342.047 610.416 341.617 C 611.214 341.31 612.013 341.003 612.873 340.696 C 614.163 340.327 615.452 340.02 616.742 339.713 C 618.032 339.529 619.383 339.344 620.735 339.16 C 622.884 339.16 625.034 339.16 627.184 339.16 C 628.596 339.344 630.009 339.529 631.422 339.774 C 633.019 340.266 634.984 340.573 636.397 341.555 C 637.195 341.555 639.222 343.091 639.775 343.459 C 640.574 344.074 641.372 344.749 642.17 345.425 C 642.723 346.101 643.276 346.776 643.89 347.452 C 644.75 348.988 645.61 350.523 646.47 352.12 C 646.715 352.673 646.961 353.287 647.207 353.901 C 647.391 354.577 647.575 355.252 647.821 355.928 C 648.005 356.788 648.189 357.648 648.435 358.508 C 648.619 359.797 648.804 361.087 649.049 362.377 C 649.234 365.08 649.418 367.782 649.664 370.546 C 649.602 373.187 649.602 375.828 649.602 378.469 C 637.81 378.531 626.017 378.654 614.224 378.776 C 614.224 380.988 614.224 383.199 614.224 385.41 C 614.408 387.375 614.593 389.341 614.838 391.367 C 615.022 392.105 615.207 392.842 615.452 393.579 C 616.312 396.035 617.602 398.062 619.752 399.598 C 620.243 399.782 620.796 399.966 621.349 400.212 C 622.516 400.212 623.744 400.212 624.973 400.212 C 625.894 399.782 626.815 399.352 627.798 398.983 C 628.167 398.554 628.535 398.185 628.904 397.816 C 629.763 397.816 631.299 392.964 631.422 392.289 C 631.852 390.876 632.036 389.463 632.282 387.99 C 632.405 387.744 632.589 387.498 632.773 387.314 C 637.932 387.314 643.153 387.314 648.374 387.375 C 648.435 387.498 648.497 387.621 648.558 387.744 C 648.558 390.938 647.882 394.193 647.084 397.202 C 646.531 398.492 645.979 399.844 645.487 401.195 C 644.689 402.669 643.706 404.204 642.539 405.494 C 641.863 405.679 640.205 407.644 639.591 408.197 C 638.731 408.688 637.871 409.18 637.011 409.732 C 636.52 409.855 635.906 410.039 635.598 410.347 C 634.739 410.592 633.94 410.838 633.142 411.145 C 632.22 411.329 631.299 411.513 630.377 411.759 C 629.149 411.882 627.921 412.005 626.692 412.189 C 625.464 412.189 624.236 412.251 623.007 412.312 L 623.007 412.312 Z " fill-rule="evenodd" fill="rgb(0,0,0)"/><path d=" M 723.122 412.251 C 722.079 412.066 721.034 411.882 720.051 411.759 C 718.27 411.268 714.585 409.794 713.725 408.074 C 711.944 406.722 711.084 404.512 710.04 402.73 C 709.856 402.239 709.672 401.809 709.548 401.379 C 709.303 400.458 709.057 399.598 708.811 398.738 C 708.566 397.264 708.381 395.79 708.197 394.315 C 708.197 391.245 708.075 387.437 709.242 384.611 C 709.733 381.54 711.944 377.364 714.646 376.012 C 714.646 375.889 714.646 375.767 714.646 375.705 C 716.428 374.845 718.209 373.126 720.235 372.757 C 722.754 371.529 725.764 370.669 728.527 370.116 C 729.326 369.748 730.554 369.748 731.291 369.256 C 733.38 368.703 735.468 368.151 737.556 367.659 C 738.048 367.414 738.539 367.229 739.092 367.045 C 740.075 366.369 741.057 365.694 741.917 364.834 C 742.101 364.465 742.286 364.097 742.531 363.728 C 742.716 362.868 742.9 362.07 743.145 361.271 C 743.145 360.35 743.145 359.429 743.145 358.508 C 742.9 357.648 742.716 356.788 742.531 355.928 C 741.426 354.024 740.443 352.55 738.171 351.874 C 735.775 351.69 731.906 350.953 729.94 352.918 C 727.852 353.594 727.176 357.279 726.746 358.999 C 726.685 360.104 726.623 361.21 726.562 362.377 C 721.218 362.377 715.936 362.377 710.654 362.377 C 710.593 361.026 710.593 359.675 710.593 358.385 C 710.777 355.314 711.453 352.243 712.865 349.602 C 713.111 349.172 713.357 348.803 713.664 348.435 C 715.691 344.012 720.604 341.863 724.842 340.388 C 725.702 340.143 726.623 339.958 727.545 339.774 C 729.08 339.529 730.616 339.344 732.151 339.16 C 737.31 339.16 742.531 339.099 747.568 340.511 C 748.674 340.88 749.779 341.31 750.946 341.74 C 752.789 342.6 754.263 343.767 755.798 344.995 C 756.474 345.916 757.149 346.838 757.886 347.821 C 758.132 348.68 758.623 349.97 759.115 350.707 C 759.299 351.506 759.483 352.304 759.729 353.164 C 759.914 354.392 760.098 355.682 760.343 356.972 C 760.404 372.02 760.466 387.068 760.528 402.178 C 760.712 404.88 761.265 407.521 762.37 409.978 C 762.309 410.223 762.248 410.469 762.248 410.776 C 756.781 410.776 751.314 410.776 745.848 410.838 C 744.865 410.531 744.497 408.872 744.067 407.951 C 743.882 406.661 743.514 405.187 743.023 403.959 C 742.961 403.897 742.9 403.897 742.839 403.897 C 741.978 405.617 740.259 407.767 738.723 408.872 C 738.723 409.425 735.652 410.531 735.222 410.961 C 734.178 411.206 733.134 411.452 732.151 411.759 C 731.23 411.82 729.694 411.698 728.957 412.189 C 726.992 412.189 725.027 412.189 723.122 412.251 L 723.122 412.251 Z " fill-rule="evenodd" fill="rgb(0,0,0)"/><path d=" M 503.545 410.899 C 503.36 410.838 503.176 410.776 503.053 410.715 C 502.992 379.943 502.93 349.172 502.93 318.461 C 503.114 318.277 503.299 318.154 503.483 318.031 C 512.512 318.031 521.602 318.031 530.692 318.093 C 530.877 318.707 531.061 319.383 531.307 320.059 C 531.613 321.901 531.921 323.744 532.289 325.586 C 532.35 325.77 532.412 325.955 532.535 326.2 C 533.026 329.456 533.702 332.957 534.562 336.151 C 534.623 337.318 534.93 338.607 535.299 339.713 C 535.36 340.696 535.545 341.74 535.913 342.661 C 536.097 344.504 536.65 346.346 536.896 348.189 C 537.203 349.233 537.203 350.953 537.756 351.813 C 538.063 353.717 538.37 355.621 538.738 357.525 C 539.352 358.753 539.291 360.596 539.782 362.009 C 540.028 364.035 540.519 366.124 541.011 368.089 C 541.625 372.941 543.099 377.793 543.898 382.585 C 543.898 382.646 543.959 382.707 544.02 382.769 C 544.573 381.294 545.003 379.821 545.187 378.223 C 545.433 377.056 545.74 375.889 546.048 374.722 C 546.354 372.88 546.662 371.037 547.03 369.195 C 547.46 367.782 547.521 366.124 548.074 364.711 C 548.627 360.227 550.163 355.744 550.715 351.26 C 551.022 349.724 551.391 348.189 551.759 346.654 C 552.681 341.678 553.971 336.519 554.707 331.605 C 554.769 331.36 554.83 331.175 554.953 330.991 C 555.26 328.718 555.752 326.384 556.366 324.174 C 556.611 322.147 556.735 319.69 557.963 318.031 C 566.992 318.031 576.02 318.031 585.05 318.093 C 585.111 318.339 585.234 318.584 585.356 318.83 C 585.295 349.356 585.295 379.882 585.295 410.408 C 585.172 410.531 585.111 410.653 585.05 410.776 C 579.399 410.715 573.748 410.715 568.159 410.715 C 568.036 386.761 567.913 362.807 567.851 338.915 C 567.79 338.73 567.729 338.546 567.667 338.423 C 566.378 342.292 566.07 346.654 564.842 350.584 C 564.105 355.007 562.692 359.429 562.017 363.974 C 561.279 365.51 561.034 367.905 560.788 369.625 C 560.051 371.099 559.744 373.31 559.56 374.968 C 558.639 378.101 558.147 381.479 557.287 384.611 C 556.059 390.139 554.83 395.667 553.663 401.195 C 553.295 402.546 552.988 403.897 552.681 405.249 C 552.496 406.6 552.067 409.732 551.206 410.776 C 546.538 410.776 541.871 410.776 537.264 410.776 C 537.08 410.715 536.957 410.653 536.834 410.653 C 536.404 409.364 536.036 407.951 535.913 406.6 C 534.808 402.669 533.763 398.308 533.149 394.254 C 532.719 393.333 532.719 392.043 532.289 391.06 C 531.736 388.419 531.183 385.84 530.692 383.26 C 530.201 382.277 530.385 380.865 529.832 380.005 C 529.71 379.206 529.648 377.793 529.218 377.118 C 527.99 370.423 526.086 363.79 524.857 357.095 C 523.997 355.314 524.243 352.857 523.383 351.137 C 522.83 347.575 521.725 344.012 521.172 340.45 C 520.988 340.143 520.865 339.836 520.742 339.529 C 520.558 338.915 520.435 338.362 520.312 337.809 C 520.251 338.054 520.189 338.3 520.128 338.607 C 520.067 362.623 520.005 386.638 519.943 410.715 C 514.477 410.776 509.011 410.838 503.545 410.899 L 503.545 410.899 Z " fill-rule="evenodd" fill="rgb(0,0,0)"/><path d=" M 660.965 410.899 C 660.842 410.715 660.719 410.592 660.658 410.469 C 660.658 387.375 660.658 364.281 660.658 341.187 C 660.719 341.125 660.781 341.064 660.842 341.003 C 666.37 341.003 671.959 341.003 677.548 341.003 C 677.61 341.003 677.671 341.064 677.794 341.125 C 677.794 343.644 677.794 346.162 677.856 348.742 C 677.978 348.988 678.101 349.233 678.285 349.479 C 679.76 347.022 681.418 344.934 683.506 342.968 C 684.305 342.354 685.103 341.801 685.963 341.249 C 686.332 341.003 686.762 340.757 687.192 340.511 C 687.683 340.266 688.236 340.02 688.788 339.836 C 691.245 339.406 694.807 338.423 697.141 339.59 C 697.141 345.056 697.141 350.584 697.203 356.112 C 697.08 356.235 696.957 356.358 696.896 356.542 C 694.623 356.481 692.351 356.419 690.078 356.419 C 688.973 356.604 687.867 356.849 686.823 357.095 C 685.226 357.893 683.322 358.508 682.155 359.92 C 681.664 360.35 681.172 360.842 680.743 361.333 C 680.251 362.131 679.821 362.93 679.391 363.728 C 679.145 364.404 678.961 365.141 678.777 365.878 C 678.715 380.68 678.654 395.482 678.593 410.285 C 678.531 410.408 678.47 410.592 678.409 410.776 C 672.574 410.776 666.739 410.838 660.965 410.899 L 660.965 410.899 Z " fill-rule="evenodd" fill="rgb(0,0,0)"/><path d=" M 774.102 410.899 C 773.856 410.653 773.61 410.469 773.364 410.285 C 773.364 379.759 773.364 349.294 773.364 318.83 C 773.487 318.339 773.487 318.216 773.917 318.031 C 779.568 318.031 785.28 318.031 790.992 318.031 C 791.177 318.277 791.361 318.523 791.545 318.83 C 791.483 328.166 791.483 337.502 791.483 346.899 C 791.729 347.145 791.729 347.206 792.22 347.206 C 794.186 343.644 797.933 340.941 801.864 340.082 C 802.539 339.406 804.689 339.406 805.672 339.221 C 807.453 339.16 809.234 339.16 811.076 339.16 C 812.305 339.344 813.533 339.529 814.823 339.774 C 817.157 340.511 819.307 341.494 821.211 343.03 C 821.211 343.091 821.211 343.153 821.211 343.214 C 821.395 343.337 821.579 343.459 821.825 343.644 C 821.825 343.705 821.825 343.767 821.825 343.828 C 823.115 344.688 824.159 346.776 824.712 348.127 C 825.142 348.557 825.203 349.54 825.511 350.155 C 825.695 351.076 825.879 352.058 826.125 353.041 C 826.186 354.085 826.309 355.129 826.432 356.174 C 826.37 374.293 826.37 392.412 826.37 410.531 C 826.309 410.592 826.247 410.653 826.186 410.776 C 820.29 410.715 814.455 410.715 808.62 410.715 C 808.497 393.579 808.374 376.442 808.313 359.306 C 807.944 358.139 807.699 356.849 807.084 355.744 C 804.935 352.98 801.802 352.795 798.485 353.164 C 797.011 353.84 795.169 354.208 794.186 355.621 C 793.633 355.621 792.65 357.893 792.405 358.508 C 792.036 360.227 791.668 361.947 791.483 363.728 C 791.483 379.022 791.483 394.315 791.545 409.609 C 791.422 409.978 791.299 410.347 791.177 410.715 C 785.464 410.776 779.752 410.838 774.102 410.899 L 774.102 410.899 Z " fill-rule="evenodd" fill="rgb(0,0,0)"/><path d=" M 731.537 400.335 C 730.063 400.335 728.712 399.291 727.668 398.369 C 727.299 397.878 726.992 397.387 726.685 396.895 C 726.439 396.343 726.255 395.79 726.07 395.237 C 725.825 394.07 725.641 392.903 725.456 391.736 C 725.456 389.157 725.764 386.945 726.931 384.611 C 727.053 384.304 727.237 384.058 727.422 383.813 C 728.036 383.199 728.65 382.585 729.265 381.97 C 731.783 380.435 734.301 379.636 737.188 379.084 C 737.802 378.838 738.416 378.654 739.03 378.469 C 739.952 377.978 741.487 377.425 742.224 376.688 C 742.47 376.626 742.716 376.626 742.961 376.626 C 742.961 381.418 743.023 386.27 743.084 391.122 C 742.839 391.981 742.654 392.842 742.47 393.763 C 741.733 395.114 740.873 396.404 739.768 397.571 C 738.723 398.185 737.679 398.861 736.635 399.536 C 734.915 399.966 733.318 400.273 731.537 400.335 L 731.537 400.335 Z " fill-rule="evenodd" fill="rgb(255,255,255)"/><path d=" M 614.838 367.905 C 614.593 367.782 614.408 367.659 614.224 367.598 C 614.285 362.009 614.408 355.989 619.383 352.427 C 621.103 351.69 622.393 351.506 624.358 351.506 C 626.201 351.813 627.184 352.243 628.658 353.287 C 629.026 353.717 629.456 354.147 629.886 354.638 C 630.071 355.007 630.255 355.375 630.501 355.744 C 630.685 356.235 630.869 356.788 631.115 357.341 C 631.299 358.139 631.483 358.999 631.729 359.859 C 631.913 362.377 632.159 364.895 632.405 367.475 C 632.343 367.536 632.282 367.598 632.282 367.72 C 626.447 367.782 620.612 367.844 614.838 367.905 Z " fill-rule="evenodd" fill="rgb(255,255,255)"/><path d=" M 828.459 285.294 C 827.476 284.803 826.063 285.294 825.08 284.926 C 821.272 284.619 817.587 283.636 814.147 281.916 C 813.718 281.671 813.349 281.486 812.98 281.302 C 812.98 281.241 812.98 281.179 812.98 281.118 C 809.971 279.521 808.19 276.757 806.716 273.747 C 806.408 272.642 806.102 271.536 805.856 270.431 C 805.733 269.079 805.61 267.728 805.549 266.438 C 811.138 266.377 816.789 266.377 822.439 266.377 C 822.931 266.684 823.115 268.404 823.299 269.018 C 823.483 269.387 823.729 269.817 823.975 270.246 C 824.22 270.492 824.466 270.738 824.712 271.045 C 825.387 271.475 826.063 271.966 826.8 272.457 C 827.168 272.642 827.537 272.826 827.967 273.072 C 830.363 273.502 833.003 273.624 835.337 272.949 C 836.935 272.273 838.716 271.168 839.269 269.448 C 839.76 268.956 840.19 267.421 840.497 266.684 C 841.541 262.323 841.111 257.532 841.111 253.049 C 840.927 252.987 840.742 252.926 840.62 252.864 C 840.128 253.909 838.9 254.83 838.163 255.813 C 837.426 256.365 836.689 256.918 835.952 257.532 C 835.583 257.778 835.215 258.024 834.908 258.331 C 833.986 258.761 833.065 259.252 832.144 259.744 C 831.53 259.928 830.977 260.112 830.424 260.358 C 829.257 260.542 828.151 260.726 827.046 260.972 C 826.247 260.972 825.449 260.972 824.65 260.972 C 823.299 260.726 821.948 260.542 820.597 260.358 C 819.737 260.051 818.877 259.805 818.017 259.559 C 815.867 257.839 812.919 257.225 811.384 254.707 C 811.261 254.707 811.199 254.707 811.138 254.707 C 811.138 254.216 809.357 252.066 809.295 251.943 C 808.62 250.469 807.944 248.995 807.33 247.521 C 806.224 243.836 805.426 240.089 805.18 236.281 C 804.996 235.237 804.873 234.254 804.75 233.271 C 804.689 229.156 804.627 225.041 804.627 220.926 C 804.75 217.855 805.241 214.783 805.365 211.774 C 805.794 209.747 805.979 206.799 807.023 205.018 C 807.146 204.465 807.269 203.667 807.637 203.298 C 808.128 202.07 808.681 200.841 809.234 199.613 C 810.094 198.323 811.015 197.095 811.937 195.866 C 812.489 195.866 813.41 193.901 814.209 193.901 C 814.946 192.427 818.017 191.567 819.368 190.953 C 820.412 190.707 821.457 190.461 822.501 190.216 C 824.958 190.216 827.537 190.093 829.994 190.338 C 831.284 190.83 832.881 191.075 833.986 191.874 C 835.768 192.611 837.61 194.147 838.654 195.743 C 839.637 196.235 840.005 198.139 840.804 198.937 C 840.866 198.814 840.988 198.691 841.111 198.569 C 841.111 196.603 841.111 194.638 841.172 192.734 C 841.357 191.997 841.48 192.058 841.971 191.751 C 847.007 191.751 852.044 191.751 857.142 191.751 C 857.449 191.751 857.756 191.813 858.125 191.874 C 858.186 191.997 858.247 192.12 858.37 192.242 C 858.309 215.644 858.309 239.045 858.309 262.446 C 858.063 263.92 857.879 265.394 857.695 266.868 C 857.142 268.465 856.65 270.123 856.159 271.782 C 855.483 273.01 854.808 274.239 854.194 275.467 C 853.579 276.143 853.027 276.818 852.474 277.556 C 851.614 278.108 850.508 279.337 849.833 280.135 C 847.56 281.425 844.796 283.206 842.155 283.575 C 841.234 283.881 840.374 284.127 839.391 284.189 C 837.794 284.987 835.461 284.496 833.802 285.048 C 832.021 285.11 830.24 285.172 828.459 285.294 L 828.459 285.294 Z " fill-rule="evenodd" fill="rgb(0,0,0)"/><path d=" M 589.103 263.06 C 582.838 263.06 577.249 258.453 575.468 252.557 C 574.485 250.592 574.362 248.012 573.994 245.862 C 573.932 244.204 573.932 242.546 573.932 240.949 C 574.178 238.615 574.362 235.482 575.529 233.394 C 576.942 229.156 580.873 225.348 585.111 223.935 C 586.093 223.444 587.138 222.891 588.305 222.707 C 591.99 221.233 596.228 220.373 600.097 219.39 C 600.281 219.267 600.527 219.145 600.773 219.083 C 602.431 218.715 604.151 218.162 605.625 217.425 C 606.669 216.688 607.713 215.766 608.205 214.538 C 608.389 213.801 608.573 213.064 608.819 212.327 C 608.819 211.406 608.819 210.484 608.819 209.563 C 608.573 208.642 608.389 207.72 608.205 206.799 C 607.836 206.185 607.468 205.571 607.099 204.957 C 605.748 203.605 604.888 203.114 603.045 202.5 C 601.694 202.438 600.343 202.438 599.053 202.438 C 597.088 202.991 594.815 203.482 594.017 205.571 C 593.955 205.571 593.894 205.571 593.832 205.571 C 593.525 206.062 593.28 206.615 593.034 207.168 C 592.788 207.966 592.604 208.764 592.42 209.563 C 592.297 210.792 592.236 212.02 592.174 213.248 C 586.953 213.248 581.794 213.248 576.635 213.248 C 575.714 212.818 576.389 207.72 576.45 206.492 C 576.635 205.632 576.819 204.772 577.065 203.912 C 577.556 202.684 578.048 201.517 578.539 200.35 C 579.337 199.122 580.197 197.893 581.057 196.726 C 581.425 196.296 581.855 195.866 582.285 195.498 C 583.391 194.761 584.497 193.655 585.848 193.225 C 587.015 192.058 590.208 191.383 591.806 190.953 C 592.85 190.707 593.894 190.522 594.938 190.338 C 601.326 189.97 608.144 189.663 614.285 191.689 C 615.268 192.058 616.865 192.488 617.602 193.225 C 618.646 193.532 619.445 194.454 620.366 194.822 C 620.366 194.884 620.366 194.945 620.366 195.006 C 621.165 195.559 621.963 196.48 622.454 197.218 C 623.621 198.385 624.297 200.411 624.911 201.947 C 624.911 202.684 625.157 203.359 625.403 204.035 C 625.587 205.387 625.771 206.738 626.017 208.089 C 626.078 223.137 626.14 238.185 626.201 253.233 C 626.201 255.874 627.245 258.822 628.167 261.218 C 628.043 261.34 627.982 261.463 627.921 261.648 C 622.332 261.648 616.742 261.648 611.153 261.709 C 610.293 260.849 610.17 259.436 609.617 258.453 C 609.556 257.901 609.126 254.952 608.573 254.707 C 608.02 255.26 607.898 256.304 607.222 256.611 C 605.81 259.129 602.861 261.156 600.159 262.016 C 598.623 262.323 597.149 262.63 595.675 262.937 C 593.464 262.937 591.253 262.999 589.103 263.06 L 589.103 263.06 Z " fill-rule="evenodd" fill="rgb(0,0,0)"/><path d=" M 687.007 263.06 C 684.919 263.06 682.401 262.323 680.558 261.525 C 680.005 261.156 679.452 260.787 678.9 260.481 C 678.101 259.866 677.057 259.252 676.627 258.392 C 675.03 256.488 673.925 254.277 673.003 252.004 C 672.758 251.267 672.574 250.53 672.389 249.793 C 672.143 248.442 671.959 247.091 671.775 245.801 C 671.775 240.519 671.836 234.684 674.969 230.139 C 674.969 229.893 675.153 229.77 675.337 229.709 C 676.259 227.866 678.654 225.839 680.619 225.102 C 680.619 225.041 680.619 224.98 680.619 224.918 C 681.91 224.427 683.199 223.69 684.55 223.321 C 684.673 223.198 684.796 223.075 684.98 223.014 C 690.078 221.54 695.238 219.697 700.397 218.715 C 701.38 218.284 702.362 217.855 703.345 217.486 C 703.898 216.995 704.451 216.565 705.004 216.135 C 705.372 215.46 705.741 214.783 706.171 214.169 C 706.293 213.616 706.416 213.064 706.6 212.511 C 706.6 211.59 706.6 210.73 706.662 209.87 C 706.416 208.764 706.171 207.72 705.986 206.676 C 705.741 206.185 705.495 205.755 705.31 205.325 C 705.249 205.325 705.188 205.325 705.126 205.325 C 704.205 203.728 702.608 203.053 700.888 202.5 C 699.291 202.5 697.756 202.5 696.22 202.5 C 694.439 202.991 693.456 203.605 692.167 204.895 C 691.737 205.509 691.368 206.124 691 206.799 C 690.754 207.475 690.57 208.15 690.385 208.826 C 690.324 209.625 690.324 212.757 689.833 213.248 C 684.612 213.187 679.452 213.187 674.293 213.187 C 674.232 213.126 674.17 213.064 674.109 213.002 C 674.109 210.792 673.986 208.458 674.355 206.246 C 674.785 204.22 675.644 202.377 676.259 200.534 C 676.443 200.104 676.689 199.674 676.934 199.306 C 676.996 199.306 677.057 199.306 677.18 199.306 C 677.18 198.876 677.426 198.446 677.794 198.261 C 678.347 197.524 678.9 196.788 679.452 196.051 C 681.541 194.454 683.813 192.611 686.393 191.997 C 687.376 191.505 688.543 191.444 689.525 190.953 C 690.938 190.707 692.351 190.461 693.764 190.216 C 697.817 190.216 701.994 190.154 706.047 190.338 C 707.522 190.646 709.364 190.707 710.715 191.383 C 713.725 191.874 716.489 193.655 718.823 195.436 C 718.823 195.743 719.376 195.989 719.499 196.296 C 720.973 197.77 721.894 199.736 722.631 201.64 C 722.815 202.315 723 203.053 723.184 203.79 C 723.368 205.141 723.552 206.492 723.798 207.905 C 723.86 222.216 723.921 236.526 723.982 250.899 C 724.044 252.312 724.105 253.724 724.167 255.198 C 724.351 256.058 724.535 256.918 724.781 257.839 C 725.149 258.822 725.518 259.866 725.948 260.911 C 725.948 261.095 725.948 261.279 725.948 261.525 C 720.297 261.586 714.646 261.648 708.996 261.709 C 707.829 260.542 707.46 258.392 707.214 256.857 C 706.969 256.181 706.785 255.505 706.6 254.83 C 706.539 254.768 706.477 254.707 706.416 254.707 C 705.802 255.813 704.88 257.041 704.082 257.962 C 703.652 258.147 702.485 259.252 702.424 259.682 C 701.38 260.296 700.336 260.911 699.353 261.586 C 697.449 262.139 695.484 262.63 693.518 262.937 C 691.306 262.937 689.157 262.999 687.007 263.06 L 687.007 263.06 Z " fill-rule="evenodd" fill="rgb(0,0,0)"/><path d=" M 503.421 261.77 C 503.237 261.648 503.114 261.586 502.992 261.525 C 502.93 230.691 502.93 199.858 502.93 169.087 C 515.644 169.087 528.358 169.087 541.134 169.087 C 541.134 169.148 541.134 169.271 541.134 169.394 C 542.116 169.64 543.714 169.517 544.389 170.192 C 546.723 170.745 548.75 172.035 550.838 173.079 C 550.838 173.263 554.401 176.089 554.523 176.15 C 554.646 176.519 554.707 176.642 555.015 176.764 C 555.874 178.054 556.735 179.344 557.656 180.695 C 558.209 181.924 558.884 183.152 559.253 184.442 C 559.314 184.626 559.437 184.811 559.56 185.056 C 559.99 187.083 560.665 189.233 560.911 191.321 C 560.973 193.164 561.587 196.91 561.095 198.691 C 560.973 200.35 560.85 202.008 560.727 203.728 C 560.236 205.325 559.806 206.922 559.376 208.519 C 559.069 209.317 558.516 210.976 557.963 211.528 C 557.103 213.494 555.752 215.091 554.462 216.811 C 553.479 217.548 552.496 218.346 551.575 219.145 C 551.575 219.206 551.575 219.267 551.575 219.39 C 550.777 219.882 549.978 220.373 549.18 220.864 C 546.723 222.093 544.143 223.198 541.502 223.69 C 541.256 223.751 541.072 223.813 540.888 223.935 C 539.598 224.119 538.37 224.304 537.141 224.55 C 532.105 224.672 527.068 224.795 522.032 224.918 C 521.971 225.041 521.909 225.225 521.909 225.409 C 521.786 237.448 521.725 249.486 521.663 261.525 C 521.541 261.586 521.418 261.648 521.356 261.709 C 515.337 261.709 509.379 261.709 503.421 261.77 L 503.421 261.77 Z " fill-rule="evenodd" fill="rgb(0,0,0)"/><path d=" M 641.617 261.77 C 641.433 261.648 641.249 261.525 641.065 261.463 C 641.003 230.63 641.003 199.858 641.003 169.087 C 647.023 169.087 653.042 169.087 659.122 169.087 C 659.061 199.858 659.061 230.63 659.061 261.463 C 658.877 261.525 658.754 261.586 658.631 261.648 C 652.919 261.648 647.268 261.709 641.617 261.77 Z " fill-rule="evenodd" fill="rgb(0,0,0)"/><path d=" M 738.969 261.77 C 738.908 261.648 738.846 261.586 738.785 261.525 C 738.785 238.43 738.785 215.336 738.785 192.242 C 738.846 192.058 738.908 191.935 738.969 191.813 C 744.435 191.751 749.902 191.751 755.368 191.751 C 755.491 191.751 755.614 191.813 755.798 191.874 C 755.86 191.997 755.921 192.12 755.982 192.304 C 755.982 193.225 755.737 199.306 756.351 199.613 C 756.842 198.753 757.395 197.955 757.948 197.156 C 759.606 195.19 762.124 192.611 764.704 191.935 C 766.117 191.014 767.959 190.891 769.556 190.277 C 773.303 189.97 777.541 189.786 781.165 190.891 C 782.147 191.321 783.56 191.628 784.359 192.427 C 785.71 192.856 786.815 194.454 787.921 195.375 C 788.535 196.296 789.149 197.218 789.764 198.2 C 789.948 198.691 790.132 199.183 790.378 199.674 C 790.562 200.289 790.746 200.964 790.992 201.64 C 791.238 202.929 791.483 204.281 791.729 205.632 C 791.729 224.242 791.729 242.853 791.729 261.525 C 791.668 261.525 791.606 261.586 791.606 261.648 C 785.771 261.648 779.937 261.648 774.163 261.648 C 774.04 261.586 773.978 261.525 773.917 261.525 C 773.856 245.003 773.794 228.542 773.794 212.081 C 773.61 210.976 773.426 209.87 773.303 208.826 C 772.935 207.659 772.443 206.615 771.706 205.632 C 768.881 203.544 765.871 203.728 762.554 204.404 C 762.002 204.711 761.449 205.018 760.896 205.325 C 759.115 206.185 758.132 208.396 757.456 210.177 C 757.211 211.59 756.965 213.002 756.781 214.477 C 756.719 230.139 756.719 245.801 756.719 261.463 C 756.597 261.525 756.535 261.586 756.474 261.648 C 750.639 261.648 744.804 261.709 738.969 261.77 L 738.969 261.77 Z " fill-rule="evenodd" fill="rgb(0,0,0)"/><path d=" M 597.395 251.206 C 596.043 250.899 594.938 250.592 593.832 249.732 C 590.946 246.292 590.761 241.502 591.806 237.264 C 592.236 236.342 592.665 235.482 593.095 234.622 C 593.587 234.131 594.078 233.64 594.57 233.149 C 595.552 232.596 596.289 231.858 597.456 231.552 C 598.869 230.876 600.466 230.385 602.063 230.139 C 602.186 230.016 602.309 229.954 602.493 229.893 C 603.537 229.709 606.362 228.91 606.977 228.051 C 607.345 227.805 607.713 227.62 608.144 227.436 C 608.328 227.375 608.512 227.375 608.696 227.375 C 608.696 232.104 608.696 236.895 608.758 241.686 C 608.512 243.037 608.205 244.634 607.529 245.862 C 606.853 246.661 606.239 247.459 605.625 248.258 C 604.765 248.872 603.905 249.486 603.045 250.1 C 602.493 250.285 601.94 250.469 601.387 250.715 C 600.036 250.837 598.685 251.022 597.395 251.206 L 597.395 251.206 Z " fill-rule="evenodd" fill="rgb(255,255,255)"/><path d=" M 695.176 251.206 C 694.623 251.083 694.071 250.96 693.518 250.837 C 691.859 250.039 690.324 248.749 689.955 246.845 C 688.911 244.757 689.034 242.239 689.034 239.905 C 689.157 239.045 689.341 238.185 689.525 237.325 C 689.71 236.834 689.894 236.342 690.14 235.912 C 691.061 234.438 691.859 233.455 693.272 232.473 C 694.685 231.858 696.159 231.244 697.633 230.63 C 699.107 230.2 700.581 229.832 702.055 229.463 C 702.976 228.787 705.495 227.375 706.539 227.375 C 706.539 232.043 706.6 236.772 706.662 241.502 C 706.416 242.423 706.232 243.344 706.047 244.327 C 705.618 245.125 705.188 245.924 704.819 246.784 C 704.451 247.029 704.205 247.152 704.205 247.644 C 704.082 247.644 704.021 247.644 703.959 247.644 C 703.038 249.056 700.827 250.1 699.291 250.715 C 697.879 250.837 696.527 251.022 695.176 251.206 L 695.176 251.206 Z " fill-rule="evenodd" fill="rgb(255,255,255)"/><path d=" M 830.117 247.029 C 828.888 246.661 827.537 246.231 826.678 245.248 C 825.511 244.695 824.466 242.177 823.975 241.133 C 823.729 240.15 823.483 239.229 823.238 238.308 C 822.992 236.649 822.808 234.991 822.624 233.394 C 822.624 229.218 822.624 225.102 822.624 220.987 C 822.808 219.636 822.562 217.916 823.054 216.688 C 823.238 213.126 823.791 209.44 825.817 206.369 C 826.247 205.939 826.678 205.509 827.107 205.141 C 827.599 204.834 828.151 204.588 828.704 204.342 C 830.915 203.974 832.574 203.728 834.785 204.342 C 835.461 204.772 836.198 205.202 836.935 205.693 C 837.426 206.308 837.917 206.922 838.409 207.536 C 838.593 207.966 838.777 208.396 839.023 208.887 C 839.207 209.502 839.391 210.116 839.637 210.73 C 839.821 211.59 840.005 212.45 840.251 213.31 C 840.497 215.889 840.927 218.469 841.05 221.049 C 841.05 224.488 841.05 227.928 841.05 231.429 C 840.742 233.64 840.497 235.851 840.251 238.123 C 840.067 238.43 839.944 238.738 839.821 239.106 C 839.699 240.027 839.269 241.01 839.023 241.87 C 838.286 242.914 837.549 243.958 836.812 245.003 C 836.198 245.432 835.645 245.862 835.092 246.292 C 834.355 246.477 833.618 246.661 832.942 246.907 C 831.96 246.907 831.038 246.968 830.117 247.029 Z " fill-rule="evenodd" fill="rgb(255,255,255)"/><path d=" M 522.277 210.976 C 522.093 210.792 521.971 210.607 521.848 210.484 C 521.848 201.456 521.848 192.427 521.848 183.398 C 521.971 183.275 522.093 183.152 522.216 183.029 C 525.963 183.029 529.955 182.845 533.641 183.214 C 534.316 183.398 535.053 183.582 535.79 183.828 C 536.159 184.012 536.589 184.196 537.018 184.442 C 537.633 184.933 538.308 185.425 538.984 185.978 C 539.414 186.592 539.905 187.206 540.397 187.882 C 540.642 188.557 540.888 189.233 541.195 189.97 C 542.485 192.55 542.362 196.051 542.362 198.876 C 542.116 200.043 541.932 201.271 541.748 202.5 C 541.502 203.175 541.256 203.851 541.011 204.588 C 540.397 205.448 539.782 206.369 539.168 207.291 C 538.124 208.212 536.834 209.133 535.606 209.809 C 534.684 210.054 533.763 210.3 532.903 210.546 C 529.341 210.668 525.778 210.792 522.277 210.976 L 522.277 210.976 Z " fill-rule="evenodd" fill="rgb(255,255,255)"/><path d=" M 159.418 222.68 L 246.481 222.683 L 246.481 309.58 L 333.377 309.58 L 333.377 396.643 L 246.481 396.643 L 246.481 483.539 L 159.418 483.539 L 159.418 396.643 L 72.519 396.643 L 72.521 309.58 L 159.418 309.58 L 159.418 222.68 Z " fill-rule="evenodd" fill="none"/><path d=" M 159.418 222.68 L 246.481 222.683 L 246.481 309.58 L 333.377 309.58 L 333.377 396.643 L 246.481 396.643 L 246.481 483.539 L 159.418 483.539 L 159.418 396.643 L 72.519 396.643 L 72.521 309.58 L 159.418 309.58 L 159.418 222.68 Z " fill-rule="evenodd" fill="none"/></g></g></g></svg>